<?xml version="1.0" encoding="utf-8"?>
<!-- Generator: Adobe Illustrator 27.0.0, SVG Export Plug-In . SVG Version: 6.00 Build 0)  -->
<svg version="1.1" id="Layer_1" xmlns="http://www.w3.org/2000/svg" xmlns:xlink="http://www.w3.org/1999/xlink" x="0px" y="0px"
	 viewBox="0 0 20 20" style="enable-background:new 0 0 20 20;" xml:space="preserve">
<style type="text/css">
	.st0{fill:#FEFEFE;}
	.st1{fill:#0179C1;}
	.st2{fill:#067BC3;}
	.st3{fill:#009D46;}
	.st4{fill:#FDFDFE;}
	.st5{fill:#FDFEFE;}
	.st6{fill:#0178C1;}
	.st7{fill:#34AD41;}
	.st8{fill:#40B03F;}
	.st9{fill:#3AAF40;}
	.st10{fill:#2CAA41;}
	.st11{fill:#61BA3C;}
	.st12{fill:#37AD40;}
	.st13{fill:#1BA543;}
	.st14{fill:#72BF3A;}
	.st15{fill:#5CB93D;}
	.st16{fill:#30AB41;}
	.st17{fill:#5CB83C;}
	.st18{fill:#68BC3B;}
	.st19{fill:#0AA045;}
	.st20{fill:#5AABDB;}
	.st21{fill:#58B73D;}
	.st22{fill:#32AC41;}
	.st23{fill:#1FA643;}
	.st24{fill:#31AB41;}
	.st25{fill:#1AA543;}
	.st26{fill:#5CB83D;}
	.st27{fill:#65BB3C;}
	.st28{fill:#87C538;}
	.st29{fill:#7CC239;}
	.st30{fill:#50B53E;}
	.st31{fill:#4DA3D7;}
	.st32{fill:#FCFCFC;}
	.st33{fill:#2DAA41;}
	.st34{fill:#64BB3C;}
	.st35{fill:#77C03A;}
	.st36{fill:#73B8E2;}
	.st37{fill:#20A643;}
	.st38{fill:#60AEDC;}
	.st39{fill:#44B13F;}
	.st40{fill:#73BF3A;}
	.st41{fill:#0B7EC3;}
	.st42{fill:#38AE40;}
	.st43{fill:#57B73D;}
	.st44{fill:#24A842;}
	.st45{fill:#15A343;}
	.st46{fill:#52A6D9;}
	.st47{fill:#83C439;}
	.st48{fill:#3FB03F;}
	.st49{fill:#1C88C9;}
	.st50{fill:#28A942;}
	.st51{fill:#27A942;}
	.st52{fill:#2D92CE;}
	.st53{fill:#1685C7;}
	.st54{fill:#46B23F;}
	.st55{fill:#65B0DE;}
	.st56{fill:#48B23F;}
	.st57{fill:#3AAE40;}
	.st58{fill:#6DBE3B;}
	.st59{fill:#2BAA41;}
	.st60{fill:#54B63D;}
	.st61{fill:#4AB33E;}
	.st62{fill:#0EA144;}
	.st63{fill:#077CC3;}
	.st64{fill:#14A344;}
	.st65{fill:#7ABCE4;}
	.st66{fill:#6FB6E0;}
	.st67{fill:#3DAF3F;}
	.st68{fill:#65B1DE;}
	.st69{fill:#019C45;}
	.st70{fill:#56B63D;}
	.st71{fill:#09A045;}
	.st72{fill:#459FD4;}
	.st73{fill:#12A244;}
	.st74{fill:#35AD40;}
	.st75{fill:#64B0DD;}
	.st76{fill:#61AEDD;}
	.st77{fill:#2CAA42;}
	.st78{fill:#11A244;}
	.st79{fill:#19A443;}
	.st80{fill:#6EB5E0;}
	.st81{fill:#4BB33E;}
	.st82{fill:#0D7FC4;}
	.st83{fill:#0379C1;}
	.st84{fill:#3BAE3F;}
	.st85{fill:#77BBE3;}
	.st86{fill:#7BBDE4;}
	.st87{fill:#16A443;}
	.st88{fill:#1CA543;}
	.st89{fill:#019D45;}
	.st90{fill:#6BB3DF;}
	.st91{fill:#439ED4;}
	.st92{fill:#7DC138;}
	.st93{fill:#47B23E;}
	.st94{fill:#0478C0;}
	.st95{fill:#449ED4;}
	.st96{fill:#5BABDB;}
	.st97{fill:#8AC5E9;}
	.st98{fill:#0EA145;}
	.st99{fill:#1A87C8;}
	.st100{fill:#3D9AD2;}
	.st101{fill:#3293CE;}
	.st102{fill:#F9F9F9;}
	.st103{fill:#46B13E;}
	.st104{fill:#59AADA;}
	.st105{fill:#7EBFE5;}
	.st106{fill:#1584C7;}
	.st107{fill:#35AC40;}
	.st108{fill:#0FA144;}
	.st109{fill:#85C3E7;}
	.st110{fill:#3C9AD2;}
	.st111{fill:#5CABDB;}
	.st112{fill:#58B73C;}
	.st113{fill:#60ADDC;}
	.st114{fill:#1181C5;}
	.st115{fill:#3897D1;}
	.st116{fill:#059E45;}
	.st117{fill:#53A6D9;}
	.st118{fill:#20A542;}
	.st119{fill:#3EAF3F;}
	.st120{fill:#0178BF;}
	.st121{fill:#33AB40;}
	.st122{fill:#80C0E6;}
	.st123{fill:#059E44;}
	.st124{fill:#6AB3DF;}
	.st125{fill:#15A344;}
	.st126{fill:#77BAE3;}
	.st127{fill:#91C9EA;}
	.st128{fill:#8CC6E9;}
	.st129{fill:#48B23E;}
	.st130{fill:#48A1D5;}
	.st131{fill:#90C8EA;}
	.st132{fill:#A2D2ED;}
	.st133{fill:#32AB41;}
	.st134{fill:#88C4E8;}
	.st135{fill:#9FCFEC;}
	.st136{fill:#96CBEC;}
	.st137{fill:#83C1E6;}
	.st138{fill:#3C99D2;}
	.st139{fill:#1AA442;}
	.st140{fill:#57A8D9;}
	.st141{fill:#8CC6E8;}
	.st142{fill:#42AF3E;}
	.st143{fill:#94C9E9;}
	.st144{fill:#238CCB;}
	.st145{fill:#1E8AC9;}
	.st146{fill:#5DB73C;}
	.st147{fill:#4DB33D;}
	.st148{fill:#1EA442;}
	.st149{fill:#3494CF;}
	.st150{fill:#067CC3;}
	.st151{fill:#077BC1;}
	.st152{fill:#8AC5E8;}
	.st153{fill:#288FCC;}
	.st154{fill:#9BCDEB;}
	.st155{fill:#2E92CD;}
	.st156{fill:#2F92CE;}
	.st157{fill:#3394CF;}
	.st158{fill:#2BA944;}
	.st159{fill:#97CCEC;}
	.st160{fill:#24A742;}
	.st161{fill:#298ECC;}
	.st162{fill:#469FD3;}
	.st163{fill:#9BCEED;}
	.st164{fill:#18A345;}
	.st165{fill:#4FB33D;}
	.st166{fill:#0C7FC2;}
	.st167{fill:#8FC7E9;}
	.st168{fill:#0F80C4;}
	.st169{fill:#49A1D5;}
	.st170{fill:#1080C3;}
	.st171{fill:#1FA544;}
	.st172{fill:#5CB83F;}
	.st173{fill:#49B03E;}
	.st174{fill:#0177BF;}
	.st175{fill:#25A540;}
	.st176{fill:#69B1DB;}
	.st177{fill:#0E7FC2;}
	.st178{fill:#4AAF3C;}
	.st179{fill:#248CCA;}
	.st180{fill:#3FAB42;}
	.st181{fill:#6DBD3B;}
	.st182{fill:#1180C2;}
	.st183{fill:#2BA03D;}
	.st184{fill:#1583C5;}
	.st185{fill:#66A8CF;}
	.st186{fill:#70B0D7;}
	.st187{fill:#65C33E;}
	.st188{fill:#68B0D6;}
	.st189{fill:#91C8E9;}
	.st190{fill:#017DC8;}
	.st191{fill:#9CCEEC;}
	.st192{fill:#898989;}
	.st193{fill:#54AA3A;}
	.st194{fill:#0774B2;}
	.st195{fill:#B0B0B0;}
	.st196{fill:#A2BDCD;}
	.st197{fill:#27A841;}
	.st198{fill:#2684BD;}
	.st199{fill:#66BB3B;}
	.st200{fill:#26A842;}
	.st201{fill:#0D9F44;}
	.st202{fill:#1C88C8;}
	.st203{fill:#0C73B1;}
	.st204{fill:#00446E;}
	.st205{fill:#757575;}
	.st206{fill:#0080CF;}
	.st207{fill:#2DAB45;}
	.st208{fill:#0E80C4;}
	.st209{fill:#059F45;}
	.st210{fill:#5FADDC;}
	.st211{fill:#6BB3DD;}
	.st212{fill:#6EBE3B;}
	.st213{fill:#6BBD3B;}
	.st214{fill:#53A7D9;}
	.st215{fill:#4EA4D7;}
	.st216{fill:#69BC3B;}
	.st217{fill:#4DA4D7;}
	.st218{fill:#8AC638;}
	.st219{fill:#4CB43E;}
	.st220{fill:#70BF3B;}
	.st221{fill:#6CBD3B;}
	.st222{fill:#56A9DA;}
	.st223{fill:#288FCD;}
	.st224{fill:#09A23C;}
	.st225{fill:#409DCB;}
	.st226{fill:#69B2DE;}
	.st227{fill:#1182C6;}
	.st228{fill:#7CBDE4;}
	.st229{fill:#80C0E5;}
	.st230{fill:#099E3D;}
	.st231{fill:#0A9E34;}
	.st232{fill:#1584C6;}
	.st233{fill:#83C2E7;}
	.st234{fill:#6FBE3C;}
	.st235{fill:#84C2E7;}
	.st236{fill:#248CCB;}
	.st237{fill:#49A1D6;}
	.st238{fill:#419CD4;}
	.st239{fill:#70BE3B;}
	.st240{fill:#25AA38;}
</style>
<g>
	<path class="st0" d="M10,20c-3.3,0-6.6,0-9.9,0C0,20,0,20,0,19.9C0,13.3,0,6.7,0,0.1C0,0,0,0,0.1,0c6.6,0,13.2,0,19.8,0
		c0.1,0,0.1,0,0.1,0.1c0,6.6,0,13.2,0,19.7c0,0.1,0,0.1-0.1,0.1C16.6,20,13.3,20,10,20z"/>
	<path d="M8.4,2.4C8.3,2.2,8.2,2.1,8.2,2c0-0.2,0.1-0.3,0.3-0.3c0.3,0,0.6-0.1,1-0.1c2.6-0.2,5,0.3,7.1,2c1.5,1.2,2.3,2.8,2.7,4.7
		c0.5,2.5-0.1,4.7-1.3,6.9c-0.7,1.2-1.6,2.3-2.8,3c-1.4,0.8-2.9,1.3-4.5,1.3c-1.4,0-2.7-0.1-4-0.6c-1.7-0.6-3.1-1.6-4.2-3.1
		c-1.6-2.1-2.1-4.5-1.8-7c0.4-3,1.9-5.3,4.5-6.8c1.7-1.1,3.6-1.5,5.7-1.3c0.1,0,0.3,0,0.3,0.1c0,0.1-0.2,0.1-0.3,0.1
		c-1.5,0-3,0.3-4.3,0.9C6.1,2,6.2,1.9,6.2,2.4c0,0.2,0,0.5,0.1,0.7c0,0,0,0,0,0c0,0.1,0,0.1,0,0.2c0,0,0,0,0,0.1c0,0.1,0,0.2,0,0.3
		c0,0.1,0,0.1,0,0.2c0,0.1,0,0.2,0.1,0.3c0,0.1,0,0.2,0,0.2c0,0.2,0,0.2,0.2,0.1c0.3-0.1,0.7-0.2,1-0.3c0.2,0,0.3-0.1,0.5-0.1
		c0.1,0,0.1,0,0.2,0C8.5,4,8.7,4,8.9,3.9c0.1,0,0.1,0,0.2,0c0.1,0,0.2,0,0.4-0.1c0,0,0,0,0,0c0.1,0,0.3,0,0.5-0.1
		C9.8,3.7,9.8,3.6,9.7,3.5c-0.3-0.4-0.8-0.7-1.1-1C8.5,2.5,8.4,2.4,8.4,2.4z"/>
	<path class="st1" d="M8.4,2.4c0.5,0.3,0.9,0.7,1.3,1.1c0,0.1,0.1,0.1,0.1,0.2c0,0,0.1,0.1,0,0.1c0,0-0.1,0-0.1,0
		c-0.1,0-0.1,0-0.2-0.1C9.3,3.5,9,3.5,8.8,3.4c-0.1-0.1-0.3,0-0.4-0.1C8,3.2,7.6,3.2,7.2,3.2c-0.2,0-0.4,0-0.6,0.1
		c-0.1,0-0.2,0-0.3,0c-0.1,0-0.1,0-0.1-0.1c0-0.1,0-0.1,0.1-0.1c0.1,0,0.1,0,0.2-0.1c0.5-0.3,1.1-0.5,1.7-0.6
		C8.3,2.4,8.3,2.4,8.4,2.4z"/>
	<path class="st2" d="M6.5,3c0,0.1-0.1,0.1-0.2,0.1c0,0-0.1,0-0.1,0.1c0,0.1,0.1,0.1,0.1,0c0.1,0,0.3,0,0.4-0.1c0,0,0,0,0,0
		c0.4,0,0.8-0.1,1.3,0c0.1,0,0.3,0.1,0.4,0.1c0.2,0,0.3,0.1,0.4,0.1c0.2,0.1,0.5,0.1,0.7,0.2c0.1,0,0.2,0,0.2,0.1
		c0-0.1-0.1-0.1-0.1-0.1c0,0-0.1-0.1,0-0.1C9.8,3.6,9.9,3.7,10,3.8c-0.2,0-0.4,0.1-0.6,0.1c0-0.1,0.1,0,0.2-0.1
		c-0.2,0-0.3-0.1-0.5-0.1C8.8,3.5,8.3,3.4,7.9,3.4c-0.5-0.1-1,0-1.5,0c-0.1,0-0.2,0-0.2-0.1c0-0.1,0-0.1,0-0.2l0,0c0,0,0,0,0,0
		C6.3,3.1,6.4,3,6.5,3z"/>
	<path class="st1" d="M13.3,15.1c-0.8,0.1-1.6,0.3-2.3,0.5c-0.1,0-0.1,0-0.2,0c-0.4-0.6-0.8-1.1-1.1-1.7c0-0.1,0-0.2,0.1-0.2
		c0.6-0.3,1-0.6,1.5-1.1c0.2-0.2,0.4-0.4,0.5-0.6c0,0,0,0,0,0c0,0,0.1,0,0.1,0c-0.1,0-0.1,0-0.2,0c-0.1,0-0.1,0-0.2,0c0,0,0,0,0,0
		c0.5-0.1,0.9-0.2,1.4-0.2c0,0,0,0,0.1,0c0.1,0.2,0.3,0.4,0.5,0.6c0,0.1,0.1,0.1,0.1,0.2c0,0.1,0.1,0.2,0,0.3c0,0.1,0,0.1,0,0.2
		c-0.1,0.2-0.1,0.4-0.1,0.6c0,0.1,0,0.1,0,0.2c0,0.2-0.1,0.5-0.1,0.7C13.3,14.8,13.4,15,13.3,15.1c0,0-0.1-0.1-0.2,0
		C13.2,15.1,13.2,15.1,13.3,15.1C13.3,15.1,13.3,15.1,13.3,15.1z"/>
	<path class="st0" d="M7.5,17.9C7.5,18,7.4,18,7.3,18.1c-0.2,0.2-0.2,0.2-0.5,0.1c-2.7-1.1-4.5-3-5.2-5.9c-0.3-1.2-0.4-2.4-0.3-3.6
		c0-0.1,0-0.2,0.1-0.1c0.1,0,0.2,0,0.2-0.1C1.8,8.4,2,8.3,2.1,8.1c0.1-0.1,0.1,0,0.1,0.1c0,0.1,0,0.2,0,0.3C2.1,9,2,9.5,2,10
		c0,0.5,0,0.9,0.1,1.4c0,0.1,0,0.1,0,0.2C2,11.7,1.9,11.8,1.9,12c0,0.2,0.1,0.3,0.3,0.3c0.1,0,0.1,0.1,0.1,0.1c0.3,1,0.8,2,1.5,2.8
		c0.1,0.1,0.1,0.1,0.1,0.2c-0.1,0.3-0.1,0.3,0.2,0.3c0,0,0.1,0,0.1,0c0.2,0.1,0.4,0.3,0.5,0.5c0.6,0.5,1.2,0.9,1.9,1.2
		c0.2,0.1,0.5,0.2,0.8,0.3C7.4,17.8,7.5,17.8,7.5,17.9z"/>
	<path class="st0" d="M17.9,8.8C17.9,8.8,17.9,8.9,17.9,8.8c0.2,0,0.3,0.1,0.3,0c0-0.1-0.1-0.2-0.1-0.2c-0.1-0.1-0.2-0.1-0.3-0.2
		c-0.1-0.3-0.2-0.6-0.3-0.8c-0.1-0.2-0.2-0.5-0.3-0.7c0,0,0-0.1,0-0.1c0,0,0-0.1-0.1-0.1c0,0-0.1-0.1-0.1-0.2
		c-0.1-0.1-0.1-0.2-0.2-0.4c-0.1-0.3-0.4-0.6-0.6-0.8c0-0.1-0.1-0.1-0.2-0.2C16,5,15.9,5,16,4.9C16.3,5,16.7,5.2,17,5.3
		c0.1,0,0.1,0.1,0.2,0.2c0.7,0.8,1.1,1.9,1.3,2.9c0.3,1.5,0.2,3-0.2,4.5c-0.1,0.5-0.3,1-0.5,1.4c-0.1-0.1,0-0.1,0-0.2
		c0-0.4,0-0.9,0.1-1.3c0-0.1,0-0.1,0.1-0.2c0,0,0.1,0,0.1-0.1c0.1-0.1,0.1-0.2,0-0.3c-0.1-0.1-0.2-0.1-0.3-0.2c0-0.3,0-0.5,0.1-0.8
		c0.1-0.4,0.1-0.9,0.1-1.4c0-0.3,0-0.6-0.1-0.8C17.8,9,17.8,8.9,17.9,8.8z"/>
	<path class="st1" d="M15.1,4.1c-0.2,0-0.3-0.1-0.4-0.2c-0.2-0.2-0.3-0.3-0.5-0.4c-0.1,0-0.1-0.1-0.2-0.1c-0.1,0-0.2,0.1-0.1,0.2
		c0.1,0.1,0.1,0.2,0.2,0.2c0,0.1,0,0.1-0.1,0C13,3.7,12,3.7,11,3.7c-0.1,0-0.2,0-0.3-0.1c-0.4-0.5-0.8-0.9-1.3-1.4
		c0-0.1,0.1-0.1,0.2-0.1c2-0.1,3.7,0.5,5.3,1.7C15,3.9,15.1,4,15.1,4.1z"/>
	<path class="st0" d="M2.7,6.7c0-0.5-0.1-0.9-0.1-1.4c0-0.1,0-0.1,0.1-0.2C3.5,4,4.4,3,5.6,2.3c0.2-0.1,0.2-0.1,0.2,0.1
		c0,0.3,0,0.5,0.1,0.8c0,0.1,0,0.2,0,0.2C5.5,3.6,5.2,3.8,4.9,4c0,0-0.1,0.1-0.1,0.1C4.7,4.2,4.6,4.3,4.5,4.5
		C4.4,4.5,4.3,4.6,4.2,4.7C4.2,4.8,4.1,4.8,4,4.9C4,5,3.9,5,3.9,5.1C3.8,5.2,3.7,5.2,3.7,5.3C3.4,5.7,3.2,6.1,2.9,6.5
		c0,0.1-0.1,0.1-0.1,0.2C2.8,6.7,2.8,6.7,2.7,6.7C2.7,6.8,2.7,6.7,2.7,6.7z"/>
	<path class="st1" d="M12.4,17.9c-0.4-0.5-0.7-0.9-1.1-1.5c-0.1-0.1-0.1-0.2,0.1-0.2c0.7-0.2,1.4-0.4,2.1-0.5
		c0.1,0.1,0.1,0.2,0.2,0.3c0.1,0.3,0.3,0.6,0.5,0.8c0,0,0.1,0.1,0.1,0.1c0,0.1-0.1,0.1-0.1,0.1C13.6,17.4,13,17.7,12.4,17.9
		C12.5,17.9,12.4,17.9,12.4,17.9z"/>
	<path class="st1" d="M9.1,18.2c-0.2-0.1-0.3-0.2-0.5-0.4c-0.1-0.1-0.1-0.1,0-0.1c0.6-0.5,1.2-0.8,1.9-1.1c0.1-0.1,0.1,0,0.2,0.1
		c0.3,0.5,0.7,0.9,1,1.4c0,0.1-0.1,0.1-0.2,0.1c-0.5,0.1-1,0.1-1.5,0.2c-0.2,0-0.4,0-0.7,0C9.3,18.2,9.2,18.2,9.1,18.2z"/>
	<path class="st0" d="M15.1,4.1c-0.6-0.5-1.2-0.9-1.9-1.2C12,2.4,10.7,2.1,9.4,2.2C9.3,2.1,9.2,2,9,1.9c0,0,0,0,0.1,0
		c2.1-0.1,4,0.3,5.8,1.4C15.5,3.6,16,4,16.5,4.5c0,0,0,0.1,0,0C16,4.4,15.5,4.2,15.1,4.1z"/>
	<path class="st1" d="M3.9,15.5c-0.8-0.9-1.3-1.8-1.6-2.9c0-0.1,0-0.1-0.1-0.2c0.2,0,0.3-0.2,0.5-0.3C2.8,12,2.8,12,2.9,11.9
		c0,0.2,0.1,0.3,0.2,0.4c0.1,0.1,0.2,0.2,0.2,0.3c0,0.1,0,0.1,0,0.2c0,0.1-0.1,0.2-0.1,0.3c0,0.5,0.2,0.8,0.5,1.1
		c0.2,0.2,0.4,0.3,0.6,0.4c0.1,0,0.1,0.1,0.2,0.1c0.1,0.1,0.1,0.2,0,0.3C4.3,15,4.1,15.3,3.9,15.5z"/>
	<path class="st1" d="M9.1,14.2c0.4,0.6,0.7,1.2,1.1,1.7c0,0.1,0.1,0.1,0,0.1c-0.6,0.3-1.1,0.7-1.7,1c-0.1,0-0.1-0.1-0.1-0.2
		c0-0.2,0-0.3,0-0.5c0-0.2,0-0.4,0.1-0.7c0-0.1,0-0.2,0.1-0.3c0,0,0-0.1,0-0.1c0-0.1,0.1-0.2,0.1-0.3c0-0.1,0.1-0.1,0.1-0.2
		c0-0.1,0.1-0.3,0.1-0.4C8.9,14.4,9,14.3,9.1,14.2C9,14.2,9,14.2,9.1,14.2z"/>
	<path class="st3" d="M16.2,15.4c-0.4-0.1-0.7-0.2-1.1-0.2c-0.1,0-0.2-0.1-0.2-0.2c0-0.3,0-0.6-0.1-0.9c0.1,0,0.1,0.1,0.1,0.1
		c0,0,0,0.1,0,0.1c0-0.1,0.1-0.2,0.2-0.2c0.3-0.2,0.6-0.4,0.9-0.6c0.1-0.1,0.2-0.1,0.2-0.2c0-0.1,0.1-0.1,0.1,0c0,0.4,0,0.8,0,1.3
		c0,0.2,0,0.4,0,0.6C16.3,15.2,16.2,15.3,16.2,15.4z"/>
	<path class="st1" d="M16.3,15.1c0.1-0.5,0-1,0-1.4c0-0.2,0-0.3,0-0.5c0-0.1,0-0.2,0-0.3c0-0.2,0.1-0.4,0.2-0.5c0,0,0-0.1,0.1-0.1
		c0.2,0,0.3,0.1,0.5,0.2c0,0-0.1,0-0.1,0c0.1,0,0.2,0.1,0.3,0.1c0.1,0,0.1,0.1,0.1,0.1c0,0.2,0,0.4,0,0.6c-0.2,0.7-0.6,1.3-1.1,1.9
		C16.4,15.1,16.4,15.2,16.3,15.1z"/>
	<path class="st1" d="M6.6,17.5c-0.6-0.2-1.1-0.6-1.6-1c-0.3-0.2-0.6-0.5-0.8-0.7c0.3,0,0.5-0.3,0.8-0.5c0.1,0,0.1-0.1,0.2,0
		c0.3,0.4,0.7,0.8,1.1,1.2C6.4,16.8,6.4,17.1,6.6,17.5C6.6,17.4,6.6,17.4,6.6,17.5z"/>
	<path class="st0" d="M15.8,15.7c0.3,0,0.6,0.1,1,0.1c-0.5,0.7-1.2,1.1-1.9,1.6c0-0.3,0-0.6,0-0.9c0.1-0.1,0.2-0.2,0.3-0.3
		C15.4,16.1,15.5,15.9,15.8,15.7z"/>
	<path class="st4" d="M16.3,15.1c0.5-0.5,0.8-1.1,1.1-1.8c0-0.1,0-0.1,0.1-0.2c0,0.6,0,1.2-0.1,1.7c0,0.3-0.2,0.5-0.4,0.6
		c0,0.1-0.1,0-0.1,0c-0.2-0.1-0.5-0.1-0.7-0.2C16.2,15.3,16.3,15.2,16.3,15.1z"/>
	<path class="st5" d="M9.3,18.2c0.8,0.1,1.6,0,2.4-0.2c0.1,0.2,0.3,0.3,0.4,0.5c-0.3,0.1-0.6,0.1-0.8,0.1c-0.2,0-0.5,0-0.7,0.1
		c-0.6,0.1-1-0.2-1.4-0.5C9.2,18.2,9.3,18.2,9.3,18.2z"/>
	<path class="st5" d="M12.4,17.9c0.1-0.1,0.2-0.1,0.2-0.1c0.5-0.2,1-0.4,1.5-0.7c0-0.1,0.1-0.1,0.2-0.1c0,0.2,0,0.5,0,0.7
		c0,0.1,0,0.1-0.1,0.2c-0.4,0.2-0.8,0.4-1.3,0.6c-0.1,0-0.1,0-0.2,0C12.7,18.2,12.5,18,12.4,17.9z"/>
	<path class="st6" d="M12.2,5.7c-0.3-0.4-0.6-0.9-0.9-1.3c0-0.1,0-0.1,0.1-0.1c0.6,0,1.3,0,1.9,0.1c0.1,0.1,0,0.1-0.1,0.1
		c-0.4,0.2-0.6,0.6-0.9,1C12.3,5.5,12.3,5.6,12.2,5.7z"/>
	<path class="st7" d="M14.2,11.1c-0.1-0.2-0.1-0.4-0.1-0.5c0.1,0,0.1,0.1,0.1,0.2c0-0.1,0-0.1,0.1-0.2c0.5-0.4,0.9-0.8,1.3-1.3
		c0.2-0.3,0.5-0.6,0.6-1c0.2,0,0.4,0.1,0.6,0.2c0,0,0.1,0.1,0,0.1c-0.2-0.1-0.2-0.1-0.3,0.1c-0.5,0.8-1.1,1.6-1.9,2.2
		c-0.1,0-0.1,0.1-0.1,0.2C14.4,11.2,14.3,11.1,14.2,11.1z"/>
	<path class="st8" d="M6,4.5c0,0.1,0,0.1,0,0.2c0,0.1,0,0.1-0.1,0.2C5.1,5.3,4.3,5.8,3.5,6.3c0,0-0.1,0-0.1,0.1
		c-0.1,0-0.1,0-0.1-0.1c0.4-0.5,0.8-1,1.4-1.3C5,4.8,5.2,4.7,5.4,4.7c0.2-0.1,0.4-0.1,0.5-0.3C6,4.4,5.9,4.5,6,4.5z"/>
	<path class="st9" d="M16.2,8.3c0,0.1-0.1,0.3-0.1,0.4c-0.3,0.5-0.7,1-1.2,1.5c-0.2,0.2-0.4,0.3-0.5,0.5c-0.1,0.1-0.2,0.1-0.1,0.3
		c-0.1-0.1-0.1-0.2-0.2-0.3c0,0,0,0,0,0c0-0.2,0.1-0.3,0.2-0.4c0.6-0.5,1.1-1,1.5-1.7c0-0.1,0.1-0.1,0.2-0.2c0,0-0.1,0-0.1-0.1
		C15.9,8.2,16.1,8.3,16.2,8.3z"/>
	<path class="st10" d="M16.8,8.6C16.9,8.6,16.8,8.6,16.8,8.6C16.9,8.6,16.9,8.6,16.8,8.6c0.2,0.3,0.2,0.5,0,0.7
		c-0.4,0.6-0.9,1.2-1.5,1.7c0,0-0.1,0-0.1,0.1c0,0-0.1,0.1,0,0.1c0,0,0,0-0.1,0c-0.1,0-0.1,0-0.2,0c-0.1-0.1-0.2,0-0.3,0
		c-0.1,0-0.1,0-0.2,0c0,0,0,0,0,0c0,0,0.1,0,0.1,0c0.1-0.3,0.4-0.4,0.6-0.6c0.6-0.5,1-1.1,1.4-1.8C16.7,8.7,16.7,8.6,16.8,8.6z"/>
	<path class="st11" d="M12.7,8.4c0,0,0,0.1,0,0.1c0,0.1,0.1,0.2,0.1,0.3c0,0.1-0.2,0.1-0.2,0.1c-0.5,0.4-1.1,0.6-1.7,0.8
		c-0.2,0-0.4,0.1-0.6,0.1c-0.2,0-0.3,0.1-0.4,0.1c0,0,0-0.1-0.1-0.2c0-0.1,0-0.1,0-0.2c0,0,0-0.1,0-0.1c0.8,0,1.5-0.3,2.1-0.6
		c0.2-0.1,0.3-0.2,0.4-0.3C12.5,8.5,12.6,8.4,12.7,8.4z"/>
	<path class="st12" d="M6,4.5c-0.1,0,0-0.1-0.1-0.1c0,0.2-0.2,0.1-0.3,0.2C4.9,4.9,4.3,5.3,3.8,5.8C3.6,6,3.6,6.2,3.4,6.3
		c0,0,0,0,0.1,0C3.3,6.5,3.1,6.6,2.9,6.7c-0.1,0-0.1,0,0-0.1c0.2-0.4,0.4-0.8,0.7-1c0.2-0.2,0.4-0.4,0.6-0.6C4.6,4.7,5,4.5,5.5,4.3
		c0.1,0,0.2-0.1,0.3-0.1c0,0,0,0,0,0C6,4.3,6,4.4,6,4.5z"/>
	<path class="st8" d="M15.8,8.2c0,0.1,0.1,0,0.2,0.1c-0.1,0-0.2,0.1-0.3,0.2c-0.2,0.4-0.6,0.8-0.9,1.2c-0.2,0.2-0.4,0.4-0.6,0.6
		c-0.1,0.1,0,0.2-0.1,0.3c-0.1-0.2-0.1-0.4-0.2-0.6c0,0,0,0,0.1,0c0,0.1,0,0.1,0.1,0.2C14,10,14,9.9,14.1,9.8
		c0.4-0.4,0.8-0.8,1.1-1.2c0.1-0.1,0.2-0.3,0.3-0.4c0,0,0,0,0-0.1C15.6,8.1,15.7,8.2,15.8,8.2z"/>
	<path class="st13" d="M8.6,15.5c0,0.1-0.1,0.2,0,0.2c0,0,0,0.1-0.1,0.1c-0.7-0.1-1.4-0.2-2.1-0.4c-0.1-0.1-0.3-0.1-0.4-0.1
		c-0.1-0.1-0.1-0.2-0.2-0.2c-0.2-0.2-0.2-0.2,0.1-0.4c0.1,0.1,0.2,0.1,0.3,0.2c0.3,0.1,0.6,0.2,0.9,0.3c0.5,0.1,0.9,0.2,1.4,0.2
		C8.5,15.4,8.6,15.4,8.6,15.5z"/>
	<path class="st14" d="M13.2,4.5c0,0,0.1-0.1,0.1-0.1c0,0,0,0,0.1,0c0.2-0.1,0.3,0,0.5,0c0,0,0.1,0,0,0c0,0-0.1,0-0.1,0.1
		c-0.1,0-0.1,0.1-0.1,0.2c0,0.3,0,0.6-0.1,0.9c-0.1,0.5-0.3,0.9-0.5,1.3C13,6.9,13,7,13,7.1c0,0,0,0.1,0,0.1c-0.1,0-0.1-0.1-0.1-0.1
		c0-0.1-0.1-0.1-0.1-0.2c0,0,0,0,0,0c-0.1-0.2,0-0.4,0.1-0.6c0.2-0.5,0.4-1,0.4-1.5C13.3,4.7,13.3,4.6,13.2,4.5
		C13.3,4.5,13.2,4.5,13.2,4.5z"/>
	<path class="st11" d="M14.7,4.6c0.1,0.1,0.2,0.1,0.2,0.2c-0.1,0.6-0.2,1.2-0.5,1.8c-0.1,0.1-0.1,0.2-0.2,0.3
		c-0.1,0.2-0.1,0.2,0.1,0.2c0,0,0,0,0,0c0,0,0,0-0.1,0.1c-0.1,0-0.1,0-0.2,0c0,0,0,0-0.1,0c0,0-0.1,0-0.1,0c-0.2,0-0.3-0.1-0.2-0.3
		c0.2-0.4,0.4-0.8,0.5-1.3c0.1-0.3,0.2-0.6,0.1-1c0-0.1,0-0.2,0.1-0.2C14.6,4.5,14.6,4.6,14.7,4.6z"/>
	<path class="st15" d="M9.9,9.9c0.1-0.2,0.3-0.1,0.4-0.2c0.5-0.1,1-0.2,1.5-0.5c0.3-0.1,0.6-0.3,0.8-0.5c0,0,0.1-0.1,0.2,0
		c0-0.1-0.1-0.2-0.1-0.3c0.1,0.1,0.1,0.3,0.1,0.4c0,0.1,0,0.1,0,0.2c0,0,0,0.1-0.1,0.1c-0.1,0-0.1,0-0.2,0.1C11.8,9.7,11,10,10,10.1
		C10,10.1,9.9,10.1,9.9,9.9C9.9,10,9.9,10,9.9,9.9z"/>
	<path class="st11" d="M6.2,6C6.2,6,6.2,6,6.2,6C6.2,6,6.2,6,6.2,6c0,0.1,0,0.1,0,0.1C6,6.2,5.8,6.2,5.6,6.4
		C4.8,6.9,4.4,7.5,4.2,8.4c0,0,0,0-0.1,0.1c0,0,0,0-0.1,0c-0.1,0-0.1,0-0.2,0c-0.1,0-0.1,0-0.1-0.1C4,8.1,4,7.8,4.2,7.5
		c0.2-0.4,0.4-0.7,0.7-1c0.3-0.3,0.6-0.5,1-0.7C6,5.8,6,5.8,6,5.8c0,0,0.1,0,0.1,0l0,0C6.2,5.8,6.1,5.9,6.2,6z"/>
	<path class="st16" d="M16.8,8.6c-0.1,0.2-0.3,0.4-0.4,0.6c-0.3,0.4-0.6,0.8-0.9,1.1c-0.2,0.2-0.5,0.4-0.7,0.6c0,0-0.1,0.1-0.1,0.2
		c0,0,0,0-0.1,0c-0.1,0-0.1,0-0.2,0c0,0,0,0,0,0c-0.1,0-0.2,0-0.2,0c0,0,0.2,0.1,0.1-0.1c0-0.1,0.1-0.1,0.1-0.1
		c0.6-0.4,1.1-1,1.5-1.6c0.2-0.2,0.3-0.5,0.5-0.7C16.5,8.5,16.6,8.5,16.8,8.6C16.7,8.6,16.8,8.6,16.8,8.6z"/>
	<path class="st3" d="M14.4,17c-0.1,0-0.1,0.1-0.2,0.1c-0.4-0.4-0.5-0.8-0.7-1.3c0.2-0.1,0.5,0,0.7-0.1c0.1,0,0.1,0,0.1,0.1
		C14.4,16.2,14.4,16.6,14.4,17z"/>
	<path class="st17" d="M6.1,5.8C6,5.9,5.7,6,5.5,6.1C5.1,6.3,4.8,6.6,4.5,7C4.2,7.3,4.1,7.8,4,8.3c0,0.1,0,0.1-0.1,0.2
		c-0.1,0.1,0,0,0.1,0c0,0,0,0.1-0.1,0.1c0,0,0,0-0.1,0c-0.1,0-0.1-0.1-0.1-0.2c0.1-0.5,0.3-1,0.6-1.5c0.1-0.2,0.4-0.4,0.6-0.6
		c0,0-0.1,0,0,0c0,0,0,0,0,0c-0.1,0-0.1,0.1-0.2,0C5.1,6,5.6,5.8,6,5.6C6.2,5.5,6.1,5.7,6.1,5.8z"/>
	<path class="st18" d="M12.9,7.1c0,0,0.1,0.1,0.1,0.1c0.2-0.1,0.2-0.1,0.3-0.3c0.1-0.1,0.2-0.3,0.2-0.4c0.2-0.5,0.4-1,0.4-1.6
		c0-0.1,0-0.1,0-0.2c0-0.2,0.1-0.2,0.3-0.2c0.1,0,0.1,0,0.2,0c-0.1,0.1-0.1,0.3-0.1,0.4c-0.1,0.7-0.3,1.3-0.6,2
		c-0.1,0.1-0.1,0.2,0,0.4c-0.2,0-0.3,0-0.4,0c-0.1,0-0.2,0-0.3,0C12.9,7.2,12.9,7.2,12.9,7.1z"/>
	<path class="st19" d="M16.7,12.3c-0.1,0.2-0.2,0.4-0.3,0.6c0,0.1,0,0.1-0.1,0.1c-0.2,0.1-0.3,0.3-0.5,0.4c-0.2,0.1-0.4,0.3-0.6,0.4
		c-0.1,0.1-0.2,0.1-0.2,0.3c0,0,0,0.1-0.1,0.1c0,0,0-0.1,0-0.1c0-0.2-0.1-0.4-0.1-0.6c0,0,0,0,0,0c0,0,0,0,0,0c0,0.1,0.1,0,0.1,0
		c0.5-0.3,1-0.6,1.4-1c0.1-0.1,0.1-0.2,0.2-0.2C16.6,12.2,16.6,12.2,16.7,12.3z"/>
	<path class="st20" d="M10,7.6c-0.1,0-0.1,0.1-0.2,0c0-0.1,0-0.1,0.1-0.1C9.9,7.5,9.9,7.5,10,7.6C9.9,7.5,9.9,7.5,9.9,7.5
		C9.8,7.3,9.6,7.1,9.5,6.9C9.1,6.4,8.5,6.2,7.9,6c-0.3-0.1-0.7,0-1,0C6.8,6,6.7,6,6.7,5.8c0-0.1,0-0.1,0.1-0.1c0.2,0,0.4,0,0.6,0
		c0.7,0,1.4,0.2,2,0.7C9.6,6.6,9.8,6.8,9.9,7c0,0.1,0.1,0.1,0.1,0.1c0,0,0,0.1,0,0.1C10,7.4,10.1,7.5,10,7.6z"/>
	<path class="st21" d="M10,10.1c0.9-0.1,1.7-0.4,2.4-0.8c0.1,0,0.2-0.1,0.2-0.2c0.1-0.1,0.1-0.1,0.2,0c0-0.1,0-0.2,0-0.2
		C12.9,9,13,9.1,13,9.3c0,0,0,0,0,0c-0.1,0-0.2,0-0.2,0.1c-0.6,0.4-1.3,0.7-2,0.9c-0.1,0-0.2,0.1-0.3,0.1c-0.1,0-0.1,0-0.2-0.1
		c0,0-0.1,0-0.1-0.1C10,10.2,10,10.2,10,10.1C10,10.1,10,10.1,10,10.1z"/>
	<path class="st22" d="M6,13.7c-0.1,0.1-0.2,0.1-0.3,0.2c0,0,0,0-0.1,0c-0.3-0.3-0.7-0.6-1.1-0.8c-0.1,0,0-0.1-0.1-0.1
		c-0.1-0.3-0.3-0.5-0.3-0.8c0,0,0.1,0,0.1,0c0.1,0,0.2,0.1,0.2,0.2c0.2,0.4,0.6,0.6,0.9,0.9c0.1,0.1,0.3,0.2,0.5,0.3
		C5.9,13.5,6,13.6,6,13.7z"/>
	<path class="st23" d="M15.8,11.4c-0.1,0-0.2,0-0.4-0.1c0.2-0.1,0.3-0.3,0.4-0.4c0.4-0.4,0.7-0.8,1-1.2C17,9.7,17.1,9.7,17,9.5
		c0-0.1,0-0.1,0-0.2c0.1,0.2,0.1,0.4,0.1,0.7c0,0.1,0.1,0.2-0.1,0.1c0,0,0,0-0.1,0.1c-0.3,0.4-0.6,0.7-0.9,1.1
		C16,11.4,16,11.5,15.8,11.4z"/>
	<path class="st24" d="M5.9,4.2C5.6,4.4,5.4,4.4,5.1,4.5C4.8,4.7,4.5,4.9,4.2,5.1C3.9,5.3,3.7,5.5,3.5,5.7C3.4,5.8,3.3,5.9,3.2,6
		C3.1,6.2,3,6.5,2.9,6.7c0,0,0,0,0,0c0,0-0.1,0-0.1,0.1c0,0-0.1,0,0-0.1c0,0,0-0.1,0-0.1c0.1-0.1,0.1-0.1,0.1-0.2
		C3.1,6,3.4,5.7,3.6,5.3c0.1,0,0.2-0.2,0.2-0.2c0.2-0.3,0.6-0.5,1-0.7C5,4.3,5.2,4.2,5.4,4.2c0,0,0.1,0,0-0.1c0,0,0-0.1,0.1-0.1
		c0.1,0,0.1,0,0.2,0C5.9,4,5.9,4,5.9,4.2z"/>
	<path class="st25" d="M15.8,11.4c0.1,0,0.1,0,0.2-0.1c0.3-0.3,0.6-0.6,0.8-1c0.1-0.1,0.1-0.1,0.1-0.2c0,0,0-0.1,0.1,0
		c0.1,0,0-0.1,0-0.1c0,0.1,0,0.1,0,0.2c0,0.2,0.1,0.3,0.1,0.5c0,0,0,0.1,0,0.1c-0.1,0,0-0.1-0.1-0.1c0,0,0,0,0-0.1
		C17,10.8,17,11,16.9,11.1c-0.1,0.1-0.3,0.2-0.3,0.5c0,0.1-0.1,0-0.1,0C16.2,11.5,16,11.5,15.8,11.4z"/>
	<path class="st26" d="M14.4,7.2c-0.1,0-0.2,0-0.3,0c0-0.1,0-0.2,0.1-0.3c0.2-0.3,0.3-0.6,0.4-0.9c0.1-0.3,0.2-0.7,0.2-1
		c0-0.1,0.1,0,0.1-0.1C15,4.9,15,5,15.1,5.1c0,0.1,0.1,0.1,0.1,0.2c0,0,0,0,0,0c0,0,0,0.1,0,0.1C15,5.3,15,5.4,15,5.5
		c-0.1,0.6-0.3,1.1-0.5,1.7C14.5,7.2,14.4,7.2,14.4,7.2z"/>
	<path class="st27" d="M12.7,8.4C12.7,8.4,12.7,8.5,12.7,8.4c-0.2,0-0.4,0.2-0.5,0.3c-0.4,0.3-0.9,0.5-1.4,0.6
		c-0.3,0.1-0.5,0.1-0.8,0.1c-0.1,0-0.1,0-0.1,0c-0.1-0.1-0.1-0.2,0-0.3C9.8,9.2,9.9,9.2,10,9.2c0.9-0.1,1.6-0.4,2.3-0.9
		c0,0,0.1-0.1,0.2-0.1c0,0,0,0,0,0c0-0.1-0.1-0.1,0-0.2C12.6,8.1,12.6,8.3,12.7,8.4z"/>
	<path class="st28" d="M10,7.2C10,7.2,10,7.2,10,7.2C10,7.1,10,7,10,7c0,0,0-0.1,0.1-0.1c0.1,0.1,0.2,0.1,0.2,0
		c0.4-0.1,0.7-0.3,0.9-0.6c0.1-0.1,0.2-0.1,0.2-0.2c0,0,0-0.1,0.1-0.1c0,0,0,0,0.1,0c0.1,0.1,0.2,0.3,0.2,0.4c0,0,0,0.1,0,0.1
		c0,0,0,0,0,0c-0.1-0.2-0.2-0.1-0.3,0c-0.3,0.3-0.8,0.6-1.2,0.7c0,0-0.1,0-0.1,0.1c0,0.1-0.1,0-0.1,0c-0.1,0,0-0.1,0-0.1
		C10,7.4,10,7.3,10,7.2z"/>
	<path class="st29" d="M13.2,4.5C13.3,4.5,13.3,4.5,13.2,4.5C13.3,4.5,13.3,4.5,13.2,4.5C13,4.7,13,5.1,13,5.4
		c0,0.2-0.1,0.4-0.2,0.6c-0.1,0.1-0.2,0.2-0.1,0.4c0,0,0,0.1-0.1,0.1c-0.1-0.3-0.3-0.5-0.4-0.8c0.2-0.3,0.4-0.6,0.6-0.8
		C12.9,4.7,13,4.6,13.2,4.5z"/>
	<path class="st30" d="M13,9.3C13,9.3,13,9.3,13,9.3c0.1,0.1,0.1,0.2,0.2,0.4c0,0,0,0.1,0,0.1c-0.1,0-0.1,0-0.2,0
		c-0.3,0.2-0.6,0.4-0.9,0.5c-0.1,0-0.2,0.2-0.3,0.2c-0.1,0-0.1,0-0.2,0c-0.1,0-0.2,0-0.4,0c-0.1,0-0.1,0-0.2,0c0,0-0.1,0-0.1,0
		c-0.1,0-0.1,0-0.2,0c0,0-0.1,0-0.1-0.1c0.1-0.1,0.2-0.1,0.3,0c0.1,0,0.2,0,0.2,0c0.2-0.1,0.4-0.2,0.5-0.2c0.4-0.2,0.8-0.4,1.2-0.6
		C13,9.4,13,9.4,13,9.3z"/>
	<path class="st31" d="M4.5,10.8c0.1-0.1,0.1-0.1,0.2-0.1c0,0,0,0,0,0c0.2,0,0.3,0.2,0.5,0.4c0.4,0.3,0.8,0.6,1.4,0.7
		c0.4,0.1,0.8,0.1,1.1,0.1c0.1,0,0.2,0,0.2,0.1C8,12,8,12.1,8,12.1c0,0.1,0,0.1-0.1,0.1c-0.1-0.1-0.2-0.1-0.3,0
		c-0.1,0.1-0.3,0-0.4,0c0,0-0.1,0-0.1,0c-0.1-0.1-0.3-0.1-0.4-0.1c-0.1,0-0.1,0-0.2,0c0,0,0,0,0,0c-0.1,0-0.1,0-0.2,0
		c-0.1,0-0.1,0-0.1-0.1c-0.1-0.1-0.3-0.2-0.4-0.2c-0.3-0.2-0.7-0.4-0.9-0.7C4.8,10.9,4.7,10.8,4.5,10.8C4.6,10.9,4.5,10.9,4.5,10.8z
		"/>
	<path class="st32" d="M1.4,8.1c0.1-0.7,0.3-1.3,0.7-1.9c0,0.4,0,0.7,0.1,1.1c0,0.1,0,0.1-0.1,0.1C1.8,7.7,1.6,8,1.4,8.3
		C1.3,8.2,1.4,8.2,1.4,8.1z"/>
	<path class="st33" d="M9,14.5c0,0.2-0.1,0.3-0.1,0.4c-0.3,0-0.6,0-0.9-0.1c-0.5-0.1-1-0.2-1.4-0.4c-0.1,0-0.2,0-0.2-0.1
		c0.1-0.1,0.2-0.2,0.4-0.3c0.2,0.1,0.4,0.2,0.7,0.3c0.5,0.1,0.9,0.2,1.4,0.2c0.1,0,0.2,0,0.2,0.1C8.9,14.6,8.9,14.6,9,14.5
		C8.9,14.5,8.9,14.5,9,14.5z"/>
	<path class="st34" d="M13.4,7.2c0.1,0,0.2,0,0.4,0c-0.2-0.1-0.2-0.2-0.1-0.3c0.3-0.6,0.6-1.3,0.6-2c0-0.1,0-0.2,0-0.4
		c0-0.1,0.1-0.1,0.1-0.1c0.1,0,0.1,0,0.2,0.1c0,0,0,0,0,0c-0.1,0-0.1,0.1-0.1,0.1c0,0.6-0.1,1.2-0.4,1.8C14,6.7,13.9,6.8,13.8,7
		c-0.1,0.2-0.1,0.2,0.1,0.2c0,0,0.1,0,0.1,0c-0.1,0-0.2,0-0.3,0C13.6,7.2,13.5,7.3,13.4,7.2z"/>
	<path class="st30" d="M15.1,7.5c-0.1,0-0.1,0-0.2,0c0,0,0,0,0,0c0,0,0,0,0,0c-0.1-0.1-0.1-0.2-0.1-0.3c0.2-0.4,0.3-0.9,0.4-1.3
		c0,0,0-0.1,0.1-0.1c0,0,0.1,0,0.1,0.1c0,0,0,0.1,0.1,0.1c0.1,0.1,0.1,0.2,0.2,0.3c-0.1,0.2-0.2,0.4-0.2,0.6
		c-0.1,0.1-0.1,0.3-0.2,0.4c0,0.1-0.1,0.2,0.1,0.2c0,0,0.1,0,0,0.1c-0.1,0-0.1,0-0.2,0C15.3,7.5,15.2,7.5,15.1,7.5z"/>
	<path class="st35" d="M12.6,6.4C12.6,6.4,12.6,6.4,12.6,6.4c-0.1-0.2,0.1-0.3,0.1-0.5c0.1-0.2,0.2-0.4,0.2-0.7C13,5.1,13,5,13,4.8
		c0-0.1,0.2-0.2,0.3-0.3c0.1,0.2,0,0.5,0,0.7c-0.1,0.5-0.2,0.9-0.5,1.3c-0.1,0.1,0,0.1,0,0.2c0,0.1,0.1,0.1,0,0.2
		C12.7,6.7,12.7,6.6,12.6,6.4z"/>
	<path class="st36" d="M6.4,6.9C6.4,6.9,6.4,6.9,6.4,6.9c0,0.2,0,0.3-0.2,0.3C5.9,7.4,5.8,7.7,5.6,7.9C5.5,8.3,5.4,8.6,5.4,9
		c0,0.1,0,0.2,0.1,0.3c0,0,0,0.1,0,0.1c0,0,0,0,0,0c0,0,0,0-0.1,0c0,0,0,0,0.1,0C5.4,9.5,5.3,9.5,5.2,9.5c0,0-0.1,0-0.1,0
		c0,0,0-0.1,0-0.1c0.1-0.1,0.1-0.1,0.1-0.2C5,8.7,5.1,8.3,5.4,7.8c0.2-0.4,0.4-0.7,0.7-0.9c0.1-0.1,0.1-0.2,0.2-0.2c0,0,0,0,0,0
		C6.3,6.7,6.3,6.8,6.4,6.9z"/>
	<path class="st37" d="M8.6,15.5c0,0-0.1-0.1-0.2-0.1c-0.6,0-1.1-0.1-1.6-0.3c-0.3-0.1-0.6-0.2-0.9-0.3c-0.1,0-0.1-0.1-0.1-0.2
		c0-0.1,0.1-0.1,0.2-0.1c0,0,0,0,0,0c0,0,0.1,0.1,0.1,0.1C6.6,14.8,7.1,15,7.6,15c0.3,0.1,0.6,0.1,0.9,0.1c0.1,0,0.2,0,0.2,0.2
		c0,0,0,0,0,0C8.7,15.4,8.7,15.5,8.6,15.5z"/>
	<path class="st30" d="M3.7,6.9c0.2-0.2,0.4-0.3,0.7-0.4c0,0.1,0,0.2-0.1,0.3C3.9,7.3,3.6,7.8,3.6,8.5c0,0.1-0.1,0.2-0.1,0.2
		c0,0,0,0,0,0.1C3.4,8.8,3.4,9,3.3,9c-0.1-0.1-0.1-0.3,0-0.4c0.1-0.3,0.1-0.5,0.1-0.8c0-0.2,0.2-0.4,0.2-0.7C3.6,7.1,3.7,7,3.7,6.9z
		"/>
	<path class="st38" d="M6.7,5.8C6.7,6,6.8,6,6.9,6c0.5,0,1-0.1,1.4,0.2c0.2,0.1,0.3,0.2,0.5,0.2c0.2,0.1,0.3,0.3,0.5,0.4
		c0.2,0.2,0.3,0.3,0.5,0.5c0,0.1,0.1,0.1,0,0.2C9.8,7.6,9.7,7.6,9.6,7.4C9.5,7.1,9.2,6.8,8.9,6.6C8.5,6.4,8.2,6.2,7.7,6.2
		c-0.3,0-0.6,0-0.9,0c0,0-0.1,0-0.1,0c-0.1,0,0-0.1-0.1-0.1C6.7,6,6.6,5.9,6.7,5.8C6.7,5.8,6.7,5.8,6.7,5.8z"/>
	<path class="st39" d="M15.5,8.1c0,0,0.1,0,0,0.1c-0.2,0.1-0.2,0.4-0.4,0.5c-0.3,0.4-0.6,0.7-0.9,1c-0.1,0.1-0.3,0.2-0.2,0.5
		c0-0.1-0.1-0.2-0.1-0.3c-0.1-0.2,0-0.3,0.2-0.4c0.4-0.3,0.7-0.7,1-1.2c0.1-0.1,0.1-0.2,0.3-0.2c0,0,0,0,0,0c0,0,0,0,0,0
		c0,0,0,0-0.1,0c-0.1,0-0.1,0-0.2,0c0,0-0.1,0-0.1,0c0,0,0,0,0,0C15.2,8,15.3,8.1,15.5,8.1z"/>
	<path class="st40" d="M9.9,8.2c0.6-0.2,1.2-0.3,1.8-0.3c0.2,0,0.3,0,0.5,0C12.3,8,12.2,8,12.2,8c-0.1,0-0.1,0-0.2,0
		c-0.2,0-0.4,0.1-0.6,0.2c-0.4,0.2-0.7,0.3-1.1,0.4c-0.1,0-0.2,0-0.2,0.1c-0.1,0.1-0.1,0-0.1,0c0,0,0,0,0-0.1c0-0.1,0-0.1,0-0.2
		C9.9,8.4,9.9,8.3,9.9,8.2z"/>
	<path class="st41" d="M6.2,3.3c0.1,0.2,0.3,0.1,0.4,0.1c0.6-0.1,1.2-0.1,1.8,0.1c0.3,0.1,0.7,0.2,1,0.3c0.1,0,0.2,0,0.3,0
		c-0.1,0.1-0.2,0-0.3,0.1c0,0,0,0,0,0c-0.1,0-0.2,0-0.2-0.1C9.1,3.8,9,3.8,8.9,3.8C8.7,3.7,8.5,3.6,8.3,3.6C8,3.5,7.8,3.5,7.6,3.5
		c-0.3,0-0.6,0-0.9,0.1c-0.1,0-0.2,0-0.3-0.1c0,0,0-0.1,0-0.1C6.2,3.4,6.2,3.4,6.2,3.3C6.2,3.3,6.2,3.3,6.2,3.3z"/>
	<path class="st42" d="M6,13.7c-0.4-0.3-0.8-0.6-1.3-1c-0.2-0.2-0.4-0.4-0.5-0.6C4.2,12,4.3,12,4.4,12c0.2,0,0.4,0.2,0.5,0.3
		c0.3,0.3,0.7,0.6,1.1,0.8c0.1,0.1,0.3,0.1,0.3,0.3C6.2,13.6,6.1,13.6,6,13.7z"/>
	<path class="st43" d="M3.5,8.7C3.5,8.7,3.5,8.7,3.5,8.7c0.1-0.3,0.1-0.5,0.1-0.8c0.1-0.4,0.3-0.8,0.5-1.1c0.1-0.1,0.1-0.2,0.2-0.3
		c0.1-0.1,0.2-0.2,0.4-0.2c0.1,0.1,0.1,0,0.2,0c0,0.1-0.1,0.1-0.2,0.2C4.2,7,3.9,7.7,3.8,8.4c0,0.1,0,0.1,0.1,0.1
		c0,0.1-0.1,0.1-0.2,0.2C3.6,8.7,3.6,8.7,3.5,8.7z"/>
	<path class="st44" d="M17.1,9.5c0.1,0.1,0,0.1-0.1,0.2c-0.1,0.2-0.2,0.3-0.4,0.5c-0.3,0.3-0.5,0.6-0.8,0.9c0,0-0.1,0.1-0.1,0.1
		c0,0.1-0.1,0.1-0.2,0.1c-0.2,0-0.4-0.1-0.6-0.1c0,0,0,0,0,0c0.1,0,0.1,0,0.2,0c0.1,0,0.1,0,0.2,0c0-0.1,0.1-0.2,0.2-0.3
		c0.3-0.2,0.5-0.5,0.7-0.8c0.2-0.2,0.4-0.4,0.5-0.7c0-0.1,0.1-0.1,0.2-0.1c0,0,0,0,0,0l0,0C17.1,9.4,17,9.5,17.1,9.5z"/>
	<path class="st45" d="M6,15.2c0.2-0.1,0.4,0.1,0.6,0.1C7,15.5,7.5,15.6,8,15.7c0.2,0,0.4,0.1,0.6,0.1c0,0.1,0,0.1,0,0.2
		c-0.5-0.1-1.1-0.1-1.6-0.2c-0.2-0.1-0.3-0.1-0.5-0.1c-0.1,0-0.1-0.1-0.2-0.1C6.1,15.4,6,15.4,6,15.2z"/>
	<path class="st3" d="M6.6,17.5c-0.1-0.3-0.3-0.6-0.4-1c0.4,0.3,0.7,0.7,1.1,1c0.1,0.1,0.2,0.1,0.2,0.2c0.1,0.1,0.1,0.1,0,0.2
		c-0.3-0.1-0.5-0.2-0.8-0.3C6.7,17.5,6.6,17.5,6.6,17.5z"/>
	<path class="st8" d="M6.6,13.2c0,0.1-0.1,0.1-0.2,0.1c-0.2,0-0.3-0.1-0.4-0.2c-0.4-0.2-0.8-0.5-1.1-0.9c-0.1-0.1-0.2-0.2-0.3-0.2
		c0,0-0.1,0-0.1-0.1C4.6,12,4.7,12,4.7,11.9c0.1,0,0.2-0.1,0.3-0.1c0.2,0.2,0.3,0.4,0.5,0.5c0.2,0.2,0.5,0.4,0.8,0.5
		C6.4,13,6.6,13,6.6,13.2z"/>
	<path class="st46" d="M8,12C8,12,8,12,8,12c-0.2-0.1-0.5,0-0.7,0c-0.5,0-1-0.2-1.5-0.4c-0.4-0.2-0.7-0.5-1-0.8c0,0-0.2,0-0.1-0.1
		c0.1-0.1,0.1-0.1,0.2-0.1c0,0,0,0.1,0,0.1c0.3,0.4,0.7,0.7,1.1,0.9c0.3,0.2,0.7,0.2,1,0.3c0.2,0,0.4,0,0.6,0c0.1,0.1,0-0.1,0.1-0.1
		C7.9,11.8,8,11.9,8,12z"/>
	<path class="st30" d="M6.2,12c0,0,0.1,0,0.1,0c0,0,0,0,0,0c0,0,0,0,0,0C6.3,12.1,6.3,12.1,6.2,12c0.3,0.1,0.5,0.3,0.7,0.4
		c0.1,0.1,0.3,0.1,0.4,0.2c0.1,0,0.2,0.1,0.1,0.2C7.3,12.8,7.2,12.9,7,13C7,13,7,13,7,13c0-0.1-0.1-0.1-0.1-0.2
		c-0.4-0.2-0.8-0.4-1.1-0.7c0,0-0.1-0.1-0.1-0.1c0-0.1,0.1-0.1,0.2-0.1c0,0,0.1,0,0.1,0C6,11.9,6.1,11.9,6.2,12z"/>
	<path class="st47" d="M10,7.2c0,0.1,0,0.1,0,0.2c0,0.1,0,0.1,0.1,0.1c0.1,0,0,0,0-0.1c0,0,0.1,0,0.1-0.1c0.3-0.1,0.6-0.2,0.9-0.4
		c0.2-0.1,0.4-0.3,0.6-0.5c0.1-0.1,0.1-0.1,0.2,0c0,0,0.1,0.1,0.1,0.1c0.1,0,0.1,0.1,0.1,0.1c-0.2,0.2-0.4,0.4-0.6,0.5
		c0.2-0.1,0.3-0.1,0.5,0c-0.4,0.1-0.8,0.1-1.2,0.2c-0.2,0-0.4,0.1-0.6,0.1C10,7.5,10,7.3,10,7.2z"/>
	<path class="st48" d="M7.2,13.7c0.2-0.1,0.4-0.3,0.7-0.4c0,0.1-0.1,0.1-0.2,0.1c0.3,0.1,0.6,0.1,0.9,0.1c0.1,0,0.1,0.1,0.2,0.1
		c0.1,0.1,0.1,0.2,0.1,0.3C9,14,8.9,14,8.9,14C8.3,14.1,7.8,14,7.2,13.7C7.2,13.8,7.2,13.8,7.2,13.7z"/>
	<path class="st21" d="M14.4,7.2c0.3-0.6,0.6-1.3,0.6-2c0.1,0,0.1,0,0.2,0c0.1,0.1,0.1,0.2,0.2,0.3c-0.1,0-0.1,0-0.1,0.1
		c0,0.3-0.2,0.6-0.3,0.9c0,0.2-0.1,0.3-0.2,0.4c-0.1,0.1-0.1,0.2,0,0.3c-0.1,0.1-0.2,0-0.2,0C14.5,7.3,14.4,7.4,14.4,7.2L14.4,7.2z"
		/>
	<path class="st49" d="M11.6,6.1C11.6,6.1,11.6,6.1,11.6,6.1C11.5,6.1,11.5,6.1,11.6,6.1c-0.1,0.1-0.2,0.1-0.3,0.1
		c-0.1,0-0.1-0.2-0.2-0.2c-0.4-0.5-0.8-0.9-1.3-1.2C9.8,4.7,9.7,4.7,9.6,4.6c-0.1-0.1-0.1,0-0.2,0c-0.1,0-0.1,0-0.2,0
		c-0.1,0-0.1,0-0.2,0c0-0.1,0.1-0.1,0.1-0.1c0.2,0,0.5-0.1,0.7-0.1c0.1,0,0.2,0,0.3,0c0,0,0.1,0,0,0.1c0,0-0.1,0-0.1,0.1
		c0.2,0.1,0.4,0.2,0.5,0.4c0.2,0.2,0.5,0.5,0.7,0.7C11.4,5.8,11.4,6,11.6,6.1z"/>
	<path class="st50" d="M6,14.5C6,14.5,6,14.5,6,14.5c0.1-0.1,0.1-0.2,0.2-0.2c0.4,0.1,0.8,0.3,1.3,0.4c0.2,0,0.3,0.1,0.5,0.1
		c0.2,0,0.4,0.1,0.6,0c0.1,0,0.1,0,0.2,0.1c0,0.1-0.1,0.1-0.1,0.2c0,0,0,0-0.1,0c-0.3-0.1-0.5,0-0.8-0.1c-0.4-0.1-0.8-0.1-1.2-0.3
		C6.5,14.7,6.3,14.5,6,14.5z"/>
	<path class="st51" d="M15.4,11.2C15.4,11.2,15.4,11.3,15.4,11.2C15.4,11.3,15.4,11.3,15.4,11.2c-0.1,0-0.2,0.1-0.2,0
		c-0.1,0-0.1-0.1,0-0.2c0.3-0.3,0.6-0.5,0.8-0.8c0.3-0.3,0.5-0.7,0.8-1.1C17,9,16.9,8.8,16.9,8.6C17,8.9,17,9.1,17,9.4c0,0,0,0,0,0
		c-0.1,0-0.1,0.1-0.2,0.1c-0.3,0.5-0.7,0.9-1.1,1.3c-0.1,0.1-0.2,0.2-0.4,0.4C15.4,11.1,15.3,11.2,15.4,11.2z"/>
	<path class="st52" d="M9,4.6c0.1,0,0.1,0,0.2,0c0,0.1,0,0.1,0.1,0.2c0.3,0.1,0.6,0.3,0.9,0.5c0.3,0.2,0.6,0.5,0.8,0.9
		c0.1,0.1,0.1,0.1,0.2,0.2c0,0.1-0.2,0.1-0.2,0.1c0,0-0.1,0-0.1,0c-0.2-0.4-0.6-0.7-1-1C9.5,5.1,9.1,4.9,8.7,4.8
		C8.7,4.6,8.9,4.7,9,4.6C9,4.6,9,4.6,9,4.6z"/>
	<path class="st30" d="M15,8.1c0,0,0.1,0,0.1,0C15.1,8.1,15.1,8.1,15,8.1C15,8.1,15,8.1,15,8.1c-0.1,0.1-0.2,0.1-0.3,0.2
		c-0.2,0.3-0.5,0.6-0.7,0.8c-0.1,0.1-0.1,0.1-0.1,0.3c0,0,0,0.1,0,0.1c-0.1-0.1-0.1-0.2-0.1-0.3c0,0,0-0.1,0-0.1c0-0.1,0-0.2,0-0.2
		c0.2-0.2,0.4-0.4,0.6-0.6C14.3,8.1,14.4,8,14.6,8C14.8,8,14.9,8,15,8.1z"/>
	<path class="st3" d="M8.5,16.4c0,0.2,0,0.4,0,0.7c0,0,0,0,0,0c-0.4,0.3-0.4,0.3-0.8,0c-0.2-0.1-0.3-0.3-0.4-0.4
		c0.1-0.1,0.2-0.1,0.3,0c0.2,0,0.5,0.1,0.7,0.1c0,0,0.1,0,0.1,0C8.4,16.6,8.4,16.5,8.5,16.4C8.5,16.4,8.5,16.4,8.5,16.4z"/>
	<path class="st53" d="M11.6,6.1c0,0-0.1,0-0.2,0c0-0.1,0-0.2-0.1-0.3c-0.2-0.3-0.4-0.5-0.7-0.7c-0.2-0.2-0.3-0.3-0.5-0.4
		c-0.1,0-0.1-0.1-0.2-0.2c0.1-0.1,0.2,0,0.2-0.1c0.1-0.1,0.2,0,0.4,0l0,0c0,0.2-0.1,0-0.1,0.1c0.2,0.1,0.3,0.3,0.5,0.4
		C11.2,5.3,11.5,5.6,11.6,6.1C11.6,6.1,11.6,6.1,11.6,6.1z"/>
	<path class="st54" d="M6.6,13.2c-0.2-0.2-0.5-0.3-0.7-0.5c-0.3-0.2-0.5-0.4-0.8-0.7C5,12,5,11.9,5,11.9c0,0,0,0,0,0c0,0,0,0,0,0
		c0.1,0,0.2,0,0.2,0c-0.1,0.1,0,0.1,0.1,0.1c0.1,0.1,0.2,0.2,0.3,0.3c0.3,0.2,0.5,0.4,0.8,0.6c0.1,0.1,0.3,0.1,0.3,0.3
		C6.8,13.1,6.7,13.2,6.6,13.2z"/>
	<path class="st55" d="M6.8,6.2c0.2,0,0.3-0.1,0.5,0c0.2,0,0.3,0,0.5,0C8.5,6.2,9,6.6,9.4,7.1c0.1,0.1,0.2,0.2,0.3,0.4
		c0,0.1,0.1,0,0.2,0c0,0,0.1,0,0,0c0,0-0.1,0-0.1,0.1c0,0-0.1,0-0.1,0c0,0,0,0,0,0C9.4,7.3,9.2,7,8.9,6.8C8.8,6.7,8.7,6.6,8.6,6.6
		C8.1,6.3,7.5,6.3,7,6.3C6.8,6.3,6.8,6.3,6.8,6.2z"/>
	<path class="st56" d="M13.7,9.2c0.1,0.1,0.1,0.2,0.2,0.3c0-0.1,0.1-0.1,0.1-0.2c0.4-0.3,0.7-0.7,1-1.2c0,0,0.1,0,0.1-0.1
		c0,0,0,0,0,0c0.1,0,0.1,0,0.2,0c0.1,0,0.1,0,0.2,0.1c-0.2,0-0.3,0.1-0.3,0.2c-0.3,0.5-0.6,0.8-1,1.2C14,9.7,13.9,9.7,14,9.9
		c0,0,0,0.1,0,0.1c0,0,0,0,0,0C13.8,9.7,13.7,9.4,13.7,9.2z"/>
	<path class="st57" d="M7.2,13.7C7.7,13.9,8.3,14,8.9,14c0,0,0.1,0,0.1-0.1C9,14,9,14.1,9.1,14.2c0,0,0,0,0,0.1c0,0.1,0,0.1-0.1,0.1
		c-0.2-0.1-0.3,0-0.5-0.1c-0.3,0-0.6-0.1-0.9-0.1c-0.2,0-0.4-0.1-0.6-0.2c-0.1,0-0.1,0,0-0.1C7,13.8,7.1,13.7,7.2,13.7z"/>
	<path class="st58" d="M14.2,4.4C14.2,4.4,14.2,4.4,14.2,4.4c-0.3,0-0.3,0.2-0.3,0.4c0,0.7-0.2,1.3-0.5,1.9c0,0.1-0.1,0.2-0.2,0.3
		c0,0.1-0.1,0.1,0,0.2c-0.1,0-0.2,0-0.3,0c0,0,0,0,0-0.1C13,7,13,7,13.1,6.9c0.3-0.5,0.6-1.1,0.6-1.7c0-0.2,0-0.4,0-0.5
		c0-0.1,0-0.2,0-0.2c0,0,0,0,0.1,0c-0.2,0-0.3-0.1-0.5,0c0-0.1,0.1,0,0.1-0.1c0.2,0,0.3,0,0.5,0.1C14,4.5,14.1,4.4,14.2,4.4
		L14.2,4.4z"/>
	<path class="st59" d="M4.5,12.9c0.2,0.2,0.5,0.3,0.7,0.5c0.1,0.1,0.3,0.2,0.5,0.3c0.1,0,0,0.1,0.1,0.1C5.6,14,5.5,14,5.4,14.1
		c-0.1,0-0.1,0-0.1,0C5.2,14,5.1,13.9,5,13.9c0,0-0.1-0.1-0.1-0.1c0-0.1-0.1-0.1-0.1-0.2C4.7,13.4,4.6,13.2,4.5,12.9z"/>
	<path class="st60" d="M14.6,7.3c0.1,0.1,0.1,0,0.2,0c-0.1,0-0.2-0.1-0.1-0.2c0.2-0.5,0.4-1,0.5-1.5c0-0.1,0.1-0.2,0.2-0.1
		c0.1,0.1,0.2,0.2,0.2,0.3c-0.1,0.1-0.1-0.1-0.2-0.1c0,0.2-0.1,0.4-0.2,0.6c-0.1,0.3-0.2,0.6-0.3,0.8c-0.1,0.2,0.1,0.2,0.2,0.2
		c-0.1,0-0.1,0-0.1,0c-0.2,0-0.4-0.1-0.6-0.1c0,0,0,0,0.1,0C14.4,7.3,14.5,7.3,14.6,7.3z"/>
	<path class="st61" d="M6.9,13.1c0,0-0.1,0-0.1,0c0.1-0.1,0.1-0.1,0-0.2c-0.5-0.2-1-0.5-1.3-0.9c0,0-0.2,0,0-0.1
		c0.1-0.1,0.2,0,0.3,0c0.1,0,0.2,0,0.2,0.1c-0.1,0-0.1,0-0.2,0c0.3,0.3,0.6,0.5,1,0.7c0.1,0,0.2,0.1,0.3,0.2c0.1,0,0.1,0.1,0,0.1
		c0,0,0,0,0,0C7,13,6.9,13.1,6.9,13.1z"/>
	<path class="st62" d="M16.5,12.2c0,0.1-0.1,0.2-0.2,0.3c-0.4,0.3-0.8,0.7-1.3,0.9c-0.1,0.1-0.2,0.1-0.3,0.2c-0.1-0.1,0-0.1,0-0.2
		c0-0.1,0-0.2,0.1-0.3c0.4-0.3,0.8-0.6,1.2-0.9c0.1,0,0.1-0.1,0.2-0.1c0,0-0.1,0-0.1-0.1C16.3,12.1,16.4,12.2,16.5,12.2z"/>
	<path class="st63" d="M11.8,12c0,0.2-0.1,0.3-0.3,0.4c-0.2,0.2-0.5,0.5-0.7,0.7c-0.3,0.2-0.6,0.4-0.9,0.6c-0.1,0-0.2,0.1-0.2,0.2
		c-0.1-0.1-0.1-0.2-0.2-0.3c0.5-0.3,1-0.5,1.4-0.9c0.2-0.2,0.5-0.5,0.7-0.7C11.7,12,11.8,12,11.8,12z"/>
	<path class="st24" d="M8.9,14.5c0,0.1,0,0.1-0.1,0.2c0-0.2-0.1-0.2-0.2-0.2c-0.5,0-1-0.1-1.5-0.2c-0.2,0-0.3-0.1-0.5-0.2
		c-0.1,0,0-0.1,0-0.1C6.7,14,6.7,14,6.8,13.9C6.7,14,6.9,14,6.9,14c0.2,0.1,0.5,0.1,0.7,0.2c0.4,0.1,0.7,0.1,1.1,0.1
		C8.9,14.4,8.9,14.4,8.9,14.5z"/>
	<path class="st64" d="M16.4,11.6C16.4,11.6,16.5,11.6,16.4,11.6c0.1-0.4,0.5-0.5,0.7-0.8c0,0,0.1-0.1,0.1-0.1c0.1,0,0,0.1,0,0.1
		c0,0,0,0.1,0,0.1c0.1-0.3,0-0.5,0-0.7c0.1,0.2,0.1,0.5,0.1,0.7c-0.1,0.3-0.2,0.5-0.4,0.8C16.8,11.7,16.6,11.6,16.4,11.6z"/>
	<path class="st36" d="M9.4,8.4C9.4,8.4,9.5,8.4,9.4,8.4c0.2-0.1,0.2-0.1,0.3-0.1C9.6,8.5,9.6,8.6,9.6,8.8c0,0.9-0.4,1.5-1.2,1.9
		c-0.1,0-0.1,0.1-0.2,0c-0.1-0.1-0.1-0.2,0-0.3c0.2-0.1,0.3-0.2,0.5-0.4c0.4-0.4,0.6-0.9,0.5-1.5C9.4,8.5,9.4,8.5,9.4,8.4z"/>
	<path class="st65" d="M5.5,9.3C5.4,9.1,5.4,9,5.4,8.8c0-0.1,0-0.2,0-0.4C5.5,8.1,5.7,7.7,6,7.3c0,0,0.1,0,0.1-0.1
		c0.1-0.1,0.3-0.2,0.3-0.4c0,0,0,0.1,0,0.1c0,0.1,0,0.3-0.1,0.3C5.9,7.6,5.7,8,5.6,8.5c0,0.2,0,0.4,0,0.6C5.7,9.2,5.6,9.3,5.5,9.3z"
		/>
	<path class="st61" d="M15.5,7.5c-0.2-0.1-0.2-0.1-0.1-0.3c0.1-0.2,0.2-0.5,0.3-0.7c0-0.1,0.1-0.2,0.2-0.3c0.1,0.1,0.2,0.2,0.2,0.4
		c0,0,0,0.1,0,0.1c-0.1,0.2-0.2,0.4-0.3,0.6c0,0.1-0.1,0.2,0,0.3c0,0,0,0.1,0,0.1C15.6,7.6,15.5,7.6,15.5,7.5z"/>
	<path class="st25" d="M14.6,12.8c0-0.2-0.1-0.3-0.1-0.5c0.1,0,0.1,0.1,0.1,0.2c0.2-0.1,0.4-0.4,0.7-0.4c0,0,0,0,0,0c0,0,0,0,0,0
		c-0.1,0-0.2,0-0.3-0.1c0.3,0,0.5,0.1,0.8,0.1c0,0,0,0,0,0.1c-0.4,0.2-0.7,0.5-1,0.7c0,0-0.1,0.1-0.1,0.1
		C14.6,12.9,14.7,12.8,14.6,12.8z"/>
	<path class="st8" d="M13.4,10.4c0.1,0.2,0.1,0.4,0.2,0.6c0,0.1,0,0.1-0.1,0.1c-0.3,0-0.6,0-1,0c-0.1,0-0.2-0.1-0.1-0.2
		c0.1,0,0.2-0.1,0.3-0.2C12.9,10.7,13.1,10.5,13.4,10.4C13.3,10.5,13.3,10.5,13.4,10.4z"/>
	<path class="st66" d="M8.3,10.7C8.7,10.6,9,10.3,9.2,10c0.1-0.2,0.2-0.3,0.2-0.5c0.1-0.3,0.2-0.6,0.1-1c0-0.1,0-0.1,0.1-0.2
		c0,0-0.1,0-0.1,0c0,0,0.1,0,0.1,0c0,0,0.1,0,0.1,0c0.2,0,0.2,0,0.2,0.2c0,0,0,0.1,0,0.1c-0.1,0,0-0.1-0.1-0.1
		c0,0.1,0.1,0.2,0.1,0.3c0,0,0,0.1,0,0.1C9.8,9,9.8,9.1,9.7,9.3C9.6,9.5,9.6,9.7,9.4,9.9c-0.3,0.4-0.6,0.7-1,0.9
		c-0.1,0-0.1,0.1-0.2,0C8.3,10.8,8.3,10.8,8.3,10.7z"/>
	<path class="st67" d="M4.5,12C4.5,12,4.5,12,4.5,12c0.3,0,0.4,0.2,0.5,0.3c0.4,0.4,0.9,0.8,1.4,1c-0.1,0.1-0.1,0.1-0.2,0.1
		c-0.5-0.3-0.9-0.6-1.3-1c-0.1-0.1-0.2-0.2-0.3-0.3c-0.1-0.1-0.2-0.1-0.3-0.1C4.4,12,4.4,12,4.5,12C4.5,12,4.5,12,4.5,12z"/>
	<path class="st68" d="M5.2,10.4c0-0.1,0.1-0.1,0.2-0.1c0.1,0,0.2,0.1,0.3,0.2C6,10.7,6.3,11,6.8,11.1c0.3,0.1,0.5,0.1,0.8,0.1
		c0,0,0.1,0.1,0.1,0.1c0,0.1,0,0.1-0.1,0.1c-0.1,0-0.2,0-0.3,0c-0.6-0.1-1.1-0.2-1.5-0.6c-0.1-0.1-0.2-0.2-0.3-0.3
		c0-0.1-0.1-0.1-0.2-0.1C5.2,10.5,5.2,10.5,5.2,10.4C5.1,10.4,5.2,10.4,5.2,10.4z"/>
	<path class="st69" d="M15.8,15.7c-0.3,0.3-0.6,0.6-0.9,0.8c0-0.3,0-0.5,0-0.8c0-0.1,0.1-0.1,0.1-0.1C15.3,15.7,15.5,15.7,15.8,15.7
		z"/>
	<path class="st70" d="M7.4,12.8c-0.1-0.3-0.4-0.2-0.5-0.4c-0.2-0.1-0.4-0.3-0.7-0.4c0.1,0,0.2,0,0.2,0c0.1,0,0.1,0,0.2,0l0,0
		c0.2,0,0.3,0.1,0.5,0.1c0.1,0,0.1,0,0.2,0.1c0,0,0.1,0,0.1,0c0.2,0,0.4,0.1,0.6,0.1c0.1,0,0.1,0,0.2,0.1c-0.1,0.1-0.3,0.1-0.4,0.2
		C7.5,12.7,7.5,12.7,7.4,12.8L7.4,12.8z"/>
	<path class="st71" d="M7,16.4c-0.1-0.1-0.2-0.2-0.3-0.3c0,0,0,0,0-0.1c0,0,0,0,0.1,0c0.1,0,0.1,0,0.2,0c0.4,0.1,0.8,0.2,1.2,0.2
		c0.1,0,0.2,0,0.3,0.1c0,0.1,0,0.2,0,0.3c-0.1,0.1-0.2,0.1-0.3,0.1c-0.3,0-0.7-0.1-1-0.1C7.1,16.4,7.1,16.4,7,16.4z"/>
	<path class="st72" d="M10.6,10.4C10.6,10.4,10.6,10.4,10.6,10.4c0.1,0.2,0,0.4-0.1,0.5c-0.2,0.2-0.3,0.4-0.5,0.5c0,0,0,0,0,0
		c0,0.3-0.3,0.2-0.4,0.3C9.4,11.8,9.2,11.9,9,12c0,0,0,0,0,0c0.1-0.1,0.2-0.1,0.1-0.2c0,0,0,0,0,0c0.2-0.1,0.4-0.2,0.5-0.4
		c0.2-0.2,0.3-0.3,0.5-0.5c0.1-0.1,0.1-0.2,0.2-0.3c0,0,0,0,0,0C10.5,10.4,10.5,10.4,10.6,10.4z"/>
	<path class="st73" d="M16.2,12.1c0.1,0.1,0.1,0.1,0.2,0.1c-0.1,0-0.2,0.1-0.3,0.1c-0.4,0.3-0.8,0.6-1.2,0.9c-0.1,0.1,0,0.2-0.1,0.2
		c-0.1-0.1,0-0.2-0.1-0.2c0-0.1,0-0.2,0-0.3c0.1,0.1,0.1,0,0.1,0c0.4-0.2,0.7-0.5,1-0.8c0.1-0.1,0.1-0.1,0.2-0.1
		C16.1,12.1,16.1,12.1,16.2,12.1z"/>
	<path class="st74" d="M8.9,14.5c0-0.1-0.1-0.1-0.2-0.1c-0.5,0-1-0.1-1.5-0.2c-0.1,0-0.3-0.1-0.4-0.1c-0.1,0-0.1-0.1,0-0.1
		c0,0,0.1-0.1,0.1-0.1c0,0,0,0,0,0.1c0.3,0,0.6,0.2,0.9,0.2c0.3,0,0.6,0.1,0.9,0.1c0.1,0,0.2-0.1,0.3,0.1c0,0,0,0,0.1-0.1
		C9.1,14.3,9,14.4,8.9,14.5C8.9,14.5,8.9,14.5,8.9,14.5z"/>
	<path class="st75" d="M9.8,9.6c0,0.1,0,0.1,0,0.2c0,0.1,0,0.2,0,0.2c-0.1,0.2-0.3,0.5-0.5,0.6c-0.2,0.2-0.4,0.4-0.7,0.5
		c-0.1,0-0.1,0-0.1,0.1c0,0,0,0.1,0,0.1c-0.1,0,0-0.1-0.1-0.1c0-0.1-0.1-0.1-0.1-0.2c0,0,0.1,0,0,0c0-0.1,0-0.1,0.1-0.2
		c0.1-0.1,0.3-0.2,0.4-0.2c0.2-0.1,0.4-0.3,0.4-0.5c0-0.1,0.1-0.1,0.1-0.2C9.6,10,9.6,9.8,9.8,9.6C9.7,9.6,9.7,9.6,9.8,9.6
		C9.8,9.6,9.8,9.6,9.8,9.6z"/>
	<path class="st76" d="M5.2,10.4c0-0.1,0.1-0.1,0.2,0c0.4,0.5,1,0.8,1.7,0.9c0.1,0,0.3,0,0.4,0c0.1,0,0.2,0,0.2-0.1
		c0-0.1-0.1-0.1,0-0.2c0.1,0.1,0.1,0.3,0.2,0.4c0,0,0,0.1,0,0.1c0,0,0,0-0.1,0c-0.1-0.1-0.1,0-0.2,0c-0.9,0-1.6-0.3-2.2-1
		C5.3,10.6,5.2,10.5,5.2,10.4z"/>
	<path class="st77" d="M5.9,4.2c0-0.2,0-0.2-0.2-0.2c-0.1,0-0.2,0-0.2,0c0,0.1,0.1,0,0.1,0.1C5.3,4.3,5.1,4.3,4.9,4.4
		C4.5,4.6,4.1,4.8,3.8,5.2C3.7,5.4,3.7,5.3,3.6,5.3C3.7,5.2,3.8,5.1,3.8,5C3.9,5,3.9,5,4,4.9C4,4.8,4.1,4.8,4.2,4.7
		c0.1-0.1,0.2-0.2,0.3-0.3c0.1-0.1,0.2-0.2,0.4-0.3C5.1,4,5.4,4,5.8,3.9c0,0,0.1,0,0.1,0C5.9,4,5.9,4.1,5.9,4.2
		C5.9,4.2,5.9,4.2,5.9,4.2z"/>
	<path class="st78" d="M6.2,15.5c0.1,0.1,0.2,0,0.3,0.1c0.2,0.1,0.5,0.1,0.7,0.2c0.3,0.1,0.7,0.1,1,0.1c0.1,0,0.2,0,0.3,0.1
		c0,0.1,0,0.2,0,0.2c0,0,0,0-0.1,0c-0.1-0.1-0.2-0.1-0.3-0.1c-0.4,0-0.7-0.1-1.1-0.2c-0.2-0.1-0.3,0-0.5-0.1
		C6.4,15.7,6.3,15.7,6.2,15.5z"/>
	<path class="st64" d="M4.5,14.6c-0.5-0.1-1.3-0.6-1.3-1.4c0-0.1,0-0.1,0-0.2c0.1,0.1,0.1,0.3,0.1,0.4c0.2-0.1,0.3,0.1,0.3,0.2
		c0.1,0.1,0.3,0.2,0.4,0.3c0.1,0.1,0.1,0.1,0.2,0.2c0,0,0,0.1,0.1,0.1C4.4,14.4,4.5,14.5,4.5,14.6z"/>
	<path class="st79" d="M4.3,14.3C4.3,14.4,4.3,14.3,4.3,14.3C4,14,3.7,13.7,3.4,13.5c-0.2-0.2-0.1-0.3-0.2-0.5c0-0.1,0-0.2,0.1-0.3
		c0.1,0.2,0.2,0.4,0.4,0.5c0.1,0.1,0.1,0.2,0.2,0.2C4,13.7,4.2,14,4.3,14.3z"/>
	<path class="st71" d="M13.3,14.7c0-0.2,0-0.5,0.1-0.7c0.1,0.1,0.1,0.2,0,0.3c0.1-0.2,0.2-0.2,0.4-0.2c0.1-0.1,0.2-0.2,0.4-0.1
		c0-0.1,0-0.1,0-0.2c0,0.1,0,0.2,0,0.3c0,0,0,0,0,0.1c0,0.3,0,0.3-0.2,0.4C13.8,14.5,13.6,14.7,13.3,14.7
		C13.3,14.7,13.3,14.7,13.3,14.7z"/>
	<path class="st80" d="M9.6,7.6C9.6,7.6,9.6,7.6,9.6,7.6c0,0.1-0.1,0.1-0.1,0.1c0,0,0,0,0,0c-0.1,0-0.1,0-0.2,0
		C9.2,7.6,9.2,7.5,9.1,7.4C8.8,7,8.3,6.7,7.8,6.6c-0.2,0-0.5-0.1-0.7,0c-0.1,0-0.1,0-0.2,0c0,0-0.1-0.1,0-0.2c0.3-0.1,0.6-0.1,1,0
		c0.3,0.1,0.6,0.2,0.9,0.3C9,6.9,9.2,7.2,9.4,7.5C9.5,7.5,9.5,7.5,9.6,7.6C9.6,7.6,9.6,7.6,9.6,7.6z"/>
	<path class="st39" d="M15.5,7.5c0.1,0.1,0.1,0,0.2,0.1c-0.2-0.1-0.1-0.2,0-0.3C15.8,7,15.8,6.8,16,6.5c0.1,0.1,0.2,0.3,0.2,0.4
		c0,0,0,0.1,0,0.1c0,0,0,0,0,0c0,0.1-0.1,0.2-0.1,0.2C16,7.5,16,7.6,16.2,7.6c-0.1,0.1-0.1,0-0.2,0c-0.3,0-0.5-0.1-0.8-0.2
		c0,0,0,0,0,0C15.4,7.5,15.4,7.5,15.5,7.5z"/>
	<path class="st81" d="M3.7,6.9c0,0,0.1,0.1,0,0.1C3.5,7.5,3.4,8,3.3,8.5c0,0.2-0.1,0.3,0,0.5c0,0,0,0,0,0.1
		C3.3,9.1,3.3,9.3,3.1,9.3c0,0,0-0.1,0-0.1c0-0.1,0-0.2,0-0.2c0-0.1-0.1-0.2,0-0.4c0.1-0.1,0.1-0.3,0.1-0.4c0-0.3,0.1-0.6,0.2-0.8
		c0-0.1,0-0.2,0-0.2C3.5,7,3.6,7,3.7,6.9z"/>
	<path class="st82" d="M11.6,12.1c-0.1,0.2-0.3,0.3-0.4,0.5c-0.3,0.3-0.7,0.6-1.1,0.8c-0.2,0.1-0.4,0.2-0.6,0.3c0,0,0,0,0,0
		c0-0.1,0.1-0.1,0.1-0.2c0.2-0.1,0.4-0.2,0.6-0.3c0.4-0.3,0.8-0.6,1.1-1C11.5,12,11.5,12,11.6,12.1C11.6,12.1,11.6,12.1,11.6,12.1z"
		/>
	<path class="st83" d="M2.1,11.6C2,11.1,1.9,10.5,2,10c0,0,0,0,0.1,0c0.1,0,0.1,0.1,0.1,0.1c0,0.3,0.2,0.6,0.3,0.9
		c0,0.1,0.1,0.2,0,0.3C2.3,11.4,2.2,11.5,2.1,11.6z"/>
	<path class="st84" d="M7.6,4.3C7.3,4.4,6.9,4.6,6.5,4.7c-0.1,0-0.1,0-0.1-0.1c0-0.1,0-0.1,0-0.2c0,0,0,0,0-0.1c0-0.2,0-0.2,0.2-0.2
		c0.4-0.1,0.7,0,1.1,0c0.1,0,0.1,0,0.1,0C7.8,4.3,7.7,4.3,7.6,4.3z"/>
	<path class="st48" d="M16.3,5.3c0.2,0.3,0.4,0.5,0.6,0.8c0,0.1,0,0.3,0,0.4c0,0.1,0,0.1,0,0.2c0,0.1,0,0.1-0.1,0.1
		c-0.1-0.3-0.3-0.5-0.4-0.8c0-0.1,0-0.2,0-0.4c0-0.1,0-0.2-0.1-0.3C16.2,5.3,16.2,5.3,16.3,5.3z"/>
	<path class="st85" d="M6.9,6.4c0,0,0,0.1,0,0.1C7,6.6,7.1,6.7,7.2,6.7c0.7-0.1,1.2,0.2,1.7,0.6C9,7.4,9.1,7.5,9.2,7.7
		C9.1,7.8,9,7.7,9,7.7C8.9,7.6,8.8,7.5,8.7,7.4C8.3,7.1,8,6.9,7.5,6.9c-0.2,0-0.4,0-0.5,0c0,0,0,0,0,0c0-0.1-0.1-0.2-0.1-0.2
		C6.8,6.5,6.8,6.5,6.9,6.4C6.9,6.3,6.9,6.4,6.9,6.4z"/>
	<path class="st86" d="M8.1,10.6c0,0,0-0.1,0-0.1c0,0,0,0,0,0c0-0.1,0-0.1,0.1-0.2c0.4-0.2,0.7-0.6,0.9-1C9.2,9,9.1,8.8,9.2,8.6
		c0-0.1-0.1,0-0.1-0.1c0.1,0,0.1-0.1,0.2-0.1c0,0,0.1,0,0.1,0c0,0.1,0.1,0.3,0,0.4C9.3,9.2,9.2,9.6,9,9.9c-0.2,0.2-0.4,0.4-0.6,0.5
		C8.3,10.5,8.3,10.5,8.1,10.6C8.2,10.6,8.2,10.6,8.1,10.6z"/>
	<path class="st87" d="M16,12.1c-0.3,0.3-0.5,0.5-0.8,0.7C15.1,12.9,15,13,14.8,13c-0.1,0-0.1,0.1-0.1,0.1c0,0,0-0.1-0.1-0.1
		c0-0.1,0-0.1,0-0.2c0.1,0,0,0.1,0,0.1c0.4-0.2,0.7-0.6,1.2-0.8C15.9,12.1,16,12.1,16,12.1z"/>
	<path class="st88" d="M17.9,8.8c0,0.3,0.1,0.5,0.1,0.8c0,0.1,0,0.2,0,0.3c0,0,0,0-0.1,0c-0.1-0.1,0-0.2,0-0.3c0-0.2,0-0.3,0-0.5
		c0-0.1,0-0.1,0-0.2c0,0.1,0,0.1,0,0.2c0,0.2,0.1,0.4,0,0.6c-0.1,0.1,0,0.2-0.1,0.3c-0.1-0.1,0-0.3-0.1-0.4c-0.1-0.3-0.1-0.6-0.2-1
		C17.6,8.7,17.7,8.8,17.9,8.8z"/>
	<path class="st24" d="M2.3,8.5c0.1,0.2,0.1,0.4,0.1,0.6c0,0,0,0-0.1,0c0,0,0,0,0,0c0.1,0.1,0.1,0.3,0.1,0.4c0,0.4,0.1,0.7,0.3,1
		c0,0,0,0.1,0,0.1c0,0.2,0,0.2-0.1,0.1c-0.1-0.1-0.2-0.2-0.2-0.3c0,0,0-0.1,0-0.1c0-0.1,0-0.1,0-0.2C2.1,9.8,2.2,9.4,2.1,9
		C2.1,8.8,2.1,8.7,2.3,8.5C2.2,8.5,2.2,8.5,2.3,8.5z"/>
	<path class="st89" d="M13.3,14.7C13.3,14.7,13.3,14.7,13.3,14.7c0.1,0.1,0.1,0.2,0.1,0.3c0-0.2,0.7-0.4,0.8-0.3
		c-0.1-0.1,0-0.2,0-0.3c0.1,0.2,0.1,0.4,0.1,0.7c0,0.1,0,0.1-0.1,0.1c-0.3,0-0.6,0-0.9,0.1c0,0,0,0,0,0l0,0
		C13.3,15,13.3,14.8,13.3,14.7z"/>
	<path class="st90" d="M9.8,9.6C9.8,9.6,9.8,9.6,9.8,9.6C9.6,9.8,9.6,10,9.5,10.1c-0.1,0-0.1,0.1-0.1,0.1c-0.1,0.2-0.3,0.3-0.5,0.5
		c-0.1,0.1-0.2,0.2-0.4,0.2C8.4,11,8.4,11,8.4,11.2c0,0-0.1,0-0.1,0c-0.1-0.1-0.1-0.2-0.1-0.4c0.1,0,0,0.1,0.1,0.1
		c0.3,0,0.5-0.2,0.7-0.4c0.1-0.1,0.2-0.2,0.3-0.3c0.2-0.2,0.3-0.5,0.4-0.7c0-0.1,0-0.2,0.1-0.2C9.8,9.4,9.8,9.5,9.8,9.6z"/>
	<path class="st91" d="M3.7,8.6c0.1-0.1,0.2-0.1,0.2-0.1c0,0,0,0,0,0c0,0,0,0,0,0.1C3.9,9.1,4,9.5,4.2,10c0,0.1,0,0.2,0,0.2
		c-0.1,0.1-0.1,0.1-0.2,0.1c0,0-0.1,0-0.1,0C4,10.1,3.8,10,3.8,9.8C3.7,9.4,3.6,9.1,3.7,8.6C3.6,8.7,3.6,8.7,3.7,8.6z"/>
	<path class="st92" d="M10.6,7.4c0.2-0.1,0.4-0.1,0.7-0.1c0.1,0,0.3,0,0.5-0.1c-0.2-0.1-0.3,0-0.5,0c0.2-0.2,0.4-0.4,0.6-0.5
		c0.1-0.1,0.1-0.1,0-0.1c0,0,0-0.1,0-0.1c0.1,0.2,0.2,0.4,0.3,0.6c0,0.1,0,0.1-0.1,0.1C11.6,7.3,11.1,7.4,10.6,7.4z"/>
	<path class="st93" d="M3.4,7.1c0.1,0.2,0,0.3-0.1,0.5C3.2,7.8,3.2,8.1,3.2,8.4c0,0.1,0,0.2-0.1,0.2C3,8.8,3.1,9,3.1,9.2
		C3,8.9,3,8.6,2.9,8.4c0-0.1,0-0.2,0-0.3C3,8,3,7.8,3.1,7.7c0-0.1,0-0.1,0.1-0.2c0-0.1,0.1-0.1,0-0.2C3.2,7.3,3.3,7.2,3.4,7.1z"/>
	<path class="st10" d="M8.9,4C8.7,4,8.5,4.1,8.3,4.1c0-0.1,0-0.1,0.1-0.1C8.2,4.1,8.2,4.1,7.9,4C7.7,4,7.5,3.9,7.4,3.9
		c-0.1,0-0.1,0-0.2-0.1c0-0.1,0.1-0.1,0.1-0.1c0.2,0,0.4-0.1,0.6-0.1c0.1,0,0.2,0,0.2,0C8.4,3.8,8.7,3.9,9,3.9c0,0,0,0,0,0
		C9,4,8.9,3.9,8.9,4z"/>
	<path class="st94" d="M17.9,9.9C17.9,9.9,18,9.9,17.9,9.9c0.1,0.5,0,1.1,0,1.6c0,0.2-0.1,0.4-0.1,0.6c0-0.4,0-0.8-0.1-1.2
		c0-0.2,0-0.4-0.1-0.6C17.7,10.2,17.8,10.1,17.9,9.9C17.9,9.9,17.9,9.9,17.9,9.9z"/>
	<path class="st95" d="M5.8,11.9c-0.1-0.1-0.2,0-0.2-0.1c-0.1,0-0.2,0-0.3,0c-0.3-0.1-0.5-0.4-0.7-0.6c-0.1-0.1-0.1-0.2-0.3-0.2
		c0,0,0,0,0-0.1c0.1-0.1,0.2-0.1,0.3-0.2c0,0,0,0,0.1,0c0.2,0.2,0.5,0.5,0.7,0.7C5.5,11.7,5.7,11.8,5.8,11.9c0.1-0.1,0.1-0.1,0.1,0
		C5.9,11.9,5.9,11.9,5.8,11.9z"/>
	<path class="st96" d="M8.4,11.3C8.5,11.3,8.5,11.4,8.4,11.3c0.1-0.1,0.2-0.1,0.3-0.1c0.4-0.3,0.8-0.6,1.1-1c0-0.1,0.1-0.1,0.1-0.1
		c0,0,0.1,0.1,0.1,0.1c0,0,0,0,0,0c0,0.1,0,0.1,0,0.2c-0.3,0.5-0.7,0.9-1.2,1.1c-0.1,0-0.1,0.2-0.2,0.1C8.5,11.5,8.4,11.4,8.4,11.3z
		"/>
	<path class="st24" d="M7.2,3.8c0.3,0.1,0.7,0.1,1,0.2c0.1,0,0.2,0,0.3,0c0,0-0.1,0-0.1,0.1c0,0-0.1,0-0.1,0c-0.3,0-0.7,0-1-0.1
		C7,4,6.8,4.1,6.6,4.1c0,0-0.1,0-0.1,0C6.4,4.1,6.4,4,6.5,4c-0.1,0,0,0.2-0.1,0.2C6.3,4.1,6.3,4,6.3,3.9c0,0,0,0,0.1,0
		c0.2,0,0.5,0,0.7-0.1C7.1,3.8,7.1,3.8,7.2,3.8z"/>
	<path class="st56" d="M13.1,9.9c0,0,0-0.1,0-0.1c0.1,0.2,0.2,0.4,0.2,0.7c-0.3-0.1-0.4,0.1-0.6,0.2c0,0-0.1,0.1-0.1,0.1
		c-0.1,0-0.2,0.1-0.3,0.3c-0.1,0-0.1-0.1-0.2-0.1c0,0,0,0,0,0c-0.1-0.1,0-0.2,0.1-0.3c0.2-0.1,0.4-0.2,0.6-0.3
		c0.1,0,0.1-0.1,0.3-0.1C13.2,10,13.1,9.9,13.1,9.9z"/>
	<path class="st97" d="M8,10.3C8,10.2,8,10.1,7.9,10C8,9.9,8.1,9.8,8.2,9.7c0.3-0.3,0.5-0.6,0.5-1c0,0,0,0,0,0
		c0.1,0,0.1-0.1,0.2-0.1c0,0.2,0,0.5-0.1,0.7c-0.1,0.3-0.4,0.6-0.7,0.8C8.1,10.1,8.1,10.1,8,10.3C8.1,10.2,8.1,10.3,8,10.3z"/>
	<path class="st98" d="M6.5,15.8c0.2-0.1,0.4,0,0.5,0c0.4,0.1,0.7,0.2,1.1,0.2c0.1,0,0.2,0,0.2,0c0.1,0,0.1,0.1,0.1,0.1
		c0,0,0,0,0,0.1c-0.5,0-1-0.1-1.5-0.2c-0.1,0-0.1,0-0.2,0c0,0,0,0,0,0C6.7,16,6.7,16,6.6,16C6.6,15.9,6.6,15.9,6.5,15.8z"/>
	<path class="st99" d="M10.5,12.2c0.2-0.1,0.5-0.1,0.7-0.2c0,0,0.1,0,0.1,0c0,0,0,0,0,0c0,0,0,0,0,0c0,0-0.1,0-0.2,0
		c-0.2,0-0.3,0.2-0.4,0.3c-0.3,0.3-0.7,0.6-1.1,0.7c-0.1,0-0.2,0.1-0.2,0.1c-0.1,0.1-0.1,0-0.1,0c0,0,0,0,0-0.1c0-0.1,0-0.1,0.1-0.2
		c0.3-0.1,0.6-0.4,0.9-0.6C10.4,12.4,10.5,12.4,10.5,12.2C10.6,12.3,10.6,12.3,10.5,12.2C10.6,12.3,10.6,12.3,10.5,12.2
		C10.5,12.3,10.5,12.3,10.5,12.2z"/>
	<path class="st100" d="M9.6,11.7c0.1-0.1,0.2-0.1,0.4-0.2c-0.1,0-0.1-0.1,0-0.1c0.2-0.1,0.3-0.4,0.5-0.5c0.1-0.1,0.2-0.3,0.2-0.4
		c0.1,0,0.1,0,0.2,0c0,0.1,0,0.1,0,0.2c-0.1,0.2-0.2,0.4-0.4,0.6c-0.1,0.1-0.1,0.2-0.2,0.3C10,11.6,9.8,11.7,9.6,11.7z"/>
	<path class="st90" d="M7.6,11.2c-0.6,0-1.2-0.1-1.7-0.5c-0.1-0.1-0.2-0.2-0.3-0.3c0-0.1-0.1-0.1-0.2-0.1c0,0,0,0,0-0.1
		c0,0,0.1-0.1,0.1-0.1c0.1,0,0.1,0,0.2,0c0.5,0.6,1,0.8,1.7,0.8C7.5,11.1,7.6,11,7.6,11.2z"/>
	<path class="st101" d="M3.1,9.3C3.2,9.2,3.2,9.1,3.3,9c0.1,0,0.1,0.1,0.1,0.2c0.1,0.4,0.2,0.8,0.4,1.2c-0.2,0.2-0.2,0.2-0.3-0.1
		C3.3,10,3.2,9.7,3.1,9.3z"/>
	<path class="st102" d="M9,18.7c-0.4,0-0.7,0-1-0.1c-0.1,0-0.1-0.1-0.1-0.2c0.2-0.3,0.2-0.3,0.6-0.1C8.6,18.5,8.8,18.6,9,18.7z"/>
	<path class="st103" d="M8.8,13.7c-0.4-0.1-0.8,0-1.1-0.2c0-0.1,0.1-0.1,0.1-0.1c0,0,0.1-0.1,0.1-0.1c0.2-0.1,0.3-0.1,0.5-0.1
		c0.1,0,0.1,0.1,0.1,0.1C8.7,13.4,8.8,13.6,8.8,13.7z"/>
	<path class="st36" d="M5.6,10.2c0,0-0.1,0.1-0.1,0c0.1-0.1,0.2-0.1,0.3-0.1c0.1,0,0.2,0.1,0.3,0.1c0.4,0.3,0.8,0.6,1.3,0.6
		c0.1,0,0.2,0.1,0.1,0.2C7.4,11,7.2,11,7.1,11c-0.5-0.1-0.9-0.3-1.3-0.6C5.8,10.3,5.7,10.2,5.6,10.2z"/>
	<path class="st104" d="M4.8,9.8C4.7,9.8,4.7,9.9,4.6,9.9c-0.1,0-0.1,0-0.1-0.1C4.4,9.6,4.4,9.4,4.4,9.1c0-0.2-0.1-0.3-0.1-0.5
		c0-0.1,0-0.2,0.1-0.2c0-0.1,0.1-0.1,0.1-0.1c0,0,0.1-0.1,0.1,0C4.5,8.8,4.7,9.3,4.8,9.8z"/>
	<path class="st105" d="M5.5,9.3c0.1,0,0.2-0.1,0.1-0.2c-0.1-0.1,0-0.2,0-0.3C5.5,8.5,5.6,8.3,5.7,8C5.8,7.8,6,7.5,6.2,7.4
		C6.3,7.3,6.4,7.2,6.4,7c0.1,0.1,0.1,0.3,0.1,0.4c0,0,0,0,0,0c0,0,0,0,0-0.1c0,0,0-0.1,0-0.1c0,0,0,0.1,0,0.1C6.1,7.7,5.9,8,5.8,8.4
		c-0.1,0.2-0.1,0.5,0,0.7c0,0-0.1,0.1,0,0.1C5.7,9.3,5.6,9.3,5.5,9.3C5.5,9.3,5.5,9.4,5.5,9.3C5.5,9.3,5.5,9.3,5.5,9.3z"/>
	<path class="st106" d="M9.4,13.3c0,0,0.1,0.1,0.1,0c0,0,0.1-0.1,0.2-0.1c0.4-0.1,0.6-0.4,0.9-0.6c0.2-0.1,0.3-0.3,0.5-0.4
		c0,0,0.1,0,0.1,0c0,0.1,0,0.2-0.1,0.2c-0.4,0.4-0.9,0.7-1.4,1c-0.1,0-0.1,0.1-0.1,0.1c0,0,0,0.1-0.1,0.1
		C9.5,13.5,9.4,13.4,9.4,13.3z"/>
	<path class="st107" d="M6.3,4.2C6.4,4,6.4,4,6.6,4c0,0-0.1,0-0.2,0.1c0.1,0,0.3,0,0.4,0C7,4,7.2,4,7.3,4.1c0.1,0.1,0.2,0,0.4,0
		c0.1,0,0.3,0.1,0.4,0c0,0,0.1,0,0.1,0C8,4.2,7.8,4.3,7.6,4.3c0-0.1,0.1-0.1,0.2-0.1C7.3,4.3,6.9,4.2,6.3,4.2c0,0.1,0,0.2,0,0.3
		C6.3,4.4,6.3,4.3,6.3,4.2z"/>
	<path class="st108" d="M14.2,13.8c0,0.1,0,0.1,0,0.2c-0.1-0.1-0.6,0.1-0.8,0.3c0-0.1,0-0.2,0-0.4c0-0.1,0-0.1,0-0.1
		c0,0,0,0.1,0,0.1c0-0.1,0-0.1,0.1-0.1c0,0,0.1,0,0.1,0c0.1,0,0.2-0.1,0.3-0.1c0.2,0,0-0.2,0.1-0.2C14.1,13.5,14.2,13.6,14.2,13.8z"
		/>
	<path class="st109" d="M8,10.3C8,10.3,8.1,10.3,8,10.3C8,10.1,8.2,10,8.3,10c0.5-0.3,0.6-0.8,0.6-1.3c0,0,0.1,0,0.1-0.1
		c0,0,0.1,0,0.1,0c0.1,0,0.1,0,0.1,0C9.1,8.6,9.1,8.7,9.1,8.8c-0.1,0.5-0.2,1-0.7,1.3c-0.1,0.1-0.2,0.1-0.2,0.3
		C8.1,10.4,8.1,10.3,8,10.3C8,10.3,8,10.3,8,10.3z"/>
	<path class="st110" d="M3.7,8.6c0.1,0.2,0,0.3,0,0.5c0.1,0.3,0.1,0.5,0.2,0.8c0,0,0,0,0,0c0.1,0.1,0.1,0.2,0,0.4c0,0,0,0,0,0
		c-0.1,0-0.1,0-0.1-0.1C3.6,10,3.5,9.6,3.5,9.2c0-0.1,0-0.3,0.1-0.4c0,0,0,0,0,0C3.6,8.7,3.6,8.7,3.7,8.6z"/>
	<path class="st10" d="M2.3,8.5C2.1,8.7,2.1,9,2.2,9.2c0,0.3,0,0.5,0.1,0.8c0,0,0,0.1,0,0.1c0.1,0.1,0.1,0.2,0,0.3
		c-0.2,0-0.2-0.2-0.3-0.3c0,0,0-0.1-0.1-0.1C1.9,9.7,2,9.5,2,9.2c0-0.2,0.1-0.4,0.1-0.6c0.1-0.1,0-0.2,0.1-0.3
		C2.3,8.4,2.3,8.4,2.3,8.5z"/>
	<path class="st80" d="M5.6,10.2c0.1-0.1,0.1,0,0.1,0c0.4,0.4,0.8,0.6,1.4,0.7c0.1,0,0.2-0.1,0.3,0c0,0,0.1,0,0.1,0c0,0.1,0,0,0,0
		c0,0.1,0.1,0.1,0,0.2c0,0.1,0,0.1,0,0.2c0,0,0,0-0.1-0.1c0-0.1,0-0.1-0.1-0.1c-0.5,0-0.9-0.2-1.3-0.4C5.9,10.6,5.7,10.4,5.6,10.2z"
		/>
	<path class="st111" d="M5.2,10.4c0.4,0.4,0.8,0.8,1.3,0.9c0.3,0.1,0.7,0.2,1,0.1c0.1,0,0.1,0,0.1,0c-0.2,0.1-0.3,0.1-0.5,0.1
		c-0.5,0-1-0.2-1.5-0.5c-0.1-0.1-0.3-0.2-0.4-0.3c-0.1-0.1-0.2-0.2-0.4-0.3c0,0,0-0.1,0-0.1c0,0,0.1-0.1,0.1-0.1
		C5.1,10.4,5.1,10.4,5.2,10.4C5.2,10.4,5.2,10.4,5.2,10.4z"/>
	<path class="st112" d="M13.7,8.9c0,0.1,0.1,0.2,0,0.2c-0.1-0.2-0.1-0.4-0.2-0.5c-0.1-0.2,0.1-0.3,0.2-0.4c0.1-0.2,0.3-0.2,0.4-0.2
		c0.1,0,0,0,0,0c-0.2,0-0.3,0-0.5,0c-0.1,0-0.3,0-0.4-0.1c0.1-0.1,0.3,0,0.4,0c0.2,0,0.4,0,0.6,0.1c0.1,0.1,0.2,0,0.2,0c0,0,0,0,0,0
		c-0.4,0.1-0.5,0.4-0.7,0.6C13.6,8.7,13.7,8.8,13.7,8.9z"/>
	<path class="st113" d="M4.8,9.8c0,0-0.1,0-0.1,0c0.1-0.1,0.1-0.1,0-0.2c-0.1-0.3-0.2-0.7-0.2-1c0-0.1,0-0.2,0.1-0.3c0,0,0,0,0,0
		c0,0,0.1-0.1,0.1-0.1c0,0,0.1,0,0.1,0c0,0.1,0,0.2,0,0.4c0,0.2,0,0.5,0,0.7c0,0.2,0.1,0.3,0.1,0.5C4.9,9.7,4.9,9.8,4.8,9.8z"/>
	<path class="st114" d="M6.3,3.9C6.3,3.9,6.3,3.9,6.3,3.9c0-0.1,0-0.1,0-0.2c0-0.1,0-0.2,0-0.2c0.1,0,0.1,0.1,0.2,0.1
		c0.4,0,0.7-0.1,1.1-0.1c0.2,0,0.5,0,0.7,0.1C8.2,3.7,8,3.6,7.9,3.6c-0.3,0.1-0.7,0-1.1,0.1c-0.1,0-0.1,0-0.2,0
		C6.5,3.7,6.4,3.8,6.3,3.9z"/>
	<path class="st68" d="M4.9,9.7c-0.1,0,0-0.1-0.1-0.2c0-0.2-0.1-0.3-0.1-0.5c-0.1-0.3,0-0.6,0-0.9C4.8,8,4.9,8,5,8
		c0.1,0.1,0,0.1,0,0.2C4.9,8.6,5,9.1,5,9.5c0,0,0,0.1,0.1,0.1C5.1,9.6,5,9.7,4.9,9.7z"/>
	<path class="st33" d="M17.2,6.8c0.1,0.2,0.2,0.4,0.3,0.7c0.1,0.2,0,0.4-0.1,0.6c0,0.1-0.1,0-0.2,0c-0.1-0.1-0.1-0.2-0.1-0.3
		c0-0.2,0-0.4,0.1-0.5c0-0.1,0-0.2-0.1-0.3C17.1,6.9,17.1,6.9,17.2,6.8z"/>
	<path class="st115" d="M3.5,8.8c0,0.5,0.1,1,0.3,1.5c0,0,0,0.1,0.1,0.2c0,0-0.1,0.1-0.1,0.1c-0.1,0-0.1-0.2-0.2-0.3
		C3.5,9.9,3.4,9.6,3.4,9.3c0-0.1,0-0.2-0.1-0.3c0,0,0,0,0-0.1C3.4,8.9,3.4,8.8,3.5,8.8z"/>
	<path class="st39" d="M12.4,10.9c0-0.2,0.1-0.2,0.2-0.3c0.1-0.1,0.3-0.1,0.4-0.2c0.1-0.1,0.2-0.1,0.3,0c0,0,0,0,0,0
		c0,0.1,0,0.1-0.1,0.1c-0.1,0-0.3,0.1-0.4,0.2c-0.1,0.1-0.3,0.1-0.3,0.2C12.5,11,12.4,10.9,12.4,10.9C12.3,11,12.3,10.9,12.4,10.9z"
		/>
	<path class="st116" d="M7,16.4c0.5,0,0.9,0.2,1.4,0.1c0,0,0,0.1,0,0.1c0,0,0,0.1-0.1,0.1c-0.3-0.1-0.7-0.1-1-0.1c0,0-0.1,0-0.1,0
		C7.2,16.6,7.1,16.5,7,16.4z"/>
	<path class="st117" d="M4.4,8.4c-0.1,0.3,0,0.7,0.1,1c0,0.2,0,0.4,0.1,0.5C4.5,10,4.4,10,4.3,10.1c0,0,0,0-0.1,0
		c0.1-0.1,0.1-0.3,0-0.4C4.2,9.4,4.1,9.2,4.2,8.9c0-0.1,0-0.3,0-0.4c0,0,0,0,0,0C4.3,8.4,4.3,8.4,4.4,8.4z"/>
	<path class="st85" d="M8.3,10.8C8.3,10.8,8.2,10.8,8.3,10.8C8.2,10.8,8.2,10.8,8.3,10.8c-0.1-0.1-0.1-0.2-0.1-0.2
		c0.1-0.2,0.3-0.3,0.5-0.4C9,9.9,9.2,9.5,9.3,9.1c0-0.1,0.1-0.3,0.1-0.4c0-0.1,0-0.2-0.1-0.3c0,0,0.1-0.1,0.1,0c0,0.1,0,0.3,0,0.4
		c-0.1,0.5-0.2,1-0.6,1.4c-0.1,0.1-0.3,0.2-0.4,0.3c-0.1,0-0.2,0.1-0.1,0.2C8.3,10.8,8.3,10.8,8.3,10.8z"/>
	<path class="st118" d="M15.1,11.9c0.1,0.1,0.2,0,0.3,0.1c-0.3,0-0.5,0.3-0.8,0.4c0,0,0-0.1-0.1-0.2c0-0.1,0-0.1-0.1-0.2
		c-0.1-0.2-0.1-0.3,0.2-0.2C14.8,11.9,14.9,11.9,15.1,11.9z"/>
	<path class="st60" d="M13.7,8.9c-0.1-0.2,0-0.3,0.1-0.4c0.1-0.1,0.2-0.2,0.3-0.4c0.1-0.1,0.2,0,0.3-0.1c-0.1,0-0.2,0-0.2-0.1
		c0.1,0,0.2,0,0.3,0c0,0,0.1,0,0.1,0c-0.2,0-0.3,0.1-0.4,0.3c-0.1,0.2-0.3,0.3-0.4,0.5C13.8,8.8,13.7,8.9,13.7,8.9z"/>
	<path class="st119" d="M16,7.7c0,0,0.1,0,0.1,0c-0.2,0-0.2-0.2-0.1-0.3c0.1-0.1,0.1-0.2,0.2-0.3c0,0,0,0.1,0,0.1c0,0,0-0.1,0-0.1
		c0,0,0-0.1,0-0.1c0.2,0.3,0.3,0.6,0.4,0.9C16.4,7.8,16.2,7.7,16,7.7z"/>
	<path class="st96" d="M5.3,10.8c0.3,0.1,0.5,0.3,0.7,0.5c0.3,0.1,0.6,0.2,1,0.3c0.2,0,0.5,0,0.7,0c0,0,0,0,0,0c0,0,0-0.1,0-0.1
		c0,0.1,0.1,0.1,0.1,0.2c0,0,0,0.1,0,0.1c0,0-0.1,0-0.1,0c-0.6,0-1.2-0.1-1.7-0.4c-0.2-0.1-0.4-0.2-0.6-0.4
		C5.4,10.9,5.3,10.9,5.3,10.8z"/>
	<path class="st120" d="M16.9,11.7c0.1-0.3,0.2-0.5,0.4-0.8c0,0.3,0.1,0.6,0.1,0.8c0,0.1,0,0.1-0.1,0.1C17.2,11.8,17,11.8,16.9,11.7
		z"/>
	<path class="st121" d="M2.6,10.8c0-0.1,0.1,0,0.2,0C2.4,10.2,2.3,9.6,2.3,9c0.1,0,0,0.1,0.1,0.1c0.1,0.5,0.3,1,0.4,1.5
		c0,0.1,0.1,0.2,0.1,0.3c0,0.1,0,0.1-0.1,0.2C2.6,11,2.6,10.9,2.6,10.8z"/>
	<path class="st122" d="M9,7.8c0,0-0.1,0.1-0.1,0c0,0-0.1,0-0.1,0C8.6,7.6,8.4,7.5,8.2,7.3C8,7.2,7.8,7.2,7.6,7.1
		c-0.2,0-0.3,0-0.5,0C7,7.1,7,7.1,7,7c0.1-0.1,0.2-0.1,0.3-0.1c0.6,0,1.1,0.2,1.5,0.6C8.9,7.7,9,7.7,9,7.8C9.1,7.8,9,7.8,9,7.8z"/>
	<path class="st42" d="M16.7,6.8C16.7,6.8,16.7,6.8,16.7,6.8c-0.1-0.2,0.1-0.4,0.1-0.6c0-0.1-0.1-0.1,0-0.2C16.9,6.2,17,6.3,17,6.4
		c0,0,0,0.1,0,0.1c0.1,0.2,0.1,0.4,0,0.5c0,0.1,0,0.1,0,0.2c0,0,0,0.1-0.1,0.1C16.8,7.2,16.8,7,16.7,6.8z"/>
	<path class="st123" d="M14.2,14.3c0,0.1,0,0.2,0,0.3c-0.2-0.1-0.8,0.2-0.8,0.4c-0.1-0.1-0.1-0.2-0.1-0.4
		C13.6,14.6,13.8,14.4,14.2,14.3C14.2,14.4,14.2,14.3,14.2,14.3c0-0.1,0-0.2,0-0.3C14.2,14.1,14.2,14.2,14.2,14.3z"/>
	<path class="st124" d="M5.1,9.6c0,0-0.1,0-0.1,0C5,9.4,5,9.2,4.9,9C4.9,8.7,5,8.4,5,8.1C5,8,5,8,5,8c0-0.1,0.1-0.2,0.2-0.2
		c0,0.1,0,0.1,0,0.2C5.1,8.4,5.1,8.9,5.2,9.3c0,0.1,0,0.1,0,0.2C5.1,9.5,5.1,9.5,5.1,9.6C5.1,9.6,5.1,9.5,5.1,9.6
		C5.2,9.6,5.1,9.6,5.1,9.6z"/>
	<path class="st125" d="M14.1,13.3c0,0.1,0,0.2,0,0.3c-0.1,0-0.6,0.2-0.7,0.4c0-0.1,0-0.1,0-0.2c0-0.2,0.1-0.4,0.1-0.6
		c0.1,0.1,0,0.2,0,0.3C13.6,13.3,13.9,13.2,14.1,13.3C14,13.2,13.9,13.1,14,13C14.1,13.1,14.1,13.2,14.1,13.3z"/>
	<path class="st126" d="M7.6,10.9C7.6,11,7.6,11,7.6,10.9c0,0-0.1,0-0.1,0c0-0.1-0.1-0.1-0.2-0.1c-0.3,0-0.5-0.1-0.8-0.2
		c-0.2-0.1-0.5-0.3-0.6-0.5c0-0.1-0.1,0-0.1,0c-0.1,0,0,0,0-0.1c0,0,0.1-0.1,0.1-0.1c0,0,0.1,0,0.1,0c0.4,0.3,0.7,0.6,1.2,0.6
		c0.1,0,0.2,0,0.2-0.1C7.5,10.7,7.5,10.8,7.6,10.9z"/>
	<path class="st127" d="M8.6,7.9C8.5,8,8.4,8,8.3,8C8.3,8,8.2,8,8.1,8C8,7.8,7.8,7.8,7.6,7.7c-0.1,0-0.2,0-0.3,0c0,0,0-0.1,0-0.1
		c0,0.1,0.1,0.1,0,0.2C7.2,7.7,7.1,7.6,7.1,7.5c0,0-0.1-0.1,0-0.1c0.1,0,0.3,0,0.4,0c0.3,0.1,0.5,0.2,0.8,0.4c0.1,0,0.1,0.1,0.2,0.1
		C8.6,7.9,8.6,7.8,8.6,7.9z"/>
	<path class="st86" d="M7.4,10.5c0,0.1-0.1,0.1-0.1,0.1c-0.2,0-0.4-0.1-0.7-0.1c-0.2-0.1-0.4-0.3-0.6-0.4C6,10.1,6,10.1,6,10
		C6,9.9,6,9.9,6.1,9.9c0.2,0.2,0.5,0.4,0.8,0.5C7,10.5,7.2,10.4,7.4,10.5C7.4,10.5,7.4,10.5,7.4,10.5C7.4,10.5,7.4,10.5,7.4,10.5z"
		/>
	<path class="st128" d="M8.5,7.9c-0.1,0.1-0.1,0-0.1,0C8,7.6,7.7,7.4,7.2,7.5c0,0-0.1,0-0.1,0c-0.1,0,0,0,0,0.1C7,7.4,7,7.3,7,7.1
		c0,0,0-0.1,0-0.1c0,0,0,0,0,0c0,0,0,0,0,0.1c0,0,0,0,0,0.1c0,0,0,0.1,0,0.1c0.2,0,0.4,0,0.7,0.1C8,7.4,8.2,7.5,8.4,7.7
		C8.5,7.7,8.5,7.8,8.5,7.9z"/>
	<path class="st129" d="M16.3,5.3c-0.1,0.1,0,0.2,0.1,0.2c0.1,0.1,0.1,0.2,0,0.3c-0.1,0.1,0,0.2,0,0.3c-0.1-0.2-0.3-0.4-0.4-0.6
		c0-0.1,0.1-0.2,0.1-0.3C16,5,16,5,16.1,5C16.1,5.1,16.2,5.2,16.3,5.3z"/>
	<path class="st130" d="M4.3,10.1C4.3,10.1,4.3,10.1,4.3,10.1c0,0.1-0.1,0.1-0.1,0.1c0,0,0,0,0,0C4.2,10,4,9.8,4,9.7
		C3.9,9.3,3.8,8.9,3.9,8.5c0,0,0.1,0,0.1,0c0.1,0,0.1,0,0.2,0C4,8.6,4.1,8.8,4.1,8.9c0,0.3,0.1,0.6,0.2,0.9C4.3,9.9,4.3,10,4.3,10.1
		z"/>
	<path class="st131" d="M8.7,8.7c0.1,0.1,0,0.3,0,0.4C8.5,9.4,8.4,9.7,8.1,9.9C8,9.9,8,10,7.9,10c0-0.1-0.1-0.1-0.1-0.2
		c0.3-0.3,0.6-0.5,0.7-1C8.5,8.8,8.6,8.7,8.7,8.7z"/>
	<path class="st132" d="M8.2,8.1C7.9,8.2,7.7,8.3,7.5,8.4c-0.1,0-0.1,0-0.1-0.1c0-0.1-0.1-0.3-0.1-0.4c0-0.1,0-0.1,0-0.2
		c0,0,0,0,0,0c0,0,0.1,0.1,0.1,0.1C7.6,7.9,7.7,8,7.9,8c0,0,0.1,0,0.1,0c0,0,0.1,0,0.1,0C8.2,8,8.2,8,8.2,8.1
		C8.2,8.1,8.2,8.1,8.2,8.1z"/>
	<path class="st133" d="M16.9,7.3c0-0.2,0.1-0.3,0.2-0.5c0-0.1-0.1-0.2-0.1-0.4c0.1,0,0.1,0.1,0.1,0.2c0,0,0,0.1,0.1,0.1
		c0,0,0,0,0,0.1c-0.1,0.1,0,0.1,0,0.2c0.1,0.1,0.1,0.3,0,0.4c-0.1,0.1-0.1,0.2,0,0.3c0,0,0,0.1,0,0c0,0,0,0,0,0
		C17,7.6,17,7.5,16.9,7.3z"/>
	<path class="st134" d="M8.5,7.9C8.3,7.6,8.1,7.5,7.8,7.4C7.6,7.3,7.4,7.3,7.2,7.3c-0.1,0-0.1,0-0.1-0.1c0.1-0.1,0.1-0.1,0.2-0.1
		c0.5,0,0.9,0.2,1.3,0.5c0,0,0.1,0.1,0.2,0.1c0,0,0.1,0,0.1,0c-0.1,0-0.2,0.1-0.2,0.1C8.6,7.9,8.5,7.9,8.5,7.9z"/>
	<path class="st135" d="M7.7,9.4C7.7,9.4,7.7,9.3,7.7,9.4C7.6,9,7.6,9.1,7.8,9C8,8.9,8.1,8.8,8.3,8.8C8.2,9.1,8.1,9.4,7.8,9.5
		C7.7,9.5,7.8,9.4,7.7,9.4z"/>
	<path class="st136" d="M7.7,9.4c0.1,0,0.1,0.1,0.1,0.1c0.1,0,0,0.1,0.1,0.2c0,0,0-0.1,0-0.2c0.2-0.2,0.4-0.4,0.4-0.6
		c0-0.1,0.1-0.1,0.1-0.1c0,0,0,0,0.1,0c0.1,0,0.1,0,0.2,0c0,0,0.1,0,0.1,0c0,0,0,0,0,0c-0.1,0-0.1,0-0.1,0.1C8.5,9.2,8.3,9.5,8,9.7
		c0,0,0,0.2-0.1,0.1C7.8,9.7,7.7,9.5,7.7,9.4z"/>
	<path class="st137" d="M6.1,9.9C6,9.9,6,10,6,10c0,0-0.1,0-0.1,0C6,9.9,6.1,9.8,6.2,9.8c0,0,0.1,0,0.1,0c0.2,0.2,0.4,0.3,0.7,0.4
		c0.1,0,0.2,0,0.2,0.2c0,0,0,0,0,0c0,0,0,0-0.1,0c-0.2-0.1-0.5-0.1-0.7-0.2C6.4,10.1,6.3,10,6.1,9.9z"/>
	<path class="st138" d="M4.3,11c0.1,0,0.2,0.1,0.3,0.2c0.2,0.2,0.4,0.4,0.7,0.6c-0.1,0-0.1,0-0.2,0c-0.1,0-0.2-0.1-0.2-0.1
		c-0.2-0.2-0.4-0.4-0.6-0.6c0,0,0,0,0,0C4.2,11,4.3,11,4.3,11z"/>
	<path class="st139" d="M14,13c0,0.1,0,0.2,0,0.4c-0.1-0.1-0.4,0.1-0.6,0.2c0-0.1,0.1-0.3,0.1-0.4c0-0.1,0-0.1,0-0.2
		c0,0,0.1,0,0.1,0c0,0,0,0,0,0c0.1,0,0.1-0.1,0.2-0.1c0,0,0.1,0,0.1-0.1C14,12.8,14,12.9,14,13z"/>
	<path class="st140" d="M8.5,11.6c0-0.1,0.2-0.2,0.3-0.2c0.2-0.1,0.4-0.3,0.6-0.5c0.2-0.2,0.4-0.4,0.6-0.7c0,0,0,0.1,0.1,0.1
		c0,0,0,0.1,0,0.1c-0.3,0.5-0.7,0.9-1.2,1.1c-0.1,0-0.2,0.1-0.2,0.2c0,0.1,0,0.1,0,0.2c0,0,0,0-0.1,0C8.6,11.7,8.6,11.7,8.5,11.6z"
		/>
	<path class="st141" d="M6.5,7.4C6.5,7.4,6.5,7.4,6.5,7.4c0.1,0.1,0.1,0.2,0.1,0.2c0,0,0,0.1,0,0.1c0,0,0,0.1,0,0.1
		C6.5,7.9,6.4,8,6.3,8.1C6.2,8.4,6.2,8.6,6.2,8.9c0,0,0,0.1,0,0.1C6.1,9,6,9.1,6,9.1c0,0-0.1,0-0.1,0c0,0,0,0,0-0.1
		C5.9,9,6,8.9,6,8.8C6,8.4,6,8.1,6.3,7.8c0.1-0.1,0.1-0.1,0.1-0.2C6.4,7.5,6.4,7.4,6.5,7.4C6.4,7.4,6.4,7.4,6.5,7.4z"/>
	<path class="st142" d="M3.1,7.3c0.1,0,0.2,0.1,0.1,0.2C3.1,7.7,3.1,7.9,3,8c0,0.1-0.2,0.2-0.1,0.3C2.9,8.2,2.8,7.9,2.8,7.7
		c0-0.1,0.1-0.2,0.1-0.2C3,7.4,3,7.4,3.1,7.3z"/>
	<path class="st143" d="M6.5,9.6c0.1-0.1,0.3-0.2,0.4-0.2C7,9.3,7,9.4,7.1,9.5c0,0.2,0.1,0.3,0.1,0.5c0,0,0,0.1,0,0.1
		c0,0-0.1,0-0.1,0C7.1,10,7.1,9.9,7,9.9C6.8,9.8,6.7,9.7,6.5,9.6C6.5,9.7,6.5,9.6,6.5,9.6z"/>
	<path class="st70" d="M6.6,5.3c0.1-0.1,0.3-0.1,0.5-0.2c0.1,0,0.1,0,0.1,0c0,0,0.1,0,0.2,0c0.1,0,0.1,0,0.1,0.1
		C7.4,5.4,7.3,5.5,7.1,5.5c-0.1,0-0.3,0-0.4,0C6.6,5.6,6.6,5.5,6.6,5.3C6.6,5.4,6.6,5.3,6.6,5.3z"/>
	<path class="st144" d="M9.3,13.2c0,0-0.1-0.1-0.1-0.1c0-0.1,0-0.1,0.1-0.2c0.1,0,0.1-0.1,0.2-0.1c0,0,0,0,0,0c0,0,0,0,0,0
		c0,0,0,0,0,0c0-0.1,0.1,0,0.1-0.1l0,0c0.1,0,0.2-0.1,0.3-0.1c0,0,0.1,0,0.1,0c0.1,0,0.3-0.1,0.4-0.1c0,0,0.1,0,0.1,0
		c0,0,0.1,0,0.1,0c0.1,0.1,0,0.1-0.1,0.1c-0.3,0.2-0.6,0.5-1,0.6C9.4,13,9.4,13.2,9.3,13.2z"/>
	<path class="st145" d="M9.3,13.2c0-0.2,0.3-0.3,0.4-0.4c0.2-0.1,0.3-0.2,0.5-0.3c0.1-0.1,0.2-0.1,0.3-0.2c0,0,0,0,0.1,0
		c-0.1,0.2-0.3,0.3-0.4,0.4c-0.2,0.2-0.5,0.3-0.7,0.4C9.4,13.1,9.4,13.2,9.3,13.2C9.3,13.2,9.3,13.2,9.3,13.2z"/>
	<path class="st146" d="M13.6,7.9c0.2,0,0.3,0.1,0.5,0C14.1,8,14,8,14,8c-0.1,0-0.2,0-0.3,0.2c0,0,0,0,0,0c-0.1,0.1-0.2,0.2-0.3,0.4
		c-0.1-0.2-0.2-0.4-0.2-0.6C13.4,7.9,13.5,7.9,13.6,7.9z"/>
	<path class="st147" d="M16.1,5C16.1,5.1,16,5,16.1,5c0,0.2-0.1,0.3-0.2,0.4c-0.2-0.2-0.3-0.4-0.5-0.7c0,0,0,0,0,0
		c0.2,0.1,0.3,0.1,0.5,0.2C16,4.9,16,5,16.1,5z"/>
	<path class="st148" d="M3.9,13.5C3.9,13.5,3.9,13.5,3.9,13.5c-0.1-0.2-0.4-0.3-0.5-0.5c-0.1-0.1-0.1-0.2-0.1-0.3c0,0,0-0.1,0-0.1
		c0,0,0-0.1,0.1-0.1C3.6,12.8,3.7,13.1,3.9,13.5z"/>
	<path class="st149" d="M11,10.5c0.1,0,0.1,0,0.2,0c0.1,0,0,0.1,0,0.1c-0.1,0.1-0.2,0.3-0.2,0.4c-0.1,0.1-0.2,0.2,0,0.3
		c0,0-0.1,0-0.1,0c-0.1,0-0.2,0.1-0.3,0.1c-0.1-0.1,0-0.1,0-0.2C10.7,11,10.8,10.8,11,10.5z"/>
	<path class="st150" d="M2.1,10.1c0.1,0.1,0.2,0.2,0.3,0.3c0,0,0,0.1,0,0.1c0.1,0.3,0.2,0.5,0.2,0.7c0,0-0.1,0.1-0.1,0.1
		c-0.1-0.3-0.2-0.6-0.3-0.8C2.1,10.4,2.1,10.3,2.1,10.1z"/>
	<path class="st151" d="M3.4,12.5C3.4,12.5,3.4,12.6,3.4,12.5c-0.2-0.1-0.4-0.2-0.5-0.4c-0.1-0.1,0-0.1,0-0.2c0,0,0.1-0.1,0.1-0.1
		c0.1,0,0.1,0,0.1,0.1C3.3,12.1,3.3,12.3,3.4,12.5z"/>
	<path class="st114" d="M9.5,13.5c0,0,0-0.1,0-0.1c0.1-0.1,0.2-0.1,0.3-0.2c0.5-0.3,1-0.7,1.4-1.1c0,0,0,0,0,0c0,0,0,0,0,0
		c-0.1,0.2-0.3,0.4-0.4,0.5c-0.3,0.3-0.6,0.5-1,0.7C9.8,13.4,9.6,13.5,9.5,13.5C9.5,13.6,9.5,13.6,9.5,13.5z"/>
	<path class="st152" d="M7.2,10C7.2,10,7.2,10,7.2,10C7.2,10,7.2,10,7.2,10c0.1,0,0.1,0.1,0.1,0.1c0,0.1,0,0.1,0,0.2
		c0,0,0,0.1,0,0.1c-0.1-0.1-0.2-0.1-0.3-0.2C6.7,10.1,6.5,10,6.4,9.8c0-0.1,0.1-0.1,0.2-0.1C6.8,9.9,7,10,7.2,10z"/>
	<path class="st153" d="M4.5,12c0,0-0.1,0-0.1,0c-0.1,0-0.1,0-0.1,0c0,0-0.1,0-0.1,0C4,12,4,11.8,3.9,11.6c0,0,0,0,0,0
		c0-0.1-0.1-0.2,0-0.2c0.1,0,0.1,0.1,0.2,0.1c0.2,0.1,0.3,0.3,0.5,0.4C4.6,12,4.5,12,4.5,12z"/>
	<path class="st154" d="M6.7,8.3C6.7,8.3,6.7,8.3,6.7,8.3c0.2,0.4,0.1,0.5-0.4,0.6c0,0-0.1,0,0,0c0.2-0.2,0.1-0.5,0.2-0.7
		c0,0,0-0.1,0.1-0.1C6.7,8.1,6.7,8.2,6.7,8.3z"/>
	<path class="st155" d="M10.9,11.4C10.9,11.3,10.9,11.3,10.9,11.4c-0.2,0-0.2-0.1-0.1-0.2c0.1-0.2,0.2-0.4,0.4-0.6c0,0,0-0.1,0-0.1
		c0.1,0,0.2,0,0.4,0c-0.2,0.1-0.2,0.2-0.3,0.4C11.2,11.1,11.1,11.2,10.9,11.4L10.9,11.4L10.9,11.4z"/>
	<path class="st156" d="M4.6,12c-0.1,0-0.2,0-0.2-0.1c-0.1-0.2-0.3-0.3-0.4-0.5c0,0.1,0.1,0.2,0,0.2c0,0,0-0.1-0.1-0.2
		c-0.1-0.2,0.1-0.2,0.2-0.2C4.3,11.4,4.5,11.7,4.6,12C4.7,12,4.6,12,4.6,12z"/>
	<path class="st157" d="M4.7,11.9c-0.2-0.2-0.5-0.5-0.7-0.8c0-0.1,0.1-0.1,0.1-0.1c0,0,0,0.1,0.1,0.1c0.1,0,0.1,0.1,0.2,0.2
		c0.2,0.2,0.4,0.4,0.6,0.5c0,0,0,0,0,0C4.9,11.9,4.8,11.9,4.7,11.9C4.7,12,4.7,12,4.7,11.9z"/>
	<path class="st158" d="M17.2,8.1c0.1,0,0.1,0,0.2-0.1c0.1-0.2,0.1-0.3,0.1-0.5c0.1,0.3,0.2,0.6,0.3,0.9C17.6,8.3,17.4,8.2,17.2,8.1
		z"/>
	<path class="st159" d="M8.2,8.1C8.2,8.1,8.2,8.1,8.2,8.1C8.2,8,8.2,8,8.2,8.1C8.1,8.1,8,8.1,8,8.1C7.8,7.9,7.6,7.8,7.3,7.8
		c0,0,0,0,0,0c0,0-0.1,0,0-0.1c0.1-0.1,0.2-0.1,0.4,0C7.9,7.8,8.1,7.9,8.3,8C8.3,8.1,8.2,8.1,8.2,8.1z"/>
	<path class="st115" d="M11,10.5c0.1,0.1,0,0.2-0.1,0.3c-0.1,0.2-0.2,0.4-0.4,0.6c0,0,0,0.1,0,0.1c0,0.1-0.1,0-0.1,0.1
		c0,0,0,0-0.1,0c0-0.1,0-0.2,0.1-0.3c0.2-0.2,0.4-0.5,0.5-0.8C10.9,10.5,10.9,10.5,11,10.5z"/>
	<path class="st160" d="M13.5,12.6c0-0.1-0.1-0.1-0.1-0.2c0-0.2,0.2-0.3,0.4-0.2c0,0,0,0,0,0c0,0,0,0,0,0c0.1,0.1,0,0.2,0.1,0.3
		c0,0.1,0,0.2,0,0.2c-0.1,0-0.2,0.1-0.2,0.3c0,0,0,0,0,0.1l0,0C13.6,12.9,13.6,12.8,13.5,12.6C13.5,12.7,13.6,12.7,13.5,12.6z"/>
	<path class="st159" d="M6.6,8C6.5,8.3,6.5,8.6,6.4,8.9c0,0,0,0-0.1,0c0,0,0,0-0.1-0.1c0-0.2,0-0.4,0.1-0.6C6.4,8.1,6.5,8,6.5,7.8
		c0,0,0-0.1,0-0.1c0,0,0,0,0,0c0,0,0,0.1,0,0.1C6.6,7.9,6.6,8,6.6,8z"/>
	<path class="st161" d="M11,11.3c0.1-0.2,0.2-0.4,0.3-0.7c0.1-0.1,0.1-0.2,0.2-0.1c0.1,0,0.1,0,0.2,0c0,0,0,0,0,0c0,0,0,0,0,0
		c-0.2,0-0.3,0.1-0.3,0.3c0,0.1-0.1,0.2-0.2,0.3c0,0,0.1,0,0.1,0.1c0,0,0,0,0,0c-0.1,0.1-0.1,0-0.2,0.1C11.1,11.3,11,11.4,11,11.3z"
		/>
	<path class="st162" d="M8,12.4c-0.3-0.1-0.5-0.1-0.8-0.2c0.1,0,0.2-0.1,0.2,0c0-0.1,0.2-0.1,0.2-0.1c0.1,0,0.2,0,0.3,0
		c0,0,0,0,0-0.1C8.2,12.4,8.2,12.4,8,12.4z"/>
	<path class="st163" d="M8.4,8.8c-0.1,0.2,0,0.4-0.2,0.5C8.1,9.4,7.9,9.5,7.9,9.7c0-0.1-0.1-0.1-0.1-0.2C8,9.4,8.2,9.2,8.2,9
		c0-0.1,0.1-0.1,0.1-0.2C8.3,8.8,8.4,8.8,8.4,8.8z"/>
	<path class="st164" d="M17.9,10c-0.1,0.1-0.1,0.2-0.2,0.3c0-0.2-0.1-0.4-0.1-0.7c0.1,0.1,0.1,0.2,0.1,0.3c0-0.3,0.3-0.5,0.1-0.8
		c0,0,0,0,0,0c0.1,0.2,0,0.3,0.1,0.5C17.9,9.7,17.9,9.8,17.9,10z"/>
	<path class="st115" d="M5,11.9c-0.1,0-0.3,0-0.3-0.1c-0.1-0.1-0.3-0.2-0.4-0.4c0,0-0.1-0.1-0.2-0.1c-0.1,0,0-0.1,0-0.1c0,0,0,0,0,0
		c0.2,0.1,0.2,0.2,0.4,0.4C4.7,11.5,4.8,11.7,5,11.9C5,11.8,5,11.8,5,11.9C5,11.8,5,11.9,5,11.9L5,11.9z"/>
	<path class="st165" d="M7.5,5.3C7.5,5.2,7.5,5.2,7.5,5.3C7.4,5.2,7.3,5.3,7.2,5.1c0,0-0.1,0-0.1,0C7.2,5.1,7.3,5,7.5,5
		C7.6,5,7.7,5,7.8,4.9l0,0c0.1,0,0,0.1,0.1,0.1c0,0,0.1,0,0.1,0c0,0.1-0.1,0.1-0.1,0.1c-0.1,0-0.2,0.1-0.2,0.1
		C7.6,5.3,7.5,5.3,7.5,5.3C7.5,5.3,7.5,5.3,7.5,5.3z"/>
	<path class="st166" d="M2.6,11.2c-0.1-0.2-0.2-0.5-0.2-0.7c0.1,0.1,0.1,0.2,0.2,0.3c0.1,0.1,0.1,0.2,0.2,0.3
		C2.8,11.2,2.7,11.2,2.6,11.2z"/>
	<path class="st167" d="M7.2,10c-0.1,0.1-0.2,0-0.3,0C6.8,9.9,6.6,9.9,6.5,9.7c0-0.1-0.1,0-0.2,0.1c0,0-0.1,0-0.1,0
		c0.1-0.1,0.2-0.1,0.3-0.1c0.2,0.1,0.4,0.2,0.6,0.3C7.1,9.9,7.1,10,7.2,10z"/>
	<path class="st168" d="M12.4,10.9C12.4,10.9,12.4,10.9,12.4,10.9c0.1,0.2,0.1,0.2,0.2,0.3c0,0,0,0,0,0c-0.1,0-0.2,0-0.4,0
		c0,0,0,0-0.1,0c0,0-0.1,0-0.1-0.1c0-0.1,0.1-0.2,0.1-0.3c0,0,0,0,0.1,0C12.2,10.8,12.3,10.8,12.4,10.9z"/>
	<path class="st169" d="M8.6,11.8C8.7,11.8,8.7,11.8,8.6,11.8c0.1-0.1,0.2-0.1,0.4-0.1c0.1,0,0.1,0,0.2,0c0,0.2-0.1,0.2-0.2,0.3
		c0,0,0,0,0,0C8.7,12.1,8.7,12.1,8.6,11.8z"/>
	<path class="st170" d="M10.9,4.9c-0.2,0-0.3-0.2-0.4-0.2c-0.1,0-0.1-0.1-0.2-0.1c0,0-0.1,0-0.1-0.1c0-0.1,0.1,0,0.1,0
		c0,0,0.1,0,0.1,0C10.7,4.6,10.8,4.7,10.9,4.9z"/>
	<path class="st171" d="M13.7,13c0,0,0-0.1,0-0.1c-0.1-0.1,0-0.2,0.1-0.2c0.1,0,0.1-0.1,0.1-0.2c0.1,0.1,0,0.2,0.1,0.3
		c0,0.1,0,0.1,0,0.2C13.9,12.8,13.8,13,13.7,13z"/>
	<path class="st172" d="M6.6,5.4C6.7,5.6,6.9,5.4,7,5.5c0,0,0,0,0.1,0c0,0,0,0,0,0C7,5.6,6.9,5.7,6.8,5.8c0,0,0,0-0.1,0.1
		c0,0,0,0-0.1,0c0-0.1-0.1-0.1,0-0.2C6.6,5.6,6.5,5.5,6.6,5.4z"/>
	<path class="st173" d="M7.8,5.1C7.9,5.1,7.9,5,8,5C7.9,5,7.8,5,7.8,4.9C7.9,4.9,7.9,4.8,8,4.8c0.1,0,0.2-0.1,0.4-0.1
		c0.1,0,0.1,0,0.1,0.1c0,0,0,0,0,0c-0.1,0-0.1,0-0.2,0.1c0,0-0.1,0-0.1,0.1c0,0-0.1,0-0.1,0C8,5.1,8,5.1,7.8,5.1
		C7.9,5.1,7.9,5.1,7.8,5.1z"/>
	<path class="st174" d="M13.4,4.3C13.4,4.4,13.4,4.4,13.4,4.3c-0.1,0.1-0.1,0.1-0.1,0.1c-0.2-0.1-0.5-0.1-0.7-0.1
		c-0.4,0-0.8,0-1.2,0c0,0-0.1,0-0.1,0c-0.1-0.1,0-0.1,0.1-0.1c0.4,0,0.9,0,1.3,0C13,4.3,13.2,4.3,13.4,4.3z"/>
	<path class="st175" d="M5,13.9c0-0.1,0.1-0.1,0.2,0C5.3,14,5.3,14,5.4,14.1c-0.2,0.2-0.2,0.2-0.3,0C5.1,14,5,14,5,13.9z"/>
	<path class="st176" d="M9.8,8.8c0-0.1-0.1-0.2-0.1-0.3c0,0,0-0.1,0-0.1c0.1,0,0,0.1,0.1,0.1c0,0,0,0,0,0.1c0-0.1,0-0.2,0-0.3
		c-0.1,0-0.2,0-0.3,0c0.1-0.1,0.2-0.1,0.3-0.1c0.1,0,0,0.1,0.1,0.2c0,0.1,0,0.1,0,0.2c0,0,0,0,0,0C9.9,8.7,9.9,8.7,9.8,8.8
		C9.9,8.8,9.9,8.8,9.8,8.8C9.9,8.8,9.9,8.8,9.8,8.8z"/>
	<path class="st177" d="M8.9,3.8c0.2-0.1,0.3,0.1,0.5,0.1C9.3,3.9,9.2,3.9,9,3.9c0,0,0,0,0,0l0,0C9,3.9,8.9,3.8,8.9,3.8z"/>
	<path class="st178" d="M8.6,13.3c-0.1,0-0.1-0.1-0.2,0c0,0,0,0,0,0c-0.1-0.1-0.3,0-0.4,0c0.1-0.1,0.3-0.1,0.4-0.2
		c0.1-0.1,0.2,0,0.2,0.1C8.6,13.2,8.6,13.3,8.6,13.3z"/>
	<path class="st179" d="M9.4,12.7c0.1,0,0.1-0.1,0.2,0c-0.1,0.1-0.2,0.2-0.4,0.2c-0.1,0-0.1,0.1-0.1,0.1c-0.1-0.2-0.2-0.3,0-0.3
		C9.3,12.7,9.4,12.7,9.4,12.7z"/>
	<path class="st180" d="M8.4,4.8C8.5,4.8,8.5,4.8,8.4,4.8c-0.2-0.1-0.3,0-0.4,0c0.3-0.1,0.6-0.2,0.9-0.2C8.9,4.7,8.8,4.7,8.7,4.8
		C8.6,4.8,8.5,4.9,8.4,4.8z"/>
	<path class="st181" d="M12.3,8c-0.2-0.1-0.3,0-0.5,0c0.2-0.1,0.4,0,0.6-0.1c0.1,0,0.1,0.1,0.1,0.2c0,0.1,0,0.1,0,0.2c0,0,0,0,0,0
		c0,0,0,0,0,0c-0.1,0-0.1-0.2-0.1-0.2C12.4,8,12.3,8,12.3,8z"/>
	<path class="st182" d="M5.9,4C5.5,4,5.2,4.1,4.8,4.1c0,0,0-0.1,0.1-0.1c0.2-0.1,0.4-0.1,0.6-0.1c0.2,0,0.3-0.1,0.3-0.3c0,0,0,0,0,0
		C5.9,3.7,5.9,3.9,5.9,4z"/>
	<path class="st183" d="M13,11.9C13,11.8,12.9,11.8,13,11.9c0.2-0.1,0.4-0.1,0.7-0.1c0.1,0,0.1,0,0.1,0.1c0,0,0,0,0,0
		c-0.2,0-0.4,0-0.6,0C13.1,11.9,13,11.9,13,11.9z"/>
	<path class="st184" d="M12,11.1C12,11.1,12.1,11.1,12,11.1c-0.2,0.1-0.4,0.1-0.7,0.1c0,0,0,0,0,0c0,0,0,0,0,0c0,0,0,0,0,0
		c0.1-0.1,0.2-0.1,0.3-0.1C11.8,11.1,11.9,11.1,12,11.1C12,11.1,12,11.1,12,11.1z"/>
	<path class="st131" d="M8.7,8.7c-0.1-0.1-0.2,0-0.3,0C8.6,8.6,8.8,8.6,9,8.5c0,0,0,0.1-0.1,0.1C8.8,8.6,8.8,8.7,8.7,8.7z"/>
	<path class="st170" d="M10.5,4.4c-0.1,0-0.2,0-0.4,0c-0.1,0-0.2,0-0.3,0C10.1,4.4,10.3,4.3,10.5,4.4z"/>
	<path class="st185" d="M6.8,6.3c0,0.1,0.1,0.2,0,0.3C6.8,6.5,6.7,6.3,6.7,6.1c0,0,0,0.1,0.1,0.1C6.8,6.2,6.8,6.3,6.8,6.3z"/>
	<path class="st81" d="M14.6,8c0,0-0.1,0-0.1,0C14.7,8,14.8,8,15,8c0,0,0,0,0,0C14.9,8,14.7,8,14.6,8z"/>
	<path class="st186" d="M9,7.8C9,7.8,9,7.8,9,7.8c0.1-0.1,0.2-0.1,0.3-0.2c0.1,0,0.1,0,0.2,0c0,0,0,0,0,0C9.3,7.7,9.2,7.8,9,7.8z"/>
	<path class="st134" d="M5.9,9C5.9,9.1,5.9,9.1,5.9,9c0,0.1,0,0.1-0.1,0.1c0,0-0.1,0-0.1,0c0,0,0,0,0.1-0.1C5.8,9.1,5.8,9,5.9,9z"/>
	<path class="st155" d="M10.3,11.5c0-0.1,0.1,0,0.1-0.1c0.1,0,0.2-0.1,0.3,0C10.6,11.4,10.5,11.5,10.3,11.5z"/>
	<path class="st182" d="M5.8,3.4c0.1-0.1,0-0.1,0-0.2c0,0.2,0,0.3,0,0.5c0,0,0,0,0,0C5.7,3.6,5.8,3.5,5.8,3.4z"/>
	<path class="st187" d="M13.6,7.9c-0.1,0.1-0.3,0-0.4,0c0,0,0,0,0,0C13.4,7.9,13.5,7.9,13.6,7.9z"/>
	<path class="st188" d="M6.3,6.7C6.3,6.7,6.3,6.7,6.3,6.7C6.2,6.6,6.2,6.5,6.2,6.4c0,0,0-0.1,0-0.1c0,0,0,0,0,0
		C6.3,6.5,6.3,6.6,6.3,6.7C6.3,6.7,6.3,6.7,6.3,6.7z"/>
	<path class="st179" d="M10.3,12.3c-0.1,0.1-0.3,0.1-0.4,0.1C10,12.4,10.1,12.3,10.3,12.3z"/>
	<path class="st189" d="M6.6,8c0-0.1,0-0.1,0-0.2C6.7,8,6.7,8.1,6.7,8.3C6.7,8.2,6.6,8.1,6.6,8z"/>
	<path class="st190" d="M17.4,12.5c-0.1,0.1-0.2,0-0.3-0.1c0,0,0.1,0,0.1,0C17.2,12.5,17.3,12.4,17.4,12.5z"/>
	<path class="st137" d="M7.3,10.4c0.1-0.1,0-0.2,0-0.2c0.1,0.1,0.1,0.2,0.1,0.3c0,0,0,0,0,0C7.3,10.5,7.3,10.4,7.3,10.4L7.3,10.4z"
		/>
	<path class="st191" d="M7.3,7.7C7.3,7.7,7.3,7.8,7.3,7.7c0,0.1,0,0.2,0,0.2c0,0,0-0.1,0-0.1c0-0.1,0-0.1,0-0.2
		C7.2,7.6,7.2,7.7,7.3,7.7z"/>
	<path class="st192" d="M17.8,14.1c0,0.1,0,0.2,0,0.2c0,0,0,0.1-0.1,0.1c0,0,0-0.1,0-0.1C17.7,14.2,17.7,14.1,17.8,14.1z"/>
	<path class="st173" d="M7.8,4.9C7.7,5,7.6,5,7.5,5C7.6,5,7.7,4.9,7.8,4.9z"/>
	<path class="st183" d="M13.8,11.8c0,0.1,0.1,0.2,0.1,0.3c0,0,0,0,0,0C13.7,12.1,13.7,12,13.8,11.8L13.8,11.8z"/>
	<path class="st24" d="M2.2,8.3c0,0.1,0,0.2-0.1,0.2c0,0,0,0,0,0C2.1,8.4,2.2,8.3,2.2,8.3C2.2,8.2,2.2,8.3,2.2,8.3z"/>
	<path class="st193" d="M6.6,5.4c0,0.1,0,0.2,0,0.3C6.6,5.5,6.5,5.4,6.6,5.4C6.6,5.3,6.6,5.4,6.6,5.4z"/>
	<path class="st194" d="M12.1,11.2c0.1-0.1,0.2,0,0.4,0C12.4,11.2,12.3,11.2,12.1,11.2z"/>
	<path class="st179" d="M9.8,12.5c-0.1,0.1-0.2,0.1-0.3,0.1C9.6,12.5,9.7,12.5,9.8,12.5z"/>
	<path class="st195" d="M1.4,8.1c0,0,0,0.1,0,0.2c0,0,0,0.1-0.1,0.1C1.3,8.3,1.3,8.2,1.4,8.1z"/>
	<path class="st12" d="M2.8,6.7C2.8,6.8,2.8,6.8,2.8,6.7c0,0.1,0,0.1,0,0.1C2.7,6.8,2.7,6.8,2.8,6.7C2.7,6.7,2.7,6.7,2.8,6.7z"/>
	<path class="st196" d="M9.3,18.2c-0.1,0-0.1,0-0.2,0c0,0-0.1,0-0.1-0.1C9.2,18.2,9.3,18.2,9.3,18.2z"/>
	<path class="st26" d="M13.8,7.2c0.1,0,0.2,0,0.3,0c0,0,0,0,0,0c0,0,0,0,0,0C13.9,7.3,13.8,7.3,13.8,7.2z"/>
	<path class="st65" d="M5.5,9.3C5.5,9.3,5.5,9.3,5.5,9.3C5.5,9.3,5.5,9.4,5.5,9.3c0,0.1-0.1,0.1-0.1,0.1C5.4,9.3,5.4,9.3,5.5,9.3z"
		/>
	<path class="st18" d="M14.6,4.6C14.6,4.6,14.6,4.6,14.6,4.6c0.1,0,0.1,0,0.1,0C14.7,4.6,14.6,4.7,14.6,4.6
		C14.6,4.7,14.6,4.6,14.6,4.6z"/>
	<path class="st85" d="M7,7C7,7,7,7.1,7,7.1C7,7.1,6.9,7,6.9,6.9l0,0C7,6.9,7,6.9,7,7z"/>
	<path class="st154" d="M6.2,8.9C6.3,8.9,6.3,8.9,6.2,8.9C6.3,9,6.2,8.9,6.2,9c0,0,0,0,0,0C6.1,8.9,6.2,8.9,6.2,8.9
		C6.2,8.9,6.2,8.8,6.2,8.9z"/>
	<path class="st21" d="M14,7.3C14.1,7.3,14.1,7.3,14,7.3c0.1,0,0.2,0,0.3,0c0,0,0,0,0,0c0,0,0,0,0,0c0,0,0,0,0,0
		C14.2,7.3,14.1,7.3,14,7.3z"/>
	<path class="st197" d="M14.9,11.2C14.9,11.2,14.9,11.2,14.9,11.2c-0.1,0-0.2,0-0.3,0C14.8,11.2,14.9,11.2,14.9,11.2z"/>
	<path class="st2" d="M6.3,3.5c0,0.1,0,0.1,0,0.2C6.2,3.6,6.2,3.5,6.3,3.5C6.3,3.4,6.3,3.4,6.3,3.5z"/>
	<path class="st62" d="M14.7,13.2c0.1,0.1,0,0.1,0.1,0.2c0,0,0,0,0,0C14.7,13.4,14.7,13.3,14.7,13.2z"/>
	<path class="st30" d="M7.4,12.8c0-0.1,0.1-0.1,0.2-0.1C7.5,12.7,7.5,12.7,7.4,12.8z"/>
	<path class="st18" d="M14.2,4.4c-0.1,0-0.2,0-0.3,0C14,4.4,14.1,4.4,14.2,4.4z"/>
	<path class="st175" d="M4.8,13.7c0.1,0,0.1,0.1,0.1,0.2C4.9,13.8,4.9,13.7,4.8,13.7z"/>
	<path class="st144" d="M9.4,12.7c-0.1,0-0.1,0.1-0.2,0c0,0,0,0,0.1,0C9.4,12.7,9.4,12.6,9.4,12.7L9.4,12.7z"/>
	<path class="st179" d="M10.6,12.3C10.6,12.3,10.5,12.3,10.6,12.3c-0.1,0-0.2,0-0.2,0C10.4,12.2,10.5,12.2,10.6,12.3
		C10.5,12.2,10.6,12.2,10.6,12.3C10.7,12.3,10.6,12.3,10.6,12.3z"/>
	<path class="st198" d="M3.9,11.4c0.1,0,0.1,0.1,0.1,0.2c0,0,0,0,0,0C3.9,11.6,3.9,11.5,3.9,11.4z"/>
	<path class="st179" d="M9.4,12.7c0,0-0.1,0-0.1,0C9.4,12.6,9.4,12.6,9.4,12.7C9.5,12.6,9.5,12.7,9.4,12.7z"/>
	<path class="st199" d="M6.2,6.3C6.2,6.4,6.2,6.4,6.2,6.3C6.2,6.3,6.2,6.3,6.2,6.3C6.2,6.2,6.1,6.2,6.2,6.2c0,0,0,0,0,0
		C6.2,6.2,6.2,6.3,6.2,6.3z"/>
	<path class="st21" d="M15.2,5.2c-0.1,0-0.1-0.1-0.1-0.2C15.1,5.1,15.2,5.2,15.2,5.2z"/>
	<path class="st63" d="M11.6,12C11.6,12,11.6,12,11.6,12C11.6,12,11.6,12,11.6,12c0,0.1-0.1,0.1-0.1,0.1c0,0,0,0,0,0
		C11.4,12,11.5,12,11.6,12z"/>
	<path class="st200" d="M9,3.9C9,3.9,9,3.9,9,3.9C9,4,8.9,4,8.9,4C8.9,3.9,9,4,9,3.9z"/>
	<path class="st76" d="M5.2,10.4C5.1,10.5,5.1,10.5,5.2,10.4C5.1,10.4,5.2,10.4,5.2,10.4C5.2,10.4,5.2,10.4,5.2,10.4z"/>
	<path class="st201" d="M6.6,16c0.1,0,0.1,0.1,0.1,0.1c0,0,0,0,0,0C6.7,16.1,6.7,16,6.6,16z"/>
	<path class="st86" d="M8,10.3C8.1,10.3,8.1,10.4,8,10.3c0.1,0.1,0.1,0.1,0.1,0.2c0,0,0,0,0,0C8.1,10.4,8.1,10.4,8,10.3z"/>
	<path class="st90" d="M8.2,10.6c0,0,0,0.1,0,0.1C8.2,10.7,8.2,10.7,8.2,10.6C8.2,10.6,8.2,10.6,8.2,10.6z"/>
	<path class="st202" d="M11.3,11.2C11.3,11.3,11.3,11.3,11.3,11.2c-0.1,0.1-0.1,0.1-0.2,0.1C11.2,11.3,11.3,11.3,11.3,11.2z"/>
	<path class="st1" d="M6.2,3.3C6.2,3.3,6.2,3.3,6.2,3.3c0,0,0-0.1,0-0.1C6.3,3.2,6.2,3.2,6.2,3.3z"/>
	<path class="st189" d="M6.6,7.7C6.6,7.7,6.5,7.7,6.6,7.7c-0.1,0-0.1-0.1-0.1-0.1c0,0,0,0,0,0C6.6,7.6,6.6,7.7,6.6,7.7z"/>
	<path class="st51" d="M17.1,9.5c-0.1-0.1,0-0.1,0-0.2c0,0,0,0,0,0C17.1,9.4,17.1,9.5,17.1,9.5z"/>
	<path class="st61" d="M15.3,7.5C15.3,7.5,15.3,7.5,15.3,7.5c-0.1,0-0.1,0-0.2,0C15.2,7.5,15.3,7.4,15.3,7.5z"/>
	<path class="st134" d="M6.5,7.6C6.5,7.6,6.5,7.6,6.5,7.6c0,0-0.1-0.1-0.1-0.1c0,0,0,0,0,0C6.5,7.5,6.5,7.6,6.5,7.6z"/>
	<path class="st63" d="M11.4,12.1c0,0-0.1,0-0.1,0C11.3,12,11.3,12,11.4,12.1C11.4,12,11.4,12,11.4,12.1
		C11.4,12.1,11.4,12.1,11.4,12.1z"/>
	<path class="st80" d="M6.3,6.7C6.3,6.7,6.3,6.7,6.3,6.7c0.1,0,0.1,0.1,0.1,0.1C6.3,6.8,6.3,6.8,6.3,6.7z"/>
	<path class="st17" d="M6.2,6c-0.1-0.1,0-0.1,0-0.2C6.2,5.8,6.2,5.9,6.2,6z"/>
	<path class="st203" d="M3.2,11.9c0,0-0.1-0.1-0.1-0.1C3.2,11.7,3.2,11.8,3.2,11.9z"/>
	<path class="st204" d="M13.9,3.9C14,3.9,14,3.9,13.9,3.9c0.1,0,0.1,0,0.1,0C14,4,14,3.9,13.9,3.9z"/>
	<path class="st205" d="M16.5,4.6C16.5,4.6,16.5,4.6,16.5,4.6C16.5,4.6,16.6,4.6,16.5,4.6C16.5,4.7,16.5,4.6,16.5,4.6z"/>
	<path class="st11" d="M6.2,6.2C6.2,6.2,6.2,6.2,6.2,6.2C6.1,6.1,6.2,6.1,6.2,6c0,0,0,0,0,0C6.2,6,6.2,6.1,6.2,6.2z"/>
	<path class="st59" d="M13.8,11.9c0,0.1,0,0.2,0.1,0.3c0,0,0,0.1,0,0.1c-0.1-0.1-0.3-0.1-0.4,0.1c-0.2-0.2-0.3-0.4-0.5-0.6
		c0.2,0,0.4,0,0.6,0C13.6,11.8,13.7,11.8,13.8,11.9z"/>
	<path class="st171" d="M13.5,12.6c0.1,0.1,0,0.2,0.1,0.3c0,0-0.1,0-0.1,0C13.6,12.9,13.5,12.8,13.5,12.6z"/>
	<path class="st82" d="M11.6,12C11.6,12,11.6,12,11.6,12c0.1,0,0.1,0,0.2,0c0,0,0,0,0,0c0,0,0,0,0,0C11.8,12,11.7,12.1,11.6,12
		L11.6,12C11.6,12.1,11.6,12.1,11.6,12z"/>
	<path class="st63" d="M11.9,12C11.8,12,11.8,12,11.9,12c0-0.1,0.1-0.1,0.1,0C12,12,11.9,12,11.9,12z"/>
	<path class="st206" d="M13.3,15.1c-0.1,0-0.1,0-0.2,0C13.2,15.1,13.2,15.1,13.3,15.1C13.3,15.1,13.3,15.1,13.3,15.1z"/>
	<path class="st207" d="M2.1,8.5C2.1,8.5,2.1,8.5,2.1,8.5C2.1,9,2,9.5,2,10c0,0,0,0,0,0C1.9,9.5,2,9,2.1,8.5z"/>
	<path class="st42" d="M17.2,6.7c-0.1,0-0.1-0.1-0.1-0.1C17.2,6.6,17.2,6.7,17.2,6.7z"/>
	<path class="st208" d="M5.8,3.4c0.1,0.1,0,0.2,0.1,0.3c0,0.1,0,0.1,0,0.2c0,0.1,0,0.1-0.1,0.1C5.5,4,5.2,4,5,4c0,0,0,0,0,0
		C5.2,3.8,5.5,3.6,5.8,3.4z"/>
	<path class="st24" d="M4.4,4.4C4.4,4.5,4.3,4.6,4.2,4.7C4.3,4.6,4.3,4.5,4.4,4.4z"/>
	<path class="st12" d="M2.9,6.5c0,0.1,0,0.2-0.1,0.2C2.8,6.6,2.9,6.5,2.9,6.5z"/>
	<path class="st24" d="M4,4.9C4,5,3.9,5,3.8,5C3.9,5,3.9,4.9,4,4.9z"/>
	<path class="st98" d="M8.5,16.2c0-0.1,0-0.1,0-0.2c0-0.1,0-0.1,0-0.2c0,0,0,0,0,0c0,0.2,0,0.5-0.1,0.7c0,0,0,0,0,0l0,0
		C8.4,16.3,8.4,16.3,8.5,16.2z"/>
	<path class="st37" d="M8.7,15.1C8.7,15.1,8.8,15.1,8.7,15.1c0,0.1,0,0.2-0.1,0.3c0,0,0,0,0,0C8.6,15.3,8.6,15.2,8.7,15.1z"/>
	<path class="st209" d="M14.8,14.2c0-0.3,0.2-0.3,0.4-0.5c0.3-0.2,0.7-0.4,0.9-0.7c0.1-0.1,0.2,0,0.2-0.1c0,0.1,0,0.2-0.1,0.3
		c-0.1,0.3-0.4,0.4-0.7,0.6c-0.2,0.1-0.4,0.2-0.6,0.4c-0.1,0.1-0.2,0.1-0.2,0.3C14.9,14.3,14.8,14.2,14.8,14.2z"/>
	<path class="st7" d="M14.4,11.2c0.1-0.1,0.1,0,0.2,0C14.6,11.2,14.5,11.2,14.4,11.2z"/>
	<path class="st210" d="M9.9,10c-0.2,0.4-0.5,0.7-0.8,1c-0.2,0.1-0.4,0.3-0.6,0.3c-0.1-0.1,0-0.1,0-0.1c0.2-0.1,0.4-0.2,0.6-0.4
		c0.3-0.2,0.5-0.5,0.7-0.8c0-0.1,0-0.1,0-0.2C9.9,9.8,9.9,9.9,9.9,10C9.9,10,9.9,10,9.9,10z"/>
	<path class="st211" d="M9.8,9.6c0-0.1,0-0.2,0-0.3c0-0.1,0-0.3,0.1-0.4c0,0,0,0.1,0,0.1c0,0.1,0,0.1,0,0.1c-0.1,0.1,0,0.2,0,0.3
		C9.8,9.5,9.8,9.5,9.8,9.6C9.8,9.6,9.8,9.6,9.8,9.6z"/>
	<path class="st212" d="M13.8,4.4c0,0.4,0,0.9-0.1,1.3c-0.1,0.5-0.3,0.9-0.7,1.4c-0.1-0.1-0.1-0.2,0-0.3c0.4-0.6,0.7-1.3,0.7-2.1
		c0-0.1,0-0.1,0-0.2C13.6,4.5,13.7,4.4,13.8,4.4z"/>
	<path class="st26" d="M14.3,7.3C14.3,7.3,14.3,7.3,14.3,7.3C14.3,7.3,14.4,7.3,14.3,7.3c0.1,0,0.2,0,0.3,0c0,0,0,0,0,0c0,0,0,0,0,0
		C14.5,7.3,14.4,7.3,14.3,7.3z"/>
	<path class="st199" d="M4.4,8.4c0,0-0.1,0-0.1,0c0,0-0.1,0,0,0c0.1-0.3,0.2-0.6,0.3-0.9C4.6,7.2,4.8,7,5,6.8
		c0.1-0.1,0.2-0.2,0.3-0.3c0.2-0.2,0.5-0.3,0.8-0.4c0.1,0.1,0,0.2-0.1,0.3C5.2,6.7,4.7,7.3,4.5,8.1c0,0.1-0.1,0.1,0,0.2
		C4.5,8.4,4.4,8.4,4.4,8.4z"/>
	<path class="st213" d="M4.5,8.3c0,0-0.1,0-0.1,0c0.1-0.3,0.1-0.6,0.3-0.8c0.2-0.4,0.5-0.8,1-1c0.1-0.1,0.3-0.2,0.4-0.2
		c0.1,0,0.1-0.1,0.1-0.2c0,0,0-0.1,0-0.1c0,0.1,0,0.1,0,0.2c0,0,0,0,0,0.1c0,0.1-0.1,0.2-0.2,0.3C5.6,6.7,5.3,7,5,7.3c0,0,0,0,0,0
		C4.9,7.6,4.7,7.8,4.7,8c0,0,0,0,0,0c0,0.1,0,0.1-0.1,0.2c0,0,0,0,0,0C4.6,8.3,4.5,8.3,4.5,8.3z"/>
	<path class="st31" d="M4.3,10.1c0-0.2-0.1-0.4-0.2-0.6C4,9.2,4,8.9,4,8.6c0-0.1,0.1-0.1,0.2-0.1c0,0,0,0,0,0c0,0.2,0,0.3,0,0.5
		c0,0.2,0,0.5,0.1,0.7C4.4,9.8,4.4,10,4.3,10.1z"/>
	<path class="st214" d="M6.8,5.8C6.9,5.7,7,5.6,7.1,5.5c0.2-0.1,0.5,0,0.7,0c0.5,0.1,1,0.2,1.5,0.6C9.5,6.3,9.8,6.5,10,6.8
		c0.1,0.1,0,0.1,0.1,0.2c0,0,0,0.1-0.1,0.1c0,0-0.1,0.1-0.1,0C9.8,6.8,9.5,6.6,9.3,6.4C9,6.2,8.8,6,8.5,5.9c-0.1,0-0.2-0.1-0.3-0.1
		C7.7,5.7,7.2,5.8,6.8,5.8z"/>
	<path class="st60" d="M10.6,10.4c0,0-0.1,0-0.1,0c-0.1,0-0.1,0-0.1-0.1c0.6-0.2,1.1-0.3,1.7-0.6c0.3-0.1,0.5-0.3,0.8-0.5
		c0.1-0.1,0.1-0.1,0.2,0c0.1,0,0,0.1,0.1,0.2c-0.1-0.1-0.2,0-0.2,0c-0.4,0.2-0.7,0.4-1.1,0.6c-0.2,0.1-0.5,0.1-0.6,0.3
		c0,0-0.1,0-0.1,0C10.8,10.4,10.7,10.4,10.6,10.4z"/>
	<path class="st215" d="M10.3,10.3C10.3,10.4,10.4,10.4,10.3,10.3c0.1,0.1,0.1,0.1,0.1,0.1c-0.2,0.1-0.3,0.3-0.4,0.4
		c-0.3,0.4-0.6,0.6-1,0.8c-0.1,0-0.2,0.1-0.3,0.1c0,0,0,0,0,0c0-0.1,0-0.1,0-0.2c0.1-0.1,0.2-0.1,0.2-0.1c0.4-0.2,0.6-0.4,0.9-0.7
		c0.1-0.2,0.3-0.3,0.4-0.5C10.2,10.3,10.3,10.3,10.3,10.3z"/>
	<path class="st214" d="M10.2,10.3C10.2,10.3,10.2,10.3,10.2,10.3c-0.2,0.4-0.4,0.7-0.7,0.9c-0.2,0.2-0.4,0.3-0.6,0.4
		c-0.1,0-0.1,0.1-0.2,0.1c0-0.2,0.1-0.2,0.2-0.2c0.4-0.2,0.7-0.5,0.9-0.8C9.9,10.5,10,10.4,10.2,10.3C10.1,10.2,10.1,10.2,10.2,10.3
		z"/>
	<path class="st216" d="M9.8,9.1c0,0,0-0.1,0-0.1c0.4,0,0.8-0.1,1.2-0.2c0.4-0.2,0.9-0.3,1.2-0.7C12.3,8,12.4,8,12.4,8
		c0.1,0.1,0.1,0.2,0.1,0.3c-0.3,0.2-0.5,0.4-0.8,0.5c-0.5,0.2-0.9,0.4-1.5,0.5c-0.1,0-0.3,0-0.4,0.1C9.8,9.3,9.8,9.2,9.8,9.1z"/>
	<path class="st217" d="M10.1,7C10,6.8,9.8,6.7,9.7,6.5C9.5,6.4,9.3,6.2,9.1,6.1C8.9,5.9,8.7,5.8,8.5,5.7C8.3,5.7,8.1,5.6,8,5.6
		c-0.3-0.1-0.6,0-0.9-0.1c0,0,0,0,0,0c0.1,0,0.2-0.2,0.4-0.2c0,0,0,0,0,0c0.3,0.1,0.7,0.1,1,0.2c0.7,0.2,1.2,0.6,1.6,1.1
		c0,0.1,0.1,0.1,0.1,0.2C10.2,6.9,10.2,6.9,10.1,7C10.1,7,10.1,7,10.1,7z"/>
	<path class="st218" d="M10.1,6.9c0,0,0-0.1,0.1-0.1c0-0.1,0.1-0.1,0.1-0.1c0,0,0,0,0-0.1c0,0,0.1,0,0.1-0.1c0.1,0,0.1-0.1,0.2-0.1
		c0,0,0,0,0.1,0c0.1,0,0.1,0,0.2,0c0.1,0,0.2-0.1,0.3-0.1c0,0,0-0.1,0.1-0.1c0.1,0,0.1,0,0.2,0c0.1,0,0.1,0,0.2-0.1c0,0,0,0,0,0
		c0,0,0.1,0,0,0.1c-0.2,0.1-0.3,0.3-0.5,0.4c-0.3,0.2-0.5,0.3-0.8,0.4C10.2,7,10.1,7,10.1,6.9z"/>
	<path class="st219" d="M11.7,10.6C11.7,10.5,11.7,10.5,11.7,10.6C11.8,10.5,11.8,10.5,11.7,10.6c0.4-0.3,0.8-0.4,1.2-0.7
		c0.1,0,0.2-0.1,0.2,0c0.1,0.1,0.1,0.2,0.1,0.3c0-0.1-0.1-0.1-0.2-0.1c-0.3,0.2-0.6,0.3-0.9,0.5c-0.1,0,0,0.1,0,0.1
		c0,0,0.1,0.1,0,0.1c0,0,0,0-0.1,0C12,10.6,11.9,10.6,11.7,10.6C11.8,10.6,11.8,10.6,11.7,10.6z"/>
	<path class="st130" d="M6,11.9c-0.5-0.2-0.8-0.6-1.2-0.9c-0.1,0-0.1-0.1-0.1-0.2c0.1-0.1,0.2,0,0.2,0.1c0.2,0.3,0.5,0.5,0.8,0.7
		c0.1,0.1,0.3,0.2,0.5,0.2c0.1,0,0.1,0.1,0.1,0.1C6.1,12,6,12,6,11.9z"/>
	<path class="st130" d="M7.1,12.2c-0.2-0.1-0.4-0.1-0.7-0.2c0.2,0,0.3,0.1,0.5,0.1C7.1,12.1,7.1,12.1,7.1,12.2z"/>
	<path class="st130" d="M6.5,12c-0.1,0-0.1,0-0.2,0c0,0,0,0,0,0C6.4,12,6.4,12,6.5,12z"/>
	<path class="st80" d="M6.2,6.4c0.1,0.1,0,0.2,0.1,0.3C6.2,6.8,6.1,6.9,6,7C5.8,7.2,5.6,7.4,5.5,7.7C5.3,8,5.1,8.4,5.2,8.8
		c0,0.1,0,0.3,0.1,0.4c0.1,0.1,0,0.2-0.1,0.2C5.1,9.3,5.1,9.1,5.1,8.9c0-0.2,0-0.4,0-0.6c0-0.1,0-0.2,0.1-0.3c0-0.1,0.1-0.1,0-0.2
		c0,0,0-0.1,0-0.1c0.2-0.3,0.4-0.5,0.6-0.8c0,0,0.1-0.1,0.1-0.1C6,6.7,6,6.5,6.2,6.4z"/>
	<path class="st44" d="M8.7,15.1c0,0.1,0,0.2-0.1,0.3c-0.1-0.2-0.2-0.2-0.4-0.2c-0.7-0.1-1.5-0.2-2.2-0.5c0,0-0.1,0-0.1-0.1
		c0.1-0.1,0.2,0,0.4,0c0.3,0.1,0.7,0.2,1.1,0.3C7.8,15,8.2,15,8.6,15C8.7,15,8.7,15.1,8.7,15.1z"/>
	<path class="st124" d="M6.8,6.3c-0.1,0,0-0.1,0-0.1c0,0,0,0,0,0C6.8,6.2,6.8,6.3,6.8,6.3C7,6.2,7.1,6.3,7.3,6.3
		c0.5,0,0.9,0,1.4,0.3C8.9,6.8,9.2,7,9.4,7.3c0,0,0.1,0.1,0.1,0.1c0.1,0.1,0.1,0.1,0.1,0.2c-0.1,0-0.2-0.2-0.2-0.3
		C9.1,7.1,8.9,6.9,8.7,6.8C8.5,6.6,8.2,6.5,7.9,6.4c-0.3-0.1-0.6-0.1-1,0C6.9,6.4,6.9,6.4,6.8,6.3C6.9,6.4,6.8,6.4,6.8,6.3z"/>
	<path class="st81" d="M15.3,8.1c-0.1,0.1-0.1,0.1-0.2,0c0,0,0,0,0,0C15.1,8.1,15.2,8.1,15.3,8.1z"/>
	<path class="st220" d="M9.9,8.8c0-0.1,0-0.1,0.1-0.2C9.9,8.7,9.9,8.7,9.9,8.8C10,8.7,10,8.7,10,8.7c0-0.1,0.1-0.1,0.2-0.1
		c0.4-0.1,0.8-0.2,1.2-0.4C11.5,8.1,11.7,8,12,8c0,0.1,0,0.2-0.1,0.2c-0.6,0.4-1.2,0.6-1.8,0.7C10,8.8,9.9,8.9,9.9,8.8z"/>
	<path class="st221" d="M12.4,8c-0.3,0.3-0.7,0.5-1.1,0.7c-0.3,0.1-0.6,0.2-0.9,0.3C10.2,9,10,9.1,9.8,9c0,0,0-0.1,0-0.1
		c0,0,0,0,0-0.1c0,0,0,0,0,0c0,0.1,0.1,0.1,0.2,0.1c0.7-0.1,1.4-0.3,2-0.8C12.1,8,12.1,8,12.2,8c0,0,0.1,0,0.1,0
		C12.3,8,12.4,8,12.4,8z"/>
	<path class="st181" d="M12.2,8c-0.1,0.2-0.3,0.3-0.4,0.4c-0.5,0.3-1.2,0.5-1.8,0.6c-0.1,0,0-0.1-0.1-0.1c0,0,0,0,0,0
		c0.4,0,0.7-0.1,1.1-0.2c0.3-0.1,0.6-0.2,0.8-0.4C11.9,8.1,11.9,8.1,12,8C12,8,12.1,8,12.2,8z"/>
	<path class="st220" d="M9.9,8.6c0-0.1,0-0.1,0-0.2C10,8.5,10,8.6,9.9,8.6z"/>
	<path class="st200" d="M8.9,3.8C9,3.8,9,3.9,9,3.9c-0.3,0-0.7-0.1-1-0.2c-0.1,0-0.1,0-0.2,0c0,0,0,0,0,0c0.1,0,0.3,0,0.4-0.1
		C8.5,3.6,8.8,3.6,8.9,3.8z"/>
	<path class="st197" d="M15.4,11.2C15.3,11.2,15.3,11.3,15.4,11.2c-0.1-0.1,0-0.1,0-0.1c0.2-0.2,0.4-0.4,0.6-0.6
		c0.3-0.3,0.6-0.7,0.8-1.1c0-0.1,0.1-0.1,0.1-0.1c0.1-0.1,0,0,0.1,0.1c-0.2,0.2-0.4,0.4-0.5,0.7c-0.2,0.3-0.5,0.5-0.7,0.8
		c-0.1,0.1-0.2,0.2-0.3,0.3C15.4,11.2,15.4,11.2,15.4,11.2z"/>
	<path class="st42" d="M4.7,11.9C4.7,11.9,4.7,12,4.7,11.9C4.7,12,4.6,12,4.5,12c0,0,0,0,0,0C4.5,12,4.6,12,4.7,11.9
		C4.6,12,4.7,12,4.7,11.9z"/>
	<path class="st222" d="M5.3,10.8c0,0.1,0.1,0.2,0.2,0.3c0.4,0.2,0.8,0.5,1.2,0.6c0.3,0.1,0.6,0.1,0.9,0.1c0.1,0,0.1,0,0.1,0.1
		c-1.2,0.1-2.1-0.3-2.9-1.2C5.1,10.5,5.2,10.6,5.3,10.8C5.3,10.7,5.3,10.8,5.3,10.8z"/>
	<path class="st144" d="M11.3,6.2c-0.1,0-0.1,0-0.2,0c0,0-0.1,0-0.1,0c-0.4-0.6-1-1.1-1.6-1.4c0,0,0,0-0.1,0c0,0-0.1-0.1-0.1-0.1
		c0-0.1,0.1,0,0.1-0.1c0.1-0.1,0.2,0,0.3,0.1c0.2,0.2,0.5,0.3,0.7,0.5C10.7,5.4,11.1,5.7,11.3,6.2C11.3,6.2,11.3,6.2,11.3,6.2
		C11.4,6.2,11.4,6.2,11.3,6.2z"/>
	<path class="st223" d="M9.4,4.5c-0.1,0.1-0.1,0.1,0,0.2c0.5,0.2,0.9,0.6,1.3,1c0.2,0.2,0.3,0.3,0.4,0.5c0,0,0,0,0,0
		c0,0-0.1,0-0.1,0c-0.2,0.1-0.2-0.1-0.2-0.2c-0.2-0.2-0.3-0.4-0.5-0.5C10,5.2,9.5,4.9,9.1,4.7c0-0.1,0.1-0.1,0.1-0.1
		C9.3,4.5,9.4,4.6,9.4,4.5z"/>
	<path class="st28" d="M11.3,6.2C11.3,6.2,11.4,6.2,11.3,6.2c0.1,0,0.1-0.1,0.2-0.1C11.5,6.2,11.4,6.2,11.3,6.2z"/>
	<path class="st157" d="M10.9,6.4c-0.1,0-0.1,0.1-0.2,0.1c0,0,0,0,0,0c-0.2-0.4-0.5-0.7-0.9-0.9C9.4,5.3,9,5,8.5,4.9c0,0,0,0-0.1,0
		c0,0,0,0,0,0c0,0,0,0,0,0c0,0,0,0,0,0c0.1,0,0.2-0.1,0.2-0.1c0.4,0.1,0.7,0.3,1,0.5C10,5.4,10.3,5.7,10.5,6
		C10.7,6.1,10.8,6.2,10.9,6.4z"/>
	<path class="st81" d="M15,8.1c-0.3,0.6-0.7,1-1.2,1.4c-0.1-0.3,0.2-0.5,0.3-0.6c0.2-0.2,0.4-0.4,0.5-0.6C14.8,8.1,14.9,8.1,15,8.1z
		"/>
	<path class="st224" d="M8.5,16.2c0,0.1,0,0.1,0,0.2c0,0.1,0,0.2,0,0.3c-0.1,0,0-0.1,0-0.1C8.4,16.4,8.4,16.4,8.5,16.2
		C8.4,16.3,8.4,16.2,8.5,16.2C8.4,16.2,8.5,16.2,8.5,16.2z"/>
	<path class="st225" d="M5,11.9C5,11.8,5,11.8,5,11.9c0.1,0,0.2,0,0.3,0c0.1,0,0.2,0,0.3,0c-0.1,0-0.2,0-0.3,0
		C5.2,11.9,5.1,11.9,5,11.9z"/>
	<path class="st226" d="M9.5,7.6c0-0.2-0.2-0.3-0.3-0.5C9.1,6.9,8.8,6.8,8.6,6.6c0.1,0,0.1,0,0.2,0C9,6.8,9.3,7,9.4,7.3
		c0.1,0.1,0.2,0.2,0.3,0.3c0,0,0.1,0,0,0c0,0,0,0-0.1,0C9.6,7.6,9.6,7.6,9.5,7.6z"/>
	<path class="st201" d="M6.8,16.1C6.8,16,6.9,16,7,16.1C6.9,16.1,6.8,16.1,6.8,16.1z"/>
	<path class="st169" d="M9,11.7c0.1-0.2,0.3-0.2,0.5-0.4c0.3-0.2,0.5-0.5,0.7-0.8c0.1-0.1,0.1-0.1,0.2-0.1c-0.1,0.3-0.3,0.5-0.5,0.7
		c0,0-0.1,0.1-0.1,0.1c-0.2,0.1-0.4,0.3-0.6,0.4C9.1,11.7,9.1,11.7,9,11.7z"/>
	<path class="st169" d="M9.2,11.7c0.2-0.2,0.3-0.3,0.6-0.4C9.6,11.5,9.4,11.6,9.2,11.7z"/>
	<path class="st211" d="M8.9,10.7c0.2-0.1,0.3-0.3,0.5-0.5C9.3,10.4,9.1,10.6,8.9,10.7z"/>
	<path class="st211" d="M9.5,10.1c0.1-0.2,0.1-0.3,0.3-0.4C9.7,9.8,9.6,10,9.5,10.1z"/>
	<path class="st36" d="M9.2,7.7C9,7.5,8.9,7.2,8.6,7.1C8.4,6.9,8.1,6.8,7.9,6.7c-0.2-0.1-0.5-0.1-0.7,0c0,0,0,0,0,0
		C7,6.8,6.9,6.7,6.9,6.6c0.1,0,0.1,0,0.2,0c0.3-0.1,0.7,0,1,0.1c0.6,0.2,1,0.5,1.3,1c0,0,0,0-0.1,0.1C9.2,7.7,9.2,7.7,9.2,7.7z"/>
	<path class="st85" d="M9.3,7.7C9.3,7.7,9.3,7.7,9.3,7.7c0.1,0,0.1-0.1,0.2,0C9.4,7.7,9.4,7.7,9.3,7.7C9.3,7.7,9.3,7.7,9.3,7.7
		C9.3,7.7,9.3,7.7,9.3,7.7z"/>
	<path class="st227" d="M11.6,12C11.6,12,11.6,12.1,11.6,12c0,0-0.1,0.1-0.2,0.1c0,0,0,0,0,0c0,0,0,0,0,0c0,0,0,0,0,0
		C11.5,12,11.5,12,11.6,12z"/>
	<path class="st228" d="M9.3,7.7C9.3,7.7,9.3,7.7,9.3,7.7C9.2,7.7,9.1,7.8,9,7.8c-0.2,0-0.3-0.1-0.3-0.3C8.6,7.4,8.5,7.3,8.4,7.3
		C8,7,7.5,6.9,7,7c0,0,0,0,0,0c0,0,0-0.1-0.1-0.1c0,0,0-0.1,0.1-0.1c0.1,0.1,0.2,0,0.2,0C8,6.8,8.5,7.1,9,7.6c0,0.1,0.1,0.1,0.2,0.1
		C9.2,7.7,9.3,7.7,9.3,7.7z"/>
	<path class="st229" d="M8.1,10.5C8.1,10.4,8.1,10.4,8.1,10.5c0-0.3,0.1-0.3,0.3-0.4c0.2-0.1,0.3-0.3,0.4-0.5C8.9,9.4,9,9.2,9,9
		c0-0.1,0-0.2,0-0.2c0-0.1,0-0.2,0.1-0.2c0,0.5-0.1,1-0.4,1.4c-0.1,0.2-0.3,0.3-0.5,0.4C8.2,10.4,8.2,10.4,8.1,10.5z"/>
	<path class="st230" d="M17.9,10c0-0.1,0-0.2,0-0.4C17.9,9.7,17.9,9.8,17.9,10C17.9,9.9,17.9,9.9,17.9,10z"/>
	<path class="st231" d="M17.9,9.1C17.8,9.1,17.8,9.1,17.9,9.1c0,0,0-0.1,0-0.1c0,0,0,0,0,0C17.9,9,17.9,9.1,17.9,9.1z"/>
	<path class="st232" d="M7.9,3.6C7.9,3.6,7.9,3.6,7.9,3.6C7.6,3.7,7.4,3.7,7.2,3.8c-0.2,0-0.5,0.1-0.7,0.1c0,0-0.1,0-0.1,0
		c0-0.2,0-0.2,0.2-0.2c0.3,0,0.6-0.1,0.8-0.1C7.5,3.6,7.7,3.6,7.9,3.6z"/>
	<path class="st184" d="M12.1,10.7C12.2,10.7,12.2,10.7,12.1,10.7C12.2,10.7,12.2,10.8,12.1,10.7C12.1,10.9,12,11,12,11.1
		c0,0,0,0,0,0c-0.1,0-0.2,0.1-0.2,0c-0.1-0.1,0-0.2,0.1-0.2c0-0.1,0.1-0.2,0.2-0.2C12,10.6,12.1,10.7,12.1,10.7z"/>
	<path class="st227" d="M11.3,12.1c-0.1,0.2-0.2,0.3-0.4,0.4c-0.3,0.3-0.6,0.5-1,0.7c-0.1,0.1-0.3,0.2-0.4,0.2c0,0,0-0.1,0-0.1
		c0.3-0.1,0.6-0.4,0.9-0.6c0.3-0.2,0.5-0.4,0.7-0.6C11.2,12.1,11.3,12.1,11.3,12.1z"/>
	<path class="st233" d="M5.9,9c0,0-0.1,0-0.1,0.1c-0.1-0.3-0.1-0.5,0-0.8c0.1-0.2,0.1-0.5,0.3-0.6c0.1-0.1,0.2-0.2,0.3-0.3
		c0,0,0,0,0,0c0,0,0,0.1,0,0.1c0,0.1,0,0.1-0.1,0.1C6,8,5.9,8.4,5.9,8.9C5.9,9,5.9,9,5.9,9L5.9,9z"/>
	<path class="st134" d="M6.4,7.4C6.4,7.4,6.4,7.4,6.4,7.4c0,0,0-0.1,0-0.2C6.4,7.3,6.4,7.3,6.4,7.4C6.4,7.4,6.4,7.4,6.4,7.4z"/>
	<path class="st40" d="M5.9,6.8c-0.2,0.3-0.5,0.7-0.7,1C5.1,7.8,5.1,7.9,5,8C4.9,8.1,4.8,8.1,4.8,8.1c0,0-0.1,0-0.1,0
		c0,0-0.1,0-0.1,0c0.2-0.2,0.2-0.5,0.4-0.8C5.3,7.1,5.5,6.9,5.9,6.8C5.9,6.7,5.9,6.7,5.9,6.8z"/>
	<path class="st234" d="M4.7,8.1C4.7,8.2,4.7,8.2,4.7,8.1c0,0.1,0,0.1,0,0.1c0-0.1,0-0.1,0-0.2C4.7,8.1,4.7,8.1,4.7,8.1z"/>
	<path class="st39" d="M16.2,7.1c0,0,0.1,0.1,0.1,0.2C16.2,7.2,16.2,7.1,16.2,7.1C16.2,7.1,16.2,7.1,16.2,7.1z"/>
	<path class="st235" d="M8.8,7.8c-0.1,0-0.1,0-0.2,0C8.3,7.4,7.6,7.1,7.1,7.2c0,0,0,0,0-0.1c0.3-0.1,0.6,0,0.9,0
		c0.1,0,0.2,0,0.2,0.1C8.4,7.4,8.6,7.6,8.8,7.8z"/>
	<path class="st235" d="M8.2,7.3C8,7.3,7.9,7.2,7.7,7.2c-0.2,0-0.4,0-0.6,0c0,0,0,0,0-0.1C7.4,7,7.8,7.1,8.2,7.3
		C8.2,7.2,8.2,7.3,8.2,7.3z"/>
	<path class="st122" d="M7.3,10.4c0,0,0,0.1,0.1,0.1c-0.2,0-0.4,0-0.6-0.1c-0.2-0.1-0.5-0.2-0.6-0.5c0,0,0.1-0.1,0.1,0
		C6.5,10.2,6.8,10.3,7.3,10.4C7.2,10.4,7.3,10.4,7.3,10.4z"/>
	<path class="st191" d="M7.3,7.8c0.3-0.1,0.6,0,0.7,0.3c0,0-0.1,0-0.1,0C7.7,8,7.5,8,7.4,7.9C7.3,7.9,7.3,7.9,7.3,7.8z"/>
	<path class="st134" d="M5.9,9C5.8,8.5,6,7.8,6.4,7.5c0.1,0.1,0,0.2-0.1,0.3C6.2,8,6,8.2,6,8.5C6,8.6,6,8.8,6,8.9C6,9,6,9,5.9,9z"/>
	<path class="st189" d="M6.2,8.9C6.2,8.9,6.2,8.9,6.2,8.9C6.1,8.6,6.2,8.3,6.3,8C6.4,8,6.4,7.9,6.5,7.8c0,0.1,0,0.2-0.1,0.3
		C6.3,8.2,6.3,8.4,6.3,8.5C6.3,8.6,6.2,8.7,6.2,8.9z"/>
	<path class="st236" d="M11.7,10.6c0,0,0.1,0,0.1,0c0,0,0,0,0,0c0,0,0,0,0,0c-0.1,0-0.2,0.1-0.2,0.2c0,0.1-0.1,0.2-0.2,0.3
		c0,0.1,0.2,0,0.2,0.1c-0.1,0-0.2,0-0.3,0c0-0.1-0.1,0-0.2-0.1c0.1-0.1,0.2-0.3,0.2-0.4C11.4,10.6,11.6,10.5,11.7,10.6z"/>
	<path class="st95" d="M10.3,6.7C10.3,6.7,10.3,6.7,10.3,6.7c-0.1,0.1-0.2,0-0.2,0C10,6.5,9.8,6.3,9.6,6.1C9.4,5.9,9.1,5.7,8.8,5.6
		C8.4,5.4,8.1,5.4,7.7,5.3c0,0-0.1,0-0.1-0.1c0.1-0.1,0.2-0.1,0.2-0.1c0,0,0.1,0,0.1,0c0.9,0.1,1.6,0.5,2.2,1.1
		C10.2,6.3,10.4,6.5,10.3,6.7z"/>
	<path class="st237" d="M7.6,5.2c0.3,0,0.6,0.1,0.9,0.2c0.2,0.1,0.4,0.2,0.6,0.3c0.3,0.2,0.6,0.4,0.8,0.6c0.1,0.1,0.2,0.2,0.3,0.3
		c0,0,0.1,0.1,0.1,0.1c0,0-0.1,0.1-0.1,0.1c-0.1,0-0.2-0.2-0.2-0.3c-0.4-0.4-0.9-0.8-1.4-1C8.3,5.5,8,5.4,7.7,5.4
		c-0.1,0-0.2,0-0.2-0.1C7.5,5.3,7.6,5.2,7.6,5.2z"/>
	<path class="st100" d="M10.6,6.5c-0.1,0-0.1,0.1-0.2,0.1c0,0,0,0,0,0c-0.3-0.5-0.7-0.8-1.1-1.1C9,5.4,8.7,5.3,8.4,5.2
		C8.3,5.1,8.2,5.1,8.1,5c0,0,0.1,0,0.1,0c0.2-0.1,0.4,0,0.6,0C9.5,5.3,10.1,5.8,10.6,6.5C10.6,6.5,10.6,6.5,10.6,6.5z"/>
	<path class="st115" d="M10.6,6.5c-0.1,0-0.2-0.2-0.2-0.2C10,5.8,9.5,5.4,8.9,5.1C8.6,5.1,8.4,4.9,8.2,5c0,0,0.1,0,0.1-0.1
		c0.1,0,0.1-0.1,0.2,0c0.3,0,0.6,0.2,0.9,0.4c0.3,0.2,0.6,0.4,0.9,0.7C10.4,6.1,10.6,6.2,10.6,6.5C10.7,6.5,10.7,6.5,10.6,6.5z"/>
	<path class="st238" d="M8.1,5c0.3,0.1,0.6,0.2,1,0.4c0.3,0.1,0.5,0.3,0.7,0.4c0,0,0.1,0.1,0.1,0.1C10,6,10.1,6.1,10.2,6.2
		c0.1,0.1,0.2,0.2,0.2,0.4c0,0-0.1,0-0.1,0.1c-0.2-0.6-0.7-0.9-1.2-1.2C8.8,5.3,8.4,5.2,8,5.1c0,0,0,0-0.1,0C8,5.1,8,5,8.1,5z"/>
	<path class="st180" d="M8.4,4.9c-0.1,0-0.1,0-0.2,0C8.3,4.9,8.4,4.8,8.4,4.9C8.4,4.9,8.4,4.9,8.4,4.9z"/>
	<path class="st202" d="M11.7,11.2c-0.1-0.1-0.1,0-0.2-0.1c0.1-0.2,0.2-0.3,0.3-0.5c0-0.1,0.1-0.1,0.2-0.1c0.1,0,0.1,0,0.1,0.1
		C11.9,10.8,11.8,10.9,11.7,11.2c0.2-0.1,0.3-0.1,0.3-0.1C11.9,11.2,11.8,11.1,11.7,11.2z"/>
	<path class="st239" d="M4.7,8.1c0,0,0-0.1,0-0.1C4.7,7.8,4.9,7.6,5,7.4c0.1,0,0.1-0.1,0.2-0.2C5.4,6.9,5.7,6.7,6,6.5
		c0.1-0.1,0.1-0.1,0.2-0.2c0,0,0,0.1,0,0.1c0,0,0,0,0,0.1C6.1,6.5,6,6.7,5.9,6.8c0,0,0-0.1,0,0c-0.5,0.2-0.7,0.6-1,1
		C4.8,7.9,4.8,8.1,4.7,8.1z"/>
	<path class="st182" d="M5.6,3.9c0.1,0,0.1-0.1,0.1-0.1c0,0,0,0,0,0C5.8,3.9,5.7,3.9,5.6,3.9z"/>
	<path class="st234" d="M6,6.5C5.9,6.6,5.8,6.7,5.7,6.7C5.4,6.9,5.3,7.1,5.1,7.3c0,0-0.1,0.1-0.1,0.1c0.1-0.3,0.3-0.4,0.5-0.6
		C5.7,6.7,5.8,6.5,6,6.5z"/>
	<path class="st234" d="M5,7.4C4.9,7.6,4.8,7.8,4.7,8C4.7,7.8,4.8,7.6,5,7.4z"/>
	<path class="st56" d="M12,10.7c0,0-0.1-0.1-0.1-0.1c0,0,0,0,0,0c0.1,0,0.2,0,0.3,0.2C12.1,10.7,12.1,10.7,12,10.7z"/>
	<path class="st240" d="M8.1,3.6c0.2,0,0.3,0,0.5,0c0,0,0,0,0,0C8.4,3.6,8.3,3.6,8.1,3.6C8.1,3.6,8.1,3.6,8.1,3.6z"/>
</g>
</svg>
