<?xml version="1.0" encoding="utf-8"?>
<!-- Generator: Adobe Illustrator 27.0.0, SVG Export Plug-In . SVG Version: 6.00 Build 0)  -->
<svg version="1.1" id="svg2" xmlns="http://www.w3.org/2000/svg" xmlns:xlink="http://www.w3.org/1999/xlink" x="0px" y="0px"
	 viewBox="0 0 25.6 25.6" style="enable-background:new 0 0 25.6 25.6;" xml:space="preserve">
<style type="text/css">
	.st0{fill:#BF2223;}
</style>
<path id="path2" class="st0" d="M9.9,0h5.6c1.3,2.1,2.4,4.4,3.3,6.7c0.4,0.9,0.7,1.7,1,2.6c0.4,1.3,1,2.6,1.4,3.9
	c0.8,2.8,1.6,5.5,2.3,8.3c0.3,1.1,0.7,2.2,0.9,3.3c-0.4,0.1-0.8,0.2-1.2,0.4c-0.4,0.1-0.9,0.1-1.4,0.2c-0.6,0.1-1.3,0.1-2,0.2
	l-1.6-1.1c-0.1-0.5-0.1-1-0.2-1.5c-0.3-1.6-0.7-3.2-1.2-4.7l-8.8,1.2c-0.1,0.4-0.1,0.7-0.2,1.1c-0.3,1.2-0.2,2.5-0.3,3.8l-2,1.2
	c-0.1,0.1-0.3,0-0.4,0c-0.5,0-1,0-1.5-0.1s-1,0-1.5-0.2C2,25.1,1.6,25,1.2,24.8c0.4-2.1,1-4.2,1.6-6.3c0.7-2.6,1.6-5.2,2.5-7.7
	C6.5,7,8.1,3.5,9.9,0 M12.3,7.6c-0.7,2.1-1.6,4.2-2.4,6.3l4.7-2.6c-0.5-1.3-0.9-2.5-1.4-3.8C13.2,7.3,13.1,7,12.8,7
	C12.5,7,12.4,7.3,12.3,7.6L12.3,7.6z"/>
</svg>
