<?xml version="1.0" encoding="utf-8"?>
<!-- Generator: Adobe Illustrator 27.1.1, SVG Export Plug-In . SVG Version: 6.00 Build 0)  -->
<svg version="1.1" id="Layer_1" xmlns="http://www.w3.org/2000/svg" xmlns:xlink="http://www.w3.org/1999/xlink" x="0px" y="0px"
	 viewBox="0 0 512 512" style="enable-background:new 0 0 512 512;" xml:space="preserve">
<style type="text/css">
	.st0{fill:#626365;}
	.st1{display:none;fill:#FFFFFF;}
	.st2{fill:#FFFFFF;}
</style>
<g>
	<path class="st0" d="M245,511.9c-14,0-28,0-42,0c-0.3-1-1.2-1-2-1c-13.4-0.7-26.5-2.8-39.5-6c-39.6-9.7-74.5-27.3-101.6-58.6
		c-14-16.2-23.8-34.7-30.9-54.8c-5-13.8-8.5-28-11.1-42.4c-2.3-12.4-4.2-24.9-4.5-37.5c-0.4-18.2-1-36.5,0.6-54.8
		c0.9-10.3,1.8-20.6,3.4-30.8c3.4-21.3,8-42.4,14.8-62.9C43.4,129.6,57.6,97.7,81,70.5c17.8-20.7,38.9-35.1,66.7-39.8
		c24.8-4.2,49.8-7.2,74.8-9.4c13.6-1.2,27.3-2.6,41.1-2.3c1.1,0,3,0.9,3.3-1c0.2-1.3-1.4-1.6-2.4-2.1c-5.8-3.3-5.6-4-0.1-8.1
		c5.3-4,11.9-4.8,17.6-7.7c3.3,0,6.7,0,10,0c4,2.4,7.9,4.9,12.1,7c13.3,6.8,26.8,13,40.3,19.3c17.7,8.3,34.7,17.7,50.3,29.7
		c19.3,14.8,38,30.1,53,49.4c13,16.7,23.9,34.6,32.5,54c13.3,30.1,19.3,61.7,20.3,94.2c0.6,20.5-2.2,40.8-6.4,61
		c-3.8,18.2-8.6,36-16.5,52.7c-14.1,29.8-34.2,55-59.7,76.2c-19.6,16.3-41,29.6-64.2,40c-30.7,13.9-62.8,22.9-96.4,26.6
		C253.3,510.7,248.9,509.6,245,511.9z M464,226.3c-0.5-9-2.3-19-4.6-28.9c-5.6-23.9-15.2-46-29.7-65.9c-9.4-12.9-19.9-24.7-33-33.9
		c-11.7-8.2-24.4-14.8-36.8-21.8c-5.9-3.4-10.3-3-16.1-0.3c-7,3.2-14.2,3.7-21.7-0.4c-12.5-7-25-14-38.3-19.4
		c-14.2-5.7-28.7-9.8-44.2-9.2c-5.8,0.2-11.5,1.1-17.2,1.5c-10.5,0.7-20.7,2.7-30.9,4.8c-15.9,3.4-31.2,8.8-46.5,14.3
		c-22.6,8.2-40.2,22.8-54,42.2c-14.5,20.4-24.3,43-31.5,66.9c-7.8,25.7-12.8,51.9-14,78.6c-1.2,23.9-1.2,48,2.6,71.9
		c2.9,18.2,6.5,36.1,13.3,53.3c6.2,15.8,14.1,30.7,26.2,42.9c19,19.3,42.4,31.6,67.7,39.9c27.2,8.9,55.2,14.2,84,13.5
		c6.9-0.2,13.7,0.5,20.6-0.1c13-1.1,25.9-2.6,38.8-5c34.7-6.4,64.4-22.4,90-46.2c22.1-20.6,38.9-45.1,51.8-72.5
		c16.4-34.9,24.1-71.7,24.6-110.1C465.1,237.3,463.4,232.5,464,226.3z"/>
	<path class="st1" d="M245,511.9c3.8-2.3,8.3-1.3,12.4-1.7c33.6-3.7,65.6-12.7,96.4-26.6c23.2-10.5,44.6-23.7,64.2-40
		c25.4-21.1,45.6-46.3,59.7-76.2c7.9-16.7,12.7-34.5,16.5-52.7c4.2-20.2,7-40.5,6.4-61c-1-32.5-7-64.2-20.3-94.2
		c-8.6-19.4-19.5-37.4-32.5-54c-15-19.2-33.7-34.6-53-49.4c-15.7-12-32.6-21.5-50.3-29.7c-13.5-6.3-27.1-12.5-40.3-19.3
		c-4.1-2.1-8.1-4.7-12.1-7c71.9,0,143.9,0,215.8-0.1c3.2,0,4.2,0.3,4.2,4c-0.1,168-0.1,336.1,0,504.1c0,3.7-1.1,3.9-4.2,3.9
		C420.2,511.9,332.6,511.9,245,511.9z"/>
	<path class="st1" d="M282,0.1c-5.7,2.9-12.3,3.7-17.6,7.7c-5.5,4.1-5.6,4.8,0.1,8.1c1,0.6,2.6,0.8,2.4,2.1c-0.4,1.9-2.2,1-3.3,1
		c-13.7-0.3-27.5,1.1-41.1,2.3c-25,2.3-49.9,5.2-74.8,9.4C119.9,35.5,98.8,49.8,81,70.5c-23.4,27.2-37.6,59.1-48.8,92.7
		c-6.8,20.5-11.4,41.6-14.8,62.9c-1.6,10.1-2.5,20.5-3.4,30.8c-1.6,18.3-1,36.5-0.6,54.8c0.3,12.5,2.2,25,4.5,37.5
		c2.6,14.5,6.2,28.6,11.1,42.4c7.2,20,16.9,38.6,30.9,54.8c27.1,31.3,62,49,101.6,58.6c13,3.2,26.2,5.3,39.5,6c0.8,0,1.7,0,2,1
		c-66.3,0-132.5,0-198.8,0.1C1,512,0,511.7,0,508C0.1,340,0.1,172,0,3.9C0,0.2,1.1,0,4.2,0C96.8,0.1,189.4,0.1,282,0.1z"/>
	<path class="st2" d="M464,226.3c-0.6,6.2,1,11,1,16c-0.5,38.4-8.2,75.2-24.6,110.1c-12.9,27.4-29.8,51.8-51.8,72.5
		c-25.5,23.9-55.2,39.8-90,46.2c-12.9,2.4-25.8,4-38.8,5c-6.9,0.6-13.8-0.1-20.6,0.1c-28.8,0.8-56.8-4.6-84-13.5
		c-25.3-8.3-48.7-20.6-67.7-39.9c-12.1-12.3-20-27.1-26.2-42.9c-6.7-17.2-10.4-35.1-13.3-53.3c-3.8-23.9-3.7-47.9-2.6-71.9
		c1.3-26.7,6.2-52.9,14-78.6c7.3-23.9,17.1-46.5,31.5-66.9c13.8-19.4,31.3-34,54-42.2c15.3-5.5,30.6-11,46.5-14.3
		c10.2-2.2,20.4-4.1,30.9-4.8c5.7-0.4,11.5-1.2,17.2-1.5c15.5-0.7,30,3.5,44.2,9.2c13.3,5.4,25.9,12.4,38.3,19.4
		c7.5,4.2,14.6,3.7,21.7,0.4c5.7-2.6,10.1-3,16.1,0.3c12.4,7,25.1,13.6,36.8,21.8c13,9.2,23.6,21.1,33,33.9
		c14.5,19.9,24.1,42,29.7,65.9C461.8,207.3,463.5,217.3,464,226.3z M256.9,383.1c5.7-0.5,13,0.3,20.3-0.9c7.1-1.2,14-2.3,21-4
		c25.7-6.3,48-17.8,65-38.7c10.9-13.5,16.4-29.1,18.8-45.9c0.3-1.9,1-4.7-2.1-5.3c-2.5-0.5-4.9-0.4-6.6,2.1
		c-8.4,12.4-18.7,23-30.8,31.8c-22.8,16.6-48.2,25.5-76.4,27c-12.8,0.7-25.6,0.6-38.2-1.3c-14.4-2.2-28.5-6.1-42-11.9
		c-15.9-6.8-30.8-15.5-43.1-27.8c-8.9-8.8-15.3-19.4-18.7-31.7c-1-3.6-2.8-6.1-7-5.3c-4,0.8-5.2,3.8-5,7.3c0.6,11.3,2.5,22.3,7,32.8
		c10.6,24.5,29.6,40.9,52.8,52.8C198.1,377.2,226,383.6,256.9,383.1z M191,211.6c1.1-14.3-9-25.4-22.3-25.6
		c-13.2-0.2-22,8.8-21.6,22.7c0.5,15.6,9.8,24.6,21.9,25.1C183.3,234.5,191,226.1,191,211.6z M354,211.4
		c1.3-10.8-8.2-22.5-21.5-22.3c-13.9,0.2-23.5,8.8-23.2,22.1c0.3,12.7,7.9,25.1,21,24.9C341.8,236,355.4,225,354,211.4z"/>
	<path class="st0" d="M256.9,383.1c-30.9,0.6-58.8-5.8-84.9-19.2c-23.2-11.9-42.2-28.2-52.8-52.8c-4.5-10.4-6.4-21.5-7-32.8
		c-0.2-3.6,1-6.6,5-7.3c4.1-0.8,6,1.7,7,5.3c3.4,12.3,9.8,22.9,18.7,31.7c12.3,12.3,27.2,21,43.1,27.8c13.4,5.8,27.6,9.7,42,11.9
		c12.6,1.9,25.4,2,38.2,1.3c28.2-1.5,53.6-10.4,76.4-27c12.1-8.8,22.4-19.4,30.8-31.8c1.7-2.5,4.1-2.7,6.6-2.1
		c3.1,0.7,2.4,3.5,2.1,5.3c-2.4,16.9-7.9,32.4-18.8,45.9c-16.9,21-39.3,32.4-65,38.7c-7,1.7-14,2.8-21,4
		C269.9,383.4,262.6,382.5,256.9,383.1z"/>
	<path class="st0" d="M191,211.6c0,14.5-7.7,22.8-22,22.2c-12.1-0.5-21.5-9.5-21.9-25.1c-0.4-13.9,8.5-22.9,21.6-22.7
		C182,186.2,192.1,197.3,191,211.6z"/>
	<path class="st0" d="M354,211.4c1.5,13.6-12.2,24.5-23.7,24.7c-13.1,0.2-20.7-12.2-21-24.9c-0.3-13.3,9.3-21.9,23.2-22.1
		C345.8,188.9,355.2,200.6,354,211.4z"/>
</g>
</svg>
