<?xml version="1.0" encoding="UTF-8"?><svg id="Layer_1" xmlns="http://www.w3.org/2000/svg" viewBox="0 0 102.4 102.4"><defs><style>.cls-1{fill:#fdfdfd;}.cls-2{fill:#dcdcdc;}.cls-3{fill:#025d94;}</style></defs><path class="cls-1" d="M102.37,51.2c0,16.59-.02,33.18,.03,49.77,0,1.19-.24,1.43-1.43,1.43-33.18-.04-66.36-.04-99.55,0C.24,102.4,0,102.16,0,100.97c.04-33.18,.04-66.36,0-99.55C0,.24,.24,0,1.43,0,34.61,.04,67.79,.04,100.97,0c1.19,0,1.43,.24,1.43,1.43-.05,16.59-.03,33.18-.03,49.77ZM25.5,81.3c-.21,.26-.4,.52-.62,.77-1.87,2.07-1.7,4.29,.46,5.97,1.83,1.42,4.17,.85,5.6-1.34,.63-.96,.53-2.02,.54-3.08,.57,0,1.12,.07,1.6,.41,.04,2.51,1.54,4.52,3.54,4.77,2.04,.26,3.89-1.37,4.43-3.9,.52,0,1.04,0,1.57,0,.52,2.44,2.23,4.03,4.22,3.91,2.09-.13,3.7-2.16,3.76-4.75,.5-.27,1.01-.45,1.59-.4,.02,2.92,1.56,5.02,3.78,5.15,2.15,.12,3.97-1.76,4.19-4.34,.57-.05,1.14-.07,1.66,.22,.16,2.23,1.78,4.03,3.72,4.13,1.99,.1,3.71-1.52,4.17-3.95,.53-.06,1.05-.12,1.58-.18,.3,2.1,1.71,3.84,3.4,4.1,1.91,.3,3.11-.81,4.09-2.22,.78-1.12,.36-2.44,.48-3.67,.81-.31,1.61-.62,2.42-.93-.21,.69-.44,1.38-.63,2.09-.47,1.81,.4,3.12,1.76,4.07,1.38,.96,2.9,.91,4.24-.15,1.32-1.05,2-2.33,1.5-4.16-.59-2.18-2.54-2.46-4.11-3.31,2.04-1.41,4-2.91,5.64-4.79,.65,.27,.59,.98,.91,1.45,.9,1.32,2.13,2.26,3.79,2.02,1.85-.27,3.1-1.45,3.46-3.32,.33-1.68-.53-2.94-1.84-3.85-1-.7-2.22-.75-3.42-.72,.26-.57,.52-1.15,.77-1.72,2.32,.17,3.76-.72,4.43-2.73,.52-1.54-.17-3.48-1.55-4.34-1.93-1.21-3.39-1.01-5.07,.69-1.31,0-2.61,0-3.92,0-1.15-1.52-2.63-1.75-4.33-1.08-1.67,.66-2.49,1.99-2.42,3.67,.07,1.72,.75,3.2,2.75,3.54-.92,2.09-2.45,3.62-4.39,4.78-.2-.26-.4-.51-.61-.77-1.61-1.98-3.36-2.48-5.18-1.49-1.78,.97-2.39,2.77-1.74,5.11-.76,.45-1.6,.35-2.43,.33,.68-2.01,.56-3.82-1.29-5.2,1.06-2.42,1.96-4.88,2.38-7.51,.14-.89,.05-1.34-1.02-1.31-1.85,.06-3.7,.08-5.55-.06-1.92-.14-3.36,.16-3.33,2.51-.55-.45-.58-1.16-.87-1.73-.98-1.94-3.26-2.76-5.01-1.86-2.16,1.11-3.04,3.45-2,5.28,1.26,2.21,3.43,2.89,5.51,1.67,.46-.27,.87-.58,1.42-.62-.58,1.06-.92,2.3-2.13,2.89-1.83-.06-3.68-.15-4.47,2.06-1.88-1.1-3.35-2.61-4.49-4.45,1.52-.77,2.33-2,2.09-3.69-.23-1.64-1.38-2.67-2.83-3.32-.88-.39-1.83-.12-2.75-.16-.2-.67-.41-1.34-.61-2.02,.26,.03,.53,.04,.79,.1,2.28,.54,3.79-.01,4.92-1.88,.85-1.41,.71-2.77-.32-4.05-1.45-1.79-2.74-2.09-5.07-1.19-.36,.14-.76,.16-1.15,.23,0-1.05,0-2.11,0-3.16,.71-.1,1.26,.33,1.87,.55,1.71,.61,3.45-.06,4.59-1.82,.99-1.53,.76-2.96-.4-4.36-1.47-1.79-3.27-1.72-5.22-1.15,.2-.67,.41-1.34,.61-2.01,.66,0,1.32,.06,1.97,0,1.79-.18,3.42-1.63,3.58-3.38,.15-1.62-.17-3.15-2.02-3.78,1.1-1.85,2.58-3.32,4.46-4.39,.98,1.81,2.58,2.22,4.47,1.98,1.46,.54,1.84,1.9,2.39,3.13-.91,.63-1.05-.42-1.48-.73-1.73-1.23-3.48-1.01-5.08,.73-1.51,1.65-1.48,3.43,.1,5.08,1.63,1.7,3.36,1.81,5.09,.54,1.36-1.01,1.38-2.6,2.04-3.91,.46,1.01,.02,2.74,2.01,2.56,1.1,2.93,5.35,2.93,6.45,0,1.24,.02,1.67-.36,1.36-1.75-.49-2.22-1.37-4.25-2.26-6.3,1.42-1.49,2.16-3.14,1.28-5.19,.69-.09,1.35,0,1.99,.3,0,.53-.03,1.05,0,1.58,.08,1.85,1.74,3.75,3.48,4,1.77,.25,3.33-.85,4.1-2.91,2.06,1,3.64,2.51,4.76,4.51-.45,.38-.91,.75-1.35,1.14-1.18,1.04-1.85,2.32-1.28,3.87,.58,1.55,1.69,2.73,3.43,2.93,1.68,.2,2.9-.61,3.61-2.16,1.03-.19,2.07-.19,3.1,0,0,.65,.31,1.07,.87,1.42,1.67,1.06,3.52,1.11,4.93-.19,1.22-1.12,1.81-2.58,1.16-4.27-.75-1.96-2.18-2.87-4.29-2.65-.29-.59-.59-1.18-.88-1.77,.53,.02,1.07,.11,1.59,.05,2.01-.25,3.66-1.91,3.8-3.75,.13-1.71-1.35-3.53-3.24-4.01-1.67-.42-3.38,.51-4.28,2.4-.21,.44-.37,.84-.84,1.04-1.79-1.84-3.79-3.43-5.95-4.81,.43-.6,1.1-.3,1.65-.46,2.21-.64,3.53-3.06,2.78-5.12-.81-2.23-3.13-3.35-5.06-2.44-2.41,1.14-3.16,3.47-1.85,5.75,.22,.39,.36,.83,.53,1.25-1.08-.46-2.15-.93-3.23-1.39,.76-2.93-.45-5.39-2.91-5.9-2.23-.46-4.36,1.45-4.67,4.18-.53-.08-1.06-.17-1.59-.25-.76-2.75-2.29-4.16-4.31-3.97-1.85,.18-3.38,1.94-3.68,4.22-.52,.04-1.04,.09-1.56,.13-.17-2.07-1.49-3.9-3.17-4.28-1.98-.44-3.25,.68-4.3,2.14-.67,.93-.46,2.02-.51,3.06-.55-.1-1.15-.03-1.62-.44,.04-2.53-1.51-4.62-3.58-4.84-2.03-.21-3.84,1.42-4.35,3.91-.52,0-1.05,0-1.57,0-.51-2.46-2.24-4.06-4.24-3.92-2.11,.15-3.7,2.21-3.72,4.81-.47,.38-1.04,.38-1.6,.42,0-.46,.02-.93-.02-1.39-.13-1.66-1.7-3.51-3.28-3.79-2-.36-3.31,.75-4.22,2.3-.94,1.58-.48,3.04,.79,4.29,.28,.27,.5,.61,.75,.91-1.72,1.09-3.43,2.18-5.15,3.27-.83-1.2-1.98-1.41-3.3-1.03-3.02,.87-3.79,3.65-1.86,6.6-.96,1.7-1.92,3.4-2.87,5.1-.39-.34-.8-.68-1.18-1.04-1.96-1.86-3.84-1.82-5.64,.13-1.66,1.8-1.45,3.74,.48,5.51,1.37,1.26,2.86,1.08,4.43,.58-.15,.66-.3,1.33-.45,1.99-3.41,0-5.54,1.53-5.56,3.96-.01,2.2,2.01,3.92,4.72,4.01,0,.52,0,1.05,0,1.57-2.32,.08-4.28,1.4-4.65,3.22-.41,1.99,.72,3.25,2.2,4.28,1,.7,2.17,.4,3.28,.47,.14,.66,.29,1.33,.43,1.99-.19-.03-.39-.06-.58-.11-2.28-.6-4.06,.18-5.06,2.22-.81,1.65-.19,3.48,1.61,4.77,1.59,1.14,3.18,.88,4.91-.79,.33-.32,.69-.6,1.03-.91,.96,1.71,1.91,3.43,2.87,5.14-2.44,2.62-.84,5.94,1.92,6.7,1.43,.39,2.53-.52,3.78-.81,1.54,.97,3.09,1.94,4.63,2.92ZM8.24,12.35c1.9,.11,4.03-1.88,4.11-3.86,.07-1.84-1.77-3.86-3.71-4.05-1.89-.18-4.04,1.74-4.2,3.74-.15,1.89,1.81,4.04,3.8,4.16Zm9.69,0c1.94,.02,4-2.05,3.98-3.99-.02-1.87-1.94-3.84-3.84-3.93-1.91-.09-4.03,1.92-4.08,3.89-.05,1.92,1.99,4.01,3.94,4.03Zm9.67,0c1.97-.07,3.97-2.19,3.87-4.1-.11-1.9-2.09-3.81-3.95-3.82-1.94,0-4,2.07-3.97,4,.03,1.96,2.13,3.99,4.05,3.92Zm13.42-4.02c-.05-1.97-2.15-3.98-4.07-3.9-1.9,.08-3.82,2.04-3.85,3.92-.03,1.94,2.03,4.01,3.97,4,1.95,0,3.99-2.09,3.95-4.02Zm5.53-3.9c-1.97,.06-3.98,2.17-3.89,4.08,.09,1.9,2.06,3.82,3.93,3.84,1.94,.02,4-2.04,3.99-3.98-.02-1.95-2.11-3.99-4.03-3.94Zm9.56,7.92c1.93,.05,4.01-2,4.02-3.94,.01-1.86-1.89-3.85-3.79-3.97-1.9-.12-4.03,1.87-4.12,3.84-.09,1.92,1.93,4.02,3.89,4.07Zm13.58-4c-.03-1.96-2.12-3.99-4.05-3.92-1.89,.07-3.83,2.02-3.87,3.9-.04,1.93,2,4.01,3.95,4.02,1.94,0,4-2.06,3.97-4Zm9.56,0c-.02-1.96-2.11-3.99-4.04-3.93-1.89,.06-3.83,2-3.88,3.89-.05,1.93,1.99,4.01,3.94,4.03,1.94,.01,4-2.05,3.98-3.99Zm5.66,3.99c1.96-.05,3.98-2.15,3.9-4.07-.08-1.9-2.04-3.82-3.92-3.85-1.94-.03-4.01,2.03-4,3.97,0,1.95,2.09,3.99,4.02,3.95Zm9.53-7.92c-1.94-.03-4,2.03-3.99,3.97,.01,1.86,1.93,3.84,3.82,3.94,1.91,.1,4.03-1.9,4.09-3.87,.06-1.93-1.96-4.02-3.92-4.04ZM12.35,17.9c-.04-1.96-2.14-3.98-4.06-3.9-1.89,.08-3.82,2.03-3.85,3.91-.03,1.93,2.02,4.01,3.96,4,1.95,0,4-2.08,3.95-4.01Zm5.69-3.9c-1.92-.07-4.02,1.96-4.05,3.92-.03,1.85,1.86,3.85,3.77,3.99,1.89,.14,4.04-1.84,4.15-3.82,.1-1.91-1.9-4.03-3.87-4.1Zm47.66,84.37c1.94,.03,4.01-2.03,4-3.97,0-1.86-1.93-3.84-3.82-3.95-1.91-.1-4.03,1.9-4.1,3.87-.07,1.92,1.96,4.02,3.92,4.05Zm32.67-3.95c0-1.94-2.06-4-4-3.97-1.88,.03-3.84,1.95-3.92,3.85-.08,1.92,1.93,4.02,3.9,4.07,1.93,.05,4.01-2,4.02-3.95Zm-23.04-3.97c-1.94-.03-4,2.03-3.99,3.97,.01,1.86,1.93,3.84,3.82,3.94,1.91,.1,4.03-1.9,4.09-3.87,.06-1.93-1.96-4.02-3.92-4.04Zm9.61,7.92c1.97-.07,3.97-2.2,3.87-4.1-.11-1.9-2.09-3.81-3.95-3.82-1.94,0-4,2.07-3.97,4,.03,1.96,2.13,3.99,4.05,3.92ZM8.46,71.33c-1.93-.05-4.01,2-4.02,3.95,0,1.86,1.89,3.85,3.8,3.97,1.9,.12,4.03-1.87,4.12-3.85,.08-1.92-1.93-4.02-3.9-4.07ZM94.42,21.91c1.95-.01,3.99-2.1,3.94-4.02-.05-1.89-1.98-3.83-3.87-3.89-1.93-.06-4.02,1.96-4.04,3.92-.03,1.94,2.03,4,3.97,3.99ZM8.38,31.47c1.94,0,4-2.06,3.97-4-.03-1.88-1.95-3.84-3.85-3.92-1.92-.08-4.02,1.93-4.07,3.9-.05,1.93,2,4.01,3.95,4.02Zm70.87,34.27c0-1.95-2.08-4-4.01-3.96-1.88,.04-3.83,1.97-3.91,3.86-.07,1.92,1.95,4.02,3.91,4.06,1.93,.04,4.01-2.02,4.01-3.96Zm15.08-13.51c-1.97,.06-3.98,2.17-3.89,4.08,.09,1.9,2.06,3.82,3.93,3.84,1.94,.02,4-2.04,3.99-3.98-.02-1.95-2.11-3.99-4.03-3.94Zm-9.52,0c-1.96,.02-3.99,2.11-3.93,4.04,.06,1.89,2,3.83,3.89,3.88,1.93,.05,4.01-1.99,4.03-3.94,.01-1.94-2.05-4-3.99-3.98Zm-5.57,4.11c.11-1.9-1.88-4.03-3.86-4.11-1.84-.07-3.86,1.77-4.05,3.71-.18,1.89,1.74,4.04,3.74,4.2,1.89,.15,4.04-1.81,4.16-3.8Zm0-19.24c.02-1.94-2.04-4-3.98-3.99-1.87,.02-3.84,1.94-3.94,3.83-.1,1.91,1.91,4.03,3.88,4.09,1.93,.06,4.01-1.98,4.04-3.93Zm-9.56,19.1c0-1.94-2.06-4-4-3.97-1.88,.03-3.84,1.95-3.92,3.85-.08,1.92,1.93,4.02,3.9,4.07,1.93,.05,4.01-2,4.02-3.95Zm-13.51-3.97c-1.94,0-4,2.06-3.97,4,.03,1.88,1.95,3.84,3.85,3.92,1.92,.08,4.02-1.94,4.07-3.9,.04-1.93-2-4.01-3.95-4.02Zm-.04-1.64c1.94,.02,4-2.04,3.99-3.98-.02-1.87-1.94-3.84-3.83-3.94-1.91-.1-4.03,1.91-4.09,3.88-.06,1.93,1.98,4.01,3.93,4.04Zm13.54-4.04c-.07-1.97-2.18-3.98-4.09-3.87-1.89,.1-3.81,2.08-3.82,3.94-.01,1.94,2.06,4,3.99,3.97,1.96-.03,3.99-2.12,3.92-4.04Zm5.65,4.04c1.96-.04,3.98-2.14,3.9-4.06-.08-1.89-2.03-3.82-3.91-3.85-1.93-.03-4.01,2.02-4,3.96,0,1.95,2.08,4,4.01,3.95Zm9.56,0c1.96-.04,3.98-2.14,3.9-4.06-.08-1.89-2.03-3.82-3.91-3.85-1.93-.03-4.01,2.02-4,3.96,0,1.95,2.08,4,4.01,3.95Zm13.46-3.9c.05-1.93-2-4.01-3.95-4.02-1.86,0-3.85,1.9-3.97,3.8-.12,1.9,1.87,4.03,3.85,4.12,1.92,.08,4.02-1.93,4.07-3.9ZM8.48,88.81c1.97-.07,3.98-2.19,3.87-4.1-.1-1.9-2.08-3.81-3.95-3.82-1.94,0-4,2.06-3.97,4,.03,1.96,2.12,3.99,4.05,3.92Zm9.46,0c1.94,0,4-2.06,3.97-4-.03-1.88-1.95-3.84-3.85-3.92-1.92-.08-4.02,1.93-4.07,3.9-.05,1.93,2,4.01,3.95,4.02Zm80.42-4.01c-.04-1.96-2.14-3.98-4.06-3.9-1.89,.08-3.82,2.03-3.85,3.91-.03,1.93,2.02,4.01,3.96,4,1.95,0,4-2.08,3.95-4.01ZM8.49,98.36c1.97-.07,3.97-2.2,3.87-4.1-.11-1.9-2.09-3.81-3.95-3.82-1.94,0-4,2.07-3.97,4,.03,1.96,2.13,3.99,4.05,3.92Zm9.4-7.92c-1.96,.05-3.98,2.15-3.9,4.07,.08,1.9,2.04,3.82,3.92,3.85,1.94,.03,4.01-2.02,4-3.97,0-1.95-2.09-3.99-4.02-3.95Zm9.6,0c-1.95,.01-3.99,2.1-3.94,4.02,.05,1.89,1.98,3.83,3.88,3.89,1.93,.06,4.02-1.96,4.04-3.92,.03-1.94-2.03-4-3.97-3.99Zm13.53,3.93c-.02-1.96-2.11-3.99-4.04-3.93-1.89,.06-3.83,2-3.88,3.89-.05,1.92,1.99,4.01,3.94,4.03,1.94,.02,4-2.05,3.98-3.99Zm9.56-.07c-.08-1.97-2.2-3.97-4.11-3.86-1.9,.11-3.81,2.1-3.81,3.96,0,1.94,2.07,4,4.01,3.96,1.96-.04,3.98-2.14,3.91-4.06Zm5.69-3.86c-1.92-.07-4.02,1.96-4.05,3.92-.03,1.85,1.86,3.85,3.77,3.99,1.89,.14,4.04-1.84,4.15-3.82,.1-1.91-1.9-4.03-3.87-4.1Z"/><path class="cls-3" d="M9.97,42.64c.15-.66,.3-1.33,.45-1.99,.64-1.73,1.28-3.46,1.92-5.19,.96-1.7,1.92-3.4,2.87-5.1,1.72-1.86,3.44-3.71,5.16-5.57,1.72-1.09,3.43-2.18,5.15-3.27,1.99-.77,3.99-1.55,5.98-2.32,.56-.04,1.13-.04,1.6-.42,2.65-.3,5.31-.59,7.96-.89,.52,0,1.05,0,1.57,0,2.65,.31,5.29,.61,7.94,.92,.47,.4,1.07,.34,1.62,.44,.78,.28,1.5,.79,2.42,.53,1.84-.51,3.7-.98,5.55-1.46,.52-.04,1.04-.09,1.56-.13,2.66-.08,5.33-.16,7.99-.24,.53,.08,1.06,.17,1.59,.25,2.57,.36,5.08,1.03,7.58,1.71,1.08,.46,2.15,.93,3.23,1.39,.65,.34,1.29,.68,1.94,1.02,2.17,1.38,4.16,2.97,5.95,4.81,.99,1.42,1.98,2.85,2.97,4.27,.29,.59,.59,1.18,.88,1.77,.07,.25,.13,.51,.22,.76,.52,1.49,1.44,3.21,.84,4.51-.41,.9-2.45,.04-3.72,.41-1.03-.19-2.07-.19-3.1,0-1.93,.21-2.75-.67-2.93-2.6-.1-1.13-.64-2.27-1.47-3.17-1.12-2-2.7-3.51-4.76-4.51-2.28-1.58-4.84-2.37-7.58-2.67-.63-.29-1.3-.38-1.99-.3h-5.46c.85,.96,1.57,1.7,2.21,2.5,.69,.87,1.32,1.79,1.97,2.69,.89,2.05,1.77,4.09,2.26,6.3,.31,1.39-.12,1.77-1.36,1.75-2.15-.2-4.3-.2-6.45,0-1.99,.18-1.54-1.55-2.01-2.56-.03-.64-.24-1.22-.66-1.71-.55-1.23-.93-2.6-2.39-3.13-1.27-2.46-2.87-3.17-4.47-1.98-1.87,1.07-3.36,2.54-4.46,4.39-1.8,2.08-2.85,4.54-3.54,7.17-.2,.67-.41,1.34-.61,2.01-.5,2.23-.82,4.49-.84,6.79,0,1.05,0,2.11,0,3.16,.02,2.29,.34,4.55,.83,6.79,.2,.67,.41,1.34,.61,2.02,.67,2.63,1.75,5.06,3.49,7.17,1.14,1.85,2.61,3.36,4.49,4.45,1.6,1.19,3.04,.52,4.47-2.06,1.21-.59,1.56-1.83,2.13-2.89,.52-.84,.89-1.73,.94-2.73-.03-2.35,1.41-2.65,3.33-2.51,1.84,.13,3.7,.11,5.55,.06,1.07-.03,1.16,.41,1.02,1.31-.42,2.63-1.32,5.09-2.38,7.51-1.26,1.71-2.52,3.43-3.9,5.31,1.85,.19,3.52,.34,5.2-.11,.83,.02,1.67,.13,2.43-.33,2.77-.28,5.29-1.19,7.53-2.86,1.94-1.16,3.46-2.69,4.39-4.78,.97-1.14,1.4-2.53,1.58-3.95,.2-1.52,.75-2.41,2.42-2.18,1.31,0,2.61,0,3.92,0,.72,.03,1.44,.15,2.15,.08,1.3-.12,1.6,.34,1.23,1.57-.47,1.56-.8,3.15-1.19,4.73-.26,.57-.52,1.15-.77,1.72-.97,1.47-1.94,2.95-2.9,4.42-1.64,1.87-3.6,3.37-5.64,4.79-.92,.49-1.84,.98-2.76,1.47-.81,.31-1.61,.62-2.42,.93-2.61,.82-5.29,1.33-7.98,1.79-.53,.06-1.05,.12-1.58,.18-2.63-.06-5.26-.12-7.89-.17-.53-.29-1.09-.27-1.66-.22-2.66-.23-5.14-2.24-7.97-.81-.58-.06-1.09,.13-1.59,.4-2.66,.28-5.32,.56-7.98,.84-.52,0-1.04,0-1.57,0-2.66-.29-5.31-.58-7.97-.87-.48-.34-1.03-.42-1.6-.41-2-.78-3.99-1.55-5.99-2.33-1.54-.97-3.09-1.94-4.63-2.92-2.08-1.79-3.96-3.77-5.7-5.9-.96-1.71-1.91-3.43-2.87-5.14-.64-1.73-1.27-3.47-1.91-5.2-.14-.66-.29-1.33-.43-1.99-.27-2.66-.55-5.32-.82-7.97,0-.52,0-1.05,0-1.57,.28-2.66,.56-5.31,.83-7.97Zm33.14,34.77c.32,.06,.72,.06,.73-.3,.01-.38-.37-.61-.73-.76-.7-.77-1.4-1.54-2.09-2.31-.65-.91-1.3-1.81-1.96-2.72-.34-.57-.67-1.14-1.01-1.71-.98-2.36-1.96-4.71-2.94-7.07-.37-2.86-1.18-5.64-1.26-8.57-.13-4.63,.22-9.19,1.29-13.7,1.02-2.4,2.03-4.8,3.05-7.2,.3-.51,.6-1.02,.9-1.53,.64-.69,1.22-1.42,1.58-2.3,1.1-1.16,2.19-2.32,3.41-3.61-1.34-.19-2.39-.24-3.43-.07-2.64-.08-5.16,.42-7.59,1.45-.76,.08-1.43,.36-1.98,.89-1.92,.58-3.42,1.79-4.8,3.18-3.72,3.3-5.57,7.59-6.58,12.34-.59,2.24-.87,4.52-.77,6.84-.18,.77-.18,1.54,0,2.31-.12,2.32,.21,4.59,.77,6.84,1.03,4.73,2.8,9.07,6.57,12.34,1.44,1.62,3.19,2.79,5.22,3.54,.45,.41,.99,.6,1.57,.71,2.41,.99,4.92,1.47,7.53,1.39,.83,.28,1.67,.27,2.51,.03Z"/><path class="cls-2" d="M60.51,65.72c-.06,1-.43,1.89-.94,2.73-.55,.04-.96,.35-1.42,.62-2.08,1.22-4.25,.55-5.51-1.67-1.04-1.83-.16-4.17,2-5.28,1.75-.9,4.03-.07,5.01,1.86,.29,.58,.32,1.28,.87,1.73Z"/><path class="cls-2" d="M59.84,34.57c.42,.49,.63,1.07,.66,1.71-.65,1.31-.68,2.9-2.04,3.91-1.73,1.28-3.46,1.17-5.09-.54-1.58-1.65-1.61-3.43-.1-5.08,1.6-1.74,3.35-1.96,5.08-.73,.43,.31,.57,1.36,1.48,.73Z"/><path class="cls-2" d="M84.05,22.32c-.65-.34-1.29-.68-1.94-1.02-.18-.42-.31-.86-.53-1.25-1.31-2.28-.56-4.62,1.85-5.75,1.93-.91,4.25,.21,5.06,2.44,.74,2.06-.58,4.48-2.78,5.12-.55,.16-1.23-.14-1.65,.46Z"/><path class="cls-2" d="M81.69,81.96c.92-.49,1.84-.98,2.76-1.47,1.57,.85,3.52,1.13,4.11,3.31,.5,1.83-.18,3.12-1.5,4.16-1.33,1.06-2.85,1.11-4.24,.15-1.37-.95-2.24-2.26-1.76-4.07,.18-.7,.42-1.39,.63-2.09Z"/><path class="cls-2" d="M8.24,12.35c-1.98-.12-3.95-2.27-3.8-4.16,.16-2,2.32-3.93,4.2-3.74,1.94,.19,3.78,2.2,3.71,4.05-.08,1.98-2.21,3.97-4.11,3.86Z"/><path class="cls-2" d="M17.93,12.35c-1.95-.02-3.99-2.11-3.94-4.03,.05-1.97,2.17-3.98,4.08-3.89,1.9,.09,3.82,2.06,3.84,3.93,.02,1.94-2.04,4-3.98,3.99Z"/><path class="cls-2" d="M27.6,12.35c-1.92,.07-4.02-1.96-4.05-3.92-.03-1.93,2.02-4.01,3.97-4,1.86,0,3.85,1.92,3.95,3.82,.11,1.91-1.89,4.03-3.87,4.1Z"/><path class="cls-2" d="M41.02,8.33c.05,1.93-2,4.01-3.95,4.02-1.94,0-4-2.06-3.97-4,.03-1.88,1.95-3.84,3.85-3.92,1.92-.08,4.02,1.93,4.07,3.9Z"/><path class="cls-2" d="M46.55,4.44c1.92-.05,4.01,1.99,4.03,3.94,.02,1.94-2.05,4-3.99,3.98-1.87-.02-3.84-1.94-3.93-3.84-.09-1.91,1.92-4.03,3.89-4.08Z"/><path class="cls-2" d="M56.11,12.35c-1.97-.05-3.98-2.16-3.89-4.07,.09-1.98,2.22-3.96,4.12-3.84,1.9,.12,3.81,2.11,3.79,3.97-.01,1.95-2.1,3.99-4.02,3.94Z"/><path class="cls-2" d="M69.69,8.35c.03,1.94-2.02,4.01-3.97,4-1.95,0-3.99-2.09-3.95-4.02,.04-1.88,1.98-3.83,3.87-3.9,1.92-.07,4.02,1.96,4.05,3.92Z"/><path class="cls-2" d="M79.25,8.36c.02,1.94-2.03,4-3.98,3.99-1.95-.01-3.99-2.1-3.94-4.03,.05-1.89,1.99-3.83,3.88-3.89,1.93-.06,4.02,1.97,4.04,3.93Z"/><path class="cls-2" d="M84.91,12.35c-1.93,.05-4.01-2-4.02-3.95,0-1.94,2.06-4,4-3.97,1.88,.03,3.84,1.95,3.92,3.85,.08,1.92-1.93,4.02-3.9,4.07Z"/><path class="cls-2" d="M94.44,4.44c1.96,.03,3.99,2.12,3.92,4.04-.07,1.97-2.18,3.98-4.09,3.87-1.89-.1-3.81-2.08-3.82-3.94-.01-1.94,2.06-4,3.99-3.97Z"/><path class="cls-2" d="M12.35,17.9c.04,1.93-2.01,4.01-3.95,4.01-1.94,0-4-2.07-3.96-4,.03-1.88,1.96-3.84,3.85-3.91,1.92-.08,4.02,1.94,4.06,3.9Z"/><path class="cls-2" d="M18.04,13.99c1.97,.07,3.97,2.19,3.87,4.1-.11,1.98-2.25,3.95-4.15,3.82-1.91-.14-3.8-2.14-3.77-3.99,.03-1.96,2.12-3.99,4.05-3.92Z"/><path class="cls-2" d="M65.7,98.36c-1.96-.03-3.99-2.12-3.92-4.05,.07-1.97,2.19-3.97,4.1-3.87,1.9,.1,3.81,2.08,3.82,3.95,0,1.94-2.06,4-4,3.97Z"/><path class="cls-2" d="M98.36,94.42c0,1.95-2.09,3.99-4.02,3.95-1.96-.05-3.98-2.15-3.9-4.07,.08-1.9,2.04-3.82,3.92-3.85,1.94-.03,4.01,2.03,4,3.97Z"/><path class="cls-2" d="M75.32,90.44c1.96,.03,3.99,2.11,3.92,4.04-.07,1.97-2.18,3.98-4.09,3.87-1.89-.1-3.81-2.08-3.82-3.94-.01-1.94,2.06-4,3.99-3.97Z"/><path class="cls-2" d="M84.94,98.36c-1.92,.07-4.02-1.96-4.05-3.92-.03-1.93,2.02-4.01,3.97-4,1.86,0,3.85,1.92,3.95,3.82,.11,1.91-1.89,4.03-3.87,4.1Z"/><path class="cls-2" d="M8.46,71.33c1.97,.05,3.98,2.15,3.9,4.07-.09,1.98-2.22,3.97-4.12,3.85-1.9-.12-3.81-2.11-3.8-3.97,0-1.95,2.09-3.99,4.02-3.95Z"/><path class="cls-2" d="M94.42,21.91c-1.94,.01-4-2.06-3.97-3.99,.03-1.96,2.11-3.99,4.04-3.92,1.89,.06,3.83,2.01,3.87,3.89,.05,1.93-2,4.01-3.94,4.02Z"/><path class="cls-2" d="M8.38,31.47c-1.95,0-3.99-2.09-3.95-4.02,.05-1.97,2.15-3.98,4.07-3.9,1.9,.08,3.82,2.04,3.85,3.92,.03,1.94-2.03,4.01-3.97,4Z"/><path class="cls-2" d="M79.25,65.73c0,1.95-2.07,4-4.01,3.96-1.96-.04-3.98-2.14-3.91-4.06,.07-1.89,2.03-3.82,3.91-3.86,1.93-.04,4.01,2.01,4.01,3.96Z"/><path class="cls-2" d="M94.33,52.22c1.92-.05,4.01,1.99,4.03,3.94,.02,1.94-2.05,4-3.99,3.98-1.87-.02-3.84-1.94-3.93-3.84-.09-1.91,1.92-4.03,3.89-4.08Z"/><path class="cls-2" d="M84.81,52.22c1.94-.02,4,2.03,3.99,3.98-.01,1.95-2.1,3.99-4.03,3.94-1.89-.05-3.83-1.99-3.89-3.88-.06-1.93,1.97-4.02,3.93-4.04Z"/><path class="cls-2" d="M79.25,56.33c-.12,1.98-2.27,3.95-4.16,3.8-2-.16-3.93-2.32-3.74-4.2,.19-1.94,2.2-3.78,4.05-3.71,1.98,.08,3.97,2.21,3.86,4.11Z"/><path class="cls-2" d="M79.25,37.09c-.02,1.95-2.11,3.99-4.04,3.93-1.97-.06-3.98-2.17-3.88-4.09,.1-1.89,2.07-3.82,3.94-3.83,1.94-.02,4,2.05,3.98,3.99Z"/><path class="cls-2" d="M69.69,56.19c0,1.95-2.09,3.99-4.02,3.95-1.96-.05-3.98-2.15-3.9-4.07,.08-1.9,2.04-3.82,3.92-3.85,1.94-.03,4.01,2.03,4,3.97Z"/><path class="cls-2" d="M56.19,52.22c1.95,0,3.99,2.09,3.95,4.02-.05,1.96-2.15,3.98-4.07,3.9-1.9-.08-3.82-2.04-3.85-3.92-.03-1.94,2.02-4.01,3.97-4Z"/><path class="cls-2" d="M56.15,50.58c-1.95-.02-3.99-2.11-3.93-4.04,.06-1.97,2.17-3.98,4.09-3.88,1.89,.1,3.82,2.07,3.83,3.94,.02,1.94-2.05,4-3.99,3.98Z"/><path class="cls-2" d="M69.69,46.54c.06,1.93-1.96,4.02-3.92,4.04-1.94,.03-4-2.03-3.99-3.97,.01-1.86,1.93-3.84,3.82-3.94,1.91-.1,4.03,1.9,4.09,3.87Z"/><path class="cls-2" d="M75.34,50.58c-1.93,.04-4.01-2.01-4.01-3.95,0-1.94,2.07-4,4-3.96,1.88,.03,3.84,1.96,3.91,3.85,.08,1.92-1.94,4.02-3.9,4.06Z"/><path class="cls-2" d="M84.9,50.58c-1.93,.04-4.01-2.01-4.01-3.95,0-1.94,2.07-4,4-3.96,1.88,.03,3.84,1.96,3.91,3.85,.08,1.92-1.94,4.02-3.9,4.06Z"/><path class="cls-2" d="M98.36,46.68c-.05,1.96-2.15,3.98-4.07,3.9-1.98-.09-3.97-2.22-3.85-4.12,.12-1.9,2.11-3.81,3.97-3.8,1.95,0,3.99,2.09,3.95,4.02Z"/><path class="cls-2" d="M8.48,88.81c-1.93,.07-4.02-1.96-4.05-3.92-.03-1.94,2.03-4.01,3.97-4,1.86,0,3.84,1.93,3.95,3.82,.1,1.91-1.9,4.03-3.87,4.1Z"/><path class="cls-2" d="M17.94,88.81c-1.95,0-3.99-2.09-3.95-4.02,.05-1.96,2.15-3.98,4.07-3.9,1.9,.08,3.82,2.04,3.85,3.92,.03,1.94-2.03,4.01-3.97,4Z"/><path class="cls-2" d="M98.36,84.79c.04,1.93-2.01,4.01-3.95,4.01-1.94,0-4-2.07-3.96-4,.03-1.88,1.96-3.84,3.85-3.91,1.92-.08,4.02,1.94,4.06,3.9Z"/><path class="cls-2" d="M8.49,98.36c-1.92,.07-4.02-1.96-4.05-3.92-.03-1.93,2.02-4.01,3.97-4,1.86,0,3.85,1.92,3.95,3.82,.11,1.91-1.89,4.03-3.87,4.1Z"/><path class="cls-2" d="M17.89,90.44c1.93-.04,4.01,2,4.02,3.95,0,1.94-2.06,4-4,3.97-1.88-.03-3.84-1.95-3.92-3.85-.08-1.92,1.94-4.02,3.9-4.07Z"/><path class="cls-2" d="M27.49,90.44c1.94-.01,4,2.05,3.97,3.99-.03,1.96-2.11,3.99-4.04,3.92-1.89-.06-3.83-2.01-3.88-3.89-.05-1.93,1.99-4.01,3.94-4.02Z"/><path class="cls-2" d="M41.02,94.38c.02,1.94-2.04,4-3.98,3.99-1.95-.02-3.99-2.11-3.94-4.03,.05-1.89,1.99-3.83,3.88-3.89,1.93-.06,4.01,1.98,4.04,3.93Z"/><path class="cls-2" d="M50.58,94.31c.07,1.92-1.95,4.02-3.91,4.06-1.93,.04-4.01-2.02-4.01-3.96,0-1.86,1.91-3.85,3.81-3.96,1.91-.11,4.03,1.89,4.11,3.86Z"/><path class="cls-2" d="M56.26,90.44c1.97,.07,3.97,2.19,3.87,4.1-.11,1.98-2.25,3.95-4.15,3.82-1.91-.14-3.8-2.14-3.77-3.99,.03-1.96,2.12-3.99,4.05-3.92Z"/><path class="cls-2" d="M90.09,75.71c.97-1.47,1.94-2.95,2.9-4.42,1.2-.03,2.42,.02,3.42,.72,1.3,.91,2.17,2.17,1.84,3.85-.37,1.87-1.61,3.05-3.46,3.32-1.66,.24-2.89-.7-3.79-2.02-.32-.47-.26-1.18-.91-1.45Z"/><path class="cls-2" d="M12.33,35.46c-.64,1.73-1.28,3.46-1.92,5.19-1.57,.5-3.06,.68-4.43-.58-1.93-1.77-2.14-3.71-.48-5.51,1.8-1.95,3.69-2,5.64-.13,.38,.36,.79,.69,1.18,1.04Z"/><path class="cls-2" d="M92.97,31.4c-.99-1.42-1.98-2.85-2.97-4.27,.47-.2,.63-.6,.84-1.04,.91-1.89,2.62-2.82,4.28-2.4,1.89,.48,3.36,2.3,3.24,4.01-.14,1.84-1.79,3.5-3.8,3.75-.52,.06-1.06-.03-1.59-.05Z"/><path class="cls-2" d="M10.39,62.15c.64,1.73,1.27,3.47,1.91,5.2-.34,.3-.7,.59-1.03,.91-1.73,1.67-3.32,1.92-4.91,.79-1.8-1.29-2.42-3.12-1.61-4.77,1-2.05,2.78-2.83,5.06-2.22,.19,.05,.39,.07,.58,.11Z"/><path class="cls-2" d="M43.54,49.82c.02-2.29,.34-4.55,.84-6.79,1.95-.57,3.75-.64,5.22,1.15,1.15,1.4,1.39,2.83,.4,4.36-1.14,1.76-2.88,2.43-4.59,1.82-.62-.22-1.16-.66-1.87-.55Z"/><path class="cls-2" d="M44.37,59.77c-.5-2.24-.81-4.49-.83-6.79,.38-.07,.79-.09,1.15-.23,2.33-.9,3.62-.61,5.07,1.19,1.03,1.28,1.17,2.64,.32,4.05-1.13,1.87-2.64,2.42-4.92,1.88-.26-.06-.52-.07-.79-.1Z"/><path class="cls-2" d="M31.49,19.2c-1.99,.77-3.99,1.55-5.98,2.32-.25-.31-.47-.64-.75-.91-1.27-1.25-1.73-2.71-.79-4.29,.92-1.55,2.23-2.66,4.22-2.3,1.58,.29,3.15,2.13,3.28,3.79,.04,.46,.01,.92,.02,1.39Z"/><path class="cls-2" d="M25.5,81.3c2,.78,3.99,1.55,5.99,2.33,0,1.05,.09,2.11-.54,3.08-1.43,2.19-3.77,2.76-5.6,1.34-2.16-1.68-2.33-3.9-.46-5.97,.22-.24,.41-.51,.62-.77Z"/><path class="cls-2" d="M60.16,18.33c-1.85,.48-3.71,.95-5.55,1.46-.93,.26-1.64-.25-2.42-.53,.05-1.04-.16-2.14,.51-3.06,1.05-1.46,2.32-2.58,4.3-2.14,1.68,.37,3,2.21,3.17,4.28Z"/><path class="cls-2" d="M52.19,83.67c2.83-1.43,5.31,.58,7.97,.81-.23,2.58-2.05,4.47-4.19,4.34-2.22-.13-3.76-2.22-3.78-5.15Z"/><path class="cls-2" d="M9.97,42.64c-.28,2.66-.56,5.31-.83,7.97-2.71-.09-4.73-1.81-4.72-4.01,.01-2.43,2.15-3.95,5.56-3.96Z"/><path class="cls-2" d="M9.14,52.19c.27,2.66,.55,5.32,.82,7.97-1.11-.07-2.27,.23-3.28-.47-1.48-1.03-2.61-2.3-2.2-4.28,.38-1.82,2.34-3.14,4.65-3.22Z"/><path class="cls-2" d="M78.88,19.91c-2.5-.68-5-1.36-7.58-1.71,.31-2.73,2.44-4.64,4.67-4.18,2.45,.51,3.67,2.97,2.91,5.9Z"/><path class="cls-2" d="M71.3,84.69c2.69-.46,5.37-.97,7.98-1.79-.11,1.23,.3,2.55-.48,3.67-.98,1.41-2.18,2.52-4.09,2.22-1.69-.27-3.1-2-3.4-4.1Z"/><path class="cls-2" d="M83.66,33.07c.83,.9,1.37,2.04,1.47,3.17,.18,1.94,1,2.81,2.93,2.6-.7,1.55-1.92,2.36-3.61,2.16-1.74-.2-2.85-1.38-3.43-2.93-.58-1.55,.1-2.83,1.28-3.87,.44-.39,.9-.76,1.35-1.14Z"/><path class="cls-2" d="M91.18,38.84c1.27-.36,3.31,.49,3.72-.41,.6-1.3-.32-3.02-.84-4.51-.09-.25-.14-.51-.22-.76,2.11-.22,3.54,.68,4.29,2.65,.65,1.69,.06,3.15-1.16,4.27-1.41,1.29-3.27,1.25-4.93,.19-.56-.35-.87-.77-.87-1.42Z"/><path class="cls-2" d="M79.27,74.1c-2.24,1.67-4.76,2.58-7.53,2.86-.65-2.34-.04-4.14,1.74-5.11,1.82-.99,3.57-.49,5.18,1.49,.21,.25,.41,.51,.61,.77Z"/><path class="cls-2" d="M71.32,25.89c2.73,.3,5.3,1.09,7.58,2.67-.77,2.06-2.33,3.16-4.1,2.91-1.74-.25-3.4-2.15-3.48-4-.02-.52,0-1.05,0-1.58Z"/><path class="cls-2" d="M87.66,63.19c-1.67-.22-2.22,.66-2.42,2.18-.19,1.41-.61,2.81-1.58,3.95-2-.33-2.68-1.81-2.75-3.54-.06-1.69,.75-3.02,2.42-3.67,1.7-.67,3.18-.45,4.33,1.08Z"/><path class="cls-2" d="M93.77,69.57c.39-1.58,.72-3.18,1.19-4.73,.37-1.22,.07-1.69-1.23-1.57-.71,.07-1.43-.05-2.15-.08,1.68-1.7,3.14-1.9,5.07-.69,1.37,.86,2.06,2.8,1.55,4.34-.67,2.01-2.11,2.9-4.43,2.73Z"/><path class="cls-2" d="M50.56,18.82c-2.65-.31-5.29-.61-7.94-.92,.51-2.5,2.32-4.12,4.35-3.91,2.07,.21,3.62,2.3,3.58,4.84Z"/><path class="cls-2" d="M41.06,17.9c-2.65,.3-5.31,.59-7.96,.89,.02-2.6,1.62-4.66,3.72-4.81,2-.14,3.73,1.46,4.24,3.92Z"/><path class="cls-2" d="M33.09,84.04c2.66,.29,5.31,.58,7.97,.87-.53,2.53-2.39,4.16-4.43,3.9-2-.25-3.5-2.27-3.54-4.77Z"/><path class="cls-2" d="M42.63,84.91c2.66-.28,5.32-.56,7.98-.84-.07,2.59-1.67,4.62-3.76,4.75-1.98,.12-3.7-1.46-4.22-3.91Z"/><path class="cls-2" d="M44.99,41.03c.69-2.63,1.74-5.08,3.54-7.17,1.84,.64,2.17,2.16,2.02,3.78-.16,1.75-1.79,3.2-3.58,3.38-.65,.06-1.31,0-1.97,0Z"/><path class="cls-2" d="M48.47,68.96c-1.74-2.11-2.83-4.54-3.49-7.17,.92,.04,1.87-.23,2.75,.16,1.46,.65,2.6,1.68,2.83,3.32,.24,1.69-.57,2.92-2.09,3.69Z"/><path class="cls-2" d="M69.71,17.95c-2.66,.08-5.33,.16-7.99,.24,.29-2.28,1.83-4.04,3.68-4.22,2.02-.19,3.55,1.22,4.31,3.97Z"/><path class="cls-2" d="M61.83,84.7c2.63,.06,5.26,.12,7.89,.17-.46,2.43-2.18,4.06-4.17,3.95-1.94-.1-3.56-1.9-3.72-4.13Z"/><path class="cls-2" d="M15.17,72.49c1.74,2.12,3.62,4.1,5.7,5.9-1.26,.29-2.35,1.2-3.78,.81-2.76-.76-4.36-4.09-1.92-6.7Z"/><path class="cls-2" d="M20.37,24.79c-1.72,1.86-3.44,3.71-5.16,5.57-1.93-2.95-1.15-5.73,1.86-6.6,1.32-.38,2.47-.17,3.3,1.03Z"/><path class="cls-2" d="M69.32,77.28c-1.67,.45-3.35,.3-5.2,.11,1.39-1.89,2.65-3.6,3.9-5.31,1.85,1.38,1.97,3.19,1.29,5.2Z"/><path class="cls-2" d="M68.06,30.79c-.65-.9-1.28-1.82-1.97-2.69-.64-.8-1.36-1.54-2.21-2.5h5.46c.88,2.05,.14,3.71-1.28,5.19Z"/><path class="cls-2" d="M62.51,38.84c2.15-.2,4.3-.2,6.45,0-1.1,2.93-5.35,2.93-6.45,0Z"/><path class="cls-2" d="M57.43,71.35c-1.43,2.58-2.87,3.25-4.47,2.06,.78-2.22,2.63-2.13,4.47-2.06Z"/><path class="cls-2" d="M52.98,29.47c1.6-1.19,3.2-.48,4.47,1.98-1.89,.24-3.49-.17-4.47-1.98Z"/><path class="cls-1" d="M18.93,52.56c-.18-.77-.18-1.54,0-2.31,1.85-.3,2.68-1.67,2.89-3.27,.2-1.57-.46-2.94-2.12-3.57,1.01-4.74,2.86-9.04,6.58-12.34,2.5,.86,4.65-.55,4.8-3.18,.56-.53,1.22-.81,1.98-.89,.49,3.5,1.84,4.59,5.2,4.16,.37-.05,.63,.08,.83,.38-.3,.51-.6,1.02-.9,1.53-2.88,.1-4.28,.95-4.86,3.1-.5,1.82,.19,3.18,1.81,4.1-1.07,4.51-1.42,9.07-1.29,13.7,.08,2.92,.89,5.7,1.26,8.57-1.74,1.07-2.38,2.55-1.65,4.52,.69,1.86,2.18,2.67,4.59,2.55,.34,.57,.67,1.14,1.01,1.71-.22,.11-.45,.34-.66,.32-3.58-.37-4.98,.76-5.34,4.35-.58-.11-1.13-.3-1.57-.71-.92-3.23-2.67-4.42-5.22-3.54-3.77-3.27-5.55-7.6-6.57-12.34,1.66-.62,2.33-2,2.12-3.57-.2-1.6-1.04-2.97-2.89-3.27Zm8.5-19.45c-1.97,.06-3.98,2.17-3.89,4.08,.09,1.9,2.06,3.82,3.93,3.84,1.94,.02,4-2.04,3.99-3.98-.02-1.95-2.11-3.99-4.03-3.94Zm4.03,32.61c-.01-1.95-2.1-3.99-4.02-3.94-1.89,.05-3.83,1.98-3.89,3.87-.06,1.93,1.96,4.02,3.92,4.04,1.94,.03,4-2.03,3.99-3.97Zm-3.9-5.58c1.96-.04,3.98-2.14,3.9-4.06-.08-1.89-2.03-3.82-3.91-3.85-1.93-.03-4.01,2.02-4,3.96,0,1.95,2.08,4,4.01,3.95Zm-.14-17.47c-1.97,.07-3.98,2.18-3.87,4.09,.1,1.9,2.08,3.81,3.94,3.82,1.94,.01,4-2.06,3.97-3.99-.03-1.96-2.11-3.99-4.04-3.92Z"/><path class="cls-2" d="M33.06,75.98c.35-3.59,1.76-4.72,5.34-4.35,.21,.02,.44-.21,.66-.32,.65,.91,1.3,1.81,1.96,2.72,.24,1.16-.33,2.22-.42,3.34-2.61,.08-5.12-.4-7.53-1.39Z"/><path class="cls-2" d="M39.1,31.54c-.2-.3-.46-.42-.83-.38-3.36,.42-4.7-.66-5.2-4.16,2.43-1.02,4.95-1.53,7.59-1.45,.16,1.23,.25,2.45,.02,3.68-.36,.89-.94,1.62-1.58,2.3Z"/><path class="cls-2" d="M35.14,40.27c-1.62-.92-2.31-2.28-1.81-4.1,.58-2.14,1.99-3,4.86-3.1-1.02,2.4-2.03,4.8-3.05,7.2Z"/><path class="cls-2" d="M38.05,69.61c-2.41,.12-3.9-.7-4.59-2.55-.73-1.96-.09-3.44,1.65-4.52,.98,2.36,1.96,4.71,2.94,7.07Z"/><path class="cls-2" d="M19.7,43.41c1.66,.63,2.32,2,2.12,3.57-.21,1.6-1.04,2.96-2.89,3.27-.1-2.32,.18-4.6,.77-6.84Z"/><path class="cls-2" d="M18.93,52.56c1.85,.3,2.69,1.67,2.89,3.27,.2,1.57-.46,2.95-2.12,3.57-.56-2.25-.88-4.52-.77-6.84Z"/><path class="cls-2" d="M26.27,71.73c2.55-.88,4.3,.31,5.22,3.54-2.03-.76-3.78-1.92-5.22-3.54Z"/><path class="cls-2" d="M31.09,27.89c-.16,2.63-2.3,4.05-4.8,3.18,1.38-1.39,2.88-2.6,4.8-3.18Z"/><path class="cls-1" d="M40.68,29.24c.22-1.23,.14-2.46-.02-3.68,1.05-.17,2.09-.12,3.43,.07-1.22,1.29-2.31,2.45-3.41,3.61Z"/><path class="cls-1" d="M40.6,77.38c.09-1.12,.66-2.18,.42-3.34,.7,.77,1.4,1.54,2.09,2.31,0,.35,0,.71,0,1.06-.84,.23-1.68,.25-2.51-.03Z"/><path class="cls-2" d="M43.11,77.41c0-.35,0-.71,0-1.06,.36,.15,.75,.38,.73,.76-.01,.36-.41,.36-.73,.3Z"/><path class="cls-2" d="M27.44,33.11c1.92-.05,4.01,1.99,4.03,3.94,.02,1.94-2.05,4-3.99,3.98-1.87-.02-3.84-1.94-3.93-3.84-.09-1.91,1.92-4.03,3.89-4.08Z"/><path class="cls-2" d="M31.47,65.72c.01,1.94-2.06,4-3.99,3.97-1.96-.03-3.99-2.12-3.92-4.04,.06-1.89,2.01-3.83,3.89-3.87,1.93-.05,4.01,2,4.02,3.94Z"/><path class="cls-2" d="M27.56,60.14c-1.93,.04-4.01-2.01-4.01-3.95,0-1.94,2.07-4,4-3.96,1.88,.03,3.84,1.96,3.91,3.85,.08,1.92-1.94,4.02-3.9,4.06Z"/><path class="cls-2" d="M27.42,42.66c1.93-.06,4.02,1.96,4.04,3.92,.03,1.94-2.03,4-3.97,3.99-1.86-.01-3.84-1.93-3.94-3.82-.1-1.91,1.9-4.03,3.87-4.09Z"/></svg>