<?xml version="1.0" standalone="no"?>
<!DOCTYPE svg PUBLIC "-//W3C//DTD SVG 20010904//EN"
 "http://www.w3.org/TR/2001/REC-SVG-20010904/DTD/svg10.dtd">
<svg version="1.0" xmlns="http://www.w3.org/2000/svg"
 width="256.000000pt" height="256.000000pt" viewBox="0 0 256.000000 256.000000"
 preserveAspectRatio="xMidYMid meet">

<g transform="translate(0.000000,256.000000) scale(0.100000,-0.100000)"
fill="#000000" stroke="none">
<path d="M1145 2549 c-650 -73 -1136 -613 -1138 -1264 -2 -625 428 -1141 1049
-1261 129 -25 339 -23 471 5 515 108 896 489 1004 1004 43 205 25 469 -47 669
-154 427 -513 739 -952 827 -119 24 -280 33 -387 20z m245 -129 c268 -29 511
-144 699 -331 447 -448 447 -1170 -1 -1617 -447 -448 -1168 -448 -1616 -1
-349 349 -436 874 -217 1314 67 134 127 215 239 323 208 200 464 306 776 320
14 1 68 -3 120 -8z"/>
<path d="M1165 2329 c-354 -37 -672 -261 -830 -584 -145 -296 -149 -619 -11
-911 60 -125 115 -205 210 -300 319 -318 793 -400 1201 -205 223 107 394 278
499 502 137 291 137 608 2 895 -60 125 -115 205 -210 300 -177 176 -391 277
-646 304 -105 11 -103 11 -215 -1z m310 -449 c97 -14 191 -39 252 -66 l53 -23
-51 -113 c-28 -62 -55 -124 -60 -137 -10 -26 -8 -26 -110 13 -81 30 -216 50
-283 41 -103 -13 -152 -53 -122 -99 17 -26 79 -44 251 -72 134 -22 219 -49
282 -91 129 -85 167 -252 92 -403 -48 -95 -151 -167 -294 -206 -132 -35 -388
-29 -552 15 -73 19 -193 69 -193 81 0 7 110 262 116 269 2 2 34 -10 71 -27 38
-17 97 -38 133 -47 91 -22 255 -30 308 -16 81 22 94 96 20 119 -18 6 -94 20
-168 32 -240 37 -319 67 -391 148 -53 61 -73 125 -67 222 9 163 106 272 293
334 104 34 286 45 420 26z"/>
</g>
</svg>
