<?xml version="1.0" encoding="UTF-8"?><svg id="Layer_1" xmlns="http://www.w3.org/2000/svg" viewBox="0 0 256 256"><defs><style>.cls-1{fill:#fe4804;}.cls-2{fill:#09447a;}.cls-3{fill:#e2e4e6;}.cls-4{fill:#266adb;}.cls-5{fill:#fefdfc;}.cls-6{fill:#1a4ca1;}</style></defs><path class="cls-1" d="M114.01,.08h27.98c.41,1.32,1.58,.9,2.48,1.05,54.65,9.29,90.37,40.34,106.83,93.29,2.08,6.69,3.1,13.71,4.61,20.58v27.98c-1.99,1.73-1.45,4.27-1.8,6.4-8.42,51.23-48.39,92.94-99.32,103.7-4.27,.9-8.81,.68-12.8,2.83h-28.98c-1.73-1.98-4.26-1.45-6.41-1.8C55.77,245.88,13.55,205.59,2.98,155.28c-.86-4.1-.51-8.54-2.89-12.29v-29.98c1.88-1.58,1.38-3.94,1.72-5.92C10.57,55.81,48.13,15.63,98.76,3.39c5.06-1.22,10.38-1.23,15.25-3.3ZM13.91,127.82c-.29,62.67,50.4,113.86,113.15,114.28,63.35,.42,114.72-50.23,115.02-113.41,.3-63.17-50.18-114.39-113.13-114.78-63.54-.39-114.74,50.32-115.03,113.92Z"/><path class="cls-5" d="M255.92,115.01c-1.51-6.87-2.53-13.89-4.61-20.58C234.84,41.48,199.12,10.43,144.47,1.13c-.9-.15-2.07,.27-2.48-1.05C178.8,.08,215.61,.13,252.42,0c2.98-.01,3.59,.6,3.58,3.58-.13,37.14-.08,74.28-.08,111.43Z"/><path class="cls-5" d="M141.99,255.92c4-2.14,8.53-1.93,12.8-2.83,50.93-10.76,90.9-52.46,99.32-103.7,.35-2.14-.19-4.67,1.8-6.4,0,36.48-.05,72.95,.08,109.43,.01,2.98-.6,3.59-3.58,3.58-36.81-.13-73.62-.08-110.43-.08Z"/><path class="cls-5" d="M114.01,.08c-4.87,2.07-10.19,2.08-15.25,3.3C48.13,15.63,10.57,55.81,1.8,107.09c-.34,1.98,.16,4.34-1.72,5.92C.08,76.53,.13,40.06,0,3.58-.01,.6,.6-.01,3.58,0,40.39,.13,77.2,.08,114.01,.08Z"/><path class="cls-5" d="M.08,142.99c2.38,3.75,2.03,8.19,2.89,12.29,10.57,50.31,52.79,90.6,103.63,98.83,2.14,.35,4.67-.18,6.41,1.8-36.4,0-72.79-.05-109.19,.08-3.12,.01-3.83-.7-3.82-3.82,.13-36.4,.08-72.79,.08-109.19Z"/><path class="cls-5" d="M13.91,127.82c.29-63.6,51.49-114.31,115.03-113.92,62.94,.39,113.43,51.61,113.13,114.78-.3,63.19-51.66,113.83-115.02,113.41-62.75-.42-113.43-51.6-113.15-114.28Zm145.07,101.05c12.73-3.35,24.08-9.35,34.11-17.85,11.07-8.05,19.91-18.2,26.33-30.15,3.9-7.24,8.53-14.38,9.53-22.91,5.18-16.72,6.03-33.42,2.44-50.8-2.76-13.35-8.07-25.31-14.86-36.74-2.59-4.36-5.28-8.99-9.57-12.18-1.22-1.51-2.25-3.23-3.68-4.5-9.83-8.76-19.88-17.22-32.27-22.28-6.14-3.06-12.75-4.82-19.32-6.46-17.63-4.41-35.26-3.7-52.7,1.2C59.81,37.22,28.24,72.77,23.74,110.8c-1.3,2.95-.9,6.16-1.15,9.22-1.07,13.26-.06,26.33,4.51,38.96,5.66,20.81,17.65,37.46,34.1,51,10.01,8.23,21.02,14.84,33.72,18.19,21.27,7.58,42.63,7.39,64.05,.71Z"/><path class="cls-4" d="M23.74,110.8C28.24,72.77,59.81,37.22,99.01,26.22c17.44-4.9,35.08-5.61,52.7-1.2,6.57,1.64,13.18,3.4,19.32,6.46,.15,5.36,4.38,8.79,6.29,13.33,9.5,22.5,10.22,44.95,.58,67.69-1.81,4.27-5.42,7.63-5.95,12.45-8.96-6.97-19.7-8.99-30.47-10.94-8.94-1.61-18.12-2.15-26.57-5.93-1.75-6.23-.36-8.82,5.88-10.69,2.87-.86,5.8-1.35,8.83-1.41,11.45-.23,22.4,1.93,32.67,7.01,2.65,1.31,3.68,.72,4.73-1.83,2.66-6.44,5.3-12.93,8.48-19.12,2.03-3.96,1.37-5.7-2.76-7.29-19.74-7.6-39.93-9.24-60.63-5.11-12.89,2.61-24.31,7.68-31.42,19.49-4.99,8.29-6.14,17.29-3.26,26.51,4.84,15.53,17.57,20.48,31.88,23.2,10.9,2.07,22.15,2.3,32.73,6.12,.34,.23,.68,.45,1.01,.68l.21,.23c1.54,6.08,.13,8.57-5.96,10.17-2.08,.55-4.24,.96-6.37,1.04-14.54,.55-28.53-1.81-41.49-8.68-2.73-1.45-3.97-1.36-5.09,1.65-1.14,3.08-2.77,5.99-4.19,8.97-22.95-7.15-40.48-20.84-51.37-42.57-1.16-2.31-1.8-5.17-5.05-5.65Z"/><path class="cls-2" d="M206.97,58.25c4.29,3.18,6.99,7.82,9.57,12.18,6.79,11.43,12.1,23.38,14.86,36.74,3.59,17.38,2.74,34.07-2.44,50.8-2.75,.29-3.7,2.59-4.99,4.48-8.2,12.01-17.93,22.76-29.19,31.82-27.41,22.06-59,32.73-94.19,32.69-1.95,0-4.05-.45-5.66,1.21-12.7-3.35-23.72-9.96-33.72-18.19-16.45-13.53-28.44-30.18-34.1-51,1.79-.1,3.1,.76,4.41,1.91,20.1,17.8,44.04,25.64,70.44,26.76,2.3,.1,5.43,.33,7.09-2.46,11.35,.86,22.71,1.85,33.97-.82,23.14-3.24,34.14-13.82,38.88-37.38,2.02-.19,3.28-1.54,4.39-3.01,13.79-18.32,21.32-38.8,21.75-61.88,.15-8-1.13-15.89-1.06-23.86Z"/><path class="cls-6" d="M206.97,58.25c-.07,7.97,1.21,15.85,1.06,23.86-.43,23.08-7.96,43.55-21.75,61.88-1.11,1.47-2.37,2.82-4.39,3.01-.84-8.47-3.51-16.12-9.95-22.06,.53-4.82,4.14-8.18,5.95-12.45,9.63-22.74,8.92-45.19-.58-67.69-1.92-4.54-6.15-7.97-6.29-13.33,12.39,5.06,22.44,13.52,32.27,22.28,1.43,1.27,2.46,2.99,3.68,4.5Z"/><path class="cls-6" d="M109.04,185.19c-1.66,2.79-4.78,2.56-7.09,2.46-26.4-1.12-50.35-8.96-70.44-26.76-1.3-1.15-2.62-2.01-4.41-1.91-4.57-12.63-5.59-25.7-4.51-38.96,.25-3.06-.15-6.27,1.15-9.22,3.25,.48,3.89,3.34,5.05,5.65,10.89,21.72,28.42,35.42,51.37,42.57-1.57,3.82-2.82,7.82-4.82,11.41-1.66,2.98-1.01,4.15,1.83,5.61,10.04,5.17,20.91,7.26,31.87,9.15Z"/><path class="cls-6" d="M94.93,228.16c1.62-1.66,3.71-1.21,5.66-1.21,35.2,.04,66.78-10.62,94.19-32.69,11.26-9.06,20.98-19.81,29.19-31.82,1.29-1.89,2.25-4.19,4.99-4.48-1,8.53-5.64,15.67-9.53,22.91-6.43,11.95-15.26,22.1-26.33,30.15-1.57-.16-2.83,.5-4.15,1.29-8.77,5.27-17.85,9.94-27.28,13.92-1.26,.53-2.37,1.17-2.68,2.64-21.43,6.68-42.78,6.88-64.05-.71Z"/><path class="cls-4" d="M158.98,228.87c.31-1.47,1.42-2.11,2.68-2.64,9.43-3.98,18.51-8.65,27.28-13.92,1.31-.79,2.58-1.44,4.15-1.29-10.03,8.51-21.38,14.5-34.11,17.85Z"/><path class="cls-5" d="M171.95,124.94c6.44,5.94,9.12,13.59,9.95,22.06-4.74,23.56-15.75,34.14-38.88,37.38,2.99-3.71,7.13-6.3,9.59-10.6,5.58-9.77,.66-24.83-9.35-27.9,0,0-.21-.23-.21-.23-.34-.22-.68-.45-1.01-.68-10.57-3.82-21.82-4.05-32.73-6.12-14.31-2.72-27.04-7.67-31.88-23.2-2.87-9.22-1.73-18.23,3.26-26.51,7.11-11.81,18.53-16.88,31.42-19.49-2.87,2.93-6.61,4.82-8.79,8.64-6.76,11.86-.78,27.54,11.59,29.79,8.45,3.79,17.63,4.32,26.57,5.93,10.77,1.95,21.51,3.97,30.47,10.94Z"/><path class="cls-3" d="M143.26,145.87c10.01,3.08,14.93,18.13,9.35,27.9-2.46,4.3-6.6,6.89-9.59,10.6-11.27,2.67-22.62,1.68-33.97,.82-10.95-1.89-21.82-3.98-31.87-9.15-2.84-1.46-3.49-2.63-1.83-5.61,1.99-3.59,3.24-7.59,4.82-11.41,1.42-2.98,3.05-5.88,4.19-8.97,1.12-3.01,2.36-3.09,5.09-1.65,12.96,6.86,26.95,9.23,41.49,8.68,2.14-.08,4.3-.5,6.37-1.04,6.09-1.6,7.5-4.1,5.96-10.17Z"/><path class="cls-3" d="M114.92,108.06c-12.37-2.25-18.35-17.94-11.59-29.79,2.18-3.81,5.92-5.71,8.79-8.64,20.7-4.13,40.88-2.49,60.63,5.11,4.13,1.59,4.79,3.33,2.76,7.29-3.18,6.19-5.82,12.68-8.48,19.12-1.05,2.54-2.08,3.14-4.73,1.83-10.27-5.08-21.22-7.24-32.67-7.01-3.03,.06-5.96,.56-8.83,1.41-6.24,1.86-7.63,4.46-5.88,10.69Z"/><path class="cls-3" d="M142.04,144.96c.34,.23,.68,.45,1.01,.68-.34-.23-.68-.45-1.01-.68Z"/></svg>