<?xml version="1.0" encoding="UTF-8"?><svg id="Layer_1" xmlns="http://www.w3.org/2000/svg" viewBox="0 0 283.46 283.46"><defs><style>.cls-1{fill:#fff;}.cls-2{fill:#579241;}</style></defs><rect class="cls-2" width="283.46" height="283.46"/><path class="cls-1" d="M72.87,270.39s-7.06,3.92-4.01-.96c3.05-4.88,12.81-18.91,12.81-18.91,0,0-.26-2.35,1.22-3.57,1.48-1.22,4.62-5.4,4.62-5.4l24.93-50.29s1.94-3.07,2-4.12c.07-1.05,2-5.56,7.15-7.12,5.14-1.57,10.98-7.41,10.98-7.41,0,0,24.23-24.62,29.85-26.71,5.62-2.09,5.45-8.5,3.18-6.32-2.27,2.18-9.06,7.15-15.16,10.2-6.1,3.05-13.33,9.41-13.33,9.41,0,0-7.58,4.18-12.46,4.53-4.88,.35-11.24-.44-11.68-.52-.44-.09-.52-4.44,1.66-6.45,2.18-2,5.49-3.57,6.1-7.06s3.75-10.37,5.93-11.42c2.18-1.05,4.4-10.41,14.21-16.82,4.84-3.92-14.38-1.31-14.38-1.31l-37.13,.87s-4.36,1.74-7.76,1.13c-3.4-.61-6.54,2.27-6.54,2.27,0,0-7.02,7.23-10.94,9.72-3.92,2.48-15.3,10.72-17,12.94-1.7,2.22-6.93,2.75-6.93,2.75l-15.43-.92s-.92-2.22,1.83-1.96c2.75,.26,9.8,1.44,11.11,.52s14.64-7.32,17.26-10.33c2.61-3.01,9.54-6.01,13.2-10.33,3.66-4.31,6.93-9.54,11.37-10.33s21.57,.52,25.62,0c4.05-.52,16.21-2.09,17.78-2.88,1.57-.78,9.54-1.57,10.72-1.57h15.69s9.8-8.98,12.42-12.81c2.61-3.83,11.68-12.2,13.94-12.38,2.27-.17,2.92-2.92,2.92-2.92,0,0-1.35-7.71-3.44-9.46-.28-4.47,3.83-2.18,3.83-2.18,0,0,2.16,2.81,3.07,3.2,.92,.39,1.76,.33,1.37-.92-.39-1.24-2.42-3.33-2.61-4.64s1.63-3.92,3.33-1.57c1.7,2.35,.46,4.05,.46,4.05,0,0-.78,3.01,.78,4.05,1.57,1.05,2.42,.65,2.42-.13s-.78-1.96,0-2.94,4.05-2.42,4.9-1.57c.85,.85,2.42-.07,2.81-.13,.39-.07,1.57,.46,1.57,.46,0,0-.85-47.32-4.38-52.55,4.38,.52,4.38,7.45,4.38,7.45,0,0,2.42,41.57,2.29,44.32,0,2.27,.74,3.27,2.14,2.79,1.39-.48,8.58-14.95,38.52-24.36,1.96,1.57,0,2.29,0,2.29,0,0-22.32,7.69-37.13,22.94-1,1.53,2.92,8.06,2.92,8.06,0,0,3.92,8.98-6.1,10.46-2.88,2.27-1.83,6.28,.61,7.41,2.44,1.13,3.05,2,5.75,2.35,2.7,.35,8.72,.7,12.2,2.35,1.74-2.53,5.84-2.35,5.84-2.35l7.41-.35,.87-2.53,4.27,3.05s.26,2.44-1.83,2.27-4.1-.96-5.75,.09c-1.66,1.05-2.61,2.79-2.79,3.31-.17,.52-1.05,3.22-7.67,1.57-6.62-1.66-14.03-6.19-21.79-4.88-7.76,1.31-6.75,7.36-5.71,17.69,1.05,10.33,1.7,24.19,.92,27.06,5.88,7.19,12.81,13.33,12.81,13.33,0,0,3.4,2.35,5.36,6.14,1.96,3.79,5.03,7.19,6.54,8.3,7.6,6.53,2.27,9.33-1.9,3.66-.78-1.05-5.95-6.47-5.95-6.47,0,0-4.18-7.71-16.08-18.56-11.9-10.85-6.14-18.83-6.14-18.83,0,0,2.75-8.89,.13-11.5-2.61-2.61-5.36-.13-5.36-.13,0,0-6.49,15.38-12.42,21.48-5.93,6.1-11.68,12.72-16.21,14.99-4.53,2.27-21.96,14.99-21.96,14.99l-5.05,4.71s1.39,3.66-2.27,5.93-6.97,1.92-6.97,1.92c0,0-23.49,49.59-26.89,53.77-3.4,4.18-1.83,7.32-1.83,7.32,0,0-2.09-.65-3.14,.65-1.05,1.31-11.9,18.08-11.9,18.08Z"/></svg>