<?xml version="1.0" encoding="utf-8"?>
<!-- Generator: Adobe Illustrator 27.1.1, SVG Export Plug-In . SVG Version: 6.00 Build 0)  -->
<svg version="1.1"
	 id="svg2" xmlns:inkscape="http://www.inkscape.org/namespaces/inkscape" xmlns:sodipodi="http://inkscape.sourceforge.net/DTD/sodipodi-0.dtd" xmlns:dc="http://purl.org/dc/elements/1.1/" xmlns:rdf="http://www.w3.org/1999/02/22-rdf-syntax-ns#" xmlns:svg="http://www.w3.org/2000/svg" xmlns:cc="http://web.resource.org/cc/" inkscape:export-xdpi="212.48" inkscape:export-ydpi="212.48" inkscape:version="0.43"
	 xmlns="http://www.w3.org/2000/svg" xmlns:xlink="http://www.w3.org/1999/xlink" x="0px" y="0px" viewBox="0 0 216.9 216.9"
	 style="enable-background:new 0 0 216.9 216.9;" xml:space="preserve">
<style type="text/css">
	.st0{fill:#303030;}
	.st1{fill:url(#path3886_00000025427068297670089580000008429760706573378211_);}
	.st2{fill:#83A34E;}
	.st3{fill:url(#path2345_00000076580922400426869070000006213759271015077012_);}
	.st4{fill:url(#path1391_00000009574829572117638750000002393368929548300730_);}
	.st5{fill:url(#path3094_00000166675044042269489340000004573721955063128223_);}
	.st6{fill:url(#path2993_00000152972985685698641410000013975207992666693263_);}
	.st7{fill-rule:evenodd;clip-rule:evenodd;fill:#BDBDBD;}
	.st8{fill:none;stroke:#000000;stroke-width:3.1;stroke-linecap:round;}
	.st9{fill-rule:evenodd;clip-rule:evenodd;fill:url(#path3028_00000101104285643546736650000015367292614319755163_);}
	.st10{fill-rule:evenodd;clip-rule:evenodd;fill:url(#path3038_00000129177082951900503460000012078408762996517795_);}
	.st11{fill-rule:evenodd;clip-rule:evenodd;fill:url(#path3044_00000155113293302411215100000004864767633950751629_);}
	.st12{fill-rule:evenodd;clip-rule:evenodd;fill:url(#path3048_00000119813978809217492340000009071765749150638228_);}
	.st13{fill-rule:evenodd;clip-rule:evenodd;fill:url(#path3052_00000016797052435532754660000018025464798304773293_);}
	.st14{fill-rule:evenodd;clip-rule:evenodd;fill:url(#path3056_00000173848357194101416860000011506843646527938742_);}
	.st15{fill-rule:evenodd;clip-rule:evenodd;fill:url(#path3068_00000149374395965355461300000009083724958830836913_);}
	.st16{fill-rule:evenodd;clip-rule:evenodd;fill:url(#path3072_00000033340480632392586120000003275026775989089975_);}
	.st17{fill-rule:evenodd;clip-rule:evenodd;fill:#FEFEFE;}
</style>
<sodipodi:namedview  bordercolor="#666666" borderopacity="1.0" id="base" inkscape:current-layer="layer9" inkscape:cx="675.23874" inkscape:cy="843.54255" inkscape:document-units="px" inkscape:guide-bbox="true" inkscape:pageopacity="0.0" inkscape:pageshadow="2" inkscape:window-height="540" inkscape:window-width="756" inkscape:window-x="331" inkscape:window-y="234" inkscape:zoom="1.7199203" pagecolor="#ffffff" showguides="true">
	</sodipodi:namedview>
<g id="layer9" inkscape:groupmode="layer" inkscape:label="BACKGR">
	
		<path id="path1584" sodipodi:cx="736.3714" sodipodi:cy="211.60098" sodipodi:rx="28.213463" sodipodi:ry="53.605579" sodipodi:type="arc" class="st0" d="
		M188.5,112.4c0,29.6-12.6,53.6-28.2,53.7c-15.6,0-28.2-23.9-28.2-53.5c0,0,0-0.1,0-0.1c0-29.6,12.6-53.6,28.2-53.7
		s28.2,23.9,28.2,53.5C188.5,112.3,188.5,112.3,188.5,112.4z"/>
</g>
<g id="layer2" inkscape:groupmode="layer" inkscape:label="bulb" sodipodi:insensitive="true">
	
		<radialGradient id="path3886_00000003106386038206656270000014744309121709408432_" cx="80.6498" cy="282.4645" r="45.5096" gradientTransform="matrix(0.9239 0 0 -0.9239 32.6953 362.3792)" gradientUnits="userSpaceOnUse">
		<stop  offset="0" style="stop-color:#FFFFFF"/>
		<stop  offset="0.7711" style="stop-color:#F8F8F8"/>
		<stop  offset="1" style="stop-color:#8B7474"/>
	</radialGradient>
	
		<path id="path3886" sodipodi:cx="623.0929" sodipodi:cy="210.69221" sodipodi:rx="45.495674" sodipodi:ry="45.495674" sodipodi:type="arc" style="fill:url(#path3886_00000003106386038206656270000014744309121709408432_);" d="
		M149.2,101.4c0,23.2-18.8,42-42,42.1c-23.2,0-42-18.8-42.1-42c0,0,0,0,0-0.1c0-23.2,18.8-42,42-42.1
		C130.4,59.3,149.2,78.1,149.2,101.4C149.2,101.4,149.2,101.4,149.2,101.4z"/>
</g>
<g id="layer1" inkscape:groupmode="layer" inkscape:label="iris" sodipodi:insensitive="true">
	
		<path id="path2343" inkscape:flatsided="false" inkscape:randomized="0.006" inkscape:rounded="0" sodipodi:arg1="1.3045443" sodipodi:arg2="1.3811685" sodipodi:cx="566.14587" sodipodi:cy="233.99451" sodipodi:r1="4.196404" sodipodi:r2="24.684729" sodipodi:sides="41" sodipodi:type="star" class="st2" d="
		M108.2,105.6l3.8,20.3l-4.2-20.3l0.3,20.4l-1-20.4l-2.9,20.3l2.3-20.3l-5.8,19.6l4.9-19.7l-8.6,18.6l8.2-18.8l-11.4,17l10.7-17.5
		l-13.7,15l13.3-15.5l-16.2,12.8l15.8-13.3L86,114l17.5-10.5l-19,7.1l18.7-7.9L83.3,107l19.7-4.9l-20.4,1.3l20.4-2l-20.3-1.7
		l20.3,1.3l-19.7-5.1l19.9,4.4l-18.9-7.8l19.2,7.2L85.9,88.9l17.8,10.3L88.2,85.7l16.2,12.8L90.8,83.1l14,15l-11-17.4l11.5,17.2
		l-8.1-18.8l8.8,18.5l-5.3-19.9l5.8,19.6L104.4,77l2.7,20.5l1-20.7l-0.5,20.4l4.3-20l-3.5,20.3l7-19.3l-6.6,19.5L119,79.9l-9.5,18.1
		L122.4,82L110,98.4l15.2-13.9L110.4,99l17.1-11.5l-16.8,12l18.7-9l-18.1,9.6l19.6-6.1l-19.4,6.6l20.3-2.9l-20.3,3.4l20.4,0.3
		l-20.4,0.3l20.3,3.6l-20.4-2.8l19.4,6.5l-19.6-6l18.2,9.4l-18.4-8.8l16.5,12.1l-17-11.7l14.5,14.6l-14.9-14.1l11.9,16.5l-12.5-16
		l9.5,18.1l-10.1-17.7l6.5,19.3L108.2,105.6z"/>
	
		<radialGradient id="path2345_00000026156544031993616050000013486609023826136725_" cx="480.4327" cy="-694.3849" r="22.9938" gradientTransform="matrix(0.3653 0 0 -0.3653 -68.2756 -152.4063)" gradientUnits="userSpaceOnUse">
		<stop  offset="0" style="stop-color:#000000"/>
		<stop  offset="0.7952" style="stop-color:#232323"/>
		<stop  offset="1" style="stop-color:#0E1E10;stop-opacity:0"/>
	</radialGradient>
	
		<path id="path2345" sodipodi:cx="532.85913" sodipodi:cy="133.05165" sodipodi:rx="23.003059" sodipodi:ry="23.003059" sodipodi:type="arc" style="fill:url(#path2345_00000026156544031993616050000013486609023826136725_);" d="
		M115.6,101.4c0,4.6-3.8,8.4-8.4,8.4c-4.6,0-8.4-3.8-8.4-8.4c0,0,0,0,0,0c0-4.6,3.8-8.4,8.4-8.4C111.8,93,115.6,96.8,115.6,101.4
		C115.6,101.4,115.6,101.4,115.6,101.4z"/>
	
		<radialGradient id="path1391_00000121990670969006277280000006540161140213493934_" cx="-33.9606" cy="412.564" r="23.0125" gradientTransform="matrix(1 0 0 -1 141.1692 513.9705)" gradientUnits="userSpaceOnUse">
		<stop  offset="0" style="stop-color:#51CB34;stop-opacity:0"/>
		<stop  offset="0.7229" style="stop-color:#1A8B0E;stop-opacity:0.498"/>
		<stop  offset="1" style="stop-color:#0E1E10"/>
	</radialGradient>
	
		<path id="path1391" sodipodi:cx="532.85913" sodipodi:cy="133.05165" sodipodi:rx="23.003059" sodipodi:ry="23.003059" sodipodi:type="arc" style="fill:url(#path1391_00000121990670969006277280000006540161140213493934_);" d="
		M130.2,101.4c0,12.7-10.3,23-23,23c-12.7,0-23-10.3-23-23c0,0,0,0,0,0c0-12.7,10.3-23,23-23C119.9,78.4,130.2,88.7,130.2,101.4
		C130.2,101.4,130.2,101.4,130.2,101.4z"/>
</g>
<g id="layer6" inkscape:groupmode="layer" inkscape:label="Riflessi Iris" sodipodi:insensitive="true">
	
		<radialGradient id="path3094_00000142161619396574210390000001204380106007964042_" cx="-167.4043" cy="895.5641" r="5.4063" gradientTransform="matrix(10.9266 0 0 -8.0393 1958.907 7334.6631)" gradientUnits="userSpaceOnUse">
		<stop  offset="0" style="stop-color:#000000;stop-opacity:0"/>
		<stop  offset="0.82" style="stop-color:#000000;stop-opacity:0"/>
		<stop  offset="0.93" style="stop-color:#000000;stop-opacity:0.5412"/>
		<stop  offset="1" style="stop-color:#000000;stop-opacity:0.7423"/>
	</radialGradient>
	
		<path id="path3094" sodipodi:nodetypes="csssc" style="fill:url(#path3094_00000142161619396574210390000001204380106007964042_);" d="
		M159.8,135.3c0,24-9.9,16.8-42.5,16.8c-32.6,0-46.6,6.8-46.6-17.2c0-24,26.5-43.5,59.1-43.5S159.8,111.3,159.8,135.3z"/>
	
		<radialGradient id="path2993_00000114048716430954803670000017306984750313510066_" cx="101.5058" cy="352.6138" r="5.4063" gradientTransform="matrix(1 0 0 -1.0238 -2.0175 460.775)" gradientUnits="userSpaceOnUse">
		<stop  offset="0" style="stop-color:#FFFFFF"/>
		<stop  offset="0.2593" style="stop-color:#FFFFFF;stop-opacity:0.7216"/>
		<stop  offset="1" style="stop-color:#FFFFFF;stop-opacity:0"/>
	</radialGradient>
	
		<path id="path2993" sodipodi:cx="668.32538" sodipodi:cy="207.81616" sodipodi:rx="5.4063301" sodipodi:ry="5.5350523" sodipodi:type="arc" style="fill:url(#path2993_00000114048716430954803670000017306984750313510066_);" d="
		M104.9,99.8c0,3.1-2.4,5.5-5.4,5.5s-5.4-2.5-5.4-5.5c0,0,0,0,0,0c0-3.1,2.4-5.5,5.4-5.5S104.9,96.7,104.9,99.8
		C104.9,99.7,104.9,99.8,104.9,99.8z"/>
</g>
<g id="layer4" inkscape:groupmode="layer" inkscape:label="Drawing">
	<path id="path1393" sodipodi:nodetypes="csccssccccccsscccsc" class="st7" d="M182.5,32.2C172,32.3,114.3,20,82.3,32.6
		C55,43.3,30.2,65.3,35.6,77.8c-11.7,15.9-5.3,70,20.1,97.5c0,0,34.5,13.8,59.9,12.7c25.3-1.1,45.1-16.1,48-38.1
		c2-15.8,2.4-35.6-4.1-47.5c42-35,24.7-69.6,24.4-70.2C183.9,32.2,183.4,32.2,182.5,32.2z M129.3,92.4c6.8-0.1,13.8,0.5,19.3,2.3
		l-0.1,2.6c-0.5,11.2-5.5,22.9-10.9,27.9c-5.1,4.8-10.9,5.6-27.2,3.8c-11.1-1.2-30.1-10.2-34.2-11.4c0-0.4,0-0.9,0-1.4
		c0.1,0,0.1,0.1,0.1,0.1c7.9-11.7,21.6-19.3,36.8-22.2C117.8,93.2,123.5,92.5,129.3,92.4z"/>
	<path id="path1397" sodipodi:nodetypes="czzc" class="st8" d="M74.5,115.8c3.3-5.5,8.6-12,19.6-18.2c12.9-7.2,37.1-9.2,45.3-8.4
		c8.2,0.9,26.6,8.1,23.1,10.2"/>
	
		<radialGradient id="path3028_00000022556002996801327770000011003979939001580687_" cx="-119.4629" cy="-439.3749" r="74.1418" gradientTransform="matrix(0.8922 -0.3431 -0.1792 -0.4659 153.821 -136.6175)" gradientUnits="userSpaceOnUse">
		<stop  offset="0" style="stop-color:#090909"/>
		<stop  offset="0.7037" style="stop-color:#090909;stop-opacity:0.498"/>
		<stop  offset="1" style="stop-color:#090909;stop-opacity:0"/>
	</radialGradient>
	
		<path id="path3028" sodipodi:nodetypes="csccssccccccsscccsc" style="fill-rule:evenodd;clip-rule:evenodd;fill:url(#path3028_00000022556002996801327770000011003979939001580687_);" d="
		M182,32.7c-10.5,0.2-69.6-11.2-101.6,1.3C53.1,44.7,29.2,67.7,34.7,80.2c-11.7,15.9-4.8,68.1,20.6,95.6c0,0,32.1,12.4,57.5,11.3
		c25.3-1.1,47.5-14.7,50.4-36.7c2-15.8,3.2-35.4-3.2-47.2c42-35,23.9-69.9,23.5-70.5C183.4,32.7,182.9,32.7,182,32.7z M128.9,92.9
		c6.8-0.1,13.8,0.5,19.3,2.3l-0.1,2.6c-0.5,11.2-5.5,22.9-10.9,27.9c-5.1,4.8-10.9,5.6-27.2,3.8c-11.1-1.2-30.1-10.2-34.2-11.4
		c0-0.4,0-0.9,0-1.4c0.1,0,0.1,0.1,0.1,0.1c7.9-11.7,21.6-19.3,36.8-22.2C117.3,93.8,123.1,93.1,128.9,92.9z"/>
	
		<radialGradient id="path3038_00000096770916905963349650000006606628776648737969_" cx="-525.8152" cy="-1401.4408" r="74.1418" gradientTransform="matrix(0.2886 -0.2033 -0.1677 -0.2381 6.7294 -326.2193)" gradientUnits="userSpaceOnUse">
		<stop  offset="0" style="stop-color:#090909"/>
		<stop  offset="0.7037" style="stop-color:#090909;stop-opacity:0.498"/>
		<stop  offset="1" style="stop-color:#090909;stop-opacity:0"/>
	</radialGradient>
	
		<path id="path3038" sodipodi:nodetypes="csccssccccccsscccsc" style="fill-rule:evenodd;clip-rule:evenodd;fill:url(#path3038_00000096770916905963349650000006606628776648737969_);" d="
		M182,32.7c-10.5,0.2-69.1-12.7-101.2-0.1C53.6,43.3,29.7,65.3,35.2,77.8c-11.7,15.9-5.3,70.5,20.1,98c0,0,34,13.8,59.4,12.7
		c25.3-1.1,45.6-16.1,48.5-38.1c2-15.8,3.2-35.4-3.2-47.2c42-35,23.9-69.9,23.5-70.5C183.4,32.7,182.9,32.7,182,32.7z M128.9,92.9
		c6.8-0.1,13.8,0.5,19.3,2.3l-0.1,2.6c-0.5,11.2-5.5,22.9-10.9,27.9c-5.1,4.8-10.9,5.6-27.2,3.8c-11.1-1.2-30.1-10.2-34.2-11.4
		c0-0.4,0-0.9,0-1.4c0.1,0,0.1,0.1,0.1,0.1c7.9-11.7,21.6-19.3,36.8-22.2C117.3,93.8,123.1,93.1,128.9,92.9z"/>
	
		<radialGradient id="path3044_00000150091721145112202880000004364198221323362731_" cx="344.211" cy="-1320.083" r="74.1418" gradientTransform="matrix(0.5661 -5.091223e-02 -2.608570e-02 -0.2901 -106.5465 -264.7686)" gradientUnits="userSpaceOnUse">
		<stop  offset="0" style="stop-color:#090909"/>
		<stop  offset="0.7037" style="stop-color:#090909;stop-opacity:0.498"/>
		<stop  offset="1" style="stop-color:#090909;stop-opacity:0"/>
	</radialGradient>
	
		<path id="path3044" sodipodi:nodetypes="csccssccccccsscccsc" style="fill-rule:evenodd;clip-rule:evenodd;fill:url(#path3044_00000150091721145112202880000004364198221323362731_);" d="
		M182,32.7c-10.5,0.2-68.6-12.7-100.7-0.1C54.1,43.3,29.7,67.2,35.2,79.7c-11.7,15.9-5.3,68.6,20.1,96.1c0,0,33.6,13.8,58.9,12.7
		c25.3-1.1,46.1-16.1,48.9-38.1c2-15.8,3.2-35.4-3.2-47.2c42-35,23.9-69.9,23.5-70.5C183.4,32.7,182.9,32.7,182,32.7z M128.9,92.9
		c6.8-0.1,13.8,0.5,19.3,2.3l-0.1,2.6c-0.5,11.2-5.5,22.9-10.9,27.9c-5.1,4.8-10.9,5.6-27.2,3.8c-11.1-1.2-30.1-10.2-34.2-11.4
		c0-0.4,0-0.9,0-1.4c0.1,0,0.1,0.1,0.1,0.1c7.9-11.7,21.6-19.3,36.8-22.2C117.3,93.8,123.1,93.1,128.9,92.9z"/>
	
		<radialGradient id="path3048_00000152983032321654965390000006068643426687906961_" cx="168.1879" cy="-1958.4358" r="74.1418" gradientTransform="matrix(0.5002 -0.1319 -6.205133e-02 -0.2354 -80.8774 -318.8034)" gradientUnits="userSpaceOnUse">
		<stop  offset="0" style="stop-color:#090909"/>
		<stop  offset="0.7037" style="stop-color:#090909;stop-opacity:0.498"/>
		<stop  offset="1" style="stop-color:#090909;stop-opacity:0"/>
	</radialGradient>
	
		<path id="path3048" sodipodi:nodetypes="csccssccccccsscccsc" style="fill-rule:evenodd;clip-rule:evenodd;fill:url(#path3048_00000152983032321654965390000006068643426687906961_);" d="
		M182,32.7c-10.5,0.2-66.7-12.7-98.8-0.1C56,43.3,30.2,66.7,35.6,79.2c-11.7,15.9-5.7,69.1,19.6,96.6c0,0,34,17.6,59.4,16.5
		c25.3-1.1,45.6-19.9,48.5-41.9c2-15.8,3.2-35.4-3.2-47.2c42-35,23.9-69.9,23.5-70.5C183.4,32.7,182.9,32.7,182,32.7z M128.9,92.9
		c6.8-0.1,13.8,0.5,19.3,2.3l-0.1,2.6c-0.5,11.2-5.5,22.9-10.9,27.9c-5.1,4.8-10.9,5.6-27.2,3.8c-11.1-1.2-30.1-10.2-34.2-11.4
		c0-0.4,0-0.9,0-1.4c0.1,0,0.1,0.1,0.1,0.1c7.9-11.7,21.6-19.3,36.8-22.2C117.3,93.8,123.1,93.1,128.9,92.9z"/>
	
		<radialGradient id="path3052_00000095300932928559875850000006567460628260375472_" cx="936.8665" cy="-1279.6895" r="74.1418" gradientTransform="matrix(0.49 0.1656 7.400293e-02 -0.219 -206.1404 -333.9942)" gradientUnits="userSpaceOnUse">
		<stop  offset="0" style="stop-color:#090909"/>
		<stop  offset="0.7037" style="stop-color:#090909;stop-opacity:0.498"/>
		<stop  offset="1" style="stop-color:#090909;stop-opacity:0"/>
	</radialGradient>
	
		<path id="path3052" sodipodi:nodetypes="csccssccccccsscccsc" style="fill-rule:evenodd;clip-rule:evenodd;fill:url(#path3052_00000095300932928559875850000006567460628260375472_);" d="
		M182,32.7c-10.5,0.2-62-15-94-2.5c-27.3,10.7-59.7,36.5-54.2,49c-11.7,15.9-3.8,69.1,21.5,96.6c0,0,34,18.1,59.4,17
		c25.3-1.1,45.6-20.4,48.5-42.4c2-15.8,3.2-35.4-3.2-47.2c42-35,23.9-69.9,23.5-70.5C183.4,32.7,182.9,32.7,182,32.7z M128.9,92.9
		c6.8-0.1,13.8,0.5,19.3,2.3l-0.1,2.6c-0.5,11.2-5.5,22.9-10.9,27.9c-5.1,4.8-10.9,5.6-27.2,3.8c-11.1-1.2-30.1-10.2-34.2-11.4
		c0-0.4,0-0.9,0-1.4c0.1,0,0.1,0.1,0.1,0.1c7.9-11.7,21.6-19.3,36.8-22.2C117.3,93.8,123.1,93.1,128.9,92.9z"/>
	
		<radialGradient id="path3056_00000152950432839979384340000000399693955921116037_" cx="-311.2619" cy="-822.9896" r="74.1418" gradientTransform="matrix(0.7126 -0.4767 -0.2154 -0.3221 107.5352 -352.3598)" gradientUnits="userSpaceOnUse">
		<stop  offset="0" style="stop-color:#EDEDED"/>
		<stop  offset="1" style="stop-color:#FFFFFF;stop-opacity:0"/>
	</radialGradient>
	
		<path id="path3056" sodipodi:nodetypes="csccssccccccsscccsc" style="fill-rule:evenodd;clip-rule:evenodd;fill:url(#path3056_00000152950432839979384340000000399693955921116037_);" d="
		M182,32.7c-10.5,0.2-61.5-14.6-93.6-2C61.2,41.4,29.2,68.6,34.7,81.1c-11.7,15.9-4.8,67.2,20.6,94.7c0,0,33.1,11.9,58.4,10.8
		c25.3-1.1,46.6-14.2,49.4-36.2c2-15.8,3.2-35.4-3.2-47.2c42-35,23.9-69.9,23.5-70.5C183.4,32.7,182.9,32.7,182,32.7z M128.9,92.9
		c6.8-0.1,13.8,0.5,19.3,2.3l-0.1,2.6c-0.5,11.2-5.5,22.9-10.9,27.9c-5.1,4.8-10.9,5.6-27.2,3.8c-11.1-1.2-30.1-10.2-34.2-11.4
		c0-0.4,0-0.9,0-1.4c0.1,0,0.1,0.1,0.1,0.1c7.9-11.7,21.6-19.3,36.8-22.2C117.3,93.8,123.1,93.1,128.9,92.9z"/>
	
		<radialGradient id="path3068_00000166652847676774781160000005283856086059793827_" cx="-73.5022" cy="-868.9579" r="74.1418" gradientTransform="matrix(0.767 -0.3297 -0.153 -0.356 53.4183 -308.0114)" gradientUnits="userSpaceOnUse">
		<stop  offset="0" style="stop-color:#EDEDED"/>
		<stop  offset="1" style="stop-color:#FFFFFF;stop-opacity:0"/>
	</radialGradient>
	
		<path id="path3068" sodipodi:nodetypes="csccssccccccsscccsc" style="fill-rule:evenodd;clip-rule:evenodd;fill:url(#path3068_00000166652847676774781160000005283856086059793827_);" d="
		M182,32.7c-10.5,0.2-63.4-15-95.5-2.5C59.3,40.9,29.7,69.1,35.2,81.6c-11.7,15.9-5.3,66.7,20.1,94.2c0,0,34,11.9,59.4,10.8
		c25.3-1.1,45.6-14.2,48.5-36.2c2-15.8,3.2-35.4-3.2-47.2c42-35,23.9-69.9,23.5-70.5C183.4,32.7,182.9,32.7,182,32.7z M128.9,92.9
		c6.8-0.1,13.8,0.5,19.3,2.3l-0.1,2.6c-0.5,11.2-5.5,22.9-10.9,27.9c-5.1,4.8-10.9,5.6-27.2,3.8c-11.1-1.2-30.1-10.2-34.2-11.4
		c0-0.4,0-0.9,0-1.4c0.1,0,0.1,0.1,0.1,0.1c7.9-11.7,21.6-19.3,36.8-22.2C117.3,93.8,123.1,93.1,128.9,92.9z"/>
	
		<radialGradient id="path3072_00000080900361600287278500000012659004247993641638_" cx="-767.7998" cy="-1353.2285" r="74.1418" gradientTransform="matrix(0.3532 -0.7572 -0.2217 -0.1034 15.2976 -612.2333)" gradientUnits="userSpaceOnUse">
		<stop  offset="0" style="stop-color:#EDEDED"/>
		<stop  offset="1" style="stop-color:#FFFFFF;stop-opacity:0"/>
	</radialGradient>
	
		<path id="path3072" sodipodi:nodetypes="csscssccccccsscccsc" style="fill-rule:evenodd;clip-rule:evenodd;fill:url(#path3072_00000080900361600287278500000012659004247993641638_);" d="
		M182,32.7c-10.5,0.2-64.4-14.1-96.4-1.5C58.4,41.9,37.2,70,34.7,81.6c-3.7,16.8-4.8,66.7,20.6,94.2c0,0,34,10.5,59.4,9.4
		c25.3-1.1,45.6-12.8,48.5-34.8c2-15.8,3.2-35.4-3.2-47.2c42-35,23.9-69.9,23.5-70.5C183.4,32.7,182.9,32.7,182,32.7z M128.9,92.9
		c6.8-0.1,13.8,0.5,19.3,2.3l-0.1,2.6c-0.5,11.2-5.5,22.9-10.9,27.9c-5.1,4.8-10.9,5.6-27.2,3.8c-11.1-1.2-30.1-10.2-34.2-11.4
		c0-0.4,0-0.9,0-1.4c0.1,0,0.1,0.1,0.1,0.1c7.9-11.7,21.6-19.3,36.8-22.2C117.3,93.8,123.1,93.1,128.9,92.9z"/>
	<path id="path3115" sodipodi:nodetypes="czc" class="st8" d="M148.4,96.5c0.7,11.8-1.5,31.8-24.7,35.5
		c-23.9,3.7-51.2-12.9-47.6-15.1"/>
	<path id="path3119" d="M78.5,112.6c1.5-2.8,3.4,6.3,0.9,10.1l-0.3,0.1c0.5-4-0.4-11.5-0.3-10.4L78.5,112.6z"/>
	<path id="path3121" d="M76.6,115.1c2.5-1.8,4.8,2,3.4,3.6c-1.3,1.2-0.6,0.6-2.2,1.7l-0.1,0.1c0.2-0.3,0.1-1.2,0.7-1.1
		c1.1-1.9-1.5-4.1-1-4.6L76.6,115.1z"/>
	<path id="path3123" d="M77.1,117c0.9-2.4,2.4-4.8,3.7-7.1l0.2-0.1c-0.6,2.8-2.8,4.5-3.7,7.1L77.1,117z"/>
	<path id="path3129" d="M76.6,117.5c-1.9,0.6-6.9,1.3-1.8-1.9c-7.2,4.2,6.9-3.4-1.4,1c0.3,0.8,1.6-0.7,2.3-1.2l-1.8,1.2
		c0.8-0.5,2-2,2.5-1.2c-8.6,4.7,5.6-3.6-4.1,2.1c2.8-1.8,5.7-1.9,2.8,0.7L76.6,117.5z"/>
	<path id="path3131" d="M111.8,90c-0.4-0.7,3-7,4.7-9.2l0.1-0.1c-0.2,3.2-2.7,8-5.1,9.5L111.8,90z"/>
	<path id="path3133" d="M142.1,89.2c3.7-1.9,5.8-5,9.3-7.5l1.1-0.4c-3.5,2.6-6.9,6.1-10,7.7L142.1,89.2z"/>
</g>
<g id="layer7" inkscape:groupmode="layer" inkscape:label="basic shade">
</g>
<g id="layer3" inkscape:groupmode="layer" inkscape:label="foreground">
</g>
<g id="layer5" inkscape:groupmode="layer" inkscape:label="sopracciglia" sodipodi:insensitive="true">
	<path id="path1657" d="M131.6,91.2c5.1-1,11.8-5.6,13.5-7.1c1.7-1.7,0.8-0.8,2.7-2.6l1.5-0.8c-2.4,3.2,2.4-2.2-1.6,2.1
		c-4.1,3.7-12.9,10.1-16.9,8.9L131.6,91.2z"/>
	<path id="path1659" d="M137.2,93.3c5.2-2.1,12.7-2.6,18.6-5.8c0.9-0.5,2.3-1.5,5.7-4.1l2.2-0.9c-3.1,2.8-6.6,5-10.3,6.9
		c-3.1,1.6-17.5,6.3-14.9,3.1L137.2,93.3z"/>
	<path id="path1661" d="M137.8,91.2c-1-0.3,7-2.6,9.5-3.5c4.2-1.3,7.7-3.4,10.1-5.1l2.2-0.9c-4.4,3.5-9.5,6-14.7,7.9
		c-6.2,2.3-6.2,1.8-7.4,1.9L137.8,91.2z"/>
	<path id="path1679" d="M122.5,93.1c3.6-1.9,9-7,14.7-13l1.9-0.8c-3.9,6.4-13,12.4-14.9,13L122.5,93.1z"/>
	<path id="path1681" d="M115.4,92.5c4-1.5,8.4-5.1,13-10.7c0.6-0.7,1.3-1.4,1.9-2.1l1.5-0.7c-0.3,0.6-0.7,1.2-1,1.8
		c-3.2,4.1-15.8,14.6-14.9,11.4L115.4,92.5z"/>
	<path id="path1702" d="M148.6,95.1c7.7-2.8,24.3-8.2,27.4-11.3c0.2-0.1,0.3-0.2,0.5-0.3l-0.3,0.1c0.4-0.2,0.7-0.5,1.1-0.7
		c-4.1,4.4-24.1,12.6-28.1,11.9L148.6,95.1z"/>
	<path id="path1704" d="M156.2,96.9c7.8-1.6,25-7.3,25.8-7.7l2.5-1.1c-8.5,5.9-19.9,7.8-30.3,10.3L156.2,96.9z"/>
	<path id="path1706" d="M95.2,80.1c0.1,0-0.1,0.2-0.2,0.3l-0.7,0.3c2.6-1.8-1.4,0.8,1.4-0.9L95.2,80.1z"/>
	<path id="path1710" d="M97.7,81.1c2.5-0.8,9.8-6.9,12.4-11.4c1.2-2.1-1.1,1.1,1.2-1.2l0.4-0.2c0.3,0.1,1.6-1,0.9,0.3
		c-2.7,4.9-10.7,12.2-16,13.3L97.7,81.1z"/>
	<path id="path1712" d="M104,80.6c3.6-5.6,10.6-6.9,14.2-12.5l1.4-0.8c-2.5,5.2-10.6,7.7-14.8,12.8L104,80.6z"/>
	<path id="path1714" d="M111.6,78.7c3.6-4.4,10.1-6.9,11.6-12.6l1-0.6c0,5-7.7,8.8-11.6,12.8L111.6,78.7z"/>
	<path id="path1716" d="M122.5,75.3c3.6-4.1,8.9-7.9,9.8-13.6l1.6-0.9c0.5,5.4-7.1,10.3-10.5,14.1L122.5,75.3z"/>
	<path id="path1718" d="M131.6,67.6c3.3-3.7,5.4-9.8,10.9-10.4l-0.1,0.1c-3,1.5-5.4,4.1-9.5,9.7L131.6,67.6z"/>
	<path id="path1720" d="M139.6,64.9c3.8-3.8,6.5-9.1,11.5-11.3l-0.9,0.7c-3.4,3.4-6.4,7-9.8,10.3L139.6,64.9z"/>
	<path id="path1722" d="M145.9,63.8c3.5-3.3,6.6-6.6,9-10.7l0.6-0.3c-1.4,4.6-5.5,7.6-9.2,10.8L145.9,63.8z"/>
	<path id="path1724" d="M157.2,60.6c3.5-3.8,7.4-6.7,9.3-11.4l0.3-0.2c1.3,4.6-6.8,7.8-9.1,11.4L157.2,60.6z"/>
	<path id="path1726" d="M163.3,59.3c3.5-3.9,6.9-7.8,10.7-11.3l0.6-0.3c-3.2,3.8-6.8,7.3-10.1,11.1L163.3,59.3z"/>
	<path id="path1728" d="M168.3,59c3.5-3.7,7.3-7.1,11.4-10.1l0.1-0.1c-3.3,3.7-7.7,6.4-11.1,10L168.3,59z"/>
	<path id="path1730" d="M177,56.1c2-2.6,3.8-5.3,5.6-8.1l0.1-0.1c-1.6,2.7-3.5,5.3-5.3,7.9L177,56.1z"/>
	<path id="path1732" d="M178,56.7c2.5-1.7,4.6-5.8,6.6-9.7l1.2-0.5c-1.1,3.1-6.5,11.7-7.2,9.8L178,56.7z"/>
	<path id="path1734" d="M127.6,74.9c2.5-3.2,5.8-5.8,8.9-8.3l1.2-0.5c-3,2.7-6,5.4-8.9,8.2L127.6,74.9z"/>
	<path id="path1736" d="M133,73.1c2.7-2.9,5.3-5.9,8-8.8l0.8-0.3c-2.4,2.8-4.8,5.6-7.2,8.4L133,73.1z"/>
	<path id="path1738" d="M138.6,71.3c4-3.7,7.6-7.6,11-11.7l0.7-0.3c-3,4.3-6.8,8-10.5,11.5L138.6,71.3z"/>
	<path id="path1740" d="M149.2,68c2.4-3.7,4.9-7.4,7.4-11l0.8-0.4c-2,4.1-4.9,7.6-7.7,11.1L149.2,68z"/>
	<path id="path1742" d="M159.7,50.1c-2.8,2.2-6.8,6.7-9.9,9.8l-0.9,0.4c3.5-3.6,7.7-9,11.8-10.7L159.7,50.1z"/>
	<path id="path1744" d="M159.5,52.5c-2.5,3.9-6.1,7.1-9.6,10.2l-0.3,0.1c3.5-3.1,6.8-6.4,9.5-10.1L159.5,52.5z"/>
	<path id="path1746" d="M147.3,58.1c-2.2,5.1-5.8,8.6-10.6,11.1l0.7-0.5c3.9-2.7,7-6,9.2-10.3L147.3,58.1z"/>
	<path id="path1748" d="M142.4,58.3c-4.4,3.6-8,8.2-11.8,12.4l-0.1,0.1c2.9-4.7,6.8-8.8,11.2-12.2L142.4,58.3z"/>
	<path id="path1750" d="M128.3,66.5c-1.7,3.4-4.8,6-7.8,8.2l-0.1,0.1c2.5-2.6,5-5.2,7.4-8L128.3,66.5z"/>
	<path id="path1752" d="M117,76.4c1.8-2,3.7-3.9,5.5-5.9l0.1-0.1c-1.5,1.9-2.9,3.8-4.6,5.5L117,76.4z"/>
	<path id="path1754" d="M110.5,76.2c1.3-1.7,2.6-3.4,3.9-5l0.1-0.1c-1.3,1.7-2.6,3.4-3.8,5L110.5,76.2z"/>
	<path id="path1756" d="M109.5,77.4c1.6-2,3.1-3.9,4.8-5.9l0.1-0.1c-1.6,1.8-3.1,3.7-4.4,5.7L109.5,77.4z"/>
	<path id="path1758" d="M99.4,77.3c1.9-2.4,0.9-1.2,2.9-3.5l0.1-0.1c-2,2.2-1.1,1.1-2.9,3.5L99.4,77.3z"/>
	<path id="path1760" d="M95.4,82c2-3.5,4.8-6.6,7.9-9.2l0.5-0.2c-3,2.7-5.6,5.8-7.9,9.1L95.4,82z"/>
	<path id="path1762" d="M100,78.3c1.4-2.5,3.3-4.6,5.4-6.5l0.7-0.3c-2,2-3.8,4-5.3,6.4L100,78.3z"/>
	<path id="path1764" d="M106.7,74.1c2.8-2.4,1.3-1.2,4.6-3.7l0.1-0.1c-3.2,2.5-1.7,1.3-4.4,3.6L106.7,74.1z"/>
	<path id="path1766" d="M111.2,72.8c3.6-3,1.8-1.5,5.6-4.5l0.1-0.1c-3.8,3-2,1.5-5.6,4.5L111.2,72.8z"/>
	<path id="path1768" d="M105.9,77.4c2.7-4,6.4-6.9,10.6-9.2l0.1-0.1c-3.7,2.3-6.9,5.3-9.5,8.7L105.9,77.4z"/>
	<path id="path1770" d="M108.2,74.7c3.3-2.5,6.7-4.9,10.1-7.2l0.1-0.1c-3.1,2.2-6.3,4.5-9.3,6.9L108.2,74.7z"/>
	<path id="path1772" d="M110.4,74.2c4-3.7,7.7-7.5,12.3-10.5l0.1-0.1c-4,3-7.5,6.5-11.1,10L110.4,74.2z"/>
	<path id="path1774" d="M115.8,72.7c4.2-3.6,1.9-1.7,6.7-5.5l0.1-0.1c-4.7,3.7-2.5,1.9-6.7,5.5L115.8,72.7z"/>
	<path id="path1776" d="M117.4,74.5c1.3-3.2,5-5.8,7.8-8.1l0.3-0.1c-3.1,2.7-5.9,5.5-8.6,8.5L117.4,74.5z"/>
	<path id="path1778" d="M118.8,74.1c2-4.5,5.4-8.4,9-11.7l1.2-0.5c-3.5,3.4-6.5,7.3-8.9,11.6L118.8,74.1z"/>
	<path id="path1780" d="M116.5,72.3c2.7-3.7,6-6.9,9.4-9.9l0.8-0.3c-3.1,3-6,6.2-8.7,9.6L116.5,72.3z"/>
	<path id="path1782" d="M122.7,70c2.6-4.6,7.1-7.9,11.2-11l0.1-0.1c-3.8,3.3-8,6.4-10.8,10.8L122.7,70z"/>
	<path id="path1784" d="M125,70.1c3-4.4,6.9-8.1,11-11.6l0.6-0.2c-3.9,3.5-7.5,7.3-10.6,11.4L125,70.1z"/>
	<path id="path1786" d="M128.3,70.5c0.9-4.8,6-8.4,9.9-11.1l0.1-0.1c-3.8,2.8-7.7,5.9-9.3,10.6L128.3,70.5z"/>
	<path id="path1788" d="M135.9,63.7c3.5-4.1,1.6-2,5.7-6.2l0.1-0.1c-4,4.2-2.2,2.1-5.7,6.2L135.9,63.7z"/>
	<path id="path1790" d="M135.7,65.7c2-3.5,5.3-6.1,8.3-8.6l0.1-0.1c-2.7,2.5-5.4,5-7.4,8.1L135.7,65.7z"/>
	<path id="path1792" d="M142.1,59.4c4-4.2,2-2.2,6.2-6.1l0.1-0.1c-4.2,3.9-2.1,1.9-6.2,6.1L142.1,59.4z"/>
	<path id="path1794" d="M142.4,63c2.3-4.2,5.9-7.2,9.7-9.9l0.3-0.1c-3.8,2.7-7.3,5.7-9.6,9.8L142.4,63z"/>
	<path id="path1796" d="M135.8,63.9c1.9-3.4,5.6-5.4,8.8-7.6l0.8-0.3c-3,2.2-6.4,4.2-8.5,7.4L135.8,63.9z"/>
	<path id="path1798" d="M140.5,62.5c3.1-4.2,7.2-7.6,11.2-11l0.8-0.3c-3.9,3.3-7.8,6.6-10.8,10.7L140.5,62.5z"/>
	<path id="path1800" d="M146.8,62.7c4.2-4.6,9.4-8.3,14.6-11.7l0.5-0.2c-4.8,3.5-9.8,7-13.9,11.4L146.8,62.7z"/>
	<path id="path1802" d="M144.3,61.6c2.3-5.2,7.8-8.7,12.6-11.3l-0.6,0.5c-4.5,2.5-8.7,6.2-11.5,10.5L144.3,61.6z"/>
	<path id="path1804" d="M149.8,59.4c3.8-4.1,8.3-7.6,12.9-10.8l0.1-0.1c-4.3,3.1-8.5,6.4-12,10.4L149.8,59.4z"/>
	<path id="path1806" d="M157.1,58.2c-0.1-2.2,6-7.3,9-9.8l0.1-0.1c-3.7,3.1-6.7,6.8-10.1,10.2L157.1,58.2z"/>
	<path id="path1808" d="M157.6,59.9c3.5-4.9,8.4-8.6,13.5-11.8l0.1-0.1c-4.8,3.2-9.2,6.9-12.7,11.5L157.6,59.9z"/>
	<path id="path1810" d="M163.8,58.8c3.9-3.9,7.9-7.6,11.9-11.3l0.1-0.1c-3.8,3.7-7.6,7.2-11.3,11L163.8,58.8z"/>
	<path id="path1812" d="M166.5,57.2c2.8-3.2,6-6.1,9.2-9l0.1-0.1c-3.1,2.8-6.1,5.6-8.8,8.8L166.5,57.2z"/>
	<path id="path1814" d="M168.5,56.8c3.1-3.6,6.5-6.9,10.1-9.9l0.1-0.1c-3.1,3-6.3,6-9,9.4L168.5,56.8z"/>
	<path id="path1816" d="M169.9,58.1c3.3-4.2,7.7-7.5,11.9-10.8l0.9-0.4c-4.2,3.4-8.5,6.9-12.2,10.9L169.9,58.1z"/>
	<path id="path1818" d="M175.6,55.1c3.1-3,5.8-6.4,9.4-8.9l0.4-0.2c-3.4,2.5-6.3,5.8-9.3,8.8L175.6,55.1z"/>
	<path id="path1820" d="M152.9,67.8c3.8-3,8-5.5,12.1-8.2l0.4-0.2c-4.3,2.9-8.6,5.8-13,8.7L152.9,67.8z"/>
	<path id="path1822" d="M157.7,65.3c4.4-2.8,8-6.5,11.7-10.1l0.1-0.1c-2.8,3.9-6.8,6.9-10.7,9.7L157.7,65.3z"/>
	<path id="path1824" d="M163.2,63.4c4.2-2.7,7.7-6.2,11.3-9.7l0.1-0.1c-3.5,4-7.5,7.9-12.3,10.3L163.2,63.4z"/>
	<path id="path1826" d="M166.6,64.4c3.9-3.3,7.7-6.8,11.9-9.7l1-0.4c-4.1,2.9-7.8,6.3-11.6,9.6L166.6,64.4z"/>
	<path id="path1828" d="M174.5,61.6c3.7-2.5,6.4-6.3,10.4-8.3l-0.4,0.3c-3.1,2.4-6,5.3-9.3,7.7L174.5,61.6z"/>
	<path id="path1830" d="M179,58.8c3.2-2.1,5.4-5.2,6.9-8.8l1.1-0.5c-0.9,3.7-3.5,6.6-6.5,8.7L179,58.8z"/>
	<path id="path1832" d="M181.1,59.8c2.1-2.9,3.8-6,5.2-9.3l1.2-0.5c-1.1,3.3-2.8,6.3-4.9,9.1L181.1,59.8z"/>
	<path id="path1834" d="M183.7,57.5c1-3.1,2.9-5.9,4.7-8.6l0.4-0.2c-1.1,2.6-2.5,5.2-3.4,7.9L183.7,57.5z"/>
	<path id="path1836" d="M187.2,49.8c-1.3,3.2-3.7,5.4-6.2,7.6l-0.1,0.1c2.2-2.2,4.2-4.5,5.6-7.4L187.2,49.8z"/>
	<path id="path1838" d="M180.3,50.7c-2.8,2.4-1.2,1.1-4.9,4.1l-0.2,0.1c3.2-2.8,1.8-1.5,4.3-3.8L180.3,50.7z"/>
	<path id="path1840" d="M179.2,51.6c-1.8,4.3-4.9,7.3-8.7,9.9l-1.1,0.4c3.7-2.6,6.6-5.8,8.8-9.8L179.2,51.6z"/>
	<path id="path1842" d="M175.3,51.9c-3.3,2.1-6.1,5-9.1,7.6l-0.5,0.2c3.3-3,6.4-6.4,10.4-8.4L175.3,51.9z"/>
	<path id="path1844" d="M170.9,52.3c-2.1,3.4-5.4,5.9-8.5,8.3l-0.8,0.3c2.9-2.5,5.8-5.1,8.1-8.1L170.9,52.3z"/>
	<path id="path1846" d="M163.7,54.1c-2.5,3.1-5.3,6-8.1,8.8l-0.9,0.4c2.7-2.8,5.2-5.8,7.8-8.6L163.7,54.1z"/>
	<path id="path1848" d="M149.6,63.7c2.1-2.2,4.3-4.2,6.5-6.2l0.1-0.1c-2.1,2-4.2,4.1-6.3,6.1L149.6,63.7z"/>
	<path id="path1850" d="M147.7,66.1c2.5-2.6,5.3-5,8.1-7.3l0.2-0.1c-2.4,2.4-4.9,4.8-7.4,7.1L147.7,66.1z"/>
	<path id="path1852" d="M143.8,66.5c4.6-4.2,2.2-2.1,7.2-6.5l0.1-0.1c-4.9,4.3-2.6,2.2-7.1,6.4L143.8,66.5z"/>
	<path id="path1854" d="M143.2,69c0.9-0.8,1.9-1.5,2.8-2.3l0.2-0.1c-0.8,0.7-1.6,1.4-2.4,2.1L143.2,69z"/>
	<path id="path1856" d="M144.8,69.6c-3,0,4-5.5,4.5-6l0.7-0.3c-2.2,2.6-3.9,5.6-7,7.3L144.8,69.6z"/>
	<path id="path1858" d="M142.9,66.3c3.5-4,1.6-2,5.6-6.2l0.1-0.1c-3.9,4.1-2.1,2.1-5.3,6L142.9,66.3z"/>
	<path id="path1860" d="M142.5,62.8c0.9-0.9,1.7-1.7,2.6-2.6l0.6-0.2c-0.8,0.8-1.5,1.7-2.3,2.5L142.5,62.8z"/>
	<path id="path1862" d="M94.6,82c-0.1,0.1-0.3,0.3-0.4,0.4l-0.4,0.2c0.1-0.1,0.1-0.2,0.2-0.3L94.6,82z"/>
	<path id="path1864" d="M93.7,82.1c1.1-2.2,3.1-3.8,4.9-5.5l0.5-0.2c-1.7,1.8-3.5,3.5-4.9,5.5L93.7,82.1z"/>
	<path id="path1866" d="M101.5,77.8c2.6-2.5,1-1.2,4.8-4l0.5-0.2c-3.4,2.6-2,1.3-4.4,3.8L101.5,77.8z"/>
	<path id="path1868" d="M107.2,77.5c4-3.7,8.8-6.5,13.5-9.3l0.1-0.1c-4.5,2.7-9,5.6-13,9.1L107.2,77.5z"/>
	<path id="path1870" d="M114.5,74.1c5.1-2.9,10.1-5.9,15.2-8.8l0.1-0.1c-5.4,3.2-10.7,6.4-16.1,9.5L114.5,74.1z"/>
	<path id="path1872" d="M110.5,75.2c6.3-3.6,12.6-7.4,19.5-10.1l-0.1,0.1c-6.4,2.8-12.4,6.3-18.5,9.7L110.5,75.2z"/>
	<path id="path1874" d="M118.2,73.2c3.5-2.4,6.8-5,10.1-7.6l0.4-0.2c-3,2.5-6,5.1-9.3,7.3L118.2,73.2z"/>
	<path id="path1876" d="M122.5,74.2c3.6-3.2,7.3-6.5,10.8-9.8l0.1-0.1c-3.7,4-7.4,8.3-12.3,10.6L122.5,74.2z"/>
	<path id="path1878" d="M127,71.5c3.3-3.4,6.9-6.5,10.5-9.7l0.1-0.1c-3.2,3.1-6.5,6.1-9.6,9.3L127,71.5z"/>
	<path id="path1880" d="M130.8,70c3.4-3.2,7-6.1,10.7-8.9l0.1-0.1c-3.3,2.7-6.5,5.5-9.6,8.4L130.8,70z"/>
	<path id="path1882" d="M134.8,67.7c4.9-3,9.5-6.5,14.4-9.6l0.1-0.1c-5,3.4-9.8,7.3-15.1,10.1L134.8,67.7z"/>
	<path id="path1884" d="M133.4,70.3c4.6-3.2,9.3-6.4,13.9-9.7l0.1-0.1c-4.2,3.1-8.5,6.2-12.8,9.3L133.4,70.3z"/>
	<path id="path1886" d="M134,67.1c2.4-2.5,5.2-4.3,8.1-6.2l0.1-0.1c-2.4,1.8-4.8,3.7-7,5.8L134,67.1z"/>
	<path id="path1888" d="M138.1,65.8c3.6-1.9,6.9-4.2,10.3-6.3l0.1-0.1c-3.7,2.5-7.4,5-11.3,7.1L138.1,65.8z"/>
	<path id="path1890" d="M142.4,66c3.5-2.2,6.8-4.5,10.3-6.7l0.1-0.1c-3.8,2.5-7.4,5.3-11.3,7.4L142.4,66z"/>
	<path id="path1892" d="M144.9,66.5c3.8-3.3,1.8-1.5,6-5.4l0.1-0.1c-4.2,3.9-2.3,2.1-5.8,5.3L144.9,66.5z"/>
	<path id="path1894" d="M143.5,63.9c3.6-3.1,7.2-6.4,10.7-9.6l0.1-0.1c-3.5,3.2-7,6.4-10.5,9.6L143.5,63.9z"/>
	<path id="path1896" d="M144.6,64.5c3.9-4,8.1-7.7,12.1-11.6l1.1-0.5c-4,3.8-8,7.5-11.9,11.4L144.6,64.5z"/>
	<path id="path1898" d="M143.7,62.7c3.9-4.6,8.9-8.6,13.8-12.3l0.1-0.1c-4.1,4.1-8.7,7.8-12.9,11.9L143.7,62.7z"/>
	<path id="path1900" d="M148,63.7c3.4-3.5,6.8-7.1,10.1-10.7l0.1-0.1c-3.1,3.5-6.2,6.9-9.3,10.4L148,63.7z"/>
	<path id="path1902" d="M155,61.2c3.6-3.6,6.9-7.5,10.3-11.3l0.6-0.3c-3.1,3.8-6.3,7.4-9.6,11L155,61.2z"/>
	<path id="path1904" d="M159.8,59.5c3.7-3.3,1.7-1.5,6-5.4L166,54c-3.9,3.7-2.1,2-5.5,5.2L159.8,59.5z"/>
	<path id="path1906" d="M159.5,62.3c3.7-3.7,7.3-7.5,11-11.2l0.8-0.3c-3.5,3.7-7.1,7.3-10.5,11L159.5,62.3z"/>
	<path id="path1908" d="M158.4,63.1c3.8-4.7,9.1-8.4,13.4-12.7l0.6-0.2c-4.2,4.5-9,8.2-13.4,12.5L158.4,63.1z"/>
	<path id="path1910" d="M157.8,61.8c3.7-4.4,7.9-8.4,12-12.5l0.1-0.1c-3.7,4.1-7.8,8-11.4,12.2L157.8,61.8z"/>
	<path id="path1912" d="M164.8,61.2c5.1-4.1,9.4-8.9,13.8-13.7l0.2-0.1c-4.2,4.6-8.3,9.4-13.1,13.4L164.8,61.2z"/>
	<path id="path1914" d="M168.9,61.7c3.6-4.5,7.7-8.6,12-12.3l0.1-0.1c-4.2,3.7-8.2,7.7-11.6,12.1L168.9,61.7z"/>
	<path id="path1916" d="M172.6,59.1c3.7-3.2,7.3-6.7,10.7-10.3l0.4-0.2c-3.3,3.6-6.9,7-10.6,10.2L172.6,59.1z"/>
	<path id="path1918" d="M174.7,57.6c2.9-2.1,5.5-4.6,8.1-7.1l0.4-0.2c-2.4,2.4-4.8,4.9-7.6,6.9L174.7,57.6z"/>
	<path id="path1920" d="M175.4,58.5c2.7-2.5,5.4-5.2,8.1-7.8l0.1-0.1c-2.6,3.3-5.4,6.5-9.2,8.5L175.4,58.5z"/>
	<path id="path1922" d="M136.6,69.1c1.9-1.1,3.8-2.2,5.7-3.3l-0.1,0.1c-1.9,1.1-3.8,2.2-5.7,3.3L136.6,69.1z"/>
	<path id="path1924" d="M116,73.3c4.2-2.5,8.3-5.4,12.8-7.5l-0.1,0.1c-3.8,2.2-7.5,4.5-11.3,6.8L116,73.3z"/>
	<path id="path1926" d="M121.3,70.6c3.5-2.3,7-4.5,10.5-6.7l1-0.4c-4.1,2.7-8.3,5.5-12.6,7.9L121.3,70.6z"/>
	<path id="path1928" d="M123.8,70.2c3.7-2.2,7.2-4.7,10.8-7.1l1.3-0.5c-4.3,3.1-8.6,6.1-13.2,8.5L123.8,70.2z"/>
	<path id="path1930" d="M126.3,70.1c4.6-2.3,8.8-5.3,13.1-8l0.8-0.3c-4.8,3.1-9.4,6.5-14.7,8.9L126.3,70.1z"/>
	<path id="path1932" d="M132.9,68.7c5.6-3.5,10.9-7.3,16.4-11l0.2-0.1c-5,3.7-10.1,7.3-15.4,10.6L132.9,68.7z"/>
	<path id="path1934" d="M138.3,67.9c5.8-2.6,10.9-6.5,16.6-9.2l-0.1,0.1c-5.8,3.4-11.5,7-17.6,10L138.3,67.9z"/>
	<path id="path1936" d="M139.7,65.7c6.2-3.7,12.6-8.2,20-8.6l-0.1,0.1c-6.9,1.7-13.3,4.3-19.2,8.3L139.7,65.7z"/>
	<path id="path1938" d="M142.6,63.7c5.7-2,10.9-5.7,16.8-6.9l-0.1,0.1c-6.1,2.2-11.8,5.3-17.9,7.7L142.6,63.7z"/>
	<path id="path1940" d="M142,62.9c5.4-3.1,10.8-6.2,16.4-9l-0.1,0.1c-5,2.8-10,5.6-15,8.5L142,62.9z"/>
	<path id="path1942" d="M143.5,64c4.7-3,9.4-5.5,14.9-6.3l-1.1,0.8c-4.6,0.7-8.7,2.5-12.6,5.1L143.5,64z"/>
	<path id="path1944" d="M148.5,63.5c1.2-1.1,10.7-7.5,14.6-10.2l0.1-0.1c-4.1,3.3-10.5,7.9-14.1,9.7L148.5,63.5z"/>
	<path id="path1946" d="M143.3,64.7c4.1-4.6,9.8-7.6,15.5-9.7l-0.2,0.1c-5.3,2.4-10.6,4.8-14.5,9.2L143.3,64.7z"/>
	<path id="path1948" d="M148.6,61.7c2.2-3,5.5-4.8,8.8-6.5l-0.4,0.4c-2.9,1.6-5.6,3.5-7.9,6L148.6,61.7z"/>
	<path id="path1950" d="M154.7,59.2c3.6-2.3,7.5-4.6,11.6-4.5l-0.1,0.1c-3.7,0.8-7.2,1.9-10.3,4L154.7,59.2z"/>
	<path id="path1952" d="M157.7,60.1c4.2-3.3,7.9-7.4,12.3-10.3l0.4-0.2c-3.2,3.4-7.3,6.5-10.9,9.7L157.7,60.1z"/>
	<path id="path1954" d="M159,59.3c3.6-1.6,7-3.8,10.3-5.9l0.5-0.2c-3.8,2.7-7.8,5.2-12.1,7.1L159,59.3z"/>
	<path id="path1956" d="M161.7,58.3c4.5-1.2,8.2-4,11.8-7l0.2-0.1c-3.1,4-8.3,6.4-13,7.8L161.7,58.3z"/>
	<path id="path1958" d="M164.5,57.8c2.9-1.6,5.2-4.2,7.6-6.5l0.5-0.2c-2.6,2.7-5.3,5.6-8.8,7.2L164.5,57.8z"/>
	<path id="path1960" d="M158.9,59.6c1.9-2.4,4.4-3.6,7.1-5l-1.2,1c-1.2,0.8-2.8,2-4,3.3L158.9,59.6z"/>
	<path id="path1962" d="M165.1,56.6c1.8-1.1,3.5-2.2,5.2-3.4l0.1-0.1c-1.9,1.4-3.8,2.8-5.9,3.9L165.1,56.6z"/>
	<path id="path1964" d="M167.9,56.2c1.6-0.9,3.1-2.1,4.6-3.1l0.6-0.3c-1.9,1.4-3.8,2.8-5.9,3.9L167.9,56.2z"/>
	<path id="path1966" d="M171.5,55.4c1.7-1.2,0.8-0.5,2.9-1.9l0.9-0.3c-1.8,1.2-1,0.6-2.5,1.7L171.5,55.4z"/>
	<path id="path1968" d="M175.7,54.3c1-1,2.4-1.6,3.6-2.3l0.3-0.1c-0.9,0.6-1.7,1.1-2.5,1.8L175.7,54.3z"/>
	<path id="path1970" d="M132.7,67.4c3.8-2.1,1.7-1,6.4-3.4l-0.2,0.1c-5,2.7-2.7,1.4-6.9,3.8L132.7,67.4z"/>
	<path id="path1972" d="M138.8,64.4c1.5-2.3,3-4.5,4.6-6.8l0.2-0.1c-1.5,2.1-2.9,4.3-4.2,6.6L138.8,64.4z"/>
	<path id="path1974" d="M137.6,66.9c2.4-2.1,5.1-3.8,7.8-5.5l0.4-0.2c-2.6,1.8-5.3,3.5-7.8,5.5L137.6,66.9z"/>
	<path id="path1976" d="M134.2,68c1.2-2.4,3.8-4,5.9-5.6l0.2-0.1c-2,1.6-4.2,3.2-5.6,5.4L134.2,68z"/>
	<path id="path1978" d="M111.1,75.5c2-1.8,4.2-3.3,6.3-4.9l0.1,0c-2,1.5-3.9,3-5.8,4.7L111.1,75.5z"/>
	<path id="path1980" d="M110.5,77.4c2.8-2.7,1.2-1.3,4.7-4.2l0.1,0c-3.4,2.8-1.9,1.4-4.4,4.1L110.5,77.4z"/>
	<path id="path1982" d="M109.8,78.7c1.9-2.9,4.9-4.8,7.6-6.7l0.1,0c-2.7,1.9-5.3,3.9-7.4,6.5L109.8,78.7z"/>
	<path id="path1984" d="M113.6,78.1c2.4-3.2,5.6-5.6,8.9-7.8l0.1,0c-3.1,2.2-6.1,4.5-8.4,7.5L113.6,78.1z"/>
	<path id="path1986" d="M116.3,77.3c2.2-1.9,4.7-3.4,7-5l0.5-0.2c-2.3,1.6-4.6,3.1-6.8,4.9L116.3,77.3z"/>
	<path id="path1988" d="M149.3,66.6c4-1.6,7.3-4.9,10.7-7.7l0.4-0.2c-3.5,3.1-7.2,6.8-11.6,8.2L149.3,66.6z"/>
	<path id="path1990" d="M152.6,67.3c2.2-1.8,4.4-3.8,6.6-5.7l0.1,0c-2.3,2.2-4.5,4.7-7.4,6.2L152.6,67.3z"/>
	<path id="path2000" d="M112.2,91.4c3.1-3.8,6.8-7.9,8.6-12.5l1-0.5c-0.2,4.7-6.6,9.2-9,12.8L112.2,91.4z"/>
	<path id="path2002" d="M106,92.5c0.9-2.8,4.3-5.6,5.6-8.8l0.9-0.4c-0.4,3.6-4,5.6-5.5,8.7L106,92.5z"/>
	<path id="path2004" d="M101.8,92.2c1.2-3.2,2.3-9,5-9.8l-0.3,0.2c-0.5,0.6-3.3,6-3.8,9.1L101.8,92.2z"/>
	<path id="path2006" d="M98.8,93c-1.9-1.6,2.2-7,3.8-9.1l0.7-0.3c-1.7,2.6-4.5,6.2-4.2,9.2L98.8,93z"/>
	<path id="path2008" d="M93.8,96.5c-1.7-0.7,4.8-10.6,7.5-11.9l-0.1,0.1c-3.8,3.4-5.2,8.6-8.1,12.4L93.8,96.5z"/>
	<path id="path2010" d="M89.6,100.1c-1-4.8,3-9.4,5.7-13l0.3-0.1c-2.8,3.8-6.4,8.1-5.7,13L89.6,100.1z"/>
	<path id="path2012" d="M91.8,96.1c1.1-3.4,3-6.4,5-9.3l0.1,0c-1.7,2.9-3.3,5.9-4.4,9.1L91.8,96.1z"/>
	<path id="path2020" d="M116.5,89.5c2.4-3,4.9-5.5,6.4-9.1l1.3-0.6c-1.4,4.3-4.6,6.3-7.5,9.6L116.5,89.5z"/>
	<path id="path2024" d="M132.3,88c3.8-0.8,5.5-5.1,8.5-7.4l1.5-0.6c-3.5,2.8-6,8.1-10.8,8.6L132.3,88z"/>
	<path id="path2028" d="M151.1,92.1c5.2-2,9.3-4.5,13.6-8l1.1-0.5c-4.3,4.4-9.8,6.9-15.5,9.1L151.1,92.1z"/>
	<path id="path2031" d="M155.8,94.7c0.3-0.1-1,0.4-0.8,0.3c3.2-1.6,8.4-1,12.2-2c5.2-2.4,0,0.2,4.5-2.1l-1.2,1
		c2.5-1.7-3.9,2.5-5,2.5c-2.1,0.6-12.6,2.7-9.2,0.1L155.8,94.7z"/>
	<path id="path2033" d="M93.6,127.1c3.7,2.1,5.4,5.4,6.9,9.2c0.4,1.1,0.7,2,0.8,3.2l-1,0.6c-0.5-0.9-0.8-1.9-1.2-2.9
		c-1.4-3.8-3.4-6.8-6.1-9.6L93.6,127.1z"/>
	<path id="path2035" d="M100.6,131.2c5.2,2.2,7.3,7.6,7.3,13l-0.2,0.1c-1.9-4.8-3.3-9.4-7.4-12.9L100.6,131.2z"/>
	<path id="path2037" d="M108,134.1c3-1.8,6.7,7.1,7.5,10.5l-0.7,0.4c-1-3.7-5.3-10.8-6.4-11.1L108,134.1z"/>
	<path id="path2039" d="M116.8,135.3c2.5-0.2,4.7,7.8,4.4,11.4l-0.1,0c-0.4-3.5-3.8-10.6-4.2-11.5L116.8,135.3z"/>
	<path id="path2041" d="M122.8,134.6c3.3,2.8,5.3,6.6,5.3,10.9l-0.1,0c-1.3-3.9-2.8-7.6-5.6-10.7L122.8,134.6z"/>
	<path id="path2043" d="M129.1,133c2.6,2.3,6.9,6.8,5.7,10.5l-0.5,0.2c-1-4-3-7.4-6.1-10.2L129.1,133z"/>
	<path id="path2045" d="M134.6,132.7c4-2,9.1,1,11.8,4l-0.6,0.4c-3.1-2.4-6.7-4.6-10.7-4.6L134.6,132.7z"/>
	<path id="path2047" d="M142.1,129.8c2-3.3,8-0.3,10.6,3.2l-0.6,0.4c-2.4-2.6-7.5-5.8-9.6-3.8L142.1,129.8z"/>
	<path id="path2049" d="M147.5,124.4c2.9-1.6,6.7-1.8,9.3,0.6l-0.6,0.4c-3.3-0.6-6.2-2.5-9.6-0.3L147.5,124.4z"/>
	<path id="path2051" d="M149.6,119.1c1.2-1.3,5.9-3.3,8.7-3.7l-0.9,0.7c-2.9,0.6-5.5,1.8-8,3.2L149.6,119.1z"/>
	<path id="path2053" d="M153.4,112c0.5-0.5,8.4-7,8.5-1.5l-0.3,0.1c-3.6-2.5-5.6-0.1-8.9,1.9L153.4,112z"/>
	<path id="path2055" d="M154,107.8c1.3-0.6,2.2-1.3,3.4-2.1l0.7-0.3c-1.5,1.2-3.1,2.5-5,3.1L154,107.8z"/>
	<path id="path2059" d="M150.5,122.3c0.8-3.1,7.6-4.9,10.2-2.2l-1,0.6c-2.8-1.8-7-1.4-8.9,1.4L150.5,122.3z"/>
	<path id="path2061" d="M153.9,113.8c2.2-0.9,5-1.3,7.3-0.6l-0.9,0.6c-1.6-0.1-5.3,0.4-5.8-0.3L153.9,113.8z"/>
	<path id="path2063" d="M155.7,105.3c-0.8-2.2,3.1-3,4.8-3.3l-0.7,0.5c-1.7,0.4-3.4,0.4-3.7,2.5L155.7,105.3z"/>
	<path id="path2065" d="M154,102.2c1-2,3.4-2.8,5.3-3.7l-0.2,0.2c-1.6,0.9-3.1,1.8-4.4,3.1L154,102.2z"/>
	<path id="path2067" d="M151.1,121.8c1.2-1.6,3.6,1.2,5.2,3.1l-0.8,0.5c-1.7-1.2-3.7-4.4-4.6-3.4L151.1,121.8z"/>
	<path id="path2069" d="M149.5,125c2.1-0.3,3.6,1.2,4.9,2.6l-1,0.6c-1.3-1.2-2.7-2.1-4.4-2.9L149.5,125z"/>
	<path id="path2071" d="M141,130.6c0.9-2.1,3.2,1.3,5.1,3.1l-1,0.6c-1.3-1-5.2-4.6-3.8-4L141,130.6z"/>
	<path id="path2075" d="M134.2,132.8c4.6,2,7.1,5.7,6.5,10.7l-0.2,0.1c-0.7-4.7-2.6-8-6.7-10.5L134.2,132.8z"/>
	<path id="path2077" d="M127.9,135.7c-2,0-0.9-1.7-0.3-1.1c1.7,1.4,2.6,4.2,3.5,6.1c0.7,3.7,0.6,1.8,0.3,5.6l-0.1,0
		c-0.8-3.3-0.4-1.6-1.3-5c-0.9-2-5.4-8.5-1.9-5.7L127.9,135.7z"/>
	<path id="path2079" d="M90.1,126.3c2.8-0.2,2.9,3.4,3.2,5.6l-0.3,0.2c-1-1.8-1.7-4.3-3.7-5.1L90.1,126.3z"/>
	<path id="path3084" d="M153.3,102.6c4.1-1.6,17.4-1.7,25.6-3.8c0.9-0.2-1.6,0.7-2.4,1.1c4.4-2.4,9-4.6,13.7-6.3l-1.6,1.1
		c-10.6,5.8,0.4-0.4-6.5,3.4c-7.4,3.6-12.7,6.5-21.3,6c-2.8-0.2-10.4,0.5-8.3-1.1c6-4.6,2.9-1.6,2.3-1.2L153.3,102.6z"/>
	<path id="path3092" d="M157.2,99.4c4.1-2.2,8.9-1.4,13.4-2c2.4-0.4,4.8-1.3,7.2-1.7l-2.2,1.7c-2.6,0.9-5.2,1.7-7.9,2.1
		c-2.8,0.3-8.5,0.4-10-0.3L157.2,99.4z"/>
</g>
<g id="layer8" inkscape:groupmode="layer" inkscape:label="clipp" sodipodi:insensitive="true">
	<path id="path1585" class="st17" d="M216.9,108.4c0,59.9-48.6,108.4-108.4,108.4C48.6,216.9,0,168.3,0,108.4S48.6,0,108.4,0
		C168.3,0,216.9,48.6,216.9,108.4z M184.6,108.4c0,42-34.1,76.1-76.1,76.1s-76.1-34.1-76.1-76.1s34.1-76.1,76.1-76.1
		S184.6,66.4,184.6,108.4z"/>
</g>
</svg>
