<?xml version="1.0" encoding="utf-8"?>
<!-- Generator: Adobe Illustrator 27.0.0, SVG Export Plug-In . SVG Version: 6.00 Build 0)  -->
<svg version="1.1" xmlns="http://www.w3.org/2000/svg" xmlns:xlink="http://www.w3.org/1999/xlink" x="0px" y="0px"
	 viewBox="0 0 512 512" style="enable-background:new 0 0 512 512;" xml:space="preserve">
<style type="text/css">
	.st0{fill:#FFFFFF;}
	.st1{fill:#231F20;}
	.st2{fill:#EC1C23;}
</style>
<g id="Layer_2">
	<rect class="st0" width="512" height="512"/>
</g>
<g id="Layer_1">
	<g transform="translate(0.000000,7500.000000) scale(0.100000,-0.100000)">
		<path class="st1" d="M-490,72440v-3050h3050h3050v3050v3050H2560H-490V72440z M1961.4,73715.4c38.6-6.8,62.8-28.6,80.8-73.1
			c13-31.9,27.7-92.2,33.3-137.2c9-70.5,5.9-150.2-8.9-232.6c-28.1-155.9-97.7-329.6-203.5-508.7c-30.9-52.3-69.4-111.1-100.3-153.4
			c-4-5.5-7.2-10.5-7.2-11.2c0-4.6,17.6-27.9,32.5-42.8c28.7-28.8,62.2-49.2,103.5-63c5.9-2,12-3.7,13.3-3.7c2.2,0,5.4,3,27.7,25.5
			c33.1,33.4,51.3,53.6,77.7,86.4c74.2,91.9,136.8,200.1,185.1,319.6c57.2,141.6,95.8,302.9,112.9,471c4.8,48.1,7.8,93.5,6.9,106.1
			c-0.7,10,0.2,24.4,2,31.3c6.2,23.7,21.6,31.1,45.5,22c35.5-13.5,113.1-76.5,175.8-142.9c62.4-66,111.5-130.2,154.7-202.1
			c65-108.3,106.1-219.4,123.7-333.8c5.9-38.5,3.5-74.3-7.3-107c-12.9-38.8-37.6-71.2-73.9-97.2c-4.2-3-12.4-8.5-18.3-12.2
			c-5.8-3.7-18.5-12.3-28.1-19c-116.4-81.6-243.7-151.7-380.3-209.6c-49.9-21.1-87.1-35.4-169.9-65.1
			c-59.5-21.4-70.6-26.3-78.5-34.5c-7.4-7.7-9.6-14.3-7.4-22.1c0.5-1.5,6.4-11.2,13.3-21.6c75.7-113.7,125.7-245.5,147-387.7
			c8.3-55.6,10.6-104.8,7.4-158.6c-1.1-18.9-4.6-30.3-11.5-37.7c-9.6-10.4-21.4-9.2-34.6,3.7c-7.9,7.6-11.7,13.3-25.1,37.7
			c-119.8,216.8-260.6,383.7-416,493.5c-188.6,133.1-398.1,182.5-618.2,145.8c-38-6.3-80.5-16.4-117-27.8c-8.3-2.5-10-2.8-15-2.4
			c-15.8,1.4-31.2,9.7-40.8,22.1c-29.8,38-27.7,121.6,6.3,248.9c11.5,42.9,38.1,124.8,44.5,136.5c3,5.6,9.5,12,16.9,16.8
			c30.7,19.7,94.1,24.8,184.5,15c82.9-9,182.5-30.2,262.9-55.8c8.6-2.8,15.9-4.8,16.2-4.5c1.6,1.6,20.2,72.9,27.5,105.5
			c21,93.5,31.3,174.9,32.8,257c2.3,135.8-24.4,251.5-79.3,343.6c-12.4,20.7-25.9,39.9-45.5,64.2c-17.6,22-22.5,30.2-24.6,42
			c-1.8,10,1.7,19.7,10,27.8c8.5,8.4,8.7,8.5,60.3,24.4c227.7,70.3,384.9,112.8,446.1,120.9
			C1922.9,73718.2,1945.4,73718.2,1961.4,73715.4z M2886.3,72682.3c7.1-1.5,12.7-4.6,19.1-10.7c7.7-7.3,13.3-15.9,20.9-31.6
			c11.1-22.9,18.1-43.5,44.5-128.8c18.1-58.6,21-66.5,30.3-84.6c35.6-69,102.6-126.7,176-151.8c53.8-18.3,108.4-19,160.8-2
			c3.6,1.1,17.3,7.6,30.5,14.2c57.7,29,99.8,46.4,130.9,53.9c27.2,6.7,44.4,5.1,52.1-4.6c8-10.1,4.6-29.7-10.1-58.6
			c-25.6-50.5-91.5-136.1-167-217.1c-8-8.5-9.5-12.4-9.4-23.2c0.3-24.4,22.7-45.7,56.8-54.2c24.2-6,60.1-6.3,94-0.5
			c48.5,8.3,84.7,21.1,145,51.6c49.9,25.2,103.6,56.5,174.5,101.5c162.7,103.5,392.3,272.5,481.5,354.4
			c24.5,22.4,40.3,33.8,54.3,38.7c23.5,8.3,31.9-11.1,23.3-54.2c-4.6-23-17.3-63.2-26.8-84.5c-27.4-61.7-92.4-148.4-192.2-256.7
			c-60.2-65.2-147.6-152.7-233.5-233.5c-61.6-57.9-134.1-124-209.8-191.1c-81.8-72.5-98.3-87.5-113.5-103
			c-27.7-28.1-39-42.6-48.4-62.1c-6.5-13.3-11.5-29.7-19.8-63.5c-16.5-67.8-33.3-119-50.9-154.5c-8.4-16.8-14.4-26.8-25.8-42
			c-4.4-5.9-10.2-14.1-13-18.1c-16.4-24.1-43.4-51.3-68.6-69.6c-19.8-14.4-37.3-22.8-47.7-22.7c-5.3,0.1-9,2.5-25.9,17.2
			c-45.6,39.7-69.8,68.5-76.8,91.3c-3.6,11.5-1.9,18.9,6.3,27.5c21.1,22.4,48.1,27,73.8,12.4c25.7-14.6,45.6-46.7,47.3-76
			c0.7-13-2.8-26-9.8-35.6c-3.5-4.8-4.4-7.1-2.5-6.3c0.7,0.2,1.6,0.5,2,0.5c1.3,0,8.7,7.2,13.7,13.4c7.2,8.9,13.4,18.9,19.9,32.4
			c24.4,50.3,28.1,109.9,9.2,145.5c-3.7,7-8,12.4-22,28.5c-35.8,41.1-71.2,62.8-107,65.6c-21.3,1.7-41-3.5-58.2-15.5
			c-7.6-5.3-19.2-17.2-24.8-25.5c-8.1-12-14.6-27.5-18.1-43.4c-1.5-6.9-1.8-10.5-1.8-27.1c-0.1-21.2,0.9-27.8,6.3-44.1l2.7-7.9
			l-11.5,11.1c-29,28.4-46,40.8-56,40.8c-3.6,0-4.6-0.3-6.3-2.1c-1.7-1.9-2-2.8-2-8.7c0-6.2,0.2-7.2,3.4-13.7
			c10.7-22.4,36.5-52,97.8-112.2c17.1-16.8,32.6-32.5,34.5-35c11.9-15.5,18.2-32.4,19-50.9c0.7-19.3-4.7-34.8-16.3-45.5
			c-18.7-17.6-46-13.8-77.9,10.8c-9.7,7.4-18.3,15.7-38.6,36.9c-23.4,24.6-61.1,60.2-93.6,88.7c-95.6,83.4-211.8,167.6-353.4,255.9
			c-63,39.3-127.4,77.1-229,134.4c-81.7,46.2-100,57.2-114.3,68.6c-29.8,23.9-43.4,50.4-42,81.9c0.9,20.7,7.1,44.6,20.3,79.1
			c5,13.2,5.4,15,7.8,33.1c6.4,50.6,6.1,103-1.2,196c-1.1,14-2,29.7-2,34.7v9.3l3.5-0.5c37.5-5.4,58.8-30,66.9-77.2
			c6.1-35.7,4.4-82.4-5.3-148c-5.6-37.5-4.9-58.7,2.8-82.2c15.3-46.7,55.6-81.9,130-113.7c21.7-9.3,46.4-18.3,88.8-32.4
			c55.4-18.4,63.4-20.2,85-20.3c38.1,0,65.5,17.5,88.1,56.4c12.3,21.1,20.3,41.3,39,99.5c12.4,38.1,19.4,54.3,32,73.5
			c8.5,12.9,16.4,22.5,27.7,33.5c25.8,25,54.8,41,101.9,56c10.1,3.3,26.5,8.5,36.6,11.8c25.9,8.5,33.1,9.8,52.9,9.8
			c14,0,17.5-0.3,29.7-2.4c12-2.1,15.9-2.4,28.5-2.4s15.7,0.3,22.2,1.9c8.7,2.2,9,2.8,4.6,8.5c-6.1,7.8-19.3,16.7-33.3,22.2
			c-14.6,5.9-37.7,10.7-61.1,12.6c-12.6,1.1-48,1.1-62.6,0c-37.3-2.7-76.2-9.5-87.4-15.4c-2.4-1.3-8.8-4.6-14.1-7.3
			c-21.1-11.1-54.3-22.4-77.3-26.5c-4.5-0.7-12.1-1.2-20.3-1.2c-14.9,0-19.6-1-25.8-5c-5.3-3.6-7.2-6.8-7.2-11.8
			c0-3.7,0.3-4.4,2.8-6.7c1.6-1.4,3.3-2.5,3.7-2.5c1.4,0,9.9-8.5,11.4-11.4c4.6-8.9,4.1-20.7-1.5-37.5c-4.3-12.8-7.2-17.7-14.2-24.7
			c-10.1-9.9-22.4-14.9-39.2-15.6c-16.3-0.7-24.2,1.4-32.7,8.5c-26.7,22.9-136.4,97-185.4,125.2c-8.5,4.9-17.4,10.2-19.8,11.9
			c-6.9,4.6-14.4,12.5-17.2,18.1c-2.2,4.6-2.4,5.6-2.2,11.5c0.3,5.5,0.7,7.2,3.7,13.3c5.5,11,10.6,16.9,34,40.2
			c30.3,30.1,32.9,33.3,32.9,40.7c0,9.7-8.5,11.5-63.4,13.4c-59.3,2.1-112.2,6.5-138.1,11.5c-35.3,6.8-58.7,26.8-66.2,56.6
			c-2.5,10.1-2.5,28.7,0,40.6c6.3,29.7,24.1,60.8,49.7,87.5c31.8,33.2,75,58.4,121.1,70.7c18.4,4.9,55,20.7,100.2,43.4
			c88.9,44.5,168,93.6,215.5,134c41.1,34.9,67.9,54.7,87.3,64.7C2864.3,72681.8,2875.5,72684.6,2886.3,72682.3z"/>
		<path class="st2" d="M2596.7,72075.5c-14.2-1.2-24.4-6.3-29-14.6c-2.3-4-2.4-5-2.4-12.4c0-5.5,0.5-9.7,1.5-12.8l1.4-4.6l9.5-5.5
			c34.6-19.8,60.7-38.5,80.6-57.7c13.7-13.2,15.1-13.8,28.6-13.8c8.9,0,9.6,0.1,14.8,2.7c10.4,5.1,15.3,13.7,15.3,26.9
			c0,6.3,0,6.3-4.2,12.5c-16.9,24.5-57.5,58.2-88.9,73.9C2612.8,72075.5,2608.1,72076.4,2596.7,72075.5z"/>
	</g>
</g>
<g id="Layer_3">
</g>
</svg>
