<?xml version="1.0" encoding="UTF-8"?><svg xmlns="http://www.w3.org/2000/svg" viewBox="0 0 610 610"><defs><style>.cls-1{fill:#fff;}.cls-2{fill:#231f20;}.cls-3{fill:#ec1c23;}</style></defs><g id="Layer_2"><rect class="cls-1" x="49" y="49" width="512" height="512"/></g><g id="Layer_1"><g><path class="cls-2" d="M0,305v305H610V0H0V305Zm245.14-127.54c3.86,.68,6.28,2.86,8.08,7.31,1.3,3.19,2.77,9.22,3.33,13.72,.9,7.05,.59,15.02-.89,23.26-2.81,15.59-9.77,32.96-20.35,50.87-3.09,5.23-6.94,11.11-10.03,15.34-.4,.54-.72,1.05-.72,1.12,0,.46,1.76,2.79,3.25,4.28,2.87,2.88,6.22,4.92,10.35,6.3,.59,.2,1.2,.37,1.33,.37,.22,0,.54-.3,2.77-2.55,3.31-3.34,5.13-5.36,7.77-8.64,7.42-9.19,13.68-20.01,18.51-31.96,5.72-14.16,9.58-30.29,11.29-47.1,.48-4.81,.78-9.35,.69-10.61-.07-1,.02-2.44,.2-3.13,.62-2.37,2.16-3.11,4.55-2.2,3.55,1.35,11.31,7.65,17.58,14.29,6.24,6.6,11.15,13.02,15.47,20.21,6.5,10.83,10.61,21.94,12.37,33.38,.59,3.85,.35,7.43-.73,10.7-1.29,3.88-3.76,7.12-7.39,9.72-.42,.3-1.24,.85-1.83,1.22-.58,.37-1.85,1.23-2.81,1.9-11.64,8.16-24.37,15.17-38.03,20.96-4.99,2.11-8.71,3.54-16.99,6.51-5.95,2.14-7.06,2.63-7.85,3.45-.74,.77-.96,1.43-.74,2.21,.05,.15,.64,1.12,1.33,2.16,7.57,11.37,12.57,24.55,14.7,38.77,.83,5.56,1.06,10.48,.74,15.86-.11,1.89-.46,3.03-1.15,3.77-.96,1.04-2.14,.92-3.46-.37-.79-.76-1.17-1.33-2.51-3.77-11.98-21.68-26.06-38.37-41.6-49.34-18.86-13.31-39.81-18.25-61.82-14.58-3.8,.63-8.05,1.64-11.7,2.78-.83,.25-1,.28-1.5,.24-1.58-.14-3.12-.97-4.08-2.21-2.98-3.8-2.77-12.16,.63-24.89,1.15-4.29,3.81-12.48,4.45-13.65,.3-.56,.95-1.2,1.69-1.68,3.07-1.97,9.41-2.48,18.45-1.5,8.29,.9,18.25,3.02,26.29,5.58,.86,.28,1.59,.48,1.62,.45,.16-.16,2.02-7.29,2.75-10.55,2.1-9.35,3.13-17.49,3.28-25.7,.23-13.58-2.44-25.15-7.93-34.36-1.24-2.07-2.59-3.99-4.55-6.43-1.76-2.2-2.25-3.02-2.46-4.2-.18-1,.17-1.97,1-2.78,.85-.84,.87-.85,6.03-2.44,22.77-7.03,38.49-11.28,44.61-12.09,2.17-.28,4.42-.28,6.02,0Zm92.49,103.31c.71,.15,1.27,.46,1.91,1.07,.77,.73,1.33,1.59,2.09,3.16,1.11,2.29,1.81,4.35,4.45,12.88,1.81,5.86,2.1,6.65,3.03,8.46,3.56,6.9,10.26,12.67,17.6,15.18,5.38,1.83,10.84,1.9,16.08,.2,.36-.11,1.73-.76,3.05-1.42,5.77-2.9,9.98-4.64,13.09-5.39,2.72-.67,4.44-.51,5.21,.46,.8,1.01,.46,2.97-1.01,5.86-2.56,5.05-9.15,13.61-16.7,21.71-.8,.85-.95,1.24-.94,2.32,.03,2.44,2.27,4.57,5.68,5.42,2.42,.6,6.01,.63,9.4,.05,4.85-.83,8.47-2.11,14.5-5.16,4.99-2.52,10.36-5.65,17.45-10.15,16.27-10.35,39.23-27.25,48.15-35.44,2.45-2.24,4.03-3.38,5.43-3.87,2.35-.83,3.19,1.11,2.33,5.42-.46,2.3-1.73,6.32-2.68,8.45-2.74,6.17-9.24,14.84-19.22,25.67-6.02,6.52-14.76,15.27-23.35,23.35-6.16,5.79-13.41,12.4-20.98,19.11-8.18,7.25-9.83,8.75-11.35,10.3-2.77,2.81-3.9,4.26-4.84,6.21-.65,1.33-1.15,2.97-1.98,6.35-1.65,6.78-3.33,11.9-5.09,15.45-.84,1.68-1.44,2.68-2.58,4.2-.44,.59-1.02,1.41-1.3,1.81-1.64,2.41-4.34,5.13-6.86,6.96-1.98,1.44-3.73,2.28-4.77,2.27-.53,0-.9-.25-2.59-1.72-4.56-3.97-6.98-6.85-7.68-9.13-.36-1.15-.19-1.89,.63-2.75,2.11-2.24,4.81-2.7,7.38-1.24,2.57,1.46,4.56,4.67,4.73,7.6,.07,1.3-.28,2.6-.98,3.56-.35,.48-.44,.71-.25,.63,.07-.02,.16-.05,.2-.05,.13,0,.87-.72,1.37-1.34,.72-.89,1.34-1.89,1.99-3.24,2.44-5.03,2.81-10.99,.92-14.55-.37-.7-.8-1.24-2.2-2.85-3.58-4.11-7.12-6.28-10.7-6.56-2.13-.17-4.1,.35-5.82,1.55-.76,.53-1.92,1.72-2.48,2.55-.81,1.2-1.46,2.75-1.81,4.34-.15,.69-.18,1.05-.18,2.71,0,2.12,.09,2.78,.63,4.41l.27,.79-1.15-1.11c-2.9-2.84-4.6-4.08-5.6-4.08-.36,0-.46,.03-.63,.21-.17,.19-.2,.28-.2,.87,0,.62,.02,.72,.34,1.37,1.07,2.24,3.65,5.2,9.78,11.22,1.71,1.68,3.26,3.25,3.45,3.5,1.19,1.55,1.82,3.25,1.9,5.09,.07,1.93-.47,3.48-1.63,4.55-1.87,1.76-4.6,1.38-7.79-1.08-.97-.74-1.83-1.57-3.86-3.69-2.34-2.46-6.11-6.02-9.36-8.87-9.56-8.34-21.18-16.76-35.34-25.59-6.3-3.93-12.74-7.71-22.9-13.44-8.17-4.62-10-5.72-11.43-6.86-2.98-2.39-4.34-5.04-4.2-8.19,.09-2.07,.71-4.46,2.03-7.91,.5-1.32,.54-1.5,.78-3.31,.64-5.06,.61-10.3-.12-19.6-.11-1.4-.2-2.97-.2-3.47v-.93l.35,.05c3.75,.54,5.88,3,6.69,7.72,.61,3.57,.44,8.24-.53,14.8-.56,3.75-.49,5.87,.28,8.22,1.53,4.67,5.56,8.19,13,11.37,2.17,.93,4.64,1.83,8.88,3.24,5.54,1.84,6.34,2.03,8.5,2.03,3.81,0,6.55-1.75,8.81-5.64,1.23-2.11,2.03-4.13,3.9-9.95,1.24-3.81,1.94-5.43,3.2-7.35,.85-1.29,1.64-2.24,2.77-3.35,2.58-2.5,5.48-4.1,10.19-5.6,1.01-.33,2.65-.85,3.66-1.18,2.59-.85,3.31-.98,5.29-.98,1.4,0,1.75,.03,2.97,.24,1.2,.21,1.59,.24,2.85,.24s1.57-.03,2.22-.19c.87-.22,.9-.28,.46-.85-.61-.78-1.93-1.67-3.33-2.22-1.46-.59-3.77-1.07-6.11-1.26-1.26-.11-4.8-.11-6.26,0-3.73,.27-7.62,.95-8.74,1.54-.24,.13-.88,.46-1.41,.73-2.11,1.11-5.43,2.24-7.73,2.65-.45,.07-1.21,.12-2.03,.12-1.49,0-1.96,.1-2.58,.5-.53,.36-.72,.68-.72,1.18,0,.37,.03,.44,.28,.67,.16,.14,.33,.25,.37,.25,.14,0,.99,.85,1.14,1.14,.46,.89,.41,2.07-.15,3.75-.43,1.28-.72,1.77-1.42,2.47-1.01,.99-2.24,1.49-3.92,1.56-1.63,.07-2.42-.14-3.27-.85-2.67-2.29-13.64-9.7-18.54-12.53-.85-.49-1.74-1.02-1.98-1.19-.69-.46-1.44-1.25-1.72-1.81-.22-.46-.24-.56-.22-1.15,.03-.55,.07-.72,.37-1.33,.55-1.1,1.06-1.69,3.4-4.02,3.03-3.01,3.29-3.33,3.29-4.07,0-.97-.85-1.15-6.34-1.34-5.93-.21-11.22-.65-13.81-1.15-3.53-.68-5.87-2.68-6.62-5.66-.25-1.01-.25-2.87,0-4.06,.63-2.97,2.41-6.08,4.97-8.75,3.18-3.32,7.5-5.84,12.11-7.07,1.84-.49,5.5-2.07,10.02-4.34,8.89-4.45,16.8-9.36,21.55-13.4,4.11-3.49,6.79-5.47,8.73-6.47,1.85-.95,2.98-1.23,4.06-1Z"/><path class="cls-3" d="M308.67,341.45c-1.42,.12-2.44,.63-2.9,1.46-.23,.4-.24,.5-.24,1.24,0,.54,.05,.97,.15,1.28l.14,.46,.95,.55c3.46,1.98,6.07,3.85,8.06,5.77,1.37,1.32,1.51,1.38,2.86,1.38,.89,0,.96,0,1.48-.27,1.04-.51,1.53-1.37,1.53-2.69,0-.63,0-.63-.42-1.25-1.69-2.45-5.75-5.82-8.89-7.39-1.11-.54-1.57-.64-2.72-.54Z"/></g></g></svg>