<?xml version="1.0" encoding="utf-8"?>
<!-- Generator: Adobe Illustrator 27.0.0, SVG Export Plug-In . SVG Version: 6.00 Build 0)  -->
<svg version="1.1" id="Layer_1" xmlns="http://www.w3.org/2000/svg" xmlns:xlink="http://www.w3.org/1999/xlink" x="0px" y="0px"
	 viewBox="0 0 76 76" style="enable-background:new 0 0 76 76;" xml:space="preserve">
<g>
	<path d="M3.2,24c4.1-11.2,16.5-23,33.9-23.5c17.7-0.4,31.1,11,35.8,23.5c-5.1,0-10.2,0-15.4,0c-0.8,4.6-1.6,9.2-2.5,13.9
		c6.9,0,13.8,0,20.7,0c0,9.4-2.9,17.7-9,24.8C61.3,69.1,54.4,73.2,46,75.1C49,58,52,41,55,24C37.7,24,20.4,24,3.2,24z"/>
	<path d="M0.2,37.9c12.8,0,25.5,0,38.3,0c-2.2,12.5-4.4,25-6.6,37.6C23,73.9,15.5,69.9,9.6,63.1C3.3,55.9,0.3,47.4,0.2,37.9z"/>
</g>
</svg>
