<?xml version="1.0" encoding="utf-8"?>
<!-- Generator: Adobe Illustrator 27.0.0, SVG Export Plug-In . SVG Version: 6.00 Build 0)  -->
<svg version="1.1" id="Layer_1" xmlns="http://www.w3.org/2000/svg" xmlns:xlink="http://www.w3.org/1999/xlink" x="0px" y="0px"
	 viewBox="0 0 899 899" style="enable-background:new 0 0 899 899;" xml:space="preserve">
<style type="text/css">
	.st0{fill:#2D50A4;}
	.st1{fill:#628FF7;}
	.st2{fill:#3659B1;}
	.st3{fill:#395EB7;}
	.st4{fill:#3D62BD;}
	.st5{fill:#476ECC;}
	.st6{fill:#3054A9;}
	.st7{fill:#5D88EF;}
	.st8{fill:#557FE2;}
	.st9{fill:#4067C4;}
	.st10{fill:#4F78D9;}
	.st11{fill:#4A72D2;}
	.st12{fill:#5883E8;}
	.st13{fill:#446AC7;}
	.st14{fill:#527CDE;}
</style>
<g>
	<path class="st0" d="M590,0.1c101.6,0,203.3,0,304.9-0.1c3.4,0,4.1,0.7,4.1,4.1c-0.1,192.3-0.1,384.6-0.1,576.9
		c-7.2-0.1-7.2-0.1-7.1-7.5c0-2.4-0.5-4.7-3.5-4.2c-5.7,0.9-5.4-2.8-5.4-6.5c0-2.3,0.9-4.4-1.1-6.5c-3.7-3.9-5.7-8.6-7.4-13.8
		c-1.3-3.9-1.5-8.6-3.8-11.6c-3.2-4.1-3.8-8.1-3.9-12.8c0-2.4-1.1-4-4.1-3.8c-5.6,0.4-5.5,0.3-4.2-5.5c0.6-2.5,1.7-6.4-1.4-7.1
		c-6.8-1.5-6.2-5.7-5.2-10.6c0.3-1.4,0.1-3,0.1-4.5c0-3.3-1.4-5.1-4.9-5.7c-4.2-0.8-8.3-2-12.7-0.8c-2.8,0.8-3.3-0.8-3.5-3.2
		c-0.4-4.8,1.4-8.3,4.9-11.4c2.1-1.9,2.9-4.1-0.6-5.2c-3.8-1.3-4.5-4-4.3-7.4c0.1-2.5,0.1-5,0-7.5c-0.3-4.9-5.6-11.9-9.4-12.4
		c-1.6-0.2-3.6,0-4.1-2c-0.6-2.1,1.5-2.7,2.6-3.8c1.2-1.1,3.2-2.2,2-4c-1.5-2.2-4.2-3.1-6.6-2.6c-2.2,0.4-5,2.5-4.4,4.7
		c1.1,3.9-1.7,6.1-3.6,7.1c-2.7,1.4-5.5-1.5-6.9-3.6c-1.7-2.4-3.4-2.7-5.8-2.7c-4.5,0-9,0-13.5,0c-0.9,0-3,0.5-1.2-1.6
		c7.4,0.4,14.6,1.4,21.9-1.4c14.4-5.5,24-15.1,28-30c3.1-11.4,1.1-22.8,0-34.2c-4.7-51.9-17.9-101.1-46.2-145.4
		c-18.8-29.5-43.6-52.6-75.3-68c-17.7-8.6-36.3-13.7-55.5-17.2c-1.4-2-3.5-1.6-5.4-1.8c-14.8-1.6-29.6-1.3-44.4-1.2
		c-1.8,0-3.7,0.2-5.3-0.8c0.7,0,1.3-0.1,2-0.1c8.5,0,17,0,25.4-0.1c1,0,2.1,0.2,2.7-0.8c0.5-0.7,0.1-1.3-0.5-1.7
		c-6-3.6-0.6-3.6,1.4-4.2c2.4-0.8,4.9-1,7.3-1.6c1.3-0.3,2.7-0.5,3.3-1.9c0.8-1.8-2.8-10.5-4.8-11c-3.9-0.9-4.9-3.3-4.7-7
		c0.1-1.8,0.7-4-1-5.2c-4.4-3-4-7.1-3.2-11.5c0.5-2.8,1-6-1.8-8.4c-6.3-5.5-14.1-10-15.4-19.5c-0.1-0.4-0.5-0.9-0.9-1.2
		c-3.5-2.6-3.9-6.3-3.8-10.3c0.1-2.3,0.6-5-1.5-6.6c-4.5-3.4-4.9-8-4.5-12.9c0.2-2.2,0-4.7-2.7-5.2c-5-1-5.6-4.3-5.3-8.5
		C590.1,4.5,590,2.3,590,0.1z"/>
	<path class="st1" d="M235.1,898.9c-77,0-154,0-230.9,0.1c-3.4,0-4.1-0.7-4.1-4.1C0.1,744.9,0.1,595,0.1,445
		c3.8-0.2,5.3,1.7,6.2,5.5c1.4,5.6,3.6,11.1,6.1,16.4c3.1,6.3,7.7,11.4,9.5,18.8c1.2,5.1,2.6,11.4,7.7,15.6
		c3.1,2.5,7.1,5.5,4.9,10.9c-0.3,0.8,0.5,1.6,1.3,1.9c4.3,1.6,4.2,4.7,3.5,8.6c-0.7,4.1-0.9,9.1,3.7,10.9c6.4,2.6,8,8.2,9.8,13.5
		c1.8,5.2,5.3,9.9,4.9,15.8c0,0.7,1,1.9,1.8,2.2c6.6,2.7,6.6,8.9,6.2,14c-0.5,6,2,8.5,6.8,10.4c4.4,1.7,7,4.8,6.6,10
		c-0.2,2.6,0.5,5.2,3.3,6.1c3.5,1.1,3.9,3.7,3.7,6.7c-0.4,5.4,0.1,10.6,3.6,15.1c1.8,2.4,1.3,5.4,1.5,8.2c0.1,2.8-0.7,5.8,0.8,8.6
		c2.2-1,3.6-6,5.6-2.2c1.5,2.8,1.2,6.2,5.5,6.8c1.1,0.2,1.1,1.9,1.1,3.1c0,2.7-0.1,5.3,0,8c0.1,2.6-0.9,3.9-3.5,4.6
		c-1.7,0.4-4.4,0.2-4.2,3.2c0.2,2.9,2.7,2.8,4.9,3.2c-0.6,1.8-1.7,3-1.6,5.1c0.3,6.6,0.7,13.2,2.5,19.6c0.4,1.3,0,4.1,3,2.6
		c0.8,0.7,1,1.5,1,2.5c0,3.2-0.6,6.7,4.1,7.3l-0.1,0.1c0.2,1.2,0.9,1.9,2.1,2c6.1,6.4,13.5,10.9,21.8,13.9c0.5,0.6,1,1.7,1.6,1.7
		c5.6,0.7,11.2,0.6,16.9,0.2c-0.1-0.4-0.3-0.8-0.4-1.2c1.5-0.3,3-0.6,4.4-0.8c2.3,3.1,2.4,5-2.3,4.4c-1-0.1-2-0.1-3,0
		c-1.2,0.1-2.5,0.4-2.4,1.9c0.1,1.5,1.4,1.8,2.5,1.8c3.1,0,6.3,0.8,9.2-1.2c0.9-0.6,2.1-0.8,2.7,0.2c0.8,1.4-0.4,2-1.5,2.6
		c-1.2,0.7-4.1,0.3-2.6,3c2.1,3.9,1.9,8,1.9,12.2c0,1.7,0.4,4.1,2.2,3.9c7.8-1.1,6.9,9.9,13.8,9.7c0.2,0,0.9,1.6,0.7,2.2
		c-2.4,5.6,0.4,11.5-1.2,17.1c-1.3,4.8,0.8,9.5,0.6,14.3c-0.1,1.9,1.8,2.7,3.5,2.9c1.8,0.2,3.7,0.1,5.5,0.2c4.8,0.4,6.4,2.4,5.9,7.2
		c-0.6,6.3,0.4,8.1,6.5,9.7c3.5,0.9,4.9,2.7,4,6.1c-1.9,7.4-0.1,14.1,3.2,20.7c0.4,0.9,0.6,2.1,1.9,1.6c1.2-0.4,0.9-1.6,0.8-2.6
		c-0.5-2.9-1.6-5.9,1-8.8c0.3,5.1,4.4,8.4,5.2,13c0.8,4.5,2.9,8.9,2.3,13.7c-0.2,1.6,0.9,3.3,2.5,3.1c4.5-0.5,6.6,3.5,10,4.9
		c2.3,1,2.9,3.2,1.5,5.5c-1.4,2.3-1.1,4.5,0.3,6.5c1.3,1.9,1.6,4,1.5,6.2C232.8,890.3,233.1,894.7,235.1,898.9z M103.4,703.1
		c0-0.1,0-0.3,0-0.4c-0.2,0.1-0.4,0.1-0.6,0.2c0.1,0.1,0.1,0.3,0.2,0.3C103.1,703.3,103.3,703.2,103.4,703.1z"/>
	<path class="st2" d="M898.9,787.9c0,35.8,0,71.6,0.1,107.5c0,3-0.6,3.7-3.6,3.6c-8.8-0.3-17.7-0.1-26.5-0.1
		c-6.1-5.2-2.6-14.9-9.4-19.8c-0.7-0.5-0.5-2.2-0.6-3.3c-0.1-1.4-0.3-2.9-1.5-3.6c-6.1-3.2-6.9-8.4-5.6-14.4c0.2-1,0.1-2,0-3
		c-0.5-4.5-2.8-5.7-6.7-3.3c-1,0.6-1.9,1.5-3.1,0.6c-1.2-1-0.4-2,0.1-3.1c2.6-5.1,1.9-7.9-2.7-11.5c-0.9-0.7-2.5-1.1-2-2.5
		c1.4-4.5-1.6-8.4-1.9-12.7c-0.2-4.4-3.3-5.3-6.8-2.4c-1.1,0.9-2.2,2.2-3.1,0.4c-1.2-2.6-3.4-5-2.5-8.3c2.4-9.1-4.2-16.8-4.1-25.6
		c0-0.4-0.5-1-0.9-1.2c-5.6-2.4-7.1-7.4-8.4-12.7c-0.4-1.7-1.5-3.4-3-4.5c-1.2-0.8-1.9-1.8-2-3.3c-0.7-5.3-1.8-9.8-5.8-14.4
		c-5.8-6.6-10.2-14.8-11-24c-0.4-5.5-3-6-7.3-4.4c0-1.2,0.1-2.3,0-3.5c-0.4-4.8-0.7-10.1-4-13.5c-3.3-3.4-5.2-6.8-5-11.4
		c0.1-2.4-0.8-4.3-3.1-5.1c-3.7-1.4-4.5-4.2-3.6-7.6c0.5-1.9,0.8-4.4-1.1-4.9c-5.4-1.6-6.3-5.7-7.2-10.2c-0.3-1.5-1.7-3-3-3.9
		c-3.8-2.7-5.1-6.4-5-10.8c0.1-3.6-0.9-7-3.9-9.3c-3-2.3-4.4-5.1-4.3-8.9c0.1-2.3-0.8-4.8-2.9-6.1c-2.5-1.5-3.4-3.9-4.9-6.1
		c-1.6-2.3-0.9-6-2.8-7.3c-6.4-4.3-5.4-11-5.9-17c-0.3-3.7-1.2-5.8-5.1-6.6c-2.5-0.6-6-1-6-4.9c-0.1-7.6-4.8-14.1-5.4-21.6
		c-0.2-1.8-1.7-2.8-3.6-3c-1.5-0.1-2.5,0.4-3,2c-0.3,1.2-0.2,3.3-2,2.8c-1.9-0.5-1.1-2.5-0.8-3.9c0.3-1.5,1.1-2.8,1.4-4.2
		c0.5-2.8,1-6.6-2-7.6c-5.6-1.8-3.9-5.4-3.5-9c0.1-0.8,0.5-1.6,0.5-2.4c0-3.6-1.3-6.7-4.5-8.3c-3.1-1.5-4.9,0.1-5.8,3.3
		c-0.3,1-1.5,1.2-2.6,0.9c-1.1-0.3-1.6-1.1-1.7-2.2c-0.3-3.2-0.2-6,2.6-8.6c3.7-3.4,3.1-8-1-10.9c-1.6-1.1-2.5-2.4-2.9-4.3
		c-0.9-3.7-2.1-7.3-1.9-11.3c0.1-1.7-0.3-4-2.2-3.9c-5.8,0.2-6.9-2.6-5.9-7.5c0.2-1-0.5-2.3-1.1-3.2c-1.7-2.4-2.5-5-3-7.8
		c-0.7-4.2-2.7-7.2-7.5-8.2c-3.9-0.8-6.2-3.3-3.9-7.7c0.7-1.4,1.3-3.5,0.2-4.2c-4.3-2.9-1-11.4-8.6-11.8c-0.8,0-0.7-1.7-0.8-2.7
		c-0.1-1.8,0-3.7-0.4-5.5c-0.6-2.7-1.7-5.1-5-2.2c-1.6,1.4-3.3,2-4.6-0.1c-1.2-1.9,0-3.2,1.6-4c3.6-2,3-5.1,1.3-7.7
		c-1.9-2.9-4.5-6.1-7.8-6.7c-3.9-0.6-3.6-2.9-3.9-5.4c-0.2-1.5,0-3-0.3-4.5c-0.9-3.7-1.9-7.3-7-6.5c-0.9,0.1-1.8,0.1-2.1-0.8
		c-0.5-1.3,0.7-1.7,1.6-1.9c3.2-0.7,2.8-3,1.2-4.4c-3.1-2.7-5.7-5-1.8-9c0.3-0.3,0.1-1.4-0.2-1.9c-2.7-4-3.4-9.5-8.9-11.5
		c-2.9-1.1-3.8-3.2-3-6.4c0.7-2.6,0.8-5.5-1.6-7.4c-2.7-2.2-3.7-5-4.2-8.2c-0.5-3.1-1.9-5.6-4.1-7.8c-1.2-1.2-2.2-2.4-2.8-4.1
		c-1.9-5.5-2.4-11.8-8.9-14.6c-1.5-0.6-1.3-2.6-1.2-4.1c0.5-5.5-2.1-9.2-6.6-11.9c-2-1.2-3.3-2.4-1.8-5.2c1.1-2,0.3-4.3-1.5-5.9
		c-7.1-6-7.4-15.3-10.7-23c-2.2-5.3-4.5-9.5-9.7-11.6c-2.4-1-3.4-2.6-3.6-4.9c-0.3-2-0.3-4-1.5-5.7c-1.2-1.8-1.2-3,1.1-3.6
		c1.7-0.5,2.4-1.8,2-3.5c-0.4-1.8-1.6-3.1-3.6-2.7c-1.4,0.3-2.9-1-4.2,0.4c0.5,1.4,3,1.2,2.7,3.2c-0.2,1.2-1.1,1.7-2.2,1.7
		c-1.6,0-3.6,0.8-4.6-0.9c-0.7-1.2-0.5-2.9-1.9-3.8c14-9,29.2-15.4,45.1-20.3c5.1-1.6,10.3-2.7,15.7-2.9c3,0,6,0.1,9,0
		c3.2-0.2,3.2-0.3,3.3,2.8c0,1.2,1,1.5,1.6,1.2c6.3-2,9.3,0.6,10,6.9c0.1,0.8,1.1,1.7,1.9,2.2c2.3,1.7,2.7,3.6,1.4,6.1
		c-1.2,2.3-1,4.4,0.6,6.5c3.6,4.6,6.6,9.7,11.5,13.3c2.1,1.5,2.7,4,2.9,6.7c0.3,3.9,0.8,7.6,5.7,8.8c2.9,0.7,1.4,2.6,0.4,4.2
		c-2.1,3.9-1.2,6.4,2.9,7.5c4.1,1,4.8,3.9,3.5,6.8c-1.9,4.2,0.6,5.9,3.3,6.7c4.2,1.3,4.3,3,2.3,6.5c-2.5,4.3-0.9,7.3,3.6,8
		c7.6,1.2,9.8,7,5.1,13.2c-2.3,3.1-1.8,5.6,1.7,6.5c5.8,1.5,7.6,6.2,8.1,10.7c0.6,6,4.4,11.2,3.6,17.4c-0.1,0.6,0.4,1.6,0.8,1.7
		c5.1,1.5,6.7,6.3,9.5,10c2.6,3.4,5.1,7.4,5.8,11.1c1.1,5.8,1.2,11.5,4.4,16.9c1.3,2.1,2,4,4.7,4.5c0.9,0.1,2.5,0.7,2.6,1.2
		c0.6,4.8,5.9,7.8,5,13.2c-0.4,2.7,0.4,5,3.7,5.5c3.8,0.5,4.6,2.8,3.8,6.1c-0.6,2.2-0.7,4.5,0.8,6.2c3.3,3.9,7.1,7.5,7.6,13.1
		c0.1,0.6,1.1,1.3,1.8,1.5c4.3,1.5,3.6,3.7,1.1,6.3c-1.6,1.6-2.3,3.3-0.6,5.2c2.1,2.3,4.1,4.9,6.5,6.8c4,3.2,6.4,7.1,6.3,12.4
		c0,1.5,0.5,3.9,1.8,3.8c5.9-0.7,5.8,5.3,9,7.5l-0.1,0.1c-2.2-1.1-3.4,4.1-5.6,1.2c-1.4-1.9-2-1-2.8,0.1c-0.9,1.3-1.7,2.8,0.4,3.5
		c1.6,0.6,3.1,1.1,4,2.6l0,0.1c-1.4,0.5-1.5,1.6-1.4,2.9l0.1,0c-3,2.3-5,11.2-3.2,14.3c0.1,0.3,0.5,0.4,0.8,0.6
		c1.2,16.5,9,29,23.2,37.4c0.5,0.3,0.9,0.7,1.4,1l-0.1-0.3c0.6,1.5,1.8,1.6,3.2,1.6l0.3-0.1c2.8,2.3,5.5,4.6,8.3,6.7
		c0.9,0.7,1.6,1.3,1.6,2.4c0,4.6,4.2,7.3,5.1,11.6c0.4,1.9,2.9,4.8,5.6,5.1c4.5,0.6,5,3.7,5.4,7.1c0.2,1.5,0,3,1,4.3
		c4,5.3,6.3,11.3,6.7,17.7c0.3,5.3,1.6,9.6,5.7,13.2c2.4,2.1,4,5.4,4.1,8.4c0.1,4.5,2.7,6.6,6,8.3c1.7,0.9,2.7,1.8,2.7,3.7
		c0.1,5.4,4.2,8.9,6.7,12.9c3.6,5.8,4.9,11.8,0.8,17.4c-1.6,2.2-0.8,3,1.4,3.2c1.3,0.1,2.6-0.2,4-0.4c4.9-0.7,6.4,0.8,5.6,5.8
		c-0.3,2-0.7,4,0.5,5.8c3.4,5.4,6.8,10.8,7.6,17.3c0.1,0.9,0.7,2.1,1.4,2.5c3.1,2,4.3,4.2,2.3,7.8c-0.7,1.3-0.7,3.8,1.2,4.3
		c2.5,0.7,2.2-1.7,2.5-3.2c0.2-1,0.3-2.1,1.5-2.3c1.4-0.2,2.2,0.9,2.3,2.1c0.2,2.3,2.1,3.8,2.7,5.7c1.4,4.6,5.7,7.9,5.5,13
		c-0.1,3.2,0.6,5.6,4.4,5.9c2,0.2,2.5,1.9,3,3.6c0.9,3,0.7,5.9,0,8.9c-0.8,3.5-0.2,6.3,3.7,7.5c2.8,0.9,3.8,3,4,5.7
		c0.1,2.9,1.2,5.5,2.9,7.9c1,1.5,2.1,3,2.1,5C891.8,783.6,894.8,786.2,898.9,787.9z"/>
	<path class="st3" d="M781,721.9c4.2-1.5,6.8-1,7.2,4.5c0.8,9.2,5.2,17.4,11,24c4,4.6,5.1,9.1,5.8,14.4c0.2,1.4,0.9,2.5,2,3.3
		c1.6,1.1,2.6,2.7,3,4.5c1.2,5.3,2.8,10.3,8.4,12.7c0.4,0.2,0.9,0.8,0.9,1.2c-0.1,8.8,6.5,16.5,4.1,25.6c-0.9,3.4,1.3,5.7,2.5,8.3
		c0.9,1.8,2,0.6,3.1-0.4c3.5-2.9,6.5-2,6.8,2.4c0.2,4.3,3.3,8.1,1.9,12.7c-0.4,1.4,1.1,1.8,2,2.5c4.6,3.7,5.3,6.5,2.7,11.5
		c-0.5,1.1-1.4,2.1-0.1,3.1c1.2,1,2,0.1,3.1-0.6c3.8-2.4,6.2-1.2,6.7,3.3c0.1,1,0.2,2,0,3c-1.3,6-0.6,11.2,5.6,14.4
		c1.2,0.6,1.3,2.2,1.5,3.6c0.1,1.1-0.1,2.9,0.6,3.3c6.9,4.9,3.4,14.6,9.4,19.8c-22.3,0-44.7,0-67,0c-0.3-2-1.8-2.4-3.4-3.2
		c-5-2.6-5.2-5.1-1.3-8.8c2.3-2.2,2.2-4.8-0.6-6.2c-3.3-1.6-4.8-3.9-4.8-7.4c0-1-0.3-2.4-1.3-2.5c-5.9-0.7-6.5-6.1-8.6-10
		c-2.9-5.4-7.3-10.3-5.3-17.4c0.7-2.4-1.6-4.3-3.9-5.2c-2.4-0.9-3.3-2.7-4.7-4.7c-2.5-3.7-3.6-7.6-4.6-11.9
		c-1.4-5.8-1.6-12.7-8.7-15.6c-0.9-0.4-1.7-2.2-1.8-3.4c-0.4-7.8-7.4-12.9-8.2-20.5c-0.1-1.1-0.9-1.7-1.8-2.2
		c-4.7-2.8-5.8-7.4-6-12.4c-0.1-2,0.6-4.5-1.1-5.7c-4.8-3.4-7.3-7.9-7.2-13.7c-2.5,0.3-1,3.9-3.6,3.1c-1.7-0.5-3-2.1-2.9-3.8
		c0.6-7.3-2.2-14-3.1-21c-0.7-5.2-4.9-9-5.1-14.3c-0.1-1.2-1.8-1.9-3.2-1.9c-2.9,0-4.7-1.2-4.9-4.3c-0.1-1.4-1-2.5-2.1-3.2
		c-3.1-1.9-4.1-4.8-3.7-8.1c0.6-5,0.4-9.5-3.7-13.1c-1.5-1.3-1.3-3.7-1.4-5.7c-0.2-3.1-1.6-5.8-4.3-6.9c-7-2.7-8.3-8.8-9.5-14.9
		c-0.5-2.9-0.7-5.2-3.6-7c-3.2-1.9-5.5-4.5-3-9.1c1.1-2,1.7-6.3-2.8-6.2c-3.6,0-3.8-1.9-3.6-4.4c0.4-6.8-4.7-12.1-5.2-18.7
		c0-0.6-1.1-1.3-1.8-1.6c-4.3-2.3-5.9-6.1-6.2-10.6c-0.1-2.3-0.9-4.2-2.4-5.9c-5.4-6.1-11.4-11.7-13.3-20.1
		c-2.3-10.1-12.9-16.7-11.8-28.3c0.1-0.7-1.1-1.6-1.7-2.4c-0.9-1.2-2-2.3-2.6-3.6c-3.1-6-8.3-11.1-6.4-19c1.1-4.5-3.4-7-6.3-7.9
		c-5.8-1.7-6.4-6.5-7.9-10.5c-1.1-2.8-0.7-6.2-0.5-9.4c0.2-4.8-1.4-8.1-6.6-8.9c-3.3-0.5-5.3-2.5-6-5.9c-0.4-2.3-0.9-4.6-1.7-6.8
		c-1.3-3.4-0.7-7.7-3.4-10.2c-3.1-2.8-5.5-5.5-7.5-9.3c-4.7-8.7-4.9-18-5.9-27.2c-0.1-1.4,0.6-3.3-1.1-4c-1.9-0.8-2.5,1-3.2,2.3
		c-0.6,1-0.7,2.6-2.1,2.4c-1.6-0.2-1.8-1.8-2-3.1c-0.3-2-0.3-4-0.4-6c-0.1-1.7-0.5-3.1-2.1-4.2c-4-3-6.3-11-4.7-15.9
		c0.6-1.9,0.6-3.5-1.5-3.9c-3.3-0.6-5.4-1.4-3.4-5.5c0.8-1.6-1.5-1.6-2.8-1.8c-5.7-1-6.2-1.8-4.6-7.2c0.3-1.1,0.8-2.2,0.9-3.4
		c0.4-2.9,0.6-5.5-3.8-4.6c-2,0.4-4-0.5-3.5-2.9c1.6-8.4-0.9-15.5-6.1-22.1c-1.7-2.2-2.1-3.8-3.5-0.2c-0.3,0.8-0.7,1.6-1.7,1.5
		c-1.1-0.2-1-1.2-1.2-2c-0.4-1.6-0.6-3.3-1.2-4.9c-1.5-4.2,0.4-9.6-4.8-12.4c-0.9-0.5,0-1.7,0.5-2.6c2.7-4.8,1.4-7.3-4-8.2
		c-1.3-0.2-3.4,0.2-3.6-1c-0.9-4.6-5.2-8-4.8-12.9c0.6-6-0.8-10.4-7.3-12.3c-1.9-0.6-3.3-3.1-1.5-4.2c5.8-3.4-1.2-7.4,0.8-11.1
		c0.5-0.9-2.2-1-2.8,0.3c-2.2,4.7-4.8,2.6-7.6,0.8c14.9-13.1,30.9-24.8,48.3-34.4c1.4,0.9,1.2,2.6,1.9,3.8c1,1.7,3,0.9,4.6,0.9
		c1,0,1.9-0.5,2.2-1.7c0.4-2.1-2.2-1.8-2.7-3.2c1.3-1.4,2.8-0.1,4.2-0.4c2-0.4,3.1,0.9,3.6,2.7c0.4,1.7-0.3,3-2,3.5
		c-2.4,0.7-2.4,1.9-1.1,3.6c1.2,1.7,1.3,3.7,1.5,5.7c0.3,2.2,1.3,3.9,3.6,4.9c5.2,2.2,7.4,6.4,9.7,11.6c3.3,7.7,3.6,17,10.7,23
		c1.8,1.5,2.6,3.9,1.5,5.9c-1.5,2.8-0.2,3.9,1.8,5.2c4.5,2.7,7.1,6.4,6.6,11.9c-0.1,1.5-0.3,3.5,1.2,4.1c6.5,2.8,7,9.1,8.9,14.6
		c0.6,1.7,1.6,2.9,2.8,4.1c2.1,2.2,3.6,4.8,4.1,7.8c0.5,3.2,1.5,6,4.2,8.2c2.3,1.9,2.2,4.9,1.6,7.4c-0.9,3.2,0.1,5.4,3,6.4
		c5.5,2,6.2,7.5,8.9,11.5c0.3,0.5,0.5,1.6,0.2,1.9c-4,4-1.4,6.3,1.8,9c1.6,1.4,2,3.6-1.2,4.4c-1,0.2-2.1,0.6-1.6,1.9
		c0.3,0.9,1.3,1,2.1,0.8c5.1-0.9,6.2,2.8,7,6.5c0.3,1.4,0.1,3,0.3,4.5c0.3,2.5,0,4.7,3.9,5.4c3.3,0.5,5.9,3.7,7.8,6.7
		c1.7,2.6,2.2,5.6-1.3,7.7c-1.6,0.9-2.8,2.2-1.6,4c1.4,2.1,3.1,1.5,4.6,0.1c3.3-2.9,4.4-0.5,5,2.2c0.4,1.8,0.3,3.6,0.4,5.5
		c0.1,1,0,2.6,0.8,2.7c7.7,0.4,4.3,8.9,8.6,11.8c1.1,0.7,0.6,2.8-0.2,4.2c-2.3,4.4,0,6.9,3.9,7.7c4.8,1,6.8,4,7.5,8.2
		c0.5,2.9,1.4,5.4,3,7.8c0.6,0.9,1.3,2.3,1.1,3.2c-1,5,0.1,7.8,5.9,7.5c1.9-0.1,2.3,2.2,2.2,3.9c-0.3,3.9,1,7.5,1.9,11.3
		c0.5,1.9,1.3,3.2,2.9,4.3c4.1,2.9,4.7,7.6,1,10.9c-2.8,2.6-2.9,5.4-2.6,8.6c0.1,1.1,0.6,1.9,1.7,2.2c1,0.3,2.3,0.1,2.6-0.9
		c0.9-3.2,2.7-4.8,5.8-3.3c3.2,1.6,4.5,4.8,4.5,8.3c0,0.8-0.4,1.6-0.5,2.4c-0.4,3.6-2.2,7.2,3.5,9c3,0.9,2.5,4.7,2,7.6
		c-0.3,1.5-1.1,2.8-1.4,4.2c-0.3,1.4-1,3.4,0.8,3.9c1.8,0.5,1.6-1.6,2-2.8c0.4-1.6,1.5-2.1,3-2c1.9,0.2,3.4,1.2,3.6,3
		c0.7,7.5,5.3,14,5.4,21.6c0,3.9,3.5,4.3,6,4.9c3.9,0.9,4.8,2.9,5.1,6.6c0.5,6-0.5,12.7,5.9,17c1.9,1.3,1.3,4.9,2.8,7.3
		c1.5,2.2,2.4,4.6,4.9,6.1c2.2,1.3,3,3.8,2.9,6.1c-0.1,3.9,1.4,6.6,4.3,8.9c3,2.3,3.9,5.7,3.9,9.3c-0.1,4.4,1.2,8.1,5,10.8
		c1.3,0.9,2.7,2.4,3,3.9c0.9,4.6,1.8,8.7,7.2,10.2c1.9,0.5,1.6,3,1.1,4.9c-0.9,3.5-0.2,6.2,3.6,7.6c2.3,0.9,3.2,2.7,3.1,5.1
		c-0.2,4.6,1.7,8,5,11.4c3.3,3.4,3.6,8.7,4,13.5C781,719.6,780.9,720.8,781,721.9c-1.3,0.2-2.7,0.3-2.7,2.1c0,0.7,0.5,1.3,1.2,1.1
		C780.7,724.8,780.8,723.5,781,721.9z"/>
	<path class="st4" d="M487.7,271.6c2.7,1.8,5.4,3.8,7.6-0.8c0.6-1.3,3.3-1.2,2.8-0.3c-2,3.7,5,7.7-0.8,11.1
		c-1.8,1.1-0.4,3.6,1.5,4.2c6.4,1.9,7.8,6.3,7.3,12.3c-0.5,5,3.8,8.3,4.8,12.9c0.3,1.2,2.3,0.8,3.6,1c5.5,0.9,6.7,3.3,4,8.2
		c-0.5,0.9-1.4,2.1-0.5,2.6c5.3,2.8,3.4,8.3,4.8,12.4c0.6,1.6,0.8,3.2,1.2,4.9c0.2,0.8,0.1,1.8,1.2,2c1,0.2,1.4-0.7,1.7-1.5
		c1.4-3.6,1.8-2,3.5,0.2c5.2,6.6,7.6,13.7,6.1,22.1c-0.5,2.4,1.6,3.3,3.5,2.9c4.4-0.9,4.2,1.8,3.8,4.6c-0.2,1.1-0.6,2.2-0.9,3.4
		c-1.5,5.4-1,6.2,4.6,7.2c1.2,0.2,3.5,0.2,2.8,1.8c-1.9,4.1,0.1,4.8,3.4,5.5c2.1,0.4,2.1,2,1.5,3.9c-1.6,4.9,0.7,12.9,4.7,15.9
		c1.6,1.2,2,2.5,2.1,4.2c0.1,2,0.1,4,0.4,6c0.2,1.2,0.4,2.9,2,3.1c1.4,0.1,1.6-1.5,2.1-2.4c0.7-1.3,1.3-3.1,3.2-2.3
		c1.7,0.7,1,2.6,1.1,4c1,9.3,1.2,18.6,5.9,27.2c2,3.8,4.4,6.5,7.5,9.3c2.8,2.5,2.2,6.8,3.4,10.2c0.8,2.2,1.3,4.5,1.7,6.8
		c0.6,3.4,2.7,5.3,6,5.9c5.2,0.8,6.8,4.1,6.6,8.9c-0.1,3.1-0.6,6.6,0.5,9.4c1.6,4,2.2,8.8,7.9,10.5c2.9,0.8,7.4,3.4,6.3,7.9
		c-1.9,7.9,3.2,13,6.4,19c0.7,1.3,1.8,2.4,2.6,3.6c0.6,0.8,1.7,1.7,1.7,2.4c-1.1,11.6,9.5,18.2,11.8,28.3
		c1.9,8.4,7.9,14.1,13.3,20.1c1.5,1.7,2.2,3.6,2.4,5.9c0.3,4.5,1.8,8.4,6.2,10.6c0.7,0.4,1.7,1,1.8,1.6c0.5,6.6,5.6,11.9,5.2,18.7
		c-0.2,2.5,0,4.4,3.6,4.4c4.6,0,3.9,4.2,2.8,6.2c-2.4,4.6-0.2,7.1,3,9.1c2.9,1.8,3,4.1,3.6,7c1.1,6.1,2.4,12.2,9.5,14.9
		c2.8,1,4.1,3.8,4.3,6.9c0.1,2-0.1,4.3,1.4,5.7c4.1,3.7,4.4,8.2,3.7,13.1c-0.4,3.3,0.5,6.3,3.7,8.1c1.2,0.7,2,1.8,2.1,3.2
		c0.2,3.2,2,4.3,4.9,4.3c1.4,0,3.2,0.7,3.2,1.9c0.2,5.3,4.4,9.1,5.1,14.3c0.9,7,3.7,13.7,3.1,21c-0.1,1.7,1.2,3.2,2.9,3.8
		c2.6,0.8,1.1-2.8,3.6-3.1c-0.1,5.8,2.4,10.3,7.2,13.7c1.7,1.2,1.1,3.7,1.1,5.7c0.2,5,1.3,9.6,6,12.4c0.9,0.5,1.7,1.1,1.8,2.2
		c0.8,7.6,7.9,12.7,8.2,20.5c0.1,1.2,0.9,3,1.8,3.4c7.1,2.9,7.3,9.8,8.7,15.6c1,4.3,2.1,8.2,4.6,11.9c1.3,2,2.3,3.8,4.7,4.7
		c2.3,0.8,4.6,2.8,3.9,5.2c-2,7.1,2.4,12.1,5.3,17.4c2.1,3.9,2.6,9.2,8.6,10c0.9,0.1,1.2,1.5,1.3,2.5c0.1,3.5,1.6,5.8,4.8,7.4
		c2.7,1.4,2.9,4,0.6,6.2c-3.9,3.7-3.6,6.2,1.3,8.8c1.5,0.8,3.1,1.3,3.4,3.2c-22.7,0-45.3,0-68,0c0-2,0.3-4.1-0.1-6
		c-0.8-3.7,0.6-8.6-2.2-10.9c-3-2.4-4.3-5.4-6.3-8.3c-2.1-3.3-3.6-6.9-6.1-10c-2-2.4-5.3-5.8-3.4-9.8c1.7-3.7-0.2-4.9-3-5.7
		c-1.9-0.5-3.7-1.1-3.7-3.4c-0.1-2.8-1.2-5.2-2.1-7.6c-2.6-6.4-2.3-14.4-10-18.1c-1.7-0.8-1.9-3.4-2-5.4c-0.2-9.3-3.3-17.3-11-23.2
		c-2-1.5-3-3.8-4.2-6.1c-2.9-5.8-1.4-13.8-8.9-17.3c-1.1-0.5-0.9-2.4-1-3.7c-0.5-5.3-0.9-10.7-7.1-13c-1.6-0.6-2.1-2.2-1.8-3.8
		c1.1-6.2-2.5-10.9-5.1-15.8c-1-1.9-2.3-3.8-2.4-5.9c-0.5-7.2-8-11.2-8.5-18.5c0-0.5-0.9-0.9-1.4-1.4c-3.5-3.5-5.8-7.4-5.7-12.8
		c0-5.9-2.4-8.3-8.1-9.2c-2.1-0.3-3.1-1.2-3.7-3.3c-2.3-8.7-1.9-18.4-9.5-25.1c-0.1-0.1-0.2-0.3-0.2-0.5c0-7.1-3.7-13.2-5.5-19.9
		c-1.1-4-1.7-7.8-7-7.9c-1,0-2.6-0.7-3-1.5c-2.7-5.7-6.2-11.1-6.8-17.5c-0.7-7.3-3.1-13.8-8.3-19c-2-2.1-3.6-4.3-3.8-7.3
		c-0.1-1.1-0.3-2.7-1.1-3.2c-4.5-3.2-6.5-7.4-6.1-12.8c0.1-0.9-0.7-1.8-1.2-2.7c-3.1-5.4-4.5-11.6-7.3-17.1c-1.5-2.9-2.7-4.7-5.8-5
		c-1.7-0.2-3.3-0.3-4.2-2.1c-3.3-7.1-0.8-15.9-6.3-22.4c-0.2-0.2-0.1-0.7,0-1c0.3-3.5-1-5.8-4.7-6.5c-2.1-0.4-3.1-1.6-3.3-3.7
		c-0.7-7.6-4.2-14.5-7.4-21.1c-2-4.2-4-8.2-4.7-12.8c-0.3-1.8-0.9-3.6-2.7-3.9c-3.5-0.6-4.6-2.6-4.4-5.9c0.1-1.1-0.5-2.2-1.1-3.2
		c-3.1-5.3-7.5-10-7.5-16.7c0-2.1-1.4-4-3.3-5.4c-1.9-1.4-3.8-3.3-3.7-5.7c0.2-5.7-3.1-9.2-6.6-12.8c-0.9-0.9-2-2.1-2.1-3.3
		c-0.9-5.8-4.5-10.8-4.6-16.8c0-1-0.4-2.1-1.4-2.5c-4-1.4-4.6-4.9-5.7-8.2c-0.7-2-1.2-4.1-3.3-5.4c-5.3-3.2-6-8.5-5.8-13.9
		c0.1-2.6-0.1-4.5-2.5-5.8c-0.8-0.4-1.9-1.5-1.8-2.2c0.9-6.2-2.7-9.2-7.5-11.5c-1-0.5-2.1-1.6-2.2-2.6c-0.8-5.3-4.7-9.2-6.2-14.4
		c-2-6.8-7.3-12.9-1.7-20.7c-4.2,1.5-6.4,4.5-9.2,6.7c-2.4,1.9-4.2,2-4.7-1.7c0.3-0.2,0.5-0.5,0.8-0.7c3.4-0.1,5.4-1.5,5.1-5.2
		c3.9-0.1,5.6-2.4,6-6l0,0.1c0.4-0.4,0.7-0.8,1.1-1.2l-0.1,0.1c0.3-0.4,0.7-0.8,1-1.2c0,0,0,0,0,0c0.4-0.3,0.8-0.6,1.2-0.9l-0.1,0.2
		c0.4-0.5,0.8-0.9,1.2-1.4c6.1-6.7,12.7-13,20-18.5c0.9-0.2,1.6-0.6,1.9-1.5l-0.2,0.1c2.4,0.6,4.8,1.3,7.2,1.9
		c0.9,0.2,2.2,0.6,2.5-0.7c0.3-1.4-1-1.6-1.9-1.7c-3-0.2-3-1.4-1.1-3.3c0.8-0.8,1.5-1.8,1.4-3.1L487.7,271.6z"/>
	<path class="st5" d="M664,898.9c-21.7,0-43.3,0-65,0c-3-6.4-7.4-12-10.5-18.4c-1.6-3.4-4.9-5.9-4.8-10.3c0-2.4-1.7-4.5-3.8-5.6
		c-3.5-1.7-3.4-4.5-4.1-7.7c-1.5-6.8-1.8-14.7-10.2-17.8c-3.1-1.1-4.1-3.7-3.2-6.9c0.9-3.1-0.2-5.3-1.7-8.2
		c-2.5-4.8-6.6-9.1-7.5-14.3c-1.4-7.2-6.5-12.5-8.5-19.1c-1.9-6.1-7.1-10.9-6.9-17.9c0.1-3-2.2-4.8-5.1-5.3c-4-0.7-5.4-2.7-4.2-6.7
		c1.1-3.7-0.1-6.6-3.6-8.3c-2.9-1.4-4.1-3.6-3.9-6.8c0.3-4.1-1.3-7.5-4.2-10.3c-6.2-5.9-7.6-14-9.8-21.7c-1-3.5-0.6-7.8-4.1-9.9
		c-8.4-5-8.6-14.3-11.9-21.9c-1.8-4.1-1.2-9.4-6.6-11.4c-0.6-0.2-1.1-1.3-1.3-2c-2.5-8.7-9.1-15.7-10.3-25c-0.2-1.4-1.1-2.4-2.3-3.1
		c-2.2-1.3-2.8-3.4-3.9-5.5c-2.2-4-1.1-9.5-4.2-12.5c-5.7-5.5-4.6-14.7-11.6-19.2c-0.1-0.1-0.1-0.3-0.1-0.5c-1.4-3.3-2.3-7-4.4-9.8
		c-4.8-6.5-8.3-13.1-6.8-21.5c0.3-1.5-0.2-2.6-1.2-3.6c-2.7-2.5-5.2-5-8.1-7.2c-1.9-1.4-3-3-3.2-5.3c-0.3-3.5-0.8-6.9-1-10.4
		c-0.2-3.1-1.4-5.5-4.5-6.5c-3-0.9-4.1-3.1-4.5-5.9c-0.5-3.3-1.4-6.4-3.6-9.1c-1.4-1.6-2.3-3.7-2.3-6c0-2.9-1.5-4.6-3.9-5.8
		c-3-1.5-5.3-3.6-5.9-7c-1-5.5-2.9-10.9-2.3-16.7c0.4-3.8-1.4-6.3-5.4-7c-2.4-0.5-5.3-0.9-6.1-3.7c-1-3.8-2.3-7.8-3.8-11.2
		c-2.4-5.5-6-10.3-5.4-16.7c0-0.2-0.4-0.6-0.6-0.7c-1.8-1.2-2.5-3-2.7-5.1c-1.1-7.8-7.4-12-12.1-17.3c-1-1.1-2.8-1.5-4.2-0.9
		c-3,1.3-7.5-0.2-9,4.5c-0.3,1-2.5,1.4-3.8,2.1c4.8-7.8,10.4-15,16.2-22c4.4-3.6,11.5-5.1,10-13.2c1-1.3,2-2.5,3-3.8
		c10.3-14.2,21.3-27.9,33.2-40.9c0.3,2.7-1.3,4.4-3,6c-2.1,2-3.7,4.3-4,7.6c1.6-0.2,1.8-1.4,2.5-2c1.7-1.5,3.4-5.2,5.6-3.3
		c1.6,1.3-2,3.1-3.1,4.8c-0.1,0.1-0.2,0.2-0.3,0.4c-0.9,1-1.8,2.1-0.7,3.5c1.1,1.3,2.4,0.9,3.7,0.3c1.5-0.7,3-1.6,4.5-2.3
		c-2.7,5.1,0.8,8.9,1.6,13.1c1.8,9.2,4.4,18,9,26.1c2.1,3.6,1.6,8.9,6.7,10.5c3.4,1.1,4.8,3.2,4.6,6.7c-0.1,1.7,0.4,3.3,1.3,4.7
		c2.1,3.3,2.9,7.1,2.7,11c-0.2,3.8,0.9,6.7,4.2,9c3.2,2.3,5.5,5.2,4.2,9.8c-0.7,2.5,1,4.5,3.3,5.6c3.1,1.4,4.2,3.7,4.4,7.1
		c0.3,4.3,0.7,8.8,5.8,10.7c1.8,0.7,2.1,2.5,2.1,4.2c0,2.2,0.1,4.9,1.5,6.2c4.6,4.2,5.8,10.5,9.7,14.9c4,4.6,6.4,9.2,5.8,15.2
		c-0.3,3,1.2,5.1,3.3,7.4c5.9,6.4,6.4,15.8,11.6,22.6c0.3,0.4,0.1,1.3,0.1,2c-0.2,3.5,0.8,6.2,4.5,7.4c2.4,0.8,2.3,2.9,2.5,4.9
		c0.5,4.6-0.2,10,6.8,10.8c0.9,0.1,1.7,1.5,2.5,2.3c4.7,4.6,4.3,10.7,4.5,16.3c0.2,6.3,3.7,10,8.1,12.7c3.1,1.9,4.3,3.7,4.1,7
		c-0.3,4.1,0.5,7.6,4.3,9.9c2,1.2,2.8,3.3,2.6,5.6c-0.3,4.6,1.1,8.2,5.5,10.2c1.7,0.7,2.3,2.2,2.5,4c0.4,2.8,1.4,5.6,1.4,8.3
		c0.2,7,3.4,11.5,10.1,13.7c2.4,0.8,4,2.7,2.6,5.5c-1.7,3.3-1,6.1,1.4,8.7c1.2,1.3,1.7,3,1.4,4.7c-0.9,5.6,1.7,9,6.4,11.6
		c2.6,1.4,3.5,3.8,4.1,7.2c0.9,4.8,4.8,9,5.9,14.2c0.1,0.4,0.7,0.8,1.2,0.9c3.9,1,4.3,3.7,4.5,7.2c0.2,4.3,0.1,9.3,6.5,9.9
		c1.3,0.1,2.2,1.7,2.2,3.1c0,3.6,1.7,6.3,4,8.9c0.6,0.7,1.1,1.8,1,2.7c-0.2,6.8,3.7,12.6,4.4,19.2c0.3,3,2.3,5.5,5.1,7.1
		c2.4,1.3,3.3,3.2,3.8,6c0.8,4.9,4.9,8.9,4.7,14.3c0,0.5,0.8,1.1,1.3,1.4c6.9,3.5,8,10,8.8,16.6c0.5,4.1,1.4,7.1,5.7,8.9
		c3.3,1.4,5.8,4.4,6.3,8.5c0.8,6.7,5.2,12.3,4.8,19.5c-0.1,2,2.4,4.2,3.8,6.3c0.6,1,1.6,1.8,2.1,2.8c3.6,7.1,4.4,15.9,12.4,20.4
		c0.7,0.4,0.8,2.1,0.9,3.2c0.1,2.2,0.7,4.3,2,6.1C663.7,893.6,664.1,896.2,664,898.9z"/>
	<path class="st6" d="M753.8,488.8c-3.2-2.2-3.1-8.2-9-7.5c-1.3,0.2-1.8-2.2-1.8-3.8c0-5.3-2.3-9.1-6.3-12.4c-2.4-2-4.4-4.5-6.5-6.8
		c-1.7-1.9-1.1-3.6,0.6-5.2c2.5-2.5,3.2-4.8-1.1-6.3c-0.7-0.2-1.7-1-1.8-1.5c-0.5-5.6-4.3-9.1-7.6-13.1c-1.5-1.8-1.3-4-0.8-6.2
		c0.9-3.3,0-5.6-3.8-6.1c-3.2-0.4-4.1-2.7-3.7-5.5c0.9-5.4-4.4-8.4-5-13.2c-0.1-0.5-1.6-1-2.6-1.2c-2.7-0.4-3.4-2.3-4.7-4.5
		c-3.2-5.3-3.3-11.1-4.4-16.9c-0.7-3.7-3.2-7.7-5.8-11.1c-2.8-3.7-4.4-8.5-9.5-10c-0.4-0.1-0.9-1.2-0.8-1.7c0.8-6.2-3-11.4-3.6-17.4
		c-0.5-4.6-2.3-9.2-8.1-10.7c-3.5-0.9-4.1-3.4-1.7-6.5c4.8-6.3,2.5-12.1-5.1-13.2c-4.5-0.7-6.1-3.7-3.6-8c2-3.5,1.9-5.1-2.3-6.5
		c-2.7-0.9-5.2-2.6-3.3-6.7c1.3-2.9,0.6-5.8-3.5-6.8c-4.2-1-5.1-3.6-2.9-7.5c0.9-1.7,2.5-3.5-0.4-4.2c-4.8-1.2-5.4-4.9-5.7-8.8
		c-0.2-2.6-0.8-5.2-2.9-6.7c-4.9-3.5-7.9-8.7-11.5-13.3c-1.7-2.1-1.8-4.2-0.6-6.5c1.3-2.4,1-4.4-1.4-6.1c-0.8-0.6-1.8-1.4-1.9-2.2
		c-0.7-6.3-3.7-8.8-10-6.9c-0.7,0.2-1.6,0-1.6-1.2c0-3-0.1-2.9-3.3-2.8c-3,0.2-6,0-9,0c3.1-2.1,6.9-1.8,10.3-2.1
		c39.7-3.9,73.3,8,98.5,39.9c17.8,22.6,27.3,48.9,33.4,76.7c2.5,11.5,4.8,23.1,5,35c0,7.6-0.1,15.2,0,22.9c0,0.6-1.4,3.7,1.7,1.7
		c3.9,19.2,15.3,31.3,34.3,36.3c-1.7,2.1,0.4,1.6,1.2,1.6c4.5,0.1,9,0.1,13.5,0c2.4,0,4.2,0.3,5.8,2.7c1.4,2.1,4.2,5,6.9,3.6
		c1.9-1,4.7-3.2,3.6-7.1c-0.6-2.1,2.1-4.3,4.4-4.7c2.4-0.4,5.1,0.5,6.6,2.6c1.3,1.8-0.8,2.9-2,4c-1.2,1.1-3.2,1.7-2.6,3.8
		c0.6,2.1,2.5,1.8,4.1,2c3.7,0.5,9.1,7.5,9.4,12.4c0.1,2.5,0.1,5,0,7.5c-0.1,3.4,0.5,6.2,4.3,7.4c3.5,1.2,2.7,3.4,0.6,5.2
		c-3.5,3-5.4,6.6-4.9,11.4c0.2,2.4,0.6,4,3.5,3.2c4.3-1.2,8.4,0,12.7,0.8c3.5,0.7,4.9,2.4,4.9,5.7c0,1.5,0.2,3-0.1,4.5
		c-1,4.9-1.6,9,5.2,10.6c3,0.7,1.9,4.5,1.4,7.1c-1.3,5.8-1.3,5.9,4.2,5.5c3-0.2,4.1,1.5,4.1,3.8c0.1,4.7,0.7,8.8,3.9,12.8
		c2.4,3,2.5,7.7,3.8,11.6c1.7,5.1,3.7,9.9,7.4,13.8c2,2.1,1.2,4.2,1.1,6.5c-0.1,3.6-0.3,7.4,5.4,6.5c3-0.5,3.5,1.8,3.5,4.2
		c-0.1,7.4-0.1,7.4,7.1,7.5c0,69,0,138,0,207c-4.1-1.7-7.1-4.3-7-9.2c0-2-1.1-3.5-2.1-5c-1.7-2.4-2.7-5-2.9-7.9
		c-0.1-2.7-1.2-4.9-4-5.7c-3.9-1.3-4.5-4.1-3.7-7.5c0.7-3,0.9-5.9,0-8.9c-0.5-1.6-1.1-3.4-3-3.6c-3.8-0.3-4.5-2.7-4.4-5.9
		c0.2-5.1-4.1-8.4-5.5-13c-0.6-1.9-2.5-3.4-2.7-5.7c-0.1-1.2-0.9-2.3-2.3-2.1c-1.2,0.2-1.3,1.3-1.5,2.3c-0.3,1.5,0,4-2.5,3.2
		c-1.9-0.5-1.9-3-1.2-4.3c1.9-3.6,0.8-5.8-2.3-7.8c-0.7-0.5-1.3-1.6-1.4-2.5c-0.8-6.6-4.2-11.9-7.6-17.3c-1.2-1.9-0.8-3.8-0.5-5.8
		c0.8-5-0.7-6.5-5.6-5.8c-1.3,0.2-2.7,0.5-4,0.4c-2.2-0.2-3-0.9-1.4-3.2c4.1-5.6,2.8-11.6-0.8-17.4c-2.5-4-6.6-7.5-6.7-12.9
		c0-1.9-1-2.8-2.7-3.7c-3.3-1.6-5.9-3.8-6-8.3c-0.1-3-1.7-6.3-4.1-8.4c-4.1-3.6-5.4-7.9-5.7-13.2c-0.3-6.5-2.7-12.5-6.7-17.7
		c-1-1.3-0.8-2.8-1-4.3c-0.4-3.4-0.9-6.5-5.4-7.1c-2.7-0.4-5.3-3.2-5.6-5.1c-0.9-4.4-5.1-7.1-5.1-11.6c0-1-0.7-1.7-1.6-2.4
		c-2.8-2.2-5.6-4.5-8.3-6.7c14.1,5.2,27.3,2.8,39.6-5.3c0.7-0.5,1.5-0.7,2.3-0.5c3.6-3.8,9.7-5.5,10-12l0,0c1.7-0.4,2-1.7,2-3.2
		c0.5-1.4,0.9-2.8,1.4-4.2c9.7-24.5-6.3-51.5-30.1-56.7C780.6,467.8,765.4,473.9,753.8,488.8z M622.5,217.2c3.4,0.7,3.4,0.7,5.4-0.8
		C626.1,216.2,624.6,215.6,622.5,217.2z M756.1,469.3c0.8,0,1.2-0.4,1.4-1c0.2-0.7,0.1-1.4-0.7-1.4c-0.5,0-1.1,0.5-1.4,1
		C755.1,468.4,755.3,469,756.1,469.3z"/>
	<path class="st7" d="M105.2,698c-3,1.5-2.6-1.2-3-2.6c-1.8-6.4-2.2-13-2.5-19.6c-0.1-2.1,1-3.3,1.6-5.1c-2.2-0.3-4.7-0.3-4.9-3.2
		c-0.2-3,2.5-2.8,4.2-3.2c2.5-0.7,3.6-2,3.5-4.6c-0.1-2.7,0-5.3,0-8c0-1.2,0-2.9-1.1-3.1c-4.2-0.6-4-4-5.5-6.8
		c-2-3.8-3.4,1.2-5.6,2.2c-1.5-2.8-0.6-5.8-0.8-8.6c-0.1-2.8,0.4-5.8-1.5-8.2c-3.5-4.6-4-9.7-3.6-15.1c0.2-3-0.1-5.6-3.7-6.7
		c-2.8-0.9-3.5-3.5-3.3-6.1c0.4-5.1-2.2-8.2-6.6-10c-4.8-1.9-7.3-4.4-6.8-10.4c0.4-5,0.4-11.3-6.2-14c-0.8-0.3-1.9-1.5-1.8-2.2
		c0.4-5.9-3.1-10.7-4.9-15.8c-1.8-5.2-3.4-10.9-9.8-13.5c-4.6-1.9-4.4-6.8-3.7-10.9c0.7-3.9,0.8-7-3.5-8.6c-0.8-0.3-1.7-1.1-1.3-1.9
		c2.2-5.4-1.8-8.4-4.9-10.9c-5.1-4.1-6.5-10.5-7.7-15.6c-1.8-7.4-6.4-12.6-9.5-18.8c-2.5-5.2-4.8-10.7-6.1-16.4
		c-0.9-3.8-2.3-5.6-6.2-5.5c0-82.6,0-165.3,0-247.9c3.8-0.3,5.5,1.7,5.9,5.2c0.2,1.3-0.1,3.1,1.1,3.7c4.8,2.5,4.1,6.8,3.9,10.9
		c-0.1,3.3,0.6,5.8,4,7.2c3,1.4,4.6,4,4,7.3c-0.8,5,3.7,8.4,3.6,13.2c0,1.2,1.7,1.3,2.9,1.4c3.6,0.1,4.4,2.3,4.5,5.3
		c0.1,2.3-0.7,4.9,1,6.8c2.5,2.8,4.6,5.6,4.2,9.7c-0.1,1.5,1.1,2.6,2.5,2.8c6.2,0.9,5.8,4.7,4.3,9.2c-0.6,1.9-0.9,4.2,1.2,4.7
		c7.7,2,6.9,8.5,7.8,14.1c0.4,2.9,0.4,6,3,7.6c6,3.9,5.9,10.4,7,16.2c0.5,3,1.2,5.1,3.7,7.1c5.5,4.3,9.1,9.4,9.8,17.1
		c0.8,9.3,6.3,17.2,12.3,24.1c3.8,4.3,4.2,11.3,10.8,13.3c0.4,0.1,0.5,1.5,0.6,2.3c0.7,9.6,3.7,18.3,9.8,25.8
		c1.2,1.5,1.7,3.2,2.5,4.8c2.1,3.9,2.7,9.1,6.3,11.6c6.3,4.4,6.6,4,5.1,11.8c-0.4,2.1-0.1,3.5,2,4.5c6.9,3.2,7.2,4.4,2.8,10.2
		c-1.4,1.8-2.3,4.3,0.8,4.3c6.6-0.1,6.7,4,6.7,8.6c0,2.2,0,4.3,0.1,6.5c0.1,1.4,0.4,3.1,2,2.9c5.6-0.7,4.8,3.1,4.9,6.4
		c0.1,2.9,1,4.6,4.3,3.2c1.2-0.6,2.6-1.1,3.7,0.2c1.2,1.5,0.2,3-0.8,4c-2.5,2.5-1.8,4.2,1,5.8c3.1,1.8,4.8,4.7,4.7,8.3
		c-0.2,4.1,1.6,6.6,5.4,7.9c3,1,3.8,3.6,3.5,6.5c-0.3,2.3-0.9,4.5-2.1,6.6c-0.8,1.5-1.4,3.5,0,4.6c1.5,1.1,2.3-1.4,3.7-1.7
		c0.3-0.1,0.6,0.1,1,0.1c1,2.8-1.2,4.7-1.9,6.9c-1.8,5.5-0.3,7.6,5.5,8c0,0.4,0,0.9,0,1.3c-2.2,5.7-5.6,10.7-8.5,16
		c-15.1,27.5-30.1,55.1-44.8,82.8c-4.5,8.4-8.8,17-12,26C100.5,679.3,102.4,688.8,105.2,698z M101.3,640.7c-0.1,0-0.3,0-0.4,0
		c0.1,0.2,0.1,0.4,0.2,0.6c0.1-0.1,0.3-0.1,0.3-0.2C101.4,640.9,101.3,640.8,101.3,640.7z"/>
	<path class="st8" d="M0.1,91.1C0.1,62.1,0.2,33,0,4c0-3.6,0.9-4.2,4.2-4c5,0.3,9.9,0.1,14.9,0.1c0.2,1.3,0,2.9,0.6,3.9
		c2.3,3.5,2.7,7.1,2.8,11.2c0.3,8.7,1.8,9.8,10.8,12.1c0.3,0.1,0.7,0.1,1,0.2c1.3,0.5,2.4,1.2,2.4,2.8c0,1.3-0.8,2.2-2,2.6
		c-2,0.6-4,1.3-3.4,4c0.5,2.3,2.2,3.6,4.5,4.2c5.8,1.5,6.7,2.9,5.7,8.6c-0.3,1.9-0.8,3.6,0.9,5.1c2.1,1.9,4,3.9,6.1,5.8
		c2.1,1.8,2.7,3.1-0.8,3.8c-1.7,0.3-2.7,1.6-2.4,3.3c0.4,2,2.1,1,3.3,0.9c1.1-0.1,2,0.1,2.5,1.2c0.7,1.4-0.3,2-1.2,2.9
		c-3.2,3.4-2.7,5.7,1.9,6.2c4.4,0.5,5.1,2.6,4.9,6.3c-0.2,4.5-0.7,9.1,4.3,11.8c0.8,0.4,1.5,2.1,1.4,3c-1.2,8.7,5.1,14.2,10.6,17.7
		c8.5,5.5,7.4,13.6,7.9,20.7c0.4,5.6,2.1,7.8,6.8,9c3.2,0.8,4.6,2.6,2.7,5.8c-1.1,1.9-1.3,4.1,0.5,5.5c3.1,2.5,3.6,5.6,3.9,9.2
		c0.4,5.4,3.1,8.3,6.8,8.2c4.7-0.1,6,1.7,4.6,6.2c-0.4,1.4-1.3,2.8-1.4,4.2c-0.2,2,0.2,4.2,2.2,5.2c2.2,1.1,3.3-0.6,4.2-2.3
		c0.7-1.2,1.7-2.1,3.3-1.6c1,0.3,1.7,1,1.8,2.1c0.1,1.5-0.7,2.6-2.1,3c-2,0.6-3.1,1.7-3.3,3.8c-1.1,8.7,7.9,11.6,10.3,18.2
		c0.1,0.3,1.1,0.2,1.4,0.5c2.6,2.8,7.4,4.4,7.3,8.6c-0.1,3.9,1.7,6.9,4,8.6c4,3.2,3.7,5.7,1.6,9.7c-2.9,5.6,1.2,13.8,6.5,13.4
		c4.9-0.4,4.9,2.1,4.6,5.3c-0.1,1.6-0.8,3.2-1,4.9c-0.5,5.2-1.9,10.6,4,14c0.8,0.5,1.4,1.5,1.6,2.4c0.5,2.8,2.3,4.3,4.7,5.3
		c1.6,0.7,2.8,1.7,3.7,3.2c2.9,5,9.9,7.6,8.9,15c-0.1,0.5,0.7,1.1,1.2,1.6c2.3,2.3,2.3,4.2-0.6,6c-2.4,1.6-2.7,3.9,0.1,4.9
		c4.5,1.6,5.3,4.6,5.8,8.8c0.7,5.9,3.4,8.1,8.9,8.4c2.3,0.1,2.7,1.6,2.8,3.3c0.1,2.9,0.7,5.6,2.3,8c1.7,2.5,2.4,4.9-1.3,6.4
		c-1.6,0.7-2.1,2.1-1.6,3.7c0.4,1.3,1.4,1.6,2.7,1.7c6.8,0.4,8.4,2.4,8.1,9.5c0,0.9,0,2.2,0.6,2.8c2.6,2.5,3,5.7,3.5,9
		c0.5,3.3,2.3,5.4,5.8,2.6c0.8-0.6,1.6-1.4,2.6-0.7c1.2,0.9,0.6,2.1,0.2,3.2c-0.2,0.6-0.5,1.2-0.7,1.9c-1,5.3-2.9,10.7,4,14
		c2.6,1.3,3.1,4.1,2.2,7c-1.1,3.4-0.1,5.8,3.3,7.2c2.6,1,3.7,3.3,4.1,5.9c1.2,7.3,3.2,14.1,10.5,17.9c1.2-2.2,2.2-4.9,5.5-4.9
		c-7.3,11.4-14.5,22.7-21.8,34.1c-3.7,5.7-7.6,11.3-11.3,17.1c-6.6,10.7-13.1,21.4-19.6,32.2c-0.2-2.2,0-4.1,1.4-6.1
		c4-5.9,7.7-12,11.5-18c1.5-2.4,1-5.4-1.7-5.5c-3.7-0.3-4.2-3-4.5-4.9c-0.8-4.9-2.2-9.7-4-14.3c-2.1-5.5-2.1-12.3-8.3-15.8
		c-4.3-2.4-6.6-6-6.5-11c0-3.7-1.5-6.8-4.4-8.5c-4.3-2.5-6.5-5.7-7-10.6c-0.2-2.2-1.1-4.7-2.5-6.5c-2.7-3.5-5.2-6.8-2.3-11.4
		c0.3-0.5,0.1-1.9-0.4-2.3c-3.2-2.9-3.1-9.6-9.9-8.8c-1.6,0.2-2.9-1.5-2.9-2.9c-0.1-5.3-3.4-9.8-3.5-15c-0.1-7-4.7-12.6-5.7-19.3
		c-0.2-1.3-2.1-2.4-3.4-3.5c-3.4-2.8-5.8-6.6-6.7-10.7c-0.9-4.2-1.4-8.2-5.8-10.3c-0.9-0.5-1.5-1.5-1.4-2.5
		c0.9-7.6-4.9-11.7-8.4-17.1c-3.6-5.5-9.2-10.4-7.8-18.2c0.3-1.7-0.4-3.4-2.1-4.2c-5.7-2.4-7.4-8.4-8.2-12.9
		c-1.4-8.1-9.2-13.1-8.9-21.6c0-0.4-0.5-0.8-0.9-1.2c-2.1-2.2-2.8-4.7-2-7.8c0.9-3.4-0.4-5.6-3.7-7.6c-4.3-2.6-8.3-6.3-8.8-11.9
		c-0.3-3.1-1.6-5.4-3.9-7.2c-2.4-1.8-3.6-4.2-4.5-6.9c-2.9-8.6-5.1-17.4-10.2-25.1c-4.6-7-7.1-15-8.3-23.2c-0.6-3.9-1.7-6.3-5.8-6.6
		c-1.9-0.2-3.7-1.2-3.2-3.1c1.7-6.9-4.4-8.7-8-11.5c-5.7-4.3-7.2-6.4-5.8-13.8c1-5.1,0.6-10.3,0.5-15.4c-0.1-2.7-0.8-5.9-3.4-6.9
		c-5.4-2-9.9-5.1-14.5-8.3c0-2,0-4,0-6c0.4-0.3,1.1-0.4,1.2-0.8C1.5,91.5,0.7,91.3,0.1,91.1z M230.2,439.5c-0.3-1.3-1.1-2.1-2.4-2
		c-1.3,0-1.6,1-1.6,2.1c0,1,0.3,2,1.6,2C229.1,441.6,229.9,440.8,230.2,439.5z M227.4,448.9c-0.1-0.1-0.2-0.2-0.3-0.3
		c-0.1,0.2-0.2,0.4-0.3,0.6c0.1,0,0.3,0.1,0.4,0C227.3,449.2,227.3,449,227.4,448.9z"/>
	<path class="st9" d="M441.8,314.6c0.4,3.7,2.3,3.6,4.7,1.7c2.8-2.2,5-5.2,9.2-6.7c-5.6,7.8-0.3,13.8,1.7,20.7
		c1.5,5.2,5.4,9.1,6.2,14.4c0.2,1,1.3,2.1,2.2,2.6c4.9,2.4,8.5,5.4,7.5,11.5c-0.1,0.6,1,1.8,1.8,2.2c2.5,1.3,2.6,3.2,2.5,5.8
		c-0.2,5.4,0.5,10.7,5.8,13.9c2.1,1.3,2.7,3.3,3.3,5.4c1.1,3.3,1.7,6.9,5.7,8.2c1,0.3,1.4,1.4,1.4,2.5c0,6,3.7,11,4.6,16.8
		c0.2,1.2,1.2,2.3,2.1,3.3c3.5,3.6,6.8,7.2,6.6,12.8c-0.1,2.4,1.8,4.3,3.7,5.7c1.9,1.4,3.3,3.2,3.3,5.4c0,6.8,4.3,11.5,7.5,16.7
		c0.6,1,1.2,2.2,1.1,3.2c-0.2,3.3,0.9,5.3,4.4,5.9c1.8,0.3,2.4,2.1,2.7,3.9c0.7,4.6,2.6,8.6,4.7,12.8c3.2,6.6,6.7,13.5,7.4,21.1
		c0.2,2.1,1.2,3.3,3.3,3.7c3.6,0.7,5,3,4.7,6.5c0,0.3-0.1,0.8,0,1c5.5,6.5,2.9,15.3,6.3,22.4c0.9,1.9,2.5,2,4.2,2.1
		c3.1,0.3,4.4,2.1,5.8,5c2.8,5.6,4.2,11.7,7.3,17.1c0.5,0.9,1.2,1.8,1.2,2.7c-0.4,5.5,1.6,9.7,6.1,12.8c0.7,0.5,1,2.1,1.1,3.2
		c0.2,3.1,1.7,5.3,3.8,7.3c5.2,5.3,7.6,11.7,8.3,19c0.6,6.4,4.2,11.8,6.8,17.5c0.4,0.8,1.9,1.5,3,1.5c5.3,0.1,5.9,3.8,7,7.9
		c1.8,6.6,5.4,12.7,5.5,19.9c0,0.2,0.1,0.4,0.2,0.5c7.6,6.7,7.1,16.4,9.5,25.1c0.6,2.1,1.6,3,3.7,3.3c5.7,0.9,8.2,3.4,8.1,9.2
		c0,5.3,2.2,9.2,5.7,12.8c0.5,0.5,1.4,0.9,1.4,1.4c0.5,7.3,8,11.2,8.5,18.5c0.2,2.1,1.4,4,2.4,5.9c2.6,4.9,6.2,9.6,5.1,15.8
		c-0.3,1.5,0.3,3.2,1.8,3.8c6.2,2.3,6.6,7.7,7.1,13c0.1,1.3-0.1,3.2,1,3.7c7.5,3.5,6,11.5,8.9,17.3c1.1,2.3,2.1,4.6,4.2,6.1
		c7.7,5.9,10.7,13.8,11,23.2c0.1,2.1,0.3,4.6,2,5.4c7.7,3.7,7.4,11.7,10,18.1c1,2.4,2.1,4.9,2.1,7.6c0,2.3,1.8,2.8,3.7,3.4
		c2.9,0.8,4.8,2,3,5.7c-1.9,4,1.5,7.4,3.4,9.8c2.6,3.1,4,6.8,6.1,10c1.9,3,3.2,5.9,6.3,8.3c2.8,2.3,1.4,7.2,2.2,10.9
		c0.4,1.9,0.1,4,0.1,6c-13.3,0-26.7,0-40,0c0.1-1.9,4.3-2.8,2.2-4.8c-4.3-4.2-6.9-9.1-8.8-14.6c-1.8-5.1-4.6-9.9-6.7-14.9
		c-2.7-6.5-6.9-12.3-9.1-19.2c-0.6-1.8-2.8-3.5-2.5-6c0.8-6.5-2.3-10.4-8.2-12.5c-1.6-0.6-2.4-1.5-2.8-3.1
		c-1.7-6.8-3.5-13.6-5.2-20.5c-0.5-1.8-1.2-3.7-2.8-4.6c-5.8-3.5-7.8-8.8-8.4-15.2c-0.3-3.1-1.9-6.2-4.3-8.3
		c-4.5-4-8.8-7.9-7.9-14.7c0.1-0.6-0.6-1.7-1.3-1.9c-4-1.6-3.5-4.7-2.7-7.9c0.5-2.1,1.1-5.3-1-6c-5.6-1.8-8.1-5.4-8.8-11
		c-0.1-0.9-1.6-1.7-2.3-2.6c-4.6-6.2-8.7-12.7-8.6-20.8c0-2.3,0.5-5.1-1.6-6.5c-5.5-3.8-8.8-8.6-11.6-14.9
		c-3.5-7.9-6.2-16.3-11.1-23.5c-3-4.3-0.9-10.6-4.3-13.4c-4.9-4.1-4.2-11.4-10.1-14.4c-1-0.5-1.5-2.2-0.6-3.1c4.6-5,0-7.5-2.9-10
		c-2.5-2.1-4.4-3.9-3-7.5c0.8-2-0.5-3.7-1.6-5.5c-4.3-7.1-11.8-12.4-12.5-21.6c-0.1-1.6-1.5-2.5-3-3c-3.3-1.1-4.6-3.5-4.7-6.9
		c0-3.5-1.5-6.4-4.1-8.8c-4.8-4.4-5.8-11.1-5.9-16.3c-0.1-5.8-3.3-9.6-5.3-13.9c-2.3-5-5-10-8.5-14.7c-2.5-3.2-6.8-5.9-7.3-9.7
		c-0.8-6.1-2.8-11.4-5.6-16.9c-2.2-4.2-3.5-8.7-6.4-12.8c-2.6-3.6-5.3-7.5-7.2-11.2c-3.2-6.3-3.7-13.8-6.5-20.5
		c-1.1-2.7-1.8-4.4-4.9-4.4c-3.2,0-4.6-1.4-3.7-4.7c0.8-2.9-0.5-5.2-2.1-7.8c-2.2-3.7-4.2-7.9-4.5-12.4c-0.2-3.5-0.7-6.5-4.7-7.8
		c-2.1-0.7-3.2-2.8-3.3-5.2c-0.1-1.5,0-3.6-0.9-4.3c-6.4-4.9-4.6-14.5-11.4-19.1c-0.5-0.3-0.8-1.7-0.5-2.3
		c3.5-6.7-1.1-10.6-5.4-13.7c-5.8-4.3-6.3-11.5-10.4-16.6c-0.5-0.7,0-2.2,0-3.4c0.1-1.8,0.4-3.6,0.4-5.5c-0.1-3-1.7-5.8-4.4-6.7
		c-2.5-0.9-5.4-1.2-7.7,2c-1.4,2-2.9,5.2-6.5,4.4C420.9,336.4,431,325.2,441.8,314.6z"/>
	<path class="st10" d="M544,898.9c-16.3,0-32.7,0-49,0c1.7-7,1.7-7-5.4-9.4c-2.5-0.9-4.5-2.3-4.6-5.3c-0.1-2.2-1.3-3.1-3.2-3.9
		c-3.8-1.6-4.3-4.4-1.7-7.7c2.8-3.6,2.2-5-2.4-5.6c-1-0.1-2-0.1-3-0.1c-2.9-0.1-4.3-1.9-4.5-4.4c-0.2-2.6-1.7-5.8,1.9-7.4
		c0.8-0.4,2.3-0.3,1.8-1.7c-0.2-0.6-1.1-1.2-1.9-1.4c-1.4-0.5-2.9-0.7-4.4-1c-1.1-0.2-2.7-0.1-2.8-1.5c-0.2-1.7,1.5-1.3,2.6-1.5
		c4.4-1.2,6-4.3,2.9-7.1c-6.7-6.3-4.9-18-14.7-22.1c-0.1,0-0.3-0.3-0.2-0.4c2.7-5.3-2.4-5.5-4.8-7.4c-1.3-1-1.8-2.5-1.6-4
		c0.4-4.3-2.1-5.8-5.6-6.9c-5.2-1.5-5.8-4.1-2.3-8.2c4.5-5.2,3.5-13.2-2.7-14.7c-5.3-1.3-6.9-7.2-12.1-7.9c-0.4-0.1-1-1-1-1.6
		c-0.1-5.1-2.7-10.2-0.6-15.3c1.6-4.1-0.7-5.1-3.5-4.9c-3.3,0.2-4-1.8-4.7-4c-0.8-2.4-0.4-4.9,0-7.4c0.5-3.4-0.1-6.9-3.8-7.6
		c-4.4-0.8-4.7-3.3-4.6-6.8c0.1-4.2-0.7-7.9-5.2-9.8c-2-0.9-2.9-2.8-2.7-4.9c0.3-5.5,0.6-11-7.1-11.7c-0.5,0-1-0.8-1.5-1.2
		c-7.2-6.1-8.4-13.9-6.1-22.5c0.9-3.5,0.7-6.5-3.2-6.9c-6.3-0.6-6.5-4.2-5.9-9c0.4-3.2,0.2-6.7-4-7.3c-3.2-0.4-3.9-2.1-4.4-4.9
		c-0.6-3.5-0.6-8.1-3.7-10c-3.8-2.3-4.5-5.4-5.3-9c-0.8-3.6-1.9-6.6-4.7-9.5c-2.7-2.7-3.4-7.2-8.3-8.1c-1.2-0.2-1.7-2.4-1.7-3.9
		c-0.1-2.2-0.5-4.4,0-6.5c1-4.7-0.4-7.9-4.5-10.3c-2.5-1.5-3.6-4.2-4.2-7.1c-0.6-3.1-0.7-7.7-2.6-8.8c-4.9-2.9-4.8-7-5.2-11.4
		c-0.1-1.1-0.4-2.6-1.2-3.2c-4.1-3.6-7.4-7.4-6.9-13.4c0.1-1.5-1.9-2.2-3-3.1c-3.3-2.5-5-5.6-4.5-9.9c0.5-4.6,0.1-8.8-5.8-9.7
		c-1.2-0.2-1.8-1.3-2.1-2.6c-0.2-0.9-0.2-2.1-1.7-1.9c-3.7,0.5-3.3-1.9-2.7-4c1-3.6-0.7-4.9-4-5.2c5.4-8.8,10.7-17.6,17-25.8
		c4.2-1.3,7.3-6,7.3-11l0,0c3-1.4,6.9-0.2,9-4c0.9-1.5,6.6,1.3,7.2,3.2c1.2,4.1,2.2,8.5,5.4,11.4c2.1,1.9,3.4,3.7,3.7,6.6
		c0.3,3.3,1.1,7.5,3.8,8.9c8.8,4.4,4.4,16.1,12.1,20.8c0.3,0.2,0.1,1,0.3,1.4c1.3,4.2,1.1,9,5.6,11.8c1.3,0.8,1.2,2.7,1,4.2
		c-0.3,3.3,1.2,5.7,3.5,7.9c2.5,2.4,5.9,4.5,6.2,8.2c0.3,3.6,2.2,6.2,4.1,8.9c0.9,1.2,2.1,2.3,2.1,3.9c0.2,7.1,3.6,12.4,9.2,16.7
		c1.6,1.2,3.6,2.6,3.6,4.6c-0.1,6.7,4.8,12.4,3.4,19.4c-0.6,3.2,1.1,5,4.3,5.5c2.2,0.4,4.6,1.5,4.8,3.8c0.5,4.6,2.8,8,5.9,11.1
		c1.1,1.1,0.8,2.8,0.9,4.3c0,1.7,0.2,3.2,0.9,4.9c2.5,5.9,9.5,10.1,6.7,18c-0.2,0.5,0.6,1.5,1.1,2.2c2.3,3,3.4,6.3,3.5,10.1
		c0.1,4.7,1.8,5.4,6.2,3.6c0.6,1.5,0.8,3.6,2,4.4c3.7,2.4,3.8,5.9,3.7,9.6c-0.1,2.8,0.4,5.6,3.1,6.8c4.3,1.9,5.1,5.2,4.9,9.3
		c-0.2,3.2,0.8,6.1,4.2,7.2c3.2,1,3.5,3.3,3.9,6.1c0.6,4.5-0.4,10,5.6,12.2c1.1,0.4,1.3,1.9,1.2,3.1c-0.5,4.3,1.4,7.2,5.4,8.9
		c-4.8,4.5-4.6,7.1,0.5,10.4c0.8,0.5,1.7,1.1,2.6,1.5c4.4,1.8,7.2,4.7,6.5,9.9c-0.2,1.9,0.7,3.5,1.5,5.2
		c5.2,11.6,13.8,21.2,19.8,32.3c2.6,4.8,6.7,9.4,5.8,15.9c-0.6,4.1,1.4,7.1,5.8,8c2.7,0.5,4.7,2.3,5.3,4.8c1.2,5,2.8,10.1,2.5,15.1
		c-0.3,4.8,1.7,7.8,4.4,11c0.9,1.1,2.5,1.9,2.7,3.5c0.5,4.7,3.7,7.7,6.8,10.7c2.3,2.2,3.6,4.6,3.5,7.9c-0.2,3.4,0.3,7.2,3.1,9.2
		c4.2,3,4.3,7.2,4.8,11.4C544.2,893.2,544,896.1,544,898.9z"/>
	<path class="st11" d="M544,898.9c0-2.8,0.2-5.7-0.1-8.5c-0.4-4.2-0.6-8.4-4.8-11.4c-2.7-2-3.2-5.8-3.1-9.2c0.2-3.3-1.1-5.7-3.5-7.9
		c-3.2-2.9-6.3-6-6.8-10.7c-0.2-1.6-1.7-2.3-2.7-3.5c-2.6-3.2-4.7-6.2-4.4-11c0.3-5-1.3-10.1-2.5-15.1c-0.6-2.5-2.6-4.2-5.3-4.8
		c-4.4-0.9-6.3-3.9-5.8-8c0.9-6.4-3.2-11-5.8-15.9c-5.9-11.1-14.6-20.6-19.8-32.3c-0.8-1.7-1.7-3.3-1.5-5.2c0.6-5.2-2.1-8.1-6.5-9.9
		c-0.9-0.4-1.8-0.9-2.6-1.5c-5.1-3.3-5.3-6-0.5-10.4c-4-1.7-5.9-4.6-5.4-8.9c0.1-1.2-0.1-2.7-1.2-3.1c-6-2.2-4.9-7.7-5.6-12.2
		c-0.4-2.9-0.7-5.1-3.9-6.1c-3.4-1.1-4.4-4-4.2-7.2c0.3-4.2-0.6-7.5-4.9-9.3c-2.8-1.2-3.3-4.1-3.1-6.8c0.2-3.8,0-7.2-3.7-9.6
		c-1.1-0.7-1.3-2.9-2-4.4c-4.4,1.8-6.1,1.1-6.2-3.6c-0.1-3.9-1.3-7.1-3.5-10.1c-0.5-0.7-1.3-1.6-1.1-2.2c2.8-7.9-4.1-12.1-6.7-18
		c-0.7-1.6-0.8-3.2-0.9-4.9c0-1.5,0.2-3.2-0.9-4.3c-3.1-3.1-5.4-6.5-5.9-11.1c-0.3-2.3-2.6-3.4-4.8-3.8c-3.2-0.5-5-2.3-4.3-5.5
		c1.4-6.9-3.5-12.7-3.4-19.4c0-2-2-3.4-3.6-4.6c-5.6-4.2-8.9-9.5-9.2-16.7c-0.1-1.6-1.2-2.7-2.1-3.9c-1.9-2.7-3.8-5.2-4.1-8.9
		c-0.3-3.7-3.7-5.8-6.2-8.2c-2.3-2.2-3.8-4.5-3.5-7.9c0.1-1.5,0.3-3.4-1-4.2c-4.5-2.8-4.3-7.6-5.6-11.8c-0.1-0.5,0-1.3-0.3-1.4
		c-7.7-4.8-3.3-16.4-12.1-20.8c-2.8-1.4-3.5-5.6-3.8-8.9c-0.3-2.9-1.5-4.7-3.7-6.6c-3.2-2.9-4.2-7.3-5.4-11.4
		c-0.5-1.9-6.3-4.7-7.2-3.2c-2.1,3.8-6.1,2.6-9,4c8.4-12.5,16.4-25.2,25.8-36.9c1.3-0.7,3.5-1.1,3.8-2.1c1.5-4.8,6-3.2,9-4.5
		c1.4-0.6,3.2-0.3,4.2,0.9c4.6,5.3,11,9.5,12.1,17.3c0.3,2.1,0.9,3.9,2.7,5.1c0.3,0.2,0.7,0.5,0.6,0.7c-0.6,6.4,3.1,11.2,5.4,16.7
		c1.5,3.4,2.8,7.4,3.8,11.2c0.7,2.8,3.7,3.3,6.1,3.7c4,0.8,5.8,3.2,5.4,7c-0.6,5.8,1.3,11.2,2.3,16.7c0.6,3.4,2.9,5.5,5.9,7
		c2.5,1.2,3.9,2.9,3.9,5.8c0,2.2,0.9,4.3,2.3,6c2.2,2.7,3.2,5.8,3.6,9.1c0.4,2.9,1.6,5,4.5,5.9c3.1,1,4.3,3.4,4.5,6.5
		c0.3,3.5,0.7,6.9,1,10.4c0.2,2.3,1.3,3.9,3.2,5.3c2.9,2.2,5.5,4.8,8.1,7.2c1,0.9,1.5,2,1.2,3.6c-1.5,8.3,2,15,6.8,21.5
		c2.1,2.8,2.9,6.5,4.4,9.8c0.1,0.2,0,0.4,0.1,0.5c7,4.5,5.8,13.7,11.6,19.2c3.1,3,1.9,8.5,4.2,12.5c1.1,2,1.7,4.2,3.9,5.5
		c1.2,0.7,2.1,1.7,2.3,3.1c1.2,9.3,7.9,16.2,10.3,25c0.2,0.8,0.7,1.8,1.3,2c5.4,2.1,4.8,7.3,6.6,11.4c3.3,7.6,3.5,16.9,11.9,21.9
		c3.4,2.1,3.1,6.4,4.1,9.9c2.2,7.7,3.6,15.7,9.8,21.7c2.9,2.8,4.5,6.2,4.2,10.3c-0.2,3.2,1,5.4,3.9,6.8c3.6,1.7,4.7,4.6,3.6,8.3
		c-1.2,3.9,0.2,6,4.2,6.7c2.9,0.5,5.2,2.3,5.1,5.3c-0.2,7,5,11.7,6.9,17.9c2,6.6,7.1,11.9,8.5,19.1c1,5.2,5.1,9.5,7.5,14.3
		c1.5,2.9,2.6,5.2,1.7,8.2c-0.9,3.2,0,5.8,3.2,6.9c8.4,3.1,8.7,11,10.2,17.8c0.7,3.2,0.6,6.1,4.1,7.7c2.1,1,3.8,3.2,3.8,5.6
		c0,4.4,3.2,6.9,4.8,10.3c3.1,6.4,7.5,12,10.5,18.4C580.6,898.9,562.3,898.9,544,898.9z"/>
	<path class="st7" d="M235.1,898.9c-1.9-4.2-2.2-8.6-2-13.2c0.1-2.2-0.2-4.3-1.5-6.2c-1.4-2.1-1.7-4.2-0.3-6.5
		c1.4-2.2,0.8-4.5-1.5-5.5c-3.4-1.5-5.5-5.4-10-4.9c-1.6,0.2-2.7-1.5-2.5-3.1c0.6-4.8-1.5-9.1-2.3-13.7c-0.8-4.6-4.9-8-5.2-13
		c-2.6,2.9-1.5,5.9-1,8.8c0.2,1,0.4,2.2-0.8,2.6c-1.4,0.5-1.5-0.8-1.9-1.6c-3.3-6.5-5.1-13.3-3.2-20.7c0.9-3.4-0.5-5.2-4-6.1
		c-6.1-1.6-7.1-3.3-6.5-9.7c0.4-4.8-1.2-6.7-5.9-7.2c-1.8-0.2-3.7,0-5.5-0.2c-1.8-0.2-3.6-1-3.5-2.9c0.2-4.8-1.9-9.6-0.6-14.3
		c1.6-5.7-1.2-11.5,1.2-17.1c0.2-0.6-0.5-2.2-0.7-2.2c-7,0.2-6.1-10.8-13.8-9.7c-1.8,0.2-2.2-2.2-2.2-3.9c-0.1-4.2,0.2-8.3-1.9-12.2
		c-1.4-2.7,1.4-2.3,2.6-3c1-0.6,2.3-1.2,1.5-2.6c-0.6-1-1.8-0.8-2.7-0.2c-2.9,1.9-6.1,1.2-9.2,1.2c-1.2,0-2.5-0.3-2.5-1.8
		c-0.1-1.5,1.3-1.8,2.4-1.9c1-0.1,2-0.1,3,0c4.7,0.7,4.6-1.3,2.3-4.4c14.1-4.7,23.3-14.2,29.8-27.5c8.8-18.4,18.3-36.5,28.7-54.1
		c2.8,4.5,4.3,0.1,6.3-1.2c1.2,2,0.8,3.7-0.5,5.2c-2.4,2.8-5.6,5.6,0.7,7.8c0.8,0.3,1.1,1.9,1.5,3c1.3,3,1.9,6.7,4,9
		c3.4,3.9,4.1,8,4.1,12.8c0.1,4,0.5,8.2,5.7,9.2c1.3,0.2,2,1.2,2.4,2.3c1.8,5.5,2.2,11.7,8.1,15.1c0.6,0.3,0.4,1.9,0.7,2.8
		c1.3,3.7,1.7,8.4,4.3,10.9c3.3,3.3,3.5,7.3,5.4,10.9c3.3,6.4,7.5,12.1,9.5,19.4c0.9,3.5,5.1,6.4,5.6,11c0.1,1.2,0.9,2.8,1.9,3.4
		c7.3,4.6,7.3,12.8,7.3,19.2c-0.1,10.2,7,13.2,13.1,17.4c2.5,1.7,4.2,2.9,3.9,5.9c-0.4,4.2,1.1,7.4,4.7,9.8c0.7,0.4,1.6,1.1,1.7,1.7
		c1,8,7.1,14.3,7.6,22.5c0.4,6.5,5.2,10.9,8.9,15.4c2.8,3.4,3.9,5.8,1.6,9.5c-1.8,2.9-1.9,6-1,9.1c0.5,1.7,1.7,3.4,3.4,0.8
		c0.7-1,1.1-2.2,2.6-1.6c1.2,0.5,1.5,1.7,1.5,2.9c0.1,4.2,0,8.3,0.1,12.5c0.1,3.6,0.7,6.8,5.3,7c1.8,0.1,2.6,1.2,2.7,3
		C303.7,898.9,269.4,898.9,235.1,898.9z M160.3,724.8c2.1,1.7,4.1,0.7,5.7,0.7c1.3,0,2.8-1,2.1-2.5c-0.6-1.4-1.9-0.2-2.9,0.2
		C163.9,723.6,162.5,724,160.3,724.8z M186.1,788.5c-0.9,0.1-1.6,0.6-1.4,1.5c0.1,0.5,0.6,1.2,1.1,1.3c0.9,0.3,1.6-0.3,1.7-1.2
		C187.6,789.2,187,788.7,186.1,788.5z"/>
	<path class="st10" d="M54.1,0.1c16.3,0,32.7,0,49,0c-0.7,4.8,1.3,9.2,2.3,13.7c0.7,2.8,2.8,4.6,6,4c1.7-0.3,3.8-0.8,4.2,1.3
		c1.4,6.8,4.5,12.7,8.1,18.4c2.1,3.3,2.1,8.4,5.6,10.2c4.6,2.3,5.8,5.5,5.8,9.9c0,2,0.4,4.1,1.4,5.8c4,6.4,7.1,13,6.8,20.8
		c-0.1,2.9,0.8,5.9,1.6,8.8c0.8,2.8,2.7,5.9,5.6,5.6c5.7-0.6,4.6,2.6,4.2,5.8c-0.3,2-1.5,4.6,0.7,5.5c5.4,2.2,4.7,6.7,4.7,10.9
		c0,2.6,0.3,5.2,3.2,6.1c3.9,1.2,4.9,3.7,4.9,7.5c0,3.8,0.1,8.7,4.3,9.9c9.5,2.7,11.1,9.4,10.6,17.8c-0.5,7.2,3.4,12,9.1,15.4
		c2.9,1.7,3.4,3.5,2.1,6.1c-2,3.8-0.7,6.7,2.5,8.5c4.6,2.5,5.4,6.4,5.3,10.9c-0.1,2.9,0.6,5.1,3.4,6.5c2.6,1.3,3.9,3.6,3.6,6.6
		c-0.5,4.3,0.9,7.1,5.2,9c4,1.8,8.4,4.3,5.4,10.3c-0.7,1.4,0,3.1,0.9,4.2c2.5,3.2,2.8,7,3.7,10.7c0.8,3.6,1.7,8.2,7,7.4
		c3.8-0.5,4.3,1.4,3.5,3.9c-1,3.3,0.1,5.6,2,8.2c3,4,6,8.5,6.5,13.3c0.7,6.5,4.4,10,9.3,13.2c1.1,0.7,5.4,14.7,4.9,15.8
		c-0.2,0.4-0.6,0.8-0.9,1.2c-2.3,2.6-1,4.6,1.5,5.3c3.3,0.9,3.8,3,4.2,5.9c0.7,4.9,3.7,9.9,7.8,10.8c6.3,1.4,6.1,5,6,9.5
		c-0.2,3.9-0.2,7.5,6.1,7.8c-2.2,1.7-4.4,2.1-4.7,4.1c-0.1,0.8-0.1,1.7,0.3,2.3c0.5,0.9,1.4,0.5,2.2,0.1c1.2-0.7,2.5-2.6,3.7-0.6
		c1.1,1.8-0.5,2.9-1.9,4c-2.1,1.8-2.6,3.8,0.3,5.5l0,0c-1.3,2-1.5,4.9-3.9,6.1c-4.2,1.9-4.5,5.2-3.7,9.1c0,0-0.1,0-0.1,0
		c-0.1,0.3-0.3,0.5-0.4,0.8c-7.9,11.1-15.7,22.2-23.6,33.3c0.8-4.6-0.9-9.7,2.7-13.8c0.9-1,0.8-2.4-0.6-2.9
		c-1.8-0.7-3.9-1.9-5.7-0.6c-1.7,1.3,0.3,1.8,1,2.5c0.9,0.9,1.4,1.9,0.7,3.1c-0.6,1-1.6,1.3-2.6,1c-1.5-0.5-2.7-1.8-2.4-3.4
		c2.1-10.4-2.6-19.4-5.6-28.8c-0.3-0.9-0.7-2.3-1.4-2.5c-4.8-1.6-4.8-8.4-10.2-9.3c-0.4-0.1-0.8-0.7-0.9-1.1
		c-1.3-5.2-3.9-10.6-3.6-15.7c0.4-5.8-2.6-8.6-6.2-11.4c-1.3-1-3-1.6-3.9-3c-4.3-7.1-9.2-14-7-23c-2.4-0.3-6.5,4.4-6.1-0.5
		c0.4-5.6-7.7-9.5-2.3-15.4c0.1-0.1,0-0.4-0.1-0.5c-3.7-1.6-3.4-6.9-7.7-7.8c-2.9-0.6-3.2-1.8-1.6-4.5c2.7-4.5,0.7-8.5-4.6-8.7
		c-3.5-0.2-4.1-1.6-4.3-4.5c-0.3-6.2-2.7-11.6-7.4-15.8c-1.2-1-2.3-2.2-2.3-3.7c0.1-4.3-1.8-8.1-2.6-12.1c-0.9-4.7-1.2-9.9-6.8-12.3
		c-2.3-1-4.1-3.4-5.8-5.4c-2.4-2.8-3.3-6,0.2-8.6c2.2-1.6,3.4-3.1,2.3-5.8c-1.1-2.7-3.1-3-5.7-2.6c-3.2,0.6-6.2-0.5-5.6-4.3
		c0.7-5.2-3.5-9.4-2.4-14.5c0.2-0.9-0.6-1.6-1.4-1.9c-4.7-1.3-5-5.5-6.5-9.2c-1.5-3.5,0.3-9.6-6.7-9.7c-1.5,0-1-2.6-1.1-4
		c-0.2-2.5,0.9-5.5-1-7.2c-4-3.7-5.1-8.4-6.2-13.3c-0.3-1.2-1.1-2.7-2.1-3.3c-5.7-3.5-5.4-8.6-4.1-14c0.8-3.2-0.4-5.6-3.6-6
		c-6-0.7-7.9-5.4-8.4-9.7c-1-8.1-9.7-12.5-9.4-20.9c0-0.4-0.9-1-1.5-1.3c-2.4-1.2-3.3-3.4-3.6-5.7c-1-8.3-10-13.1-9.4-22.1
		c0.1-1-1.9-2.2-2.9-3.3c-1.5-1.4-2.7-2.9-3.2-5c-0.5-2-1.6-3.6-3.7-4.4c-2.2-0.8-2.9-2.7-2.8-4.8c0.2-4.5-0.8-8.9-1-13.4
		c-0.1-2.9-1.2-4.7-3.9-5.6c-3.8-1.2-5-4.1-5.1-7.7C54.1,5.8,54.1,3,54.1,0.1z"/>
	<path class="st8" d="M462,898.9c-19.3,0-38.7,0-58,0c0-2.5-1-4.5-3.4-5.7c-3-1.5-4.1-3.6-3-6.9c0.6-1.8-0.1-3.1-1.7-4.2
		c-4.2-2.9-4.5-9.4-10.1-11.1c-0.5-0.2-0.7-2.1-0.7-3.3c-0.1-1.9-0.9-3.4-1.7-5.1c-2.3-5.1-5.2-10.3-5.8-15.7
		c-0.8-7.2-2.8-12.9-9.6-16.1c-0.6-0.3-1.4-1-1.3-1.4c1.2-7.2-2.2-12.2-7.5-16.3c-0.1-0.1-0.1-0.3-0.1-0.5
		c-3.1-9.2-7.6-17.7-12.6-26.1c-1.2-2-2.7-4-3.1-6.2c-1.3-7.1-7.5-12.2-7.6-19.6c0-0.4-0.5-0.9-0.8-1.3c-4.8-6.8-11.5-12.6-11.1-22
		c0-0.7-0.5-1.8-1.2-2.1c-2.9-1.7-4.2-4.5-4.5-7.4c-0.5-6.6-9.3-9.9-6.9-17.7c0.1-0.4-1-1.5-1.6-1.7c-4.8-1-5.3-5.3-6.2-8.8
		c-2.6-9.9-8.1-18.3-13.1-27c-5.5-9.7-12-18.8-14.4-30c-0.3-1.7-1.5-2.5-2.8-3.3c-1-0.6-2.4-1.4-2.5-2.2c-0.6-6.6-5.9-11.6-5.8-18.4
		c0-2.6-0.6-5.5-4-6.8c-4.8-1.8-6.7-7.6-4.5-12.2c0.7-1.4,1.1-3,0.4-4.3c-0.9-1.7-1.9-0.3-2.8,0.3c-0.7,0.4-1.1,0.1-1.6-0.4
		c-3.2-3.5-5.5-2.7-9,0.6c-3.8,3.6-4.3,9.5-9.2,12c0.2-0.6,0.3-1.3,0.7-1.9c14-24.7,28.5-49.1,43.5-73.2c0.6-1,1-2.2,2.5-2.1
		c1.7,0.5,3.9,0.6,3.7,3.2c-0.9,9.1,4.9,14.3,11.3,19c1.1,0.8,2.3,1.7,2.2,3.1c-0.6,7.1,0.5,13.6,6.3,18.4c0.2,0.2,0.3,0.6,0.4,0.9
		c3.3,9.5,8,18.4,11.8,27.8c1.5,3.6,2.9,7.1,6,9.7c2.3,1.9,3.3,4.3,4,7.2c1.1,4.9,2.8,10.2,8.2,11.6c4,1,4.7,3.2,4.3,6.5
		c-1.2,9.5,3.4,16.7,8.5,24.2c3.3,4.8,6.4,10.7,4.9,17.4c-0.7,2.9-0.7,6.9,2.2,7.4c6.2,1.2,8.8,4.5,9,10.4c0,0.6,0.8,1.1,1.1,1.6
		c3.2,5.5,8.4,10.2,6.4,17.8c-0.7,2.7,0.5,5,3.9,5.1c2.4,0.1,2.7,1.8,3.2,3.7c1.3,4.9,3.9,9.2,8.3,11.9c3.5,2.2,5.1,4.7,4.1,9.1
		c-1,4.5-1.8,10.1,1.9,13.3c3.8,3.3,4.8,7.7,7.3,11.5c1.5,2.4,0.5,5.6,2.2,7.5c3.6,4,5.8,8.6,7,13.6c1.1,4.8,5.8,7.5,6.7,11.9
		c1.4,6.5,5.8,11.4,7.8,17.5c1.9,5.8,6.3,10.2,7.1,16.7c0.7,5.2,1.7,11.5,9.4,12.8c3.3,0.6,6.2,3.9,6,8.3c-0.2,4.9-0.3,9.7,4.1,13.2
		c0.6,0.5,0.8,1.8,0.9,2.8c0.8,7,4.6,12.6,8.5,18.1C460.6,895.4,462.1,896.7,462,898.9z"/>
	<path class="st12" d="M0.1,99.1c4.6,3.2,9.1,6.4,14.5,8.3c2.6,0.9,3.3,4.2,3.4,6.9c0.2,5.1,0.5,10.3-0.5,15.4
		c-1.4,7.4,0.1,9.5,5.8,13.8c3.6,2.8,9.7,4.5,8,11.5c-0.4,1.8,1.4,2.9,3.2,3.1c4.1,0.4,5.2,2.7,5.8,6.6c1.3,8.2,3.7,16.2,8.3,23.2
		c5.1,7.7,7.3,16.5,10.2,25.1c0.9,2.8,2.2,5.1,4.5,6.9c2.3,1.8,3.6,4.1,3.9,7.2c0.5,5.6,4.5,9.3,8.8,11.9c3.4,2,4.6,4.2,3.7,7.6
		c-0.8,3.1-0.1,5.5,2,7.8c0.3,0.4,0.9,0.8,0.9,1.2c-0.2,8.4,7.5,13.5,8.9,21.6c0.8,4.5,2.5,10.5,8.2,12.9c1.7,0.7,2.5,2.4,2.1,4.2
		c-1.4,7.8,4.2,12.7,7.8,18.2c3.5,5.4,9.3,9.6,8.4,17.1c-0.1,1,0.4,2.1,1.4,2.5c4.4,2.1,4.8,6.1,5.8,10.3c0.9,4.1,3.3,7.8,6.7,10.7
		c1.3,1.1,3.2,2.2,3.4,3.5c1,6.7,5.6,12.3,5.7,19.3c0.1,5.2,3.5,9.7,3.5,15c0,1.4,1.4,3.1,2.9,2.9c6.7-0.8,6.6,5.9,9.9,8.8
		c0.5,0.4,0.7,1.8,0.4,2.3c-3,4.6-0.4,7.8,2.3,11.4c1.4,1.8,2.2,4.2,2.5,6.5c0.5,4.9,2.7,8.2,7,10.6c3,1.7,4.5,4.8,4.4,8.5
		c-0.1,4.9,2.2,8.6,6.5,11c6.2,3.4,6.2,10.3,8.3,15.8c1.8,4.6,3.2,9.3,4,14.3c0.3,1.9,0.8,4.7,4.5,4.9c2.7,0.2,3.2,3.1,1.7,5.5
		c-3.7,6.1-7.4,12.1-11.5,18c-1.4,2-1.6,3.9-1.4,6.1c0.1,0.3,0,0.5-0.3,0.6c-4,1.9-5,5.7-5.8,9.6l0.1,0.3L180,528
		c-1.7,0.5-2.8,1.9-3.9,3c-4.4-2.6-6.5,1.3-8.9,3.5c-2.6,2.4,0.9,3.9,1.5,5.9c0.3,0.9,0.9,1.7,1.3,2.6c-0.3,0.4-0.6,0.7-0.9,1.1
		c-5.8-0.4-7.2-2.5-5.5-8c0.7-2.3,2.9-4.2,1.9-6.9c-0.4-0.1-0.8-0.2-1-0.1c-1.4,0.3-2.2,2.9-3.7,1.7c-1.4-1.1-0.8-3.1,0-4.6
		c1.1-2.1,1.8-4.4,2.1-6.6c0.4-2.9-0.4-5.4-3.5-6.5c-3.9-1.3-5.6-3.7-5.4-7.9c0.1-3.6-1.6-6.5-4.7-8.3c-2.8-1.6-3.5-3.3-1-5.8
		c1-1,2-2.5,0.8-4c-1-1.3-2.4-0.7-3.7-0.2c-3.3,1.5-4.2-0.3-4.3-3.2c-0.1-3.3,0.7-7.1-4.9-6.4c-1.6,0.2-2-1.6-2-2.9
		c-0.1-2.2-0.1-4.3-0.1-6.5c0-4.6-0.1-8.7-6.7-8.6c-3.1,0-2.1-2.5-0.8-4.3c4.4-5.8,4.1-7-2.8-10.2c-2.1-1-2.4-2.4-2-4.5
		c1.5-7.8,1.2-7.4-5.1-11.8c-3.6-2.5-4.2-7.7-6.3-11.6c-0.9-1.6-1.3-3.3-2.5-4.8c-6.1-7.5-9.1-16.2-9.8-25.8
		c-0.1-0.8-0.2-2.2-0.6-2.3c-6.6-2-7.1-9-10.8-13.3c-6-6.9-11.4-14.8-12.3-24.1c-0.7-7.6-4.2-12.8-9.8-17.1c-2.5-2-3.2-4.1-3.7-7.1
		c-1.1-5.8-1-12.3-7-16.2c-2.5-1.7-2.5-4.8-3-7.6c-0.8-5.5-0.1-12-7.8-14.1c-2.1-0.6-1.8-2.9-1.2-4.7c1.5-4.4,1.9-8.3-4.3-9.2
		c-1.4-0.2-2.6-1.3-2.5-2.8c0.3-4.1-1.7-6.9-4.2-9.7c-1.7-1.8-0.9-4.5-1-6.8c-0.1-3-0.9-5.3-4.5-5.3c-1.2,0-2.9-0.2-2.9-1.4
		c0.1-4.8-4.4-8.2-3.6-13.2c0.5-3.3-1-6-4-7.3c-3.3-1.5-4.1-3.9-4-7.2c0.1-4.1,0.9-8.4-3.9-10.9c-1.2-0.6-0.9-2.4-1.1-3.7
		c-0.4-3.5-2.2-5.5-5.9-5.2C0.1,164.4,0.1,131.8,0.1,99.1z"/>
	<path class="st5" d="M158.1,0.1c19.7,0,39.3,0,59,0c-0.6,4.5,0.8,8.1,4.4,11c2,1.6,2.9,3.9,3.7,6.3c1.3,4,4.2,7.2,6.3,10.9
		c1.2,2.1,3,3.9,3.3,6.4c0.4,3.6,2.8,6.8,2.6,10.6c-0.1,1.5,1.1,2.5,2.6,2.7c5,0.6,4.9,4,3.5,7.3c-1.1,2.7-0.7,4.7,1.6,6
		c5.3,3,6.4,8.2,7.1,13.5c0.3,2.5,1,4.7,3.8,5.1c3.2,0.5,3.7,2.5,4.3,5.2c1.5,6.5,1.9,13.7,9.2,17.1c0.9,0.4,1.3,1.2,0.8,2
		c-1.3,2,0.2,3.4,0.8,5.1c2.2,6,6.5,11.3,5.3,18.3c-0.4,2.1,0.9,3.5,3.5,2.3c3.4-1.6,4.2,0.5,4.3,3.2c0.1,2.2-0.1,4.5,1.8,6
		c3.3,2.7,4.3,6.6,5.2,10.5c1,4.3,0.6,9.5,6.2,11.5c0.6,0.2,0.6,1.6,1.2,2.1c4.2,4.1,6.3,9,6.6,14.8c0.1,1.3,1,2.6,2.2,3.2
		c1.7,0.8,1.7,2.2,2.3,3.8c1.5,4.1,4.2,7.7,4,12.4c-0.1,1,1.4,1.3,2.3,1.6c1.1,0.4,2.4,0.8,2.8,2c1.8,6.2,7.3,11.2,5.5,18.6
		c-1.2,4.9,1.5,8.4,5.4,10.9c2.5,1.6,3.4,3.7,3.7,6.6c0.4,4.6,1.2,8.8,4.9,12.5c2.9,2.9,6.8,6,6.8,10.7c0,4.1,1.6,7,4.5,9.5
		c1.7,1.5,3.3,3.3,4.9,5c0.8,0.9,1.7,1.8,0.6,3c-0.9,0.9-2,1.2-3.2,0.6c-0.7-0.4-1.3-1-2-1.5c-1.1-0.8-2.2-1-3,0.2
		c-0.6,0.9-0.4,2.2,0.6,2.6c4.9,1.9,3.8,4.5,1.1,7.5c-0.3,0.4-0.1,1.3-0.2,1.9c0,0,0-0.2,0-0.2c-0.3,0.4-0.7,0.9-1,1.3
		c-0.7,1.1-1.2,2.4-2.1,3.4c-6.9,8.3-13.8,16.6-20.8,24.9c-3.6,4.2-7.3,8.4-11,12.6c-1.2-0.6-3.5-0.4-1.8-2.8
		c2.8-3.9,2.8-3.9-2.4-5.2c-1.4-0.3-3-0.9-1.5-3.1c3.9-5.6,3.6-10.2-0.8-14.9c-1-1.1-2.4-2.1-2.5-3.7c-0.2-4.2-2.8-7.1-5.8-9.5
		c-4.2-3.5-6.1-7.7-5.4-13.2c0.4-3.6-1-6-4.3-7.6c-3.8-1.8-5.7-4.9-5.7-9.2c0-2.1-0.5-4.3-2.1-5.4c-3.6-2.4-4.2-5.7-3.8-9.5
		c0.4-3.8-0.8-6.5-4.8-7.6c-1.3-0.4-2.8-1.2-2.8-2.6c-0.3-6.7-5.6-12-4.6-19.2c0.4-3.1,0-7.5-4.4-8.5c-3.9-0.9-4.5-3.2-4.4-6.6
		c0.1-3.3-0.2-6.4-3.9-7.8c-1.2-0.5-1.9-1.4-0.8-2.7c3.1-3.7-0.5-4.5-2.7-5.6c-1.8-0.8-4.1-0.8-5-2.9c-1.9-4.7-4.9-9-4.7-14.6
		c0.2-4-0.8-7.9-5.8-9.3c-2.9-0.8-3.4-3.4-2.7-6.1c0.5-1.8,1.1-4.4-0.5-5.1c-6.5-3-9.1-8.3-10.5-14.7c-0.1-0.3-0.5-0.5-0.7-0.7
		c-1.6-2.2-2.8-4.6-2.7-7.4c0-2-0.6-3.8-1.4-5.7c-1.8-4.8-5.4-7.8-8.6-11.6c-4.4-5.2-6.9-12.5-8.8-19.3c-1.1-3.9-0.3-8.2-4.9-10.4
		c-1.2-0.6-1.4-2.2-1.4-3.6c0.3-8.2-7.1-13.8-7.5-21.8c-0.1-2.1-2.3-4-4.6-5c-1.5-0.6-2.6-1.4-2.9-3.1c-1.2-9.1-8.8-15.7-9.7-24.9
		c-0.1-0.9-0.8-2-1.5-2.5C158.6,13.4,158,6.9,158.1,0.1z M341.6,276.9c0.4-0.5,0.9-0.9,0.9-1.3c0-0.3-0.5-0.6-0.9-0.9
		c-0.3,0.3-0.9,0.6-0.9,1C340.7,276,341.2,276.4,341.6,276.9z"/>
	<path class="st11" d="M158.1,0.1c-0.1,6.8,0.6,13.3,6.9,17.6c0.7,0.5,1.4,1.6,1.5,2.5c0.8,9.3,8.4,15.8,9.7,24.9
		c0.2,1.7,1.4,2.5,2.9,3.1c2.3,1,4.5,2.9,4.6,5c0.4,8.1,7.8,13.6,7.5,21.8c-0.1,1.4,0.1,3,1.4,3.6c4.6,2.2,3.8,6.5,4.9,10.4
		c1.9,6.8,4.4,14,8.8,19.3c3.1,3.7,6.8,6.8,8.6,11.6c0.7,1.9,1.4,3.7,1.4,5.7c0,2.8,1.1,5.2,2.7,7.4c0.2,0.3,0.6,0.5,0.7,0.7
		c1.3,6.4,4,11.8,10.5,14.7c1.6,0.7,1,3.3,0.5,5.1c-0.7,2.7-0.2,5.3,2.7,6.1c5,1.4,6,5.3,5.8,9.3c-0.2,5.6,2.9,9.8,4.7,14.6
		c0.8,2.1,3.2,2.1,5,2.9c2.2,1,5.7,1.8,2.7,5.6c-1.1,1.3-0.4,2.2,0.8,2.7c3.7,1.5,4.1,4.6,3.9,7.8c-0.1,3.4,0.5,5.7,4.4,6.6
		c4.4,1,4.8,5.4,4.4,8.5c-0.9,7.2,4.4,12.5,4.6,19.2c0.1,1.4,1.5,2.2,2.8,2.6c4,1.1,5.1,3.9,4.8,7.6c-0.4,3.8,0.2,7.1,3.8,9.5
		c1.7,1.1,2.2,3.3,2.1,5.4c-0.1,4.3,1.9,7.4,5.7,9.2c3.3,1.6,4.8,4,4.3,7.6c-0.7,5.4,1.2,9.7,5.4,13.2c3,2.5,5.6,5.3,5.8,9.5
		c0.1,1.6,1.4,2.6,2.5,3.7c4.4,4.7,4.7,9.3,0.8,14.9c-1.5,2.2,0.2,2.7,1.5,3.1c5.2,1.3,5.2,1.2,2.4,5.2c-1.7,2.4,0.7,2.2,1.8,2.8
		c-0.4,0.9-0.6,1.9-1.2,2.7c-12.7,16.3-25.7,32.4-37.6,49.4c-0.9-3.9-0.6-7.2,3.7-9.1c2.4-1.1,2.6-4,3.9-6.1
		c1.4-0.4,2.4-1.1,2.3-2.8c0-0.3-0.8-0.8-1-0.7c-1.6,0.7-1.1,2.2-1.3,3.4c-2.9-1.7-2.4-3.7-0.3-5.5c1.4-1.1,3-2.2,1.9-4
		c-1.2-2-2.5-0.1-3.7,0.6c-0.8,0.4-1.6,0.9-2.2-0.1c-0.4-0.6-0.4-1.6-0.3-2.3c0.3-2,2.4-2.4,4.7-4.1c-6.3-0.3-6.3-3.9-6.1-7.8
		c0.2-4.4,0.4-8-6-9.5c-4.1-0.9-7.1-5.8-7.8-10.8c-0.4-2.8-0.8-5-4.2-5.9c-2.6-0.7-3.9-2.7-1.5-5.3c0.3-0.4,0.7-0.7,0.9-1.2
		c0.5-1.2-3.8-15.1-4.9-15.8c-4.9-3.2-8.5-6.7-9.3-13.2c-0.5-4.8-3.6-9.3-6.5-13.3c-1.9-2.6-3-4.9-2-8.2c0.8-2.5,0.3-4.5-3.5-3.9
		c-5.3,0.8-6.2-3.8-7-7.4c-0.9-3.7-1.2-7.5-3.7-10.7c-0.9-1.1-1.6-2.9-0.9-4.2c2.9-6-1.4-8.5-5.4-10.3c-4.3-1.9-5.7-4.7-5.2-9
		c0.3-3-1-5.3-3.6-6.6c-2.8-1.4-3.5-3.6-3.4-6.5c0.2-4.5-0.7-8.4-5.3-10.9c-3.2-1.8-4.5-4.7-2.5-8.5c1.4-2.5,0.8-4.4-2.1-6.1
		c-5.7-3.3-9.6-8.2-9.1-15.4c0.5-8.3-1.1-15-10.6-17.8c-4.2-1.2-4.3-6.1-4.3-9.9c0-3.8-1-6.4-4.9-7.5c-2.9-0.9-3.2-3.5-3.2-6.1
		c0-4.3,0.8-8.7-4.7-10.9c-2.2-0.9-1-3.5-0.7-5.5c0.5-3.2,1.5-6.4-4.2-5.8c-2.9,0.3-4.8-2.8-5.6-5.6c-0.8-2.9-1.8-5.9-1.6-8.8
		c0.3-7.9-2.8-14.4-6.8-20.8c-1.1-1.7-1.4-3.7-1.4-5.8c0-4.4-1.2-7.6-5.8-9.9c-3.5-1.7-3.5-6.8-5.6-10.2c-3.6-5.7-6.7-11.7-8.1-18.4
		c-0.4-2.1-2.5-1.6-4.2-1.3c-3.2,0.6-5.3-1.2-6-4c-1.1-4.5-3-8.9-2.3-13.7C121.4,0.1,139.7,0.1,158.1,0.1z"/>
	<path class="st12" d="M234.1,608c4.9-2.6,5.4-8.4,9.2-12c3.5-3.3,5.8-4.1,9-0.6c0.5,0.6,1,0.9,1.6,0.4c0.9-0.6,1.9-2,2.8-0.3
		c0.7,1.4,0.3,2.9-0.4,4.3c-2.2,4.6-0.3,10.3,4.5,12.2c3.4,1.3,4,4.1,4,6.8c-0.1,6.9,5.2,11.9,5.8,18.4c0.1,0.8,1.5,1.6,2.5,2.2
		c1.3,0.8,2.4,1.6,2.8,3.3c2.4,11.2,8.9,20.3,14.4,30c4.9,8.7,10.4,17.1,13.1,27c0.9,3.5,1.4,7.8,6.2,8.8c0.7,0.1,1.8,1.3,1.6,1.7
		c-2.4,7.7,6.4,11,6.9,17.7c0.2,2.9,1.6,5.7,4.5,7.4c0.6,0.3,1.2,1.4,1.2,2.1c-0.4,9.4,6.3,15.2,11.1,22c0.3,0.4,0.8,0.8,0.8,1.3
		c0.1,7.5,6.3,12.6,7.6,19.6c0.4,2.2,2,4.2,3.1,6.2c5,8.3,9.6,16.8,12.6,26.1c0.1,0.2,0,0.4,0.1,0.5c5.3,4.2,8.7,9.2,7.5,16.3
		c-0.1,0.4,0.7,1.1,1.3,1.4c6.8,3.3,8.8,8.9,9.6,16.1c0.6,5.4,3.6,10.6,5.8,15.7c0.7,1.7,1.6,3.2,1.7,5.1c0,1.1,0.2,3.1,0.7,3.3
		c5.7,1.7,6,8.2,10.1,11.1c1.6,1.1,2.3,2.5,1.7,4.2c-1.1,3.3,0,5.5,3,6.9c2.4,1.2,3.3,3.1,3.4,5.7c-22,0-44,0-66,0
		c-0.1-1.7-0.9-2.9-2.7-3c-4.6-0.2-5.2-3.4-5.3-7c-0.1-4.2,0-8.3-0.1-12.5c0-1.2-0.3-2.4-1.5-2.9c-1.5-0.6-1.9,0.6-2.6,1.6
		c-1.7,2.6-2.9,0.9-3.4-0.8c-0.9-3.1-0.8-6.3,1-9.1c2.3-3.7,1.2-6.1-1.6-9.5c-3.7-4.5-8.5-8.9-8.9-15.4c-0.5-8.2-6.6-14.5-7.6-22.5
		c-0.1-0.6-1-1.3-1.7-1.7c-3.6-2.3-5.1-5.5-4.7-9.8c0.3-3-1.4-4.1-3.9-5.9c-6-4.2-13.2-7.3-13.1-17.4c0.1-6.4,0-14.6-7.3-19.2
		c-1-0.6-1.8-2.2-1.9-3.4c-0.5-4.5-4.7-7.5-5.6-11c-2-7.3-6.1-13.1-9.5-19.4c-1.9-3.5-2-7.6-5.4-10.9c-2.5-2.5-3-7.2-4.3-10.9
		c-0.3-0.9-0.1-2.5-0.7-2.8c-5.9-3.4-6.3-9.6-8.1-15.1c-0.4-1.2-1.1-2.1-2.4-2.3c-5.3-1-5.7-5.2-5.7-9.2c-0.1-4.8-0.7-9-4.1-12.8
		c-2.1-2.3-2.7-6-4-9c-0.5-1.1-0.7-2.7-1.5-3c-6.3-2.1-3.1-4.9-0.7-7.8c1.3-1.5,1.7-3.2,0.5-5.2c-2,1.3-3.5,5.7-6.3,1.2
		C220.3,630.1,227.8,619.4,234.1,608z"/>
	<path class="st13" d="M411.3,348c3.7,0.8,5.1-2.5,6.5-4.4c2.3-3.2,5.2-2.9,7.7-2c2.6,0.9,4.2,3.7,4.4,6.7c0.1,1.8-0.2,3.6-0.4,5.5
		c-0.1,1.1-0.6,2.7,0,3.4c4.1,5.1,4.6,12.3,10.4,16.6c4.2,3.1,8.9,7.1,5.4,13.7c-0.3,0.6,0,2,0.5,2.3c6.8,4.6,5,14.2,11.4,19.1
		c0.9,0.7,0.8,2.8,0.9,4.3c0.1,2.4,1.2,4.5,3.3,5.2c4.1,1.3,4.5,4.3,4.7,7.8c0.3,4.5,2.4,8.6,4.5,12.4c1.5,2.6,2.9,4.8,2.1,7.8
		c-0.9,3.3,0.4,4.8,3.7,4.7c3.1,0,3.8,1.7,4.9,4.4c2.8,6.7,3.3,14.2,6.5,20.5c1.9,3.8,4.6,7.6,7.2,11.2c2.9,4,4.2,8.6,6.4,12.8
		c2.8,5.4,4.8,10.7,5.6,16.9c0.5,3.7,4.9,6.4,7.3,9.7c3.5,4.6,6.2,9.7,8.5,14.7c2,4.3,5.2,8.1,5.3,13.9c0.1,5.2,1.1,12,5.9,16.3
		c2.6,2.4,4.1,5.3,4.1,8.8c0,3.4,1.4,5.8,4.7,6.9c1.6,0.5,2.9,1.4,3,3c0.6,9.2,8.1,14.5,12.5,21.6c1.1,1.8,2.4,3.4,1.6,5.5
		c-1.4,3.6,0.5,5.4,3,7.5c2.9,2.5,7.5,5,2.9,10c-0.9,0.9-0.4,2.6,0.6,3.1c5.8,3,5.1,10.4,10.1,14.4c3.4,2.8,1.3,9.1,4.3,13.4
		c4.9,7.2,7.7,15.6,11.1,23.5c2.8,6.3,6,11.1,11.6,14.9c2.1,1.4,1.7,4.2,1.6,6.5c-0.1,8.2,3.9,14.6,8.6,20.8
		c0.7,0.9,2.2,1.6,2.3,2.6c0.7,5.5,3.1,9.2,8.8,11c2,0.7,1.5,3.8,1,6c-0.8,3.3-1.3,6.3,2.7,7.9c0.6,0.2,1.3,1.3,1.3,1.9
		c-0.9,6.9,3.4,10.7,7.9,14.7c2.4,2.1,4,5.2,4.3,8.3c0.5,6.4,2.6,11.7,8.4,15.2c1.6,1,2.3,2.8,2.8,4.6c1.7,6.8,3.5,13.6,5.2,20.5
		c0.4,1.6,1.2,2.6,2.8,3.1c5.9,2.1,9,6,8.2,12.5c-0.3,2.5,1.9,4.1,2.5,6c2.2,6.9,6.4,12.7,9.1,19.2c2.1,5,4.9,9.8,6.7,14.9
		c2,5.5,4.6,10.4,8.8,14.6c2.1,2.1-2.1,2.9-2.2,4.8c-10,0-20,0-30,0c0.2-2.7-0.3-5.3-2-7.5c-1.4-1.8-1.9-3.8-2-6.1
		c0-1.1-0.2-2.8-0.9-3.2c-8-4.5-8.9-13.3-12.4-20.4c-0.5-1-1.5-1.8-2.1-2.8c-1.4-2.1-3.9-4.3-3.8-6.3c0.4-7.1-4-12.8-4.8-19.5
		c-0.5-4-3-7.1-6.3-8.5c-4.3-1.9-5.2-4.9-5.7-8.9c-0.8-6.5-1.9-13.1-8.8-16.6c-0.6-0.3-1.3-0.9-1.3-1.4c0.2-5.4-3.9-9.3-4.7-14.3
		c-0.5-2.7-1.3-4.6-3.8-6c-2.8-1.5-4.8-4-5.1-7.1c-0.7-6.6-4.6-12.4-4.4-19.2c0-0.9-0.4-2.1-1-2.7c-2.4-2.5-4-5.3-4-8.9
		c0-1.4-0.9-2.9-2.2-3.1c-6.4-0.6-6.2-5.6-6.5-9.9c-0.2-3.5-0.6-6.3-4.5-7.2c-0.4-0.1-1.1-0.5-1.2-0.9c-1.1-5.1-5-9.3-5.9-14.2
		c-0.6-3.3-1.5-5.8-4.1-7.2c-4.8-2.6-7.3-6-6.4-11.6c0.3-1.7-0.2-3.3-1.4-4.7c-2.3-2.6-3.1-5.4-1.4-8.7c1.4-2.8-0.2-4.7-2.6-5.5
		c-6.7-2.2-9.9-6.7-10.1-13.7c-0.1-2.8-1.1-5.5-1.4-8.3c-0.2-1.8-0.8-3.3-2.5-4c-4.5-2-5.8-5.6-5.5-10.2c0.2-2.3-0.6-4.4-2.6-5.6
		c-3.9-2.3-4.7-5.8-4.3-9.9c0.3-3.3-1-5.1-4.1-7c-4.4-2.7-8-6.5-8.1-12.7c-0.1-5.6,0.2-11.8-4.5-16.3c-0.8-0.8-1.6-2.2-2.5-2.3
		c-6.9-0.8-6.2-6.2-6.8-10.8c-0.2-2-0.1-4.2-2.5-4.9c-3.7-1.2-4.7-3.9-4.5-7.4c0-0.7,0.2-1.5-0.1-2c-5.2-6.9-5.7-16.2-11.6-22.6
		c-2.1-2.3-3.5-4.4-3.3-7.4c0.6-6.1-1.8-10.7-5.8-15.2c-3.9-4.4-5.1-10.7-9.7-14.9c-1.4-1.3-1.5-4-1.5-6.2c0-1.7-0.3-3.5-2.1-4.2
		c-5.1-1.9-5.5-6.4-5.8-10.7c-0.2-3.4-1.3-5.7-4.4-7.1c-2.3-1.1-4-3-3.3-5.6c1.2-4.6-1-7.5-4.2-9.8c-3.3-2.3-4.4-5.2-4.2-9
		c0.3-3.9-0.5-7.6-2.7-11c-0.9-1.5-1.4-3-1.3-4.7c0.2-3.5-1.2-5.6-4.6-6.7c-5.1-1.6-4.6-7-6.7-10.5c-4.6-8.1-7.2-16.9-9-26.1
		c-0.8-4.2-4.3-8-1.6-13.1c-1.5,0.8-3,1.6-4.5,2.3c-1.2,0.6-2.6,1-3.7-0.3c-1.2-1.4-0.3-2.5,0.7-3.5c0.1-0.1,0.3-0.2,0.3-0.4
		c1.1-1.7,4.7-3.5,3.1-4.8c-2.2-1.8-3.9,1.8-5.6,3.3c-0.7,0.6-0.8,1.8-2.5,2c0.3-3.3,1.8-5.6,4-7.6c1.7-1.6,3.3-3.3,3-6
		C409.1,350.7,410.2,349.4,411.3,348z"/>
	<path class="st4" d="M301,0.1c26.7,0,53.3,0,80,0c0.7,3.8-2,8,0.4,11.2c6.2,8.5,8.5,18.9,14,27.6c1.9,3,0.2,7.5,2.8,9.3
		c4.8,3.3,5.9,8.5,8.3,13.1c2.5,4.8,7,8.5,7.2,14.5c0.1,1.7,1.5,3,3.2,3.6c3.8,1.3,4.7,4,4,7.5c-0.5,2.5,0.1,4.1,2.6,5
		c6.5,2.3,6.6,2.7,3.1,8.4c-2.5,4-1.8,5.9,3,6.8c3.3,0.6,4.6,2.5,4.5,5.5c-0.1,2.7,1,5.1,1.9,7.6c1.5,4.5,4.9,7.9,6.3,12.3
		c3,9.5,11.1,16.5,12.7,26.6c6.1,4,4.8,13.1,11.7,16.7c1.7,0.9,0.1,2.7,0.1,4.1c0,0-0.2,0.1-0.2,0.1c-1.5-1.1-3.2-1.6-5-2
		c-2.4-0.6-4.7-1.3-5.4,2.2l0,0c-6.2,1.4-3.2,6.5-4,10c-1.4,1.1-2.8,2.2-4.2,3.4c-11.6,9.9-23.3,19.7-34.9,29.6
		c-1.8-7.2-7.2-5.9-12.8-4.6c2.8-5.6,2.8-5.6-0.5-10.1c-2.1-3-2.3-6.5-2.6-10c-0.2-2,0.1-4.3-1.5-5.7c-3.7-3.1-4.7-8.4-9.2-10.9
		c-1.6-0.9-2.5-2.7-2.8-4.6c-0.8-6.3-3.1-11.7-6.3-17.6c-3.2-5.8-3.7-13.4-9-18.7c-0.7-0.7-0.3-2.3-0.8-3.3
		c-1.5-3.3-2.2-7.5-6.5-8.2c-4.6-0.7-5.4-3.8-5-7.2c1.4-11-5.2-18.8-10.6-26.9c-3.9-5.9-7.3-12.1-9-18.5c-1.4-5.3-4.9-9.8-5.1-15.5
		c-0.1-1.9-2.2-2.3-4-2.3c-2.8,0.1-5.7-1.3-5.9-3.7c-0.6-5.4-4.8-10.1-2.9-16.1c1.5-4.9,0.1-9-4.7-11.9c-3.5-2.1-8.8-4.2-9-8.1
		C304.5,12.7,301.1,6.8,301,0.1z"/>
	<path class="st14" d="M54.1,0.1c0,2.8,0,5.7,0,8.5c0.1,3.6,1.3,6.5,5.1,7.7c2.8,0.9,3.8,2.7,3.9,5.6c0.2,4.5,1.2,8.9,1,13.4
		c-0.1,2.1,0.7,4,2.8,4.8c2.1,0.8,3.2,2.3,3.7,4.4c0.5,2,1.8,3.5,3.2,5c1.1,1,3,2.2,2.9,3.3c-0.6,9,8.5,13.8,9.4,22.1
		c0.3,2.3,1.2,4.5,3.6,5.7c0.6,0.3,1.5,0.8,1.5,1.3c-0.2,8.5,8.4,12.8,9.4,20.9c0.6,4.3,2.5,9,8.4,9.7c3.2,0.4,4.3,2.8,3.6,6
		c-1.3,5.4-1.6,10.5,4.1,14c1,0.6,1.8,2.1,2.1,3.3c1.1,4.9,2.2,9.6,6.2,13.3c1.9,1.8,0.8,4.8,1,7.2c0.1,1.4-0.4,4,1.1,4
		c7,0.1,5.2,6.2,6.7,9.7c1.6,3.7,1.8,7.9,6.5,9.2c0.8,0.2,1.6,1,1.4,1.9c-1.1,5.2,3.2,9.3,2.4,14.5c-0.5,3.8,2.4,4.8,5.6,4.3
		c2.6-0.5,4.6-0.1,5.7,2.6c1.1,2.7-0.2,4.2-2.3,5.8c-3.5,2.6-2.6,5.8-0.2,8.6c1.7,2,3.5,4.4,5.8,5.4c5.7,2.4,6,7.7,6.8,12.3
		c0.8,4.1,2.7,7.9,2.6,12.1c0,1.5,1.1,2.7,2.3,3.7c4.8,4.2,7.1,9.6,7.4,15.8c0.2,2.9,0.8,4.3,4.3,4.5c5.3,0.3,7.3,4.2,4.6,8.7
		c-1.6,2.7-1.3,3.9,1.6,4.5c4.4,0.9,4.1,6.3,7.7,7.8c0.1,0,0.1,0.4,0.1,0.5c-5.4,5.8,2.7,9.8,2.3,15.4c-0.4,4.9,3.7,0.2,6.1,0.5
		c-2.2,9.1,2.7,16,7,23c0.9,1.4,2.6,2,3.9,3c3.6,2.9,6.5,5.6,6.2,11.4c-0.3,5.2,2.2,10.5,3.6,15.7c0.1,0.4,0.5,1.1,0.9,1.1
		c5.4,0.9,5.4,7.7,10.2,9.3c0.7,0.2,1.1,1.6,1.4,2.5c3,9.4,7.7,18.4,5.6,28.8c-0.3,1.6,0.9,2.8,2.4,3.4c1,0.4,2,0,2.6-1
		c0.7-1.2,0.2-2.2-0.7-3.1c-0.7-0.7-2.7-1.3-1-2.5c1.8-1.3,3.9-0.1,5.7,0.6c1.4,0.5,1.4,1.9,0.6,2.9c-3.6,4.1-1.8,9.2-2.7,13.8
		c0,0-0.1-0.2-0.1-0.2c-0.3,0.4-0.7,0.9-1,1.3c-0.3,2.6-2.3,4-3.9,5.8c-3.2,2.3-5.5,5.2-6.1,9.2c0,0.3,0,0.5-0.2,0.7
		c-3.3,0.1-4.3,2.7-5.5,4.9c-7.2-3.8-9.3-10.6-10.5-17.9c-0.4-2.6-1.5-4.9-4.1-5.9c-3.5-1.4-4.4-3.8-3.3-7.2c0.9-2.9,0.4-5.8-2.2-7
		c-6.8-3.3-5-8.7-4-14c0.1-0.6,0.4-1.3,0.7-1.9c0.4-1.1,1-2.3-0.2-3.2c-1-0.7-1.8,0.1-2.6,0.7c-3.5,2.8-5.3,0.8-5.8-2.6
		c-0.5-3.4-0.9-6.5-3.5-9c-0.6-0.6-0.6-1.9-0.6-2.8c0.3-7-1.4-9.1-8.1-9.5c-1.3-0.1-2.3-0.4-2.7-1.7c-0.5-1.6,0-3.1,1.6-3.7
		c3.7-1.5,3-3.8,1.3-6.4c-1.6-2.4-2.3-5.1-2.3-8c-0.1-1.8-0.4-3.2-2.8-3.3c-5.5-0.3-8.2-2.5-8.9-8.4c-0.5-4.2-1.3-7.2-5.8-8.8
		c-2.8-1-2.5-3.3-0.1-4.9c2.9-1.8,2.9-3.7,0.6-6c-0.5-0.5-1.2-1.1-1.2-1.6c1-7.4-6-10-8.9-15c-0.9-1.5-2.1-2.6-3.7-3.2
		c-2.5-1-4.2-2.5-4.7-5.3c-0.2-0.9-0.8-2-1.6-2.4c-5.8-3.5-4.5-8.9-4-14c0.2-1.6,0.9-3.2,1-4.9c0.2-3.2,0.3-5.8-4.6-5.3
		c-5.3,0.5-9.4-7.8-6.5-13.4c2.1-4.1,2.5-6.6-1.6-9.7c-2.3-1.8-4.1-4.7-4-8.6c0.1-4.3-4.6-5.9-7.3-8.6c-0.3-0.3-1.3-0.2-1.4-0.5
		c-2.4-6.6-11.4-9.5-10.3-18.2c0.3-2.1,1.4-3.2,3.3-3.8c1.4-0.4,2.2-1.4,2.1-3c-0.1-1.1-0.8-1.8-1.8-2.1c-1.6-0.5-2.6,0.4-3.3,1.6
		c-1,1.7-2,3.4-4.2,2.3c-2-1-2.3-3.2-2.2-5.2c0.1-1.4,1-2.8,1.4-4.2c1.4-4.6,0.1-6.3-4.6-6.2c-3.7,0.1-6.5-2.9-6.8-8.2
		c-0.2-3.7-0.8-6.8-3.9-9.2c-1.7-1.4-1.6-3.6-0.5-5.5c1.8-3.3,0.5-5-2.7-5.8c-4.8-1.2-6.4-3.4-6.8-9c-0.5-7.1,0.6-15.2-7.9-20.7
		c-5.4-3.5-11.8-9-10.6-17.7c0.1-1-0.6-2.6-1.4-3c-5.1-2.7-4.6-7.3-4.3-11.8c0.2-3.7-0.6-5.8-4.9-6.3c-4.6-0.5-5.1-2.8-1.9-6.2
		c0.8-0.9,1.8-1.5,1.2-2.9c-0.5-1-1.5-1.2-2.5-1.2c-1.2,0.1-2.9,1.1-3.3-0.9c-0.4-1.7,0.7-2.9,2.4-3.3c3.4-0.7,2.8-2,0.8-3.8
		c-2.1-1.8-4-3.9-6.1-5.8c-1.7-1.5-1.2-3.2-0.9-5.1c1-5.8,0-7.1-5.7-8.6c-2.3-0.6-4-1.9-4.5-4.2c-0.6-2.7,1.4-3.4,3.4-4
		c1.2-0.4,2-1.2,2-2.6c0-1.6-1.1-2.3-2.4-2.8c-0.3-0.1-0.6-0.2-1-0.2c-9-2.2-10.5-3.4-10.8-12.1C22.4,11.1,22,7.5,19.7,4
		c-0.7-1-0.4-2.6-0.6-3.9C30.8,0.1,42.4,0.1,54.1,0.1z"/>
	<path class="st14" d="M462,898.9c0.1-2.2-1.4-3.5-2.6-5.2c-3.9-5.5-7.7-11.1-8.5-18.1c-0.1-1-0.2-2.3-0.9-2.8
		c-4.4-3.5-4.3-8.3-4.1-13.2c0.2-4.3-2.7-7.7-6-8.3c-7.7-1.4-8.8-7.6-9.4-12.8c-0.8-6.5-5.3-10.9-7.1-16.7c-2-6.1-6.4-11-7.8-17.5
		c-0.9-4.4-5.6-7.1-6.7-11.9c-1.2-5-3.4-9.6-7-13.6c-1.8-2-0.7-5.2-2.2-7.5c-2.5-3.8-3.5-8.2-7.3-11.5c-3.7-3.2-3-8.7-1.9-13.3
		c1-4.4-0.5-6.8-4.1-9.1c-4.4-2.7-7-7-8.3-11.9c-0.5-1.9-0.8-3.6-3.2-3.7c-3.4-0.1-4.6-2.4-3.9-5.1c2-7.5-3.2-12.3-6.4-17.8
		c-0.3-0.6-1.1-1.1-1.1-1.6c-0.3-5.9-2.8-9.2-9-10.4c-2.9-0.5-2.8-4.6-2.2-7.4c1.5-6.7-1.6-12.5-4.9-17.4
		c-5.1-7.5-9.7-14.7-8.5-24.2c0.4-3.2-0.3-5.4-4.3-6.5c-5.5-1.4-7.1-6.7-8.2-11.6c-0.7-2.9-1.7-5.3-4-7.2c-3.1-2.5-4.5-6.1-6-9.7
		c-3.8-9.3-8.6-18.2-11.8-27.8c-0.1-0.3-0.2-0.7-0.4-0.9c-5.9-4.8-6.9-11.3-6.3-18.4c0.1-1.4-1-2.2-2.2-3.1
		c-6.4-4.7-12.2-9.8-11.3-19c0.3-2.6-2-2.7-3.7-3.2c3-8.2,8.2-15.1,13.2-22.1c0.3,0.7,0.4,1.9,0.9,2.1c1.1,0.3,1.2-0.8,1.2-1.6
		c0-1.1-0.1-2.3-0.2-3.4l-0.1-0.1c3.3,0.2,4.9,1.6,4,5.2c-0.6,2.1-1,4.6,2.7,4c1.5-0.2,1.5,0.9,1.7,1.9c0.3,1.2,0.9,2.4,2.1,2.6
		c5.9,0.9,6.4,5.1,5.8,9.7c-0.5,4.3,1.3,7.4,4.5,9.9c1.2,0.9,3.2,1.6,3,3.1c-0.5,6,2.7,9.8,6.9,13.4c0.8,0.7,1.1,2.1,1.2,3.2
		c0.4,4.4,0.4,8.5,5.2,11.4c1.9,1.2,2,5.7,2.6,8.8c0.6,2.9,1.6,5.6,4.2,7.1c4.1,2.5,5.5,5.7,4.5,10.3c-0.4,2.1-0.1,4.3,0,6.5
		c0.1,1.5,0.5,3.7,1.7,3.9c4.9,0.9,5.6,5.4,8.3,8.1c2.9,2.9,3.9,5.9,4.7,9.5c0.8,3.5,1.5,6.7,5.3,9c3.1,1.8,3.1,6.4,3.7,10
		c0.5,2.8,1.2,4.5,4.4,4.9c4.2,0.6,4.4,4.1,4,7.3c-0.6,4.9-0.4,8.4,5.9,9c3.8,0.4,4.1,3.4,3.2,6.9c-2.4,8.6-1.1,16.4,6.1,22.5
		c0.5,0.4,1,1.2,1.5,1.2c7.7,0.7,7.4,6.2,7.1,11.7c-0.1,2.2,0.7,4.1,2.7,4.9c4.5,1.9,5.3,5.6,5.2,9.8c-0.1,3.4,0.3,6,4.6,6.8
		c3.7,0.7,4.3,4.2,3.8,7.6c-0.4,2.5-0.8,5,0,7.4c0.7,2.2,1.4,4.2,4.7,4c2.9-0.2,5.2,0.9,3.5,4.9c-2,5,0.6,10.2,0.6,15.3
		c0,0.5,0.6,1.5,1,1.6c5.2,0.8,6.8,6.6,12.1,7.9c6.2,1.5,7.2,9.5,2.7,14.7c-3.5,4.1-2.9,6.6,2.3,8.2c3.6,1.1,6.1,2.6,5.6,6.9
		c-0.2,1.5,0.3,3,1.6,4c2.5,1.9,7.5,2.1,4.8,7.4c0,0.1,0.1,0.4,0.2,0.4c9.8,4.1,8,15.8,14.7,22.1c3,2.8,1.5,5.9-2.9,7.1
		c-1,0.3-2.7-0.2-2.6,1.5c0.1,1.4,1.7,1.3,2.8,1.5c1.5,0.3,3,0.5,4.4,1c0.7,0.2,1.7,0.8,1.9,1.4c0.5,1.4-1,1.3-1.8,1.7
		c-3.6,1.7-2.1,4.8-1.9,7.4c0.2,2.5,1.6,4.3,4.5,4.4c1,0,2,0,3,0.1c4.5,0.6,5.1,2,2.4,5.6c-2.6,3.3-2,6.1,1.7,7.7
		c1.9,0.8,3.1,1.8,3.2,3.9c0.1,2.9,2,4.4,4.6,5.3c7,2.4,7,2.4,5.4,9.4C484,898.9,473,898.9,462,898.9z"/>
	<path class="st6" d="M590,0.1c0,2.2,0.1,4.3,0,6.5c-0.3,4.2,0.3,7.5,5.3,8.5c2.7,0.5,2.9,3,2.7,5.2c-0.3,5,0.1,9.5,4.5,12.9
		c2.1,1.6,1.6,4.3,1.5,6.6c-0.1,4,0.2,7.7,3.8,10.3c0.4,0.3,0.8,0.8,0.9,1.2c1.3,9.6,9.1,14,15.4,19.5c2.7,2.4,2.2,5.5,1.8,8.4
		c-0.8,4.5-1.3,8.5,3.2,11.5c1.7,1.1,1.1,3.4,1,5.2c-0.3,3.6,0.8,6,4.7,7c2,0.5,5.6,9.1,4.8,11c-0.6,1.4-2,1.6-3.3,1.9
		c-2.4,0.6-4.9,0.9-7.3,1.6c-2,0.7-7.5,0.6-1.4,4.2c0.6,0.3,1,1,0.5,1.7c-0.7,0.9-1.8,0.8-2.7,0.8c-8.5,0-17,0-25.4,0.1
		c-0.7,0-1.3,0.1-2,0.1c-5.3,0-10.1,2.6-15.4,2.5c-0.4,0-0.9,0.9-1.3,1.3c-10.1,2.5-20.1,4.9-30.2,7.4c-0.6,0.3-1.2,0.5-1.9,0.8
		c-2.9,1.1-5.8,2.2-8.7,3.2c2.7-3.3,4.6-7.7,10.4-5.6c1.8,0.7,3.2-0.5,4.3-1.9c1.2-1.5,1.3-3.2,0-4.5c-2.2-2.2-2.2-4.7-1.5-7.4
		c0.7-2.6,0-4.9-2.7-5.6c-4.5-1.2-4.6-4.1-2.8-7.2c2.4-4.1,0.9-6.7-2-9.6c-2.8-2.8-7-5-7.8-8.9c-1.1-5.7-3.6-10.3-7.4-14.5
		c-5.2-5.7-7.3-12.7-8.5-20.2c-0.4-2.4-1.4-4.8-3.3-6.6c-7.5-7.2-11.9-15.7-11.1-26.3c0.3-4.3-1-7.4-4.8-9.5
		c-4.4-2.5-7.1-6-6.2-11.4C528,0.1,559,0.1,590,0.1z"/>
	<path class="st9" d="M301,0.1c0,6.6,3.4,12.6,3.8,19.3c0.2,3.9,5.5,6,9,8.1c4.8,2.9,6.3,7,4.7,11.9c-1.9,6,2.4,10.6,2.9,16.1
		c0.2,2.4,3.1,3.7,5.9,3.7c1.8,0,3.9,0.4,4,2.3c0.2,5.7,3.8,10.1,5.1,15.5c1.7,6.4,5.1,12.7,9,18.5c5.4,8.1,12,15.9,10.6,26.9
		c-0.4,3.4,0.4,6.5,5,7.2c4.3,0.7,5,4.9,6.5,8.2c0.5,1,0.1,2.6,0.8,3.3c5.2,5.3,5.7,12.9,9,18.7c3.2,5.8,5.5,11.2,6.3,17.6
		c0.2,1.9,1.2,3.7,2.8,4.6c4.5,2.5,5.5,7.8,9.2,10.9c1.6,1.3,1.3,3.7,1.5,5.7c0.4,3.4,0.5,7,2.6,10c3.2,4.5,3.2,4.5,0.5,10.1
		c5.5-1.3,11-2.6,12.8,4.6c-7.9,7.8-15.7,15.6-23.7,23.3c-5.1,4.9-9.5,10.6-15.2,14.8c0.1-1.3-0.2-2.9,1-3.7
		c3.4-2.2,4.8-5.4,5.3-9.2c0.1-0.7,0.8-1.4,1.5-1.9c1.1-0.8,2.4-1.4,1.7-3.1c-0.4-0.9-1.2-1.1-2.1-1c-1.4,0.2-2.6,0.8-3,2.2
		c-0.5,1.8-0.6,3.6-1.2,5.3c-0.5,1.4-0.5,3.8-2.9,3.3c-1.9-0.4-2.2-2.3-2.2-4c-0.1-1.7,0-3.3-0.1-5c0-1.8-0.5-3.3-2.4-4
		c-4.1-1.4-4-4.3-2.8-7.6c0.8-2.4-1.9-12.2-3.8-12.5c-5.5-1-7.5-4.1-7.4-9.3c0-0.6-0.5-1.3-0.9-1.7c-5.9-6-3.8-15.5-9.6-21.5
		c-0.2-0.2-0.1-0.6-0.1-1c-0.1-1.8-0.9-3.3-2.4-4.2c-7.2-4.2-4.9-14.2-11.5-18.8c-0.2-0.1-0.1-0.7-0.2-1c-2.2-4.9-1.2-11.2-7-14.7
		c-2.4-1.5-2.6-4.9-0.4-7.6c0.9-1.2,2-2.5,0.7-4c-1.6-1.8-2.9-0.5-4.2,0.7c-1.5,1.3-3.4,0.8-3.4-0.9c0-4.5-2.9-7.6-4.3-11.4
		c-2.3-6.6-1.8-13.9-6.6-19.9c-2-2.5-2.9-5.8-6-7.6c-2.4-1.5-3-4-2.7-6.6c1.1-8.8-5.2-13.9-10.2-19.3c-2.6-2.8-4.5-5.1-3.4-9
		c0.8-2.8,1-5.8-1.3-8c-6.2-6.1-9.5-13.6-11.5-21.8c-0.2-0.9-0.8-1.9-1.5-2.5c-3.4-3.1-8.2-5.4-6.8-11.4c0.1-0.5-0.8-1.1-0.9-1.7
		c-0.9-5.9-6-10.3-5.5-16.7C271,0.1,286,0.1,301,0.1z M408.7,220.4c-0.5-0.3-0.9-0.8-1.2-0.8c-0.4,0-0.9,0.5-0.9,0.9
		c-0.1,0.8,0.5,1.2,1.2,1C408.1,221.4,408.4,220.9,408.7,220.4z"/>
	<path class="st13" d="M256.1,0.1c-0.6,6.3,4.6,10.8,5.5,16.7c0.1,0.6,1,1.2,0.9,1.7c-1.4,6,3.4,8.3,6.8,11.4
		c0.7,0.6,1.3,1.6,1.5,2.5c2,8.3,5.2,15.8,11.5,21.8c2.2,2.2,2.1,5.1,1.3,8c-1.2,3.9,0.7,6.2,3.4,9c5,5.4,11.3,10.5,10.2,19.3
		c-0.3,2.6,0.3,5.1,2.7,6.6c3,1.9,4,5.2,6,7.6c4.8,6,4.3,13.3,6.6,19.9c1.3,3.8,4.3,7,4.3,11.4c0,1.7,1.9,2.2,3.4,0.9
		c1.3-1.2,2.6-2.4,4.2-0.7c1.3,1.5,0.2,2.8-0.7,4c-2.1,2.7-1.9,6.2,0.4,7.6c5.8,3.5,4.9,9.7,7,14.7c0.1,0.3,0,0.8,0.2,1
		c6.6,4.5,4.3,14.5,11.5,18.8c1.5,0.9,2.3,2.4,2.4,4.2c0,0.3-0.1,0.8,0.1,1c5.8,6,3.8,15.5,9.6,21.5c0.4,0.5,0.9,1.2,0.9,1.7
		c-0.1,5.2,1.9,8.3,7.4,9.3c2,0.3,4.7,10.1,3.8,12.5c-1.2,3.4-1.4,6.2,2.8,7.6c1.9,0.6,2.4,2.2,2.4,4c0,1.7,0,3.3,0.1,5
		c0.1,1.7,0.4,3.6,2.2,4c2.4,0.5,2.4-1.8,2.9-3.3c0.6-1.7,0.7-3.6,1.2-5.3c0.4-1.4,1.6-2,3-2.2c0.9-0.1,1.7,0.1,2.1,1
		c0.7,1.7-0.6,2.3-1.7,3.1c-0.6,0.5-1.4,1.2-1.5,1.9c-0.6,3.8-2,7-5.3,9.2c-1.2,0.8-0.9,2.4-1,3.7c-0.3,0.3-0.6,0.6-0.9,0.8
		c-0.4,0.4-0.8,0.8-1.2,1.2c-0.3,0.3-0.6,0.6-1,0.9c-0.3,0.5-0.6,1.1-0.9,1.6c-3.8,4.4-7.5,8.8-11.6,13c-3.4,3.6-5.9,8-10.3,10.5
		c0-0.7-0.2-1.6,0.2-1.9c2.7-3,3.8-5.6-1.1-7.5c-1-0.4-1.2-1.7-0.6-2.6c0.8-1.2,2-1,3-0.2c0.7,0.5,1.2,1.1,2,1.5
		c1.2,0.6,2.3,0.3,3.2-0.6c1.1-1.2,0.3-2.1-0.6-3c-1.6-1.7-3.1-3.5-4.9-5c-2.9-2.5-4.5-5.4-4.5-9.5c0-4.7-3.9-7.8-6.8-10.7
		c-3.7-3.7-4.5-8-4.9-12.5c-0.3-2.9-1.2-5-3.7-6.6c-3.9-2.5-6.5-6-5.4-10.9c1.7-7.4-3.8-12.4-5.5-18.6c-0.3-1.2-1.6-1.6-2.8-2
		c-1-0.3-2.4-0.6-2.3-1.6c0.2-4.7-2.4-8.3-4-12.4c-0.6-1.6-0.7-3-2.3-3.8c-1.2-0.6-2.1-1.9-2.2-3.2c-0.4-5.8-2.5-10.7-6.6-14.8
		c-0.6-0.5-0.6-1.9-1.2-2.1c-5.6-2-5.1-7.2-6.2-11.5c-0.9-3.9-1.9-7.8-5.2-10.5c-1.9-1.5-1.7-3.8-1.8-6c-0.1-2.7-0.9-4.8-4.3-3.2
		c-2.6,1.2-3.9-0.3-3.5-2.3c1.2-7.1-3.1-12.3-5.3-18.3c-0.6-1.7-2-3.1-0.8-5.1c0.5-0.8,0.2-1.5-0.8-2c-7.3-3.4-7.7-10.7-9.2-17.1
		c-0.6-2.7-1.2-4.7-4.3-5.2c-2.8-0.4-3.5-2.6-3.8-5.1c-0.7-5.3-1.8-10.5-7.1-13.5c-2.3-1.3-2.7-3.3-1.6-6c1.4-3.4,1.5-6.7-3.5-7.3
		c-1.5-0.2-2.6-1.2-2.6-2.7c0.2-3.8-2.2-6.9-2.6-10.6c-0.3-2.5-2.1-4.3-3.3-6.4c-2-3.7-5-6.9-6.3-10.9c-0.8-2.5-1.7-4.8-3.7-6.3
		c-3.6-2.9-5-6.5-4.4-11C230.1,0.1,243.1,0.1,256.1,0.1z"/>
	<path class="st3" d="M466.6,179.9c0-1.4,1.6-3.2-0.1-4.1c-6.9-3.6-5.6-12.7-11.7-16.7c-1.6-10.1-9.7-17.1-12.7-26.6
		c-1.4-4.4-4.8-7.8-6.3-12.3c-0.8-2.5-1.9-4.8-1.9-7.6c0.1-3.1-1.2-4.9-4.5-5.5c-4.7-0.9-5.4-2.7-3-6.8c3.5-5.7,3.4-6.1-3.1-8.4
		c-2.6-0.9-3.2-2.5-2.6-5c0.7-3.5-0.2-6.2-4-7.5c-1.7-0.6-3.1-1.9-3.2-3.6c-0.2-6-4.7-9.7-7.2-14.5c-2.3-4.6-3.4-9.8-8.3-13.1
		c-2.6-1.8-0.9-6.3-2.8-9.3c-5.5-8.7-7.8-19.1-14-27.6c-2.3-3.2,0.3-7.5-0.4-11.2c18,0,36,0,54,0c-0.6,4.2,1.2,7.7,3.1,11.3
		c3.4,6.2,8,11.8,9.3,19.1c0.2,1.2,1.2,2.4,2.1,3.3c3.1,2.9,4.3,6.7,3.3,10.5c-1.6,6.5,1.5,10,6.5,12.8c3.4,1.9,5.3,4.5,4,8.6
		c-0.5,1.9,0.5,3.5,1.2,5.2c2.6,7,9.4,11.1,12.1,18.1c2.3,6,7.1,10.7,9.2,16.8c1.1,3.1,2.5,5.8,5.5,7.4c1.8,1,3,2.4,2.4,4.4
		c-2.4,7.8,1.1,14.3,4.6,20.8c1,1.9,1.9,3.5,0.5,5.5c-0.7,1.1-1.3,2.8,0.3,3.4c2,0.8,2.5-1,2.8-2.5c0.3-1.4,0.7-3,2.5-2.1
		c2.2,1.1,4.4,3,4,5.7c-0.3,2.8-2.6,2.4-4.7,1.9c-1-0.2-2.2-0.4-2.8,0.5c-0.8,1.3,0.5,2,1.3,2.8c0.6,0.6,1.2,1.2,1.8,1.7
		C491.6,163.6,479.1,171.7,466.6,179.9z"/>
	<path class="st2" d="M504.1,155.4c-0.6-0.6-1.2-1.2-1.8-1.7c-0.8-0.8-2.1-1.5-1.3-2.8c0.6-0.9,1.8-0.8,2.8-0.5
		c2.1,0.5,4.4,1,4.7-1.9c0.3-2.8-1.8-4.6-4-5.7c-1.7-0.9-2.2,0.8-2.5,2.1c-0.3,1.5-0.8,3.3-2.8,2.5c-1.6-0.6-1.1-2.3-0.3-3.4
		c1.4-2.1,0.5-3.6-0.5-5.5c-3.5-6.5-7-13-4.6-20.8c0.6-2-0.6-3.4-2.4-4.4c-2.9-1.6-4.4-4.3-5.5-7.4c-2.1-6.1-6.8-10.8-9.2-16.8
		c-2.7-6.9-9.5-11.1-12.1-18.1c-0.6-1.7-1.7-3.4-1.2-5.2c1.2-4.1-0.7-6.7-4-8.6c-5-2.8-8.1-6.4-6.5-12.8c0.9-3.8-0.2-7.6-3.3-10.5
		c-0.9-0.9-1.9-2.1-2.1-3.3c-1.3-7.2-5.9-12.9-9.3-19.1c-2-3.6-3.7-7-3.1-11.3c20.7,0,41.3,0,62,0c-0.9,5.4,1.8,9,6.2,11.4
		c3.8,2.1,5.2,5.3,4.8,9.5c-0.8,10.7,3.6,19.2,11.1,26.3c1.9,1.8,2.9,4.2,3.3,6.6c1.2,7.4,3.3,14.5,8.5,20.2
		c3.8,4.2,6.2,8.8,7.4,14.5c0.8,3.9,5,6.1,7.8,8.9c2.9,2.9,4.4,5.5,2,9.6c-1.9,3.1-1.7,6,2.8,7.2c2.7,0.7,3.4,2.9,2.7,5.6
		c-0.7,2.7-0.8,5.2,1.5,7.4c1.4,1.3,1.2,3,0,4.5c-1.1,1.4-2.5,2.6-4.3,1.9c-5.7-2.2-7.7,2.3-10.4,5.6c0,0,0,0,0,0
		c-0.8,0.3-1.6,0.6-2.4,0.9c0,0-0.2-0.1-0.2-0.1c-0.9,0.3-1.8,0.6-2.7,0.9c-5.2,3.3-11.3,4.8-16.7,7.8
		C513.7,151.2,509.4,154.5,504.1,155.4z"/>
	<path class="st12" d="M0.1,91.1c0.6,0.2,1.4,0.4,1.2,1.2c-0.1,0.3-0.8,0.5-1.2,0.8C0.1,92.4,0.1,91.8,0.1,91.1z"/>
	<path class="st13" d="M652.9,128c-17.1-1.8-34.3-3.3-51.6-2.1c-6.8,0.5-13.5,1.4-20.3,2c0.4-0.5,0.9-1.3,1.3-1.3
		c5.3,0.1,10.2-2.5,15.4-2.5c1.6,1.1,3.5,0.8,5.3,0.8c14.8,0,29.6-0.4,44.4,1.2C649.4,126.5,651.5,126.1,652.9,128z"/>
	<path class="st14" d="M134.1,723.8c6,0.9,12,1.5,18.1,0.7c0.1,0.4,0.3,0.8,0.4,1.2c-5.6,0.4-11.3,0.5-16.9-0.2
		C135.1,725.5,134.6,724.4,134.1,723.8z"/>
	<path class="st7" d="M106.2,700.5c1.5,2.3,3.4,4.5,4.1,7.3C105.6,707.2,106.2,703.7,106.2,700.5z"/>
	<path class="st7" d="M103.4,703.1c-0.1,0-0.3,0.2-0.4,0.1c-0.1,0-0.2-0.2-0.2-0.3c0.2-0.1,0.4-0.1,0.6-0.2
		C103.4,702.9,103.4,703,103.4,703.1z"/>
	<path class="st7" d="M110.2,707.8c1.2,0.2,1.7,1.1,2.1,2C111.1,709.7,110.4,709,110.2,707.8z"/>
	<path class="st6" d="M753.7,488.9c-1.4,2.5-2.7,5-4.1,7.5c-0.9-1.5-2.4-2-4-2.6c-2.1-0.8-1.3-2.3-0.4-3.5c0.8-1.2,1.4-2,2.8-0.1
		C750.3,493,751.5,487.8,753.7,488.9z"/>
	<path class="st6" d="M748.3,499.3c-1.3,4.9-2,9.8-2.4,14.9c-0.3-0.2-0.6-0.3-0.8-0.6C743.3,510.5,745.3,501.6,748.3,499.3z"/>
	<path class="st6" d="M749.6,496.4c-0.5,1-0.9,1.9-1.4,2.9C748,498,748.2,496.9,749.6,496.4z"/>
	<path class="st6" d="M770.4,552.3c1.1,0.5,2.1,1.1,3.2,1.6C772.2,553.9,771,553.8,770.4,552.3z"/>
	<path class="st6" d="M769.1,551.6c0.5,0.3,0.9,0.7,1.4,1C770,552.2,769.5,551.9,769.1,551.6z"/>
	<path class="st2" d="M781,721.9c-0.2,1.6-0.2,2.9-1.6,3.2c-0.7,0.2-1.2-0.5-1.2-1.1C778.3,722.2,779.6,722.1,781,721.9z"/>
	<path class="st3" d="M479.6,278.5c2.4-2.6,5-5,8.1-6.8c0.1,1.3-0.6,2.2-1.4,3.1c-1.9,1.9-1.9,3.1,1.1,3.3c1,0.1,2.3,0.3,1.9,1.7
		c-0.3,1.3-1.6,0.9-2.5,0.7C484.4,279.9,482,279.2,479.6,278.5z"/>
	<path class="st9" d="M447.7,308.7c1.6-2.4,3.6-4.4,6-6C453.3,306.3,451.6,308.6,447.7,308.7z"/>
	<path class="st9" d="M442.6,313.9c1.4-2.1,3-3.9,5.1-5.2C447.9,312.4,446,313.8,442.6,313.9z"/>
	<path class="st3" d="M477.8,280c0.3-1,1-1.3,1.9-1.5C479.4,279.4,478.7,279.8,477.8,280z"/>
	<path class="st9" d="M453.6,302.8c0.4-0.4,0.7-0.8,1.1-1.2C454.4,302.1,454,302.4,453.6,302.8z"/>
	<path class="st9" d="M454.6,301.8c0.3-0.4,0.6-0.8,1-1.2C455.2,301,454.9,301.4,454.6,301.8z"/>
	<path class="st9" d="M455.6,300.6c0.4-0.3,0.8-0.6,1.1-0.9C456.3,300,456,300.3,455.6,300.6z"/>
	<path class="st9" d="M456.6,299.9c0.4-0.5,0.8-0.9,1.2-1.4C457.5,299,457.1,299.4,456.6,299.9z"/>
	<path class="st11" d="M361.9,409.9c2.9-4.7,6.1-9.2,10-13.2C373.4,404.8,366.4,406.4,361.9,409.9z"/>
	<path class="st0" d="M744,363.5c1.9,8.1,1.2,16.4,1.7,24.6c-3.1,1.9-1.7-1.1-1.7-1.7C743.9,378.7,744,371.1,744,363.5z"/>
	<path class="st0" d="M815.8,548c3.3-4,6.7-8,10-12C825.5,542.4,819.5,544.2,815.8,548z"/>
	<path class="st2" d="M622.5,217.2c2.1-1.6,3.6-1,5.4-0.8C625.9,218,625.9,218,622.5,217.2z"/>
	<path class="st2" d="M756.1,469.3c-0.8-0.2-1-0.9-0.7-1.5c0.3-0.5,0.9-1,1.4-1c0.8,0,0.9,0.8,0.7,1.4
		C757.3,468.9,756.8,469.3,756.1,469.3z"/>
	<path class="st0" d="M825.9,535.9c0.7-1.1,1.3-2.2,2-3.2C827.9,534.2,827.6,535.5,825.9,535.9z"/>
	<path class="st8" d="M180,528c-3.4,5.9-6,12.4-10.9,17.4c0-0.4,0-0.9,0-1.3c0.3-0.4,0.6-0.7,0.9-1.1c0.1-2.5,2.6-4.3,2.1-6.9
		c1.1-0.2,1.8-0.9,2-2c0.7-1,1.3-2,2-3C177.3,529.8,178.3,528.4,180,528z"/>
	<path class="st1" d="M101.3,640.7c0,0.1,0.2,0.3,0.1,0.4c0,0.1-0.2,0.2-0.3,0.2c-0.1-0.2-0.1-0.4-0.2-0.6
		C101,640.7,101.1,640.7,101.3,640.7z"/>
	<path class="st14" d="M230.2,439.5c-0.3,1.3-1.1,2.1-2.4,2.1c-1.3,0-1.6-1-1.6-2c0-1,0.3-2,1.6-2.1
		C229.1,437.4,229.9,438.2,230.2,439.5z"/>
	<path class="st14" d="M227.4,448.9c-0.1,0.1-0.1,0.3-0.2,0.4c-0.1,0.1-0.3,0-0.4,0c0.1-0.2,0.2-0.4,0.3-0.6
		C227.2,448.7,227.3,448.8,227.4,448.9z"/>
	<path class="st11" d="M312.6,479.9c1.8-4.1,4.3-7.7,7.3-11C319.9,473.9,316.8,478.6,312.6,479.9z"/>
	<path class="st1" d="M160.3,724.8c2.2-0.7,3.6-1.2,4.9-1.7c1-0.4,2.3-1.6,2.9-0.2c0.7,1.5-0.8,2.5-2.1,2.5
		C164.4,725.5,162.5,726.4,160.3,724.8z"/>
	<path class="st1" d="M186.1,788.5c0.9,0.2,1.5,0.6,1.4,1.6c-0.1,0.9-0.8,1.5-1.7,1.2c-0.5-0.1-1-0.8-1.1-1.3
		C184.5,789.1,185.2,788.6,186.1,788.5z"/>
	<path class="st11" d="M274.3,383.2c0,0.4-0.1,0.6-0.4,0.8C274,383.7,274.2,383.5,274.3,383.2z"/>
	<path class="st7" d="M176.1,531c-0.7,1-1.3,2-2,3c-1.1,0.2-1.8,0.9-2,2c0.5,2.7-1.9,4.5-2.1,6.9c-0.5-0.9-1.1-1.7-1.3-2.6
		c-0.6-2-4.1-3.5-1.5-5.9C169.6,532.3,171.7,528.4,176.1,531z"/>
	<path class="st8" d="M186,518c-1.5,3.4-3.4,6.6-5.8,9.6C180.9,523.7,182,519.9,186,518z"/>
	<path class="st13" d="M341.6,276.9c-0.4-0.5-0.9-0.9-0.8-1.2c0.1-0.4,0.6-0.7,0.9-1c0.3,0.3,0.9,0.6,0.9,0.9
		C342.5,276,342,276.4,341.6,276.9z"/>
	<path class="st13" d="M348.1,289.1c-0.3,0.4-0.7,0.9-1,1.3C347.5,289.9,347.8,289.5,348.1,289.1z"/>
	<path class="st10" d="M282,368c0.1-1.3-0.3-2.8,1.3-3.4c0.2-0.1,1,0.4,1,0.7C284.5,366.9,283.4,367.6,282,368
		C282,368,282,368,282,368z"/>
	<path class="st3" d="M466.4,180c-4.7,3.5-9.1,7.5-14.4,10.1c0.8-3.6-2.2-8.6,4-10c0.3,1.3-0.5,3.2,1.7,3.4c0.9,0.1,1.5-0.8,1.5-1.6
		c0-2.4-2-1.5-3.3-1.8c0.7-3.4,3-2.7,5.4-2.2C463.2,178.4,464.9,178.9,466.4,180z"/>
	<path class="st8" d="M245.3,424.1c-1.3,3.6-3.6,6.5-6.1,9.2C239.8,429.3,242.1,426.4,245.3,424.1z"/>
	<path class="st10" d="M250.2,417c0,0.7-0.4,1.1-1,1.3C249.5,417.9,249.8,417.5,250.2,417z"/>
	<path class="st10" d="M293.9,508.7c0.3-1.2,0.7-2.3,1.9-2.9c0.1,1.1,0.2,2.3,0.2,3.4c0,0.8-0.1,1.9-1.2,1.6
		C294.3,510.6,294.2,509.4,293.9,508.7z"/>
	<path class="st2" d="M550.9,135.4c-0.4,0.7-1.1,0.9-1.9,0.8C549.6,135.9,550.2,135.6,550.9,135.4z"/>
	<path class="st4" d="M408.7,220.4c-0.4,0.5-0.6,1-1,1.1c-0.8,0.2-1.3-0.2-1.2-1c0-0.3,0.6-0.8,0.9-0.9
		C407.8,219.6,408.2,220,408.7,220.4z"/>
	<path class="st9" d="M371,264c-0.3,0.5-0.6,1.1-0.9,1.6C370.4,265.1,370.7,264.6,371,264z"/>
	<path class="st9" d="M373.1,262c0,0.8-0.3,1.2-1.2,1.2C372.4,262.8,372.7,262.4,373.1,262z"/>
	<path class="st6" d="M537.7,140.2c-0.7,0.9-1.6,1-2.7,0.9C535.9,140.8,536.8,140.5,537.7,140.2z"/>
	<path class="st6" d="M540.3,139.4c-0.6,0.9-1.5,0.9-2.4,0.9C538.7,140,539.5,139.7,540.3,139.4z"/>
	<path class="st12" d="M172.1,536c0.2-1.1,0.9-1.8,2-2C173.8,535.1,173.2,535.8,172.1,536z"/>
	<path class="st4" d="M456,180.1c1.3,0.3,3.3-0.6,3.3,1.8c0,0.8-0.6,1.7-1.5,1.6C455.5,183.3,456.3,181.4,456,180.1L456,180.1z"/>
</g>
</svg>
