<?xml version="1.0" encoding="utf-8"?>
<!-- Generator: Adobe Illustrator 27.0.0, SVG Export Plug-In . SVG Version: 6.00 Build 0)  -->
<svg version="1.1" id="Layer_1" xmlns="http://www.w3.org/2000/svg" xmlns:xlink="http://www.w3.org/1999/xlink" x="0px" y="0px"
	 viewBox="0 0 210 210" style="enable-background:new 0 0 210 210;" xml:space="preserve">
<style type="text/css">
	.st0{fill:#265787;}
	.st1{fill:#EA7600;}
</style>
<g transform="matrix(.281 0 0 .281 -41.8 -43.7)">
	<g transform="matrix(11.1 0 0 11.1 -2215 4153)">
		<path class="st0" d="M247.6-323.8c0.1-1.9,1-3.6,2.4-4.7c1.4-1.2,3.2-1.9,5.2-1.9c2,0,3.9,0.7,5.2,1.9c1.4,1.2,2.3,2.9,2.4,4.7
			c0.1,1.9-0.7,3.8-2,5.1c-1.4,1.4-3.4,2.2-5.6,2.2c-2.2,0-4.2-0.9-5.6-2.2C248.3-320,247.5-321.8,247.6-323.8L247.6-323.8z"/>
		<path class="st1" d="M235.6-319.8c0,0.7,0.2,2.2,0.6,3.3c0.7,2.4,2,4.6,3.8,6.5c1.8,2,4,3.6,6.6,4.7c2.7,1.2,5.6,1.8,8.6,1.8
			c3,0,5.9-0.6,8.6-1.8c2.6-1.1,4.8-2.8,6.6-4.8c1.8-2,3-4.1,3.8-6.5c0.4-1.2,0.6-2.4,0.7-3.6c0.1-1.2,0.1-2.4-0.1-3.6
			c-0.3-2.4-1.1-4.6-2.4-6.6c-1.1-1.9-2.6-3.5-4.4-4.8l0,0l-17.7-13.6c0,0,0,0,0,0c-1.2-0.9-3.1-0.9-4.4,0c-1.3,0.9-1.4,2.4-0.3,3.3
			l0,0l7.4,6l-22.5,0h0c-1.9,0-3.6,1.2-4,2.8c-0.4,1.6,0.9,2.9,2.8,2.9l0,0l11.4,0l-20.4,15.6c0,0-0.1,0-0.1,0.1
			c-1.9,1.5-2.5,3.9-1.3,5.5c1.2,1.6,3.8,1.6,5.8,0l11.1-9.1C235.8-321.8,235.6-320.6,235.6-319.8L235.6-319.8z M264.2-315.7
			c-2.3,2.3-5.5,3.7-9,3.7c-3.5,0-6.7-1.3-9-3.6c-1.1-1.1-1.9-2.4-2.4-3.8c-0.5-1.4-0.7-2.8-0.6-4.3c0.1-1.4,0.5-2.8,1.2-4
			c0.7-1.2,1.6-2.3,2.7-3.2c2.2-1.8,5.1-2.8,8-2.8c3,0,5.8,1,8,2.8c1.1,0.9,2,2,2.7,3.2c0.7,1.2,1.1,2.6,1.2,4
			c0.1,1.5-0.1,2.9-0.6,4.3C266.2-318.1,265.4-316.8,264.2-315.7L264.2-315.7z"/>
	</g>
</g>
</svg>
