<?xml version="1.0" encoding="utf-8"?>
<!-- Generator: Adobe Illustrator 27.0.0, SVG Export Plug-In . SVG Version: 6.00 Build 0)  -->
<svg version="1.1" id="Layer_1" xmlns="http://www.w3.org/2000/svg" xmlns:xlink="http://www.w3.org/1999/xlink" x="0px" y="0px"
	 viewBox="0 0 256 256" style="enable-background:new 0 0 256 256;" xml:space="preserve">
<style type="text/css">
	.st0{fill:#FE4804;}
	.st1{fill:#266ADB;}
	.st2{fill:#09447A;}
	.st3{fill:#1A4CA1;}
	.st4{fill:#FEFDFC;}
	.st5{fill:#E2E4E6;}
</style>
<path class="st0" d="M114,0.1h28c0.4,1.3,1.6,0.9,2.5,1c54.6,9.3,90.4,40.3,106.8,93.3c2.1,6.7,3.1,13.7,4.6,20.6v28
	c-2,1.7-1.4,4.3-1.8,6.4c-8.4,51.2-48.4,92.9-99.3,103.7c-4.3,0.9-8.8,0.7-12.8,2.8h-29c-1.7-2-4.3-1.4-6.4-1.8
	C55.8,245.9,13.6,205.6,3,155.3c-0.9-4.1-0.5-8.5-2.9-12.3v-30c1.9-1.6,1.4-3.9,1.7-5.9c8.8-51.3,46.3-91.5,97-103.7
	C103.8,2.2,109.1,2.2,114,0.1L114,0.1z M13.9,127.8c-0.3,62.7,50.4,113.9,113.1,114.3c63.4,0.4,114.7-50.2,115-113.4
	c0.3-63.2-50.2-114.4-113.1-114.8C65.4,13.5,14.2,64.2,13.9,127.8L13.9,127.8z"/>
<path class="st1" d="M23.7,110.8c4.5-38,36.1-73.6,75.3-84.6c17.4-4.9,35.1-5.6,52.7-1.2c6.6,1.6,13.2,3.4,19.3,6.5
	c0.1,5.4,4.4,8.8,6.3,13.3c9.5,22.5,10.2,44.9,0.6,67.7c-1.8,4.3-5.4,7.6-5.9,12.4c-9-7-19.7-9-30.5-10.9
	c-8.9-1.6-18.1-2.2-26.6-5.9c-1.8-6.2-0.4-8.8,5.9-10.7c2.9-0.9,5.8-1.3,8.8-1.4c11.4-0.2,22.4,1.9,32.7,7c2.6,1.3,3.7,0.7,4.7-1.8
	c2.7-6.4,5.3-12.9,8.5-19.1c2-4,1.4-5.7-2.8-7.3c-19.7-7.6-39.9-9.2-60.6-5.1c-12.9,2.6-24.3,7.7-31.4,19.5
	c-5,8.3-6.1,17.3-3.3,26.5c4.8,15.5,17.6,20.5,31.9,23.2c10.9,2.1,22.1,2.3,32.7,6.1c0.3,0.2,0.7,0.4,1,0.7l0.2,0.2
	c1.5,6.1,0.1,8.6-6,10.2c-2.1,0.6-4.2,1-6.4,1c-14.5,0.6-28.5-1.8-41.5-8.7c-2.7-1.4-4-1.4-5.1,1.6c-1.1,3.1-2.8,6-4.2,9
	c-23-7.1-40.5-20.8-51.4-42.6C27.6,114.1,27,111.3,23.7,110.8L23.7,110.8z"/>
<path class="st2" d="M207,58.2c4.3,3.2,7,7.8,9.6,12.2c6.8,11.4,12.1,23.4,14.9,36.7c3.6,17.4,2.7,34.1-2.4,50.8
	c-2.8,0.3-3.7,2.6-5,4.5c-8.2,12-17.9,22.8-29.2,31.8c-27.4,22.1-59,32.7-94.2,32.7c-1.9,0-4.1-0.4-5.7,1.2
	c-12.7-3.4-23.7-10-33.7-18.2c-16.5-13.5-28.4-30.2-34.1-51c1.8-0.1,3.1,0.8,4.4,1.9c20.1,17.8,44,25.6,70.4,26.8
	c2.3,0.1,5.4,0.3,7.1-2.5c11.3,0.9,22.7,1.9,34-0.8c23.1-3.2,34.1-13.8,38.9-37.4c2-0.2,3.3-1.5,4.4-3
	c13.8-18.3,21.3-38.8,21.8-61.9C208.2,74.1,206.9,66.2,207,58.2L207,58.2z"/>
<path class="st3" d="M207,58.2c-0.1,8,1.2,15.8,1.1,23.9c-0.4,23.1-8,43.6-21.8,61.9c-1.1,1.5-2.4,2.8-4.4,3
	c-0.8-8.5-3.5-16.1-9.9-22.1c0.5-4.8,4.1-8.2,5.9-12.4c9.6-22.7,8.9-45.2-0.6-67.7c-1.9-4.5-6.1-8-6.3-13.3
	c12.4,5.1,22.4,13.5,32.3,22.3C204.7,55,205.8,56.7,207,58.2z"/>
<path class="st3" d="M109,185.2c-1.7,2.8-4.8,2.6-7.1,2.5c-26.4-1.1-50.3-9-70.4-26.8c-1.3-1.1-2.6-2-4.4-1.9
	c-4.6-12.6-5.6-25.7-4.5-39c0.2-3.1-0.1-6.3,1.1-9.2c3.2,0.5,3.9,3.3,5,5.7c10.9,21.7,28.4,35.4,51.4,42.6
	c-1.6,3.8-2.8,7.8-4.8,11.4c-1.7,3-1,4.1,1.8,5.6C87.2,181.2,98.1,183.3,109,185.2L109,185.2z"/>
<path class="st3" d="M94.9,228.2c1.6-1.7,3.7-1.2,5.7-1.2c35.2,0,66.8-10.6,94.2-32.7c11.3-9.1,21-19.8,29.2-31.8
	c1.3-1.9,2.2-4.2,5-4.5c-1,8.5-5.6,15.7-9.5,22.9c-6.4,11.9-15.3,22.1-26.3,30.1c-1.6-0.2-2.8,0.5-4.1,1.3
	c-8.8,5.3-17.9,9.9-27.3,13.9c-1.3,0.5-2.4,1.2-2.7,2.6C137.6,235.5,116.2,235.8,94.9,228.2L94.9,228.2z"/>
<path class="st1" d="M159,228.9c0.3-1.5,1.4-2.1,2.7-2.6c9.4-4,18.5-8.6,27.3-13.9c1.3-0.8,2.6-1.4,4.1-1.3
	C183.1,219.5,171.7,225.5,159,228.9L159,228.9z"/>
<path class="st4" d="M171.9,124.9c6.4,5.9,9.1,13.6,9.9,22.1c-4.7,23.6-15.8,34.1-38.9,37.4c3-3.7,7.1-6.3,9.6-10.6
	c5.6-9.8,0.7-24.8-9.4-27.9l-0.2-0.2c-0.3-0.2-0.7-0.4-1-0.7c-10.6-3.8-21.8-4.1-32.7-6.1c-14.3-2.7-27-7.7-31.9-23.2
	c-2.9-9.2-1.7-18.2,3.3-26.5c7.1-11.8,18.5-16.9,31.4-19.5c-2.9,2.9-6.6,4.8-8.8,8.6c-6.8,11.9-0.8,27.5,11.6,29.8
	c8.4,3.8,17.6,4.3,26.6,5.9C152.2,116,163,118,171.9,124.9L171.9,124.9z"/>
<path class="st5" d="M143.3,145.9c10,3.1,14.9,18.1,9.4,27.9c-2.5,4.3-6.6,6.9-9.6,10.6c-11.3,2.7-22.6,1.7-34,0.8
	c-10.9-1.9-21.8-4-31.9-9.1c-2.8-1.5-3.5-2.6-1.8-5.6c2-3.6,3.2-7.6,4.8-11.4c1.4-3,3.1-5.9,4.2-9c1.1-3,2.4-3.1,5.1-1.6
	c13,6.9,26.9,9.2,41.5,8.7c2.1-0.1,4.3-0.5,6.4-1C143.4,154.4,144.8,151.9,143.3,145.9L143.3,145.9z"/>
<path class="st5" d="M114.9,108.1c-12.4-2.2-18.3-17.9-11.6-29.8c2.2-3.8,5.9-5.7,8.8-8.6c20.7-4.1,40.9-2.5,60.6,5.1
	c4.1,1.6,4.8,3.3,2.8,7.3c-3.2,6.2-5.8,12.7-8.5,19.1c-1.1,2.5-2.1,3.1-4.7,1.8c-10.3-5.1-21.2-7.2-32.7-7c-3,0.1-6,0.6-8.8,1.4
	C114.6,99.2,113.2,101.8,114.9,108.1L114.9,108.1z"/>
<path class="st5" d="M142,145c0.3,0.2,0.7,0.4,1,0.7C142.7,145.4,142.4,145.2,142,145z"/>
</svg>
