<?xml version="1.0" encoding="utf-8"?>
<!-- Generator: Adobe Illustrator 27.0.0, SVG Export Plug-In . SVG Version: 6.00 Build 0)  -->
<svg version="1.1" id="Layer_1" xmlns="http://www.w3.org/2000/svg" xmlns:xlink="http://www.w3.org/1999/xlink" x="0px" y="0px"
	 viewBox="0 0 283.5 283.5" style="enable-background:new 0 0 283.5 283.5;" xml:space="preserve">
<style type="text/css">
	.st0{fill:#579241;}
	.st1{display:none;fill:#579241;}
</style>
<path class="st0" d="M0,0v283.5h283.5V0H0z M240.1,52.1c0,0-22.3,7.7-37.1,22.9c-1,1.5,2.9,8.1,2.9,8.1s3.9,9-6.1,10.5
	c-2.9,2.3-1.8,6.3,0.6,7.4s3.1,2,5.8,2.3c2.7,0.4,8.7,0.7,12.2,2.4c1.7-2.5,5.8-2.4,5.8-2.4l7.4-0.3l0.9-2.5l4.3,3.1
	c0,0,0.3,2.4-1.8,2.3c-2.1-0.2-4.1-1-5.8,0.1c-1.7,1-2.6,2.8-2.8,3.3c-0.2,0.5-1,3.2-7.7,1.6c-6.6-1.7-14-6.2-21.8-4.9
	s-6.8,7.4-5.7,17.7c1.1,10.3,1.7,24.2,0.9,27.1c5.9,7.2,12.8,13.3,12.8,13.3s3.4,2.3,5.4,6.1c2,3.8,5,7.2,6.5,8.3
	c7.6,6.5,2.3,9.3-1.9,3.7c-0.8-1-6-6.5-6-6.5s-4.2-7.7-16.1-18.6c-11.9-10.9-6.1-18.8-6.1-18.8s2.8-8.9,0.1-11.5
	c-2.6-2.6-5.4-0.1-5.4-0.1s-6.5,15.4-12.4,21.5c-5.9,6.1-11.7,12.7-16.2,15c-4.5,2.3-22,15-22,15l-5.1,4.7c0,0,1.4,3.7-2.3,5.9
	c-3.7,2.3-7,1.9-7,1.9s-23.5,49.6-26.9,53.8c-3.4,4.2-1.8,7.3-1.8,7.3s-2.1-0.7-3.1,0.6c-1,1.3-11.9,18.1-11.9,18.1l0,0
	c0,0-7.1,3.9-4-1c3.1-4.9,12.8-18.9,12.8-18.9s-0.3-2.3,1.2-3.6c1.5-1.2,4.6-5.4,4.6-5.4l24.9-50.3c0,0,1.9-3.1,2-4.1
	c0.1-1,2-5.6,7.2-7.1c5.1-1.6,11-7.4,11-7.4s24.2-24.6,29.9-26.7c5.6-2.1,5.4-8.5,3.2-6.3c-2.3,2.2-9.1,7.2-15.2,10.2
	c-6.1,3-13.3,9.4-13.3,9.4s-7.6,4.2-12.5,4.5c-4.9,0.4-11.2-0.4-11.7-0.5c-0.4-0.1-0.5-4.4,1.7-6.4c2.2-2,5.5-3.6,6.1-7.1
	c0.6-3.5,3.8-10.4,5.9-11.4c2.2-1,4.4-10.4,14.2-16.8c4.8-3.9-14.4-1.3-14.4-1.3L89.4,121c0,0-4.4,1.7-7.8,1.1
	c-3.4-0.6-6.5,2.3-6.5,2.3s-7,7.2-10.9,9.7c-3.9,2.5-15.3,10.7-17,12.9c-1.7,2.2-6.9,2.8-6.9,2.8l-15.4-0.9c0,0-0.9-2.2,1.8-2
	c2.8,0.3,9.8,1.4,11.1,0.5c1.3-0.9,14.6-7.3,17.3-10.3c2.6-3,9.5-6,13.2-10.3c3.7-4.3,6.9-9.5,11.4-10.3c4.4-0.8,21.6,0.5,25.6,0
	c4-0.5,16.2-2.1,17.8-2.9c1.6-0.8,9.5-1.6,10.7-1.6h15.7c0,0,9.8-9,12.4-12.8c2.6-3.8,11.7-12.2,13.9-12.4c2.3-0.2,2.9-2.9,2.9-2.9
	s-1.3-7.7-3.4-9.5c-0.3-4.5,3.8-2.2,3.8-2.2s2.2,2.8,3.1,3.2c0.9,0.4,1.8,0.3,1.4-0.9c-0.4-1.2-2.4-3.3-2.6-4.6s1.6-3.9,3.3-1.6
	c1.7,2.4,0.5,4.1,0.5,4.1s-0.8,3,0.8,4c1.6,1,2.4,0.7,2.4-0.1c0-0.8-0.8-2,0-2.9c0.8-1,4-2.4,4.9-1.6c0.8,0.9,2.4-0.1,2.8-0.1
	c0.4-0.1,1.6,0.5,1.6,0.5s-0.9-47.3-4.4-52.5c4.4,0.5,4.4,7.5,4.4,7.5s2.4,41.6,2.3,44.3c0,2.3,0.7,3.3,2.1,2.8
	c1.4-0.5,8.6-15,38.5-24.4C242,51.4,240.1,52.1,240.1,52.1z"/>
<path class="st1" d="M240.1,49.8c-29.9,9.4-37.1,23.9-38.5,24.4c-1.4,0.5-2.1-0.5-2.1-2.8c0.1-2.8-2.3-44.3-2.3-44.3s0-6.9-4.4-7.5
	c3.5,5.2,4.4,52.5,4.4,52.5s-1.2-0.5-1.6-0.5c-0.4,0.1-2,1-2.8,0.1c-0.9-0.8-4.1,0.6-4.9,1.6c-0.8,1,0,2.2,0,2.9
	c0,0.8-0.8,1.2-2.4,0.1c-1.6-1-0.8-4-0.8-4s1.2-1.7-0.5-4.1c-1.7-2.3-3.5,0.3-3.3,1.6s2.2,3.4,2.6,4.6c0.4,1.2-0.5,1.3-1.4,0.9
	c-0.9-0.4-3.1-3.2-3.1-3.2s-4.1-2.3-3.8,2.2c2.1,1.8,3.4,9.5,3.4,9.5s-0.6,2.8-2.9,2.9c-2.3,0.2-11.3,8.5-13.9,12.4
	c-2.6,3.8-12.4,12.8-12.4,12.8h-15.7c-1.2,0-9.2,0.8-10.7,1.6c-1.6,0.8-13.7,2.4-17.8,2.9c-4,0.5-21.2-0.8-25.6,0
	c-4.4,0.8-7.7,6-11.4,10.3c-3.7,4.3-10.6,7.3-13.2,10.3c-2.6,3-16,9.4-17.3,10.3c-1.3,0.9-8.4-0.3-11.1-0.5c-2.8-0.3-1.8,2-1.8,2
	l15.4,0.9c0,0,5.2-0.5,6.9-2.8c1.7-2.2,13.1-10.5,17-12.9c3.9-2.5,10.9-9.7,10.9-9.7s3.1-2.9,6.5-2.3c3.4,0.6,7.8-1.1,7.8-1.1
	l37.1-0.9c0,0,19.2-2.6,14.4,1.3c-9.8,6.4-12,15.8-14.2,16.8c-2.2,1.1-5.3,7.9-5.9,11.4c-0.6,3.5-3.9,5.1-6.1,7.1
	c-2.2,2-2.1,6.4-1.7,6.4c0.4,0.1,6.8,0.9,11.7,0.5c4.9-0.3,12.5-4.5,12.5-4.5s7.2-6.4,13.3-9.4c6.1-3,12.9-8,15.2-10.2
	c2.3-2.2,2.4,4.2-3.2,6.3c-5.6,2.1-29.9,26.7-29.9,26.7s-5.8,5.8-11,7.4c-5.2,1.6-7.1,6.1-7.2,7.1c-0.1,1-2,4.1-2,4.1l-24.9,50.3
	c0,0-3.1,4.2-4.6,5.4c-1.5,1.2-1.2,3.6-1.2,3.6s-9.8,14-12.8,18.9c-3,4.9,4,1,4,1l0,0c0,0,10.9-16.8,11.9-18.1
	c1-1.3,3.1-0.6,3.1-0.6s-1.6-3.1,1.8-7.3c3.4-4.2,26.9-53.8,26.9-53.8s3.3,0.3,7-1.9c3.7-2.3,2.3-5.9,2.3-5.9l5.1-4.7
	c0,0,17.4-12.7,22-15c4.5-2.3,10.3-8.9,16.2-15c5.9-6.1,12.4-21.5,12.4-21.5s2.8-2.5,5.4,0.1c2.6,2.6-0.1,11.5-0.1,11.5
	s-5.8,8,6.1,18.8c11.9,10.8,16.1,18.6,16.1,18.6s5.2,5.4,6,6.5c4.2,5.7,9.5,2.9,1.9-3.7c-1.5-1.1-4.6-4.5-6.5-8.3
	c-2-3.8-5.4-6.1-5.4-6.1s-6.9-6.1-12.8-13.3c0.8-2.9,0.1-16.7-0.9-27.1c-1-10.3-2-16.4,5.7-17.7s15.2,3.2,21.8,4.9
	c6.6,1.6,7.5-1.1,7.7-1.6c0.2-0.5,1.1-2.3,2.8-3.3c1.7-1,3.7-0.3,5.8-0.1c2.1,0.2,1.8-2.3,1.8-2.3l-4.3-3.1l-0.9,2.5l-7.4,0.3
	c0,0-4.1-0.2-5.8,2.4c-3.5-1.7-9.5-2-12.2-2.4c-2.7-0.3-3.3-1.2-5.8-2.3s-3.5-5.1-0.6-7.4c10-1.5,6.1-10.5,6.1-10.5
	s-3.9-6.5-2.9-8.1c14.8-15.2,37.1-22.9,37.1-22.9S242,51.4,240.1,49.8z"/>
</svg>
