<?xml version="1.0" encoding="utf-8"?>
<!-- Generator: Adobe Illustrator 27.0.0, SVG Export Plug-In . SVG Version: 6.00 Build 0)  -->
<svg version="1.1" id="Layer_1" xmlns="http://www.w3.org/2000/svg" xmlns:xlink="http://www.w3.org/1999/xlink" x="0px" y="0px"
	 viewBox="0 0 240 240" style="enable-background:new 0 0 240 240;" xml:space="preserve">
<style type="text/css">
	.st0{fill:#330000;}
	.st1{fill:#FF9A00;}
</style>
<path class="st0" d="M40,0h160c23.5,0,40,16.5,40,40v160c0,23.5-16.5,40-40,40H40c-23.5,0-40-16.5-40-40V40C0,16.5,16.5,0,40,0z"/>
<path class="st1" d="M120.1,151.3H82.9l-7.6,23.5c-0.2,0.9-1,1.5-1.9,1.4H54.6c-1.1,0-1.4-0.6-1.1-1.8l32.2-92.7
	c0.3-1,0.6-2.1,1-3.3c0.4-2.1,0.6-4.3,0.6-6.5c-0.1-0.5,0.3-1,0.8-1.1H114c0.8,0,1.2,0.3,1.3,0.8l36.5,103c0.3,1.1,0,1.6-1,1.6
	h-20.9c-0.7,0.1-1.4-0.4-1.6-1.1L120.1,151.3z M88.7,131h25.4c-0.6-2.1-1.4-4.6-2.3-7.2c-0.9-2.7-1.8-5.6-2.7-8.6
	c-1-3.1-1.9-6.1-2.9-9.2c-1-3.1-1.9-6-2.7-8.9c-0.8-2.8-1.5-5.4-2.2-7.8h-0.2c-0.9,4.3-2,8.6-3.4,12.9c-1.5,4.8-3,9.8-4.6,14.8
	C91.7,122.1,90.2,126.9,88.7,131z M174.1,88.3c-3.3,0.1-6.5-1.2-8.9-3.5c-2.3-2.5-3.5-5.8-3.4-9.2c-0.1-3.4,1.2-6.6,3.6-8.9
	s5.6-3.5,8.9-3.5c3.9,0,6.9,1.2,9.1,3.5c2.2,2.4,3.4,5.6,3.3,8.9c0.1,3.4-1.1,6.7-3.5,9.2C180.9,87.2,177.5,88.5,174.1,88.3
	L174.1,88.3z M162.9,175.1v-77c0-1,0.4-1.4,1.3-1.4H184c0.9,0,1.3,0.5,1.3,1.4v77c0,1.1-0.4,1.6-1.3,1.6h-19.6
	C163.4,176.8,162.9,176.1,162.9,175.1z"/>
</svg>
