<?xml version="1.0" encoding="utf-8"?>
<!-- Generator: Adobe Illustrator 27.0.0, SVG Export Plug-In . SVG Version: 6.00 Build 0)  -->
<svg version="1.1" id="layer" xmlns="http://www.w3.org/2000/svg" xmlns:xlink="http://www.w3.org/1999/xlink" x="0px" y="0px"
	 viewBox="0 0 389.1 389.5" style="enable-background:new 0 0 389.1 389.5;" xml:space="preserve">
<style type="text/css">
	.st0{fill:none;}
	.st1{fill:#427488;}
</style>
<polygon class="st0" points="125.4,389.5 125.7,389.5 125.5,389.4 "/>
<path class="st0" d="M387.5,90.1c-0.9,4-1.1,8-1,12.1c0.1,4.1,0.6,8.1,1.5,12.1c0.3,1.3,0.6,2.7,1,4V85.1
	C388.4,86.7,387.9,88.4,387.5,90.1z"/>
<path class="st0" d="M386.5,102.2c-0.1-4.1,0.1-8.1,1-12.1c0.4-1.7,0.9-3.4,1.5-5v-3.4c-1.3,2.5-2.4,5.3-3.1,8
	c-1,4.2-1.4,8.4-1.4,12.6c0,3.2,0.3,6.5,0.8,9.7c-2.3-4.9-4.6-9.8-6.9-14.8c-3.5-7.7-6.7-15.6-9.1-23.7c-2.4-8.1-3.9-16.5-3.6-25.1
	c-0.7,8.5,0.5,17.1,2.7,25.3c2.1,8.3,5.1,16.3,8.3,24.2c3.2,7.9,6.6,15.7,9.8,23.5c0.9,2.1,1.7,4.2,2.5,6.3v-9.4
	c-0.4-1.3-0.7-2.7-1-4C387.1,110.3,386.6,106.3,386.5,102.2z"/>
<path class="st0" d="M388.4,219.9l0.3-0.5v-13.6c-1.9,3.6-4.1,7.2-6.2,10.9c-1.8,3.8-3.9,7.7-5.5,12l0,0c-0.3,0.8-0.6,1.6-0.8,2.4
	c-4.9-4.9-9.5-9.8-13.5-15.2l-1.7-2.3c-0.5-0.7-1-1.4-1.6-2.1c-1-1.5-2-2.9-3-4.4c-1.9-3-3.8-6.1-5.4-9.2
	c-6.7-12.6-10.9-26.5-11.3-40.7c-0.1-3.5,0-7.1,0.4-10.7c0.2-1.8,0.4-3.5,0.7-5.3l1-5.5c1.4-7.2,3.4-14.4,5.2-21.7
	c1.9-7.3,3.7-14.9,4.3-22.6c0.3-3.9,0.3-7.8-0.2-11.7c-0.4-3.9-1.3-7.7-2.5-11.4c-0.2-0.6-0.4-1.2-0.6-1.8c1.5-1.3,2.9-2.8,4-4.5
	c1.3-2,2.3-4.2,3.1-6.4c1.6-4.5,2.3-9,3.2-13.5s1.7-9,3.6-13.2c1-2.1,2.2-4,3.9-5.5c1.7-1.6,3.7-2.7,5.9-3.3c-2.2,0.5-4.4,1.5-6.2,3
	s-3.2,3.4-4.3,5.5c-2.1,4.2-3.2,8.7-4.3,13.2c-1.1,4.5-2.1,9-3.8,13.1c-1.4,3.5-3.4,6.8-6.2,9.1c-0.9-2.2-1.9-4.3-2.9-6.3
	c-1.7-3.4-3.5-6.7-5.3-10c-3.7-6.6-7.7-13-12.5-18.8c4.4,6.1,7.9,12.8,11.1,19.6c1.6,3.4,3.1,6.8,4.5,10.3c1.5,3.4,2.7,6.9,3.6,10.5
	c1.8,7.1,2,14.5,0.9,21.6c-0.2,1-0.3,2-0.5,3c-1.5-6.5-3.8-12.7-7-18.5C334.3,67,328,59.6,320.4,54c-3.7-2.8-7.4-5.7-10.6-9
	c-3.3-3.3-6.1-7-7.9-11.3c-1.8-4.3-2.6-8.9-2.8-13.6s0.1-9.3,0.6-14c-0.6,4.6-1,9.3-0.9,14c0.1,4.7,0.7,9.4,2.5,13.8
	c1.7,4.4,4.6,8.3,7.8,11.7c3.3,3.4,6.9,6.4,10.6,9.3c7.3,5.6,13.2,13,17.4,21.2c3.8,7.4,6.2,15.4,7.4,23.6
	c-1.1,4.1-2.4,8.2-3.8,12.3c-2.1,6.3-4.3,12.6-6.2,19.2c-0.6,0.2-1.3,0.4-1.9,0.6c-2.5,0.8-5,1.3-7.6,1.3c-5.2,0-10.5-1-15.4-2.9
	c-4.9-1.9-9.5-4.7-13.3-8.4s-6.7-8.4-7.7-13.7c0.8,5.3,3.5,10.2,7.2,14.1c3.7,3.9,8.3,7,13.3,9.1c5,2.2,10.3,3.5,15.8,3.7
	c2.8,0.1,5.6-0.4,8.2-1.1l0.6-0.2l-1.4,5.5c-0.5,1.9-0.9,3.9-1.2,5.8c-0.7,3.9-1.1,7.9-1.3,11.8c-0.3,7.9,0.4,15.9,2,23.7
	c1.5,7,3.7,13.9,6.4,20.5c-3.8,2.4-7.6,4.6-11.8,6.3c-2.4,1-4.8,1.8-7.3,2.1c-2.5,0.3-5.2,0-7.4-1.5c1,0.8,2.2,1.4,3.5,1.7
	c1.3,0.3,2.6,0.4,3.9,0.4c2.6-0.1,5.2-0.7,7.7-1.5c4.3-1.4,8.3-3.3,12.3-5.3c1.6,3.6,3.3,7.1,5.2,10.5c1,1.7,2,3.4,3,5.1
	c0.5,0.8,1.1,1.7,1.6,2.5l0.4,0.6l0.2,0.3l0.1,0.1v-0.1l0.1,0.1l0.8,1.3c4.3,6.8,9.4,13,14.5,18.8c5.1,5.8,10.4,11.3,15.2,16.7
	c3,3.4,5.9,6.8,8.5,10.3v-26.2c-2.2-2.1-4.4-4.1-6.6-6.2C382.8,231.4,385.4,225.5,388.4,219.9z"/>
<path class="st0" d="M358,366.9L358,366.9l-1.3-1.9l-1.3-1.8c-0.9-1.3-1.9-2.5-2.9-3.7l-0.6-0.8c1.2-9.6,2.3-19.4,2.8-29.3
	c0.3-5.2,0.4-10.4,0.4-15.6c0-2.6-0.1-5.2-0.3-7.9c-0.1-1.3-0.2-2.7-0.3-4v-0.8l-0.1-0.5l-0.2-1.1c-0.1-0.7-0.2-1.4-0.4-2.1
	c-1.2-5.7-3.2-11.1-6-16l-0.9-1.5c2.5-2.1,5.2-4.1,8-5.7c1.6-1,3.4-1.6,5.4-1.9c1.9-0.3,3.9-0.5,5.8-1.1c-1.9,0.4-3.9,0.4-5.9,0.5
	c-2,0.1-4,0.5-5.9,1.4c-3,1.4-5.9,3-8.7,4.9c-2.2-3.5-4.8-6.7-7.4-9.7c-3.5-4-7.2-7.6-10.9-11.1l-5.6-5.1l-2.8-2.5l-0.7-0.6
	l-0.1-0.1l-0.2-0.2l-0.3-0.3l-1.3-1.3c-7-6.9-13.7-14.1-19.6-21.9c-2.9-3.8-5.6-7.8-8.1-11.9c1.1-0.9,2.2-1.8,3.4-2.7
	c1.8-1.4,3.7-3.1,5-5.1c2.6-3.9,4.7-7.9,6.3-12.3v-0.1c0.6-3.1,1.4-6.1,1.7-9.3c-0.1-4.4-2.2-8.4-2-12.8c-0.5,4.3,1.4,8.5,1.3,12.8
	c-0.5,3-1.4,6-2.2,9c-1.7,4.1-4.1,8-6.7,11.6c-1.3,1.8-2.9,3.1-4.8,4.4c-1.1,0.7-2.2,1.5-3.4,2.3c-2.1-3.6-3.9-7.3-5.6-11.1
	c-3.8-9-6.3-18.6-6.8-28.5c-0.5-9.9,1-19.9,4.2-29.4c-3.9,9.2-6.3,19.2-6.6,29.4c-0.3,10.2,1.4,20.4,4.7,30.2
	c3.2,9.5,7.7,18.4,13,26.8l-0.3-0.1c-1.6-0.9-3.5-1.5-5.4-1.7c-1.9-0.2-3.7,0-5.5,0.4c-3.4,0.9-6.9,1.7-10.4,1.4
	c-3.5-0.2-6.9-1.4-10.1-2.8c3.1,1.7,6.5,3.1,10.1,3.5c3.6,0.4,7.2-0.1,10.7-0.8c1.6-0.3,3.4-0.4,5-0.1c1.7,0.3,3.2,0.9,4.6,1.8
	c1.4,0.8,2.7,1.9,4.1,2.9c4.9,7.3,10.4,14.2,16.1,20.8l1.3,1.4l0.3,0.4l0.2,0.2l0.2,0.2l0.6,0.7l2.6,2.8l5.1,5.5
	c3.3,3.6,6.5,7.3,9.3,11.1s5.2,7.7,7.1,11.7c1.8,4,3,8.2,3.5,12.4l0.2,1.6l0.1,0.8v4.1c0,2.4-0.1,4.7-0.3,7.1
	c-0.3,4.8-0.9,9.6-1.5,14.4c-0.7,4.8-1.5,9.6-2.4,14.5c-8-6.7-16.6-12.3-25.2-17.3c-2.7-1.5-5.4-3-8.1-4.5c0.3-2.9,0.6-5.8,0.8-8.7
	c0.3-4.3,0.5-8.7,0.1-13.1c-0.3-3.5-0.9-6.9-1.9-10.2l0.2,0.1c0.4-0.9,1.3-1.8,2.4-2.5c1.1-0.7,2.3-1.4,3.5-1.9
	c2.5-1.1,5.1-2,7.7-2.7c-2.7,0.3-5.5,0.8-8.2,1.5c-1.3,0.4-2.7,0.8-4,1.5c-0.7,0.3-1.3,0.7-1.9,1.1l-0.5,0.4l-0.1-0.2
	c-1.5-4.2-3.4-8.1-5.5-11.8c-0.5-0.9-1.1-1.9-1.6-2.8c-0.6-1-1.2-1.9-1.9-2.7c-1.3-1.8-2.7-3.4-4.1-5c-2.8-3.2-5.8-6.2-8.6-9.3
	c-2.8-3.1-5.5-6.3-7.7-9.8s-3.9-7.5-4.3-11.7c0.1,4.2,1.5,8.4,3.5,12.2s4.5,7.3,7.1,10.6c2.6,3.3,5.3,6.6,7.9,9.9l0.2,0.3
	c-0.8,0.1-1.6,0.3-2.3,0.5c-1.2,0.4-2.3,0.9-3.3,1.6s-2,1.5-2.7,2.5s-0.9,2.3-0.5,3.4c-0.2-1.2,0.3-2.3,1.1-3
	c0.8-0.8,1.7-1.3,2.7-1.7s2.1-0.7,3.2-0.8c1.1-0.1,2.2-0.2,3.1,0l0.1-0.7c0.7,1,1.4,2,2,3c0.5,0.9,1.1,1.8,1.5,2.6
	c0.5,0.9,0.9,1.9,1.4,2.8c1.8,3.7,3.3,7.6,4.3,11.5c1,3.9,1.6,7.9,1.6,11.9s-0.4,8-1,12.1c-0.3,1.9-0.6,3.9-1,5.8l-0.5-0.3
	c-5.1-2.6-10-5.2-14.7-8c-9.4-5.7-17.9-12.2-24.4-20.5c-6.6-8.2-11.4-18-15-28.5l-0.7-2l-0.3-1l-0.3-0.9l-1.2-4.1
	c-0.8-2.7-1.6-5.4-2.3-8.1c-1.5-5.4-2.8-10.9-3.9-16.4c-2.2-11-3.5-22.1-3.4-33.3c0.1-11.1,1.6-22.3,4.5-33.1
	c0.4-1.4,0.7-2.7,1.1-4.1l0.6-2l0.6-2.1c0.8-2.7,1.7-5.4,2.6-8.1c0.7-2,1.4-4.1,2.1-6.1c1.5-2,3.3-4,5.1-5.8c2.1-2,4.3-3.9,6.5-5.7
	c1.1-0.9,2.3-1.8,3.5-2.6l1.8-1.3l0.2-0.2l0.1-0.1h0.1l0.5-0.3l0.9-0.5c1.3-0.6,2.6-1,4-1.3c1.4-0.3,2.9-0.5,4.3-1.3
	c1.4-0.7,2.4-1.8,3.4-2.9l1.4-1.7c0.4-0.6,0.8-1.3,1.1-1.9c1.2-2.7,1.8-5.6,2.3-8.5c0.5-2.9,0.8-5.8,1.3-8.6c-0.6,2.8-1,5.7-1.7,8.6
	c-0.6,2.8-1.3,5.7-2.5,8.3c-0.3,0.6-0.7,1.2-1.1,1.8l-1.4,1.6c-1,1.1-2,2-3.3,2.6c-1.2,0.6-2.6,0.8-4.1,1.1
	c-1.5,0.2-2.9,0.6-4.3,1.2l-1,0.5l-0.5,0.3h-0.2l-0.1,0.1l-0.2,0.2l-1.8,1.2c-1.2,0.8-2.4,1.6-3.6,2.5c-2.4,1.7-4.7,3.5-6.9,5.5
	c-0.6,0.6-1.3,1.2-1.9,1.8c0.6-1.6,1.1-3.1,1.7-4.7c3.9-10.8,8-21.5,11.6-32.4c1.9-5.5,3.4-11.1,4.3-16.9l0.1-0.7l2.8-0.3l0.2,0.3
	c1.4,2,4.5,2.1,10.4-2.2c5.9-4.3,8.5-11.6,8.5-11.6s-7.7,0.2-13.6,4.5c-4.7,3.4-6.1,6-5.8,7.9l-2.2,0.2c0.7-5.1,0.7-10.4,0.2-15.5
	c-0.6-5.8-2-11.4-3.5-16.9s-3.1-11-4.5-16.6c1.1,5.6,2.5,11.2,3.7,16.8c1.2,5.6,2.3,11.2,2.7,16.9c0.4,5.7-0.1,11.3-1.2,16.8
	c-0.9,4.6-2.3,9-3.9,13.5l-3.6-1.4c0.8-1.8,0.1-4.7-3.6-9.2c-4.6-5.7-12-7.8-12-7.8s0.6,7.7,5.2,13.4c4.6,5.7,7.6,6.3,9.5,4.8
	l0.2-0.1l3.9,1.5l-0.7,1.7c-5.3,13.7-11.3,27.2-16.9,40.9c-0.3-0.7-0.7-1.4-1.2-2.1c-2-3.1-4.8-5.4-7.5-7.6s-5.6-4.1-8-6.7
	c-1.1-1.3-2.1-2.7-2.5-4.4c-0.4-1.7,0.1-3.5,0.8-5c-0.9,1.5-1.4,3.3-1.2,5c0.2,1.8,1.2,3.4,2.3,4.8c2.3,2.8,5.1,4.9,7.6,7.2
	c2.6,2.3,5,4.7,6.7,7.6c0.8,1.3,1.3,2.8,1.6,4.2c-2.6,6.6-5.1,13.3-7.3,20.1c-0.7,2.1-1.2,4.2-1.8,6.3l-0.1-0.9
	c-3.3,0.4-6.5,0.1-9.7-0.8s-6.2-2.3-9-4.1c-5.6-3.6-10.2-8.7-13.9-14.3c-3.6-5.7-6.3-12-7.7-18.6c-1.3-6.6-1.2-13.6,1.3-19.8
	c1.2-3.1,3.2-5.9,5.8-8c2.5-2.2,5.5-3.8,8.5-5.5c3-1.6,6.1-3.2,8.9-5.2c1.4-1,2.8-2.1,4-3.3c1.2-1.2,2.5-2.4,3.6-3.7
	c2.2-2.6,4-5.6,5.3-8.9c1.2-3.2,1.9-6.6,2.2-10.1c0.5-6.9-0.6-13.7-1.9-20.4c1.2,6.7,2.1,13.6,1.6,20.4c-0.3,3.4-1,6.8-2.3,9.9
	c-1.3,3.1-3.1,6.1-5.3,8.6c-1.1,1.3-2.3,2.5-3.6,3.6c-1.2,1.2-2.6,2.2-4,3.2c-2.8,1.9-5.8,3.5-8.9,5c-3,1.6-6.1,3.2-8.8,5.5
	c-1.3,1.1-2.6,2.4-3.6,3.8c-1.1,1.4-1.9,3-2.6,4.6c-1.4,3.2-2.1,6.7-2.4,10.2c-0.2,3.5,0,7,0.6,10.4c1.3,6.9,3.9,13.4,7.6,19.3
	c3.7,5.9,8.4,11.2,14.3,15.2c2.9,2,6.1,3.6,9.5,4.6c3.2,1,6.7,1.3,10,1.1c-2.2,8.7-3.6,17.7-4.1,26.7c-0.2,3.7-0.3,7.4-0.2,11.1
	c-4.4-1.7-8.7-3.7-12.8-6.1c-5.6-3.2-10.8-7.1-15.6-11.5c-9.7-8.7-17.7-19.3-24.8-30.4c-7.1-11.2-13.3-23-19.5-34.8
	c-1.3-2.5-2.6-5-3.9-7.5c1.4-1.2,2.7-2.7,3.8-4.3c1.1-1.7,2-3.5,2.7-5.4c1.3-3.8,1.8-7.6,2.3-11.4c0.5-3.8,0.9-7.6,2.2-11.2
	c0.6-1.8,1.4-3.5,2.5-5.1c1.1-1.5,2.5-2.9,4.1-4c-1.6,1-3.1,2.3-4.3,3.8c-1.2,1.5-2.2,3.2-2.9,5c-1.5,3.6-2.1,7.5-2.8,11.2
	c-0.7,3.8-1.4,7.5-2.9,10.9c-1.3,3.2-3.3,5.9-5.8,8c-4.5-8.6-9.2-17.1-14.4-25.3c12.3,21.8,21.1,45.2,33.2,67.3
	c-2.3,2.2-5.1,3.9-8.2,5.1c-3.5,1.4-7.3,2.2-11,2.5c-3.8,0.3-7.6,0-11.3-1c-1.8-0.5-3.6-1.2-5.2-2.1c-1.6-1-3.2-2.1-4.8-3.2
	c-1.6-1.1-3.2-2.3-5-3.2c-0.9-0.5-1.8-0.8-2.7-1.2l-2.8-1c-3.7-1.3-7.4-2.4-11.2-3.5c-7.5-2.2-14.9-4.5-22.1-7.6
	c7.1,3.3,14.5,5.7,21.9,8.2c3.7,1.2,7.4,2.5,11,3.8l2.7,1c0.9,0.4,1.8,0.7,2.6,1.2c1.7,0.9,3.2,2,4.8,3.2c1.5,1.2,3.1,2.4,4.8,3.4
	c1.7,1.1,3.6,1.9,5.5,2.4c3.8,1.2,7.9,1.5,11.9,1.4c4-0.2,8-0.9,11.7-2.3c3.1-1.1,6.1-2.7,8.6-5c0.4,0.8,0.8,1.5,1.3,2.3
	c6.7,11.7,14.4,23,24.1,32.7c4.9,4.8,10.2,9.2,16,13c5.2,3.4,10.9,6.3,16.7,8.6c0.4,5.3,1,10.6,1.8,15.8c0.2,1.2,0.4,2.5,0.6,3.7
	c-5.4-0.9-10.7-2.5-15.9-4.6c-6.4-2.5-12.7-5.6-19-8.6c-6.4-3-12.9-6-19.8-8.2c-6.9-2.2-14.2-3.5-21.4-3.4c-0.9,0-1.8,0.1-2.7,0.1
	c-0.8,0-1.7,0.1-2.5,0.1c-1.7,0-3.4-0.1-5.1-0.3c-3.4-0.3-6.8-0.9-10.1-1.8c-6.7-1.7-13.2-4.3-19.2-7.8c-6-3.4-11.6-7.7-16.4-12.8
	c-4.7-5.1-8.6-11.2-10.7-17.9c1.8,6.8,5.4,13.1,10,18.5c4.6,5.4,10.1,10,16.1,13.8s12.6,6.8,19.4,8.9c3.4,1,6.9,1.9,10.5,2.4
	c1.8,0.3,3.6,0.4,5.4,0.5c0.9,0,1.8,0.1,2.7,0.1h2.6c6.8,0.2,13.5,1.7,19.9,4.1c6.4,2.4,12.6,5.5,18.8,8.8s12.4,6.7,19,9.6
	c6.3,2.8,13,5.1,20,6.3c0.4,1.9,0.8,3.7,1.2,5.5c0.6,2.8,1.3,5.7,2,8.5l1.1,4.2l0.3,1.1l0.3,1.1l0.6,2.1c1.7,5.7,3.7,11.3,6.3,16.9
	c2.5,5.5,5.6,10.9,9.3,15.9c1.5,2,3,4,4.6,5.8l-1.7,0.3c-5.1,1-10.2,2.3-15.1,3.7c-5.8,1.6-11.4,3.5-17,5.2
	c-7.2-4.7-14.7-8.6-21.9-12.6c-7.6-4.3-14.9-9-21.1-14.9l-9.8-9c-3.3-3-6.7-6-10.5-8.7c-3.7-2.7-7.9-5-12.3-6.5
	c-4.4-1.6-9-2.5-13.5-2.8c-1.1-0.1-2.3-0.2-3.4-0.2s-2.2-0.1-3.4-0.1h-4.8l-0.1-2.8l0.3-0.2c2.1-1.2,2.6-4.3-1.1-10.6
	c-3.7-6.3-10.7-9.6-10.7-9.6s-0.6,7.7,3.1,14c2.9,5,5.3,6.7,7.3,6.6l0.1,2.6h-0.8c-4.5,0.1-8.9,0.3-13.2,0s-8.6-1.1-12.4-2.9
	c-1-0.4-1.9-1-2.8-1.5l-1.4-0.9l-1.4-0.9c-1.9-1.2-3.7-2.4-5.5-3.7c-7.1-5.2-13.8-11.1-19.9-17.4c-6.1-6.4-11.8-13.2-16.4-20.9
	c4.3,7.8,9.7,14.9,15.7,21.5c6,6.6,12.4,12.8,19.5,18.3c1.8,1.4,3.6,2.7,5.4,4l1.4,0.9l1.4,0.9c1,0.6,2,1.2,3,1.7
	c4.1,2.1,8.7,3.2,13.2,3.7s9,0.5,13.4,0.5c2.2,0,4.4,0.1,6.6,0.2c1.1,0.1,2.1,0.1,3.3,0.2c1.1,0.1,2.2,0.2,3.2,0.3
	c1.8,0.2,3.6,0.5,5.3,0.9l-0.8,2.1c-1.7-1.2-4.7-0.7-9.6,3.2c-5.8,4.5-8,11.9-8,11.9s7.7-0.5,13.5-5c5.6-4.4,6.4-7.3,5.1-9.3
	l1.1-2.7c2,0.5,4,1.1,5.9,1.9c3.9,1.6,7.6,3.8,10.9,6.4c3.4,2.6,6.6,5.6,9.7,8.6l9.4,9.3c6.5,6.5,14.1,11.8,21.7,16.5
	c5.4,3.3,10.8,6.5,16,9.8c-0.9,0.3-1.7,0.5-2.6,0.8c-9.5,2.9-19.1,5.4-28.8,6.6c-4.8,0.6-9.7,0.9-14.6,0.8c-2.4,0-4.9-0.2-7.3-0.4
	l-1.8-0.2l-1.8-0.3c-1.2-0.2-2.4-0.4-3.7-0.6c-4.6-0.8-9.1-1.8-13.8-2.8c-1.4-0.6-2.7-1.2-4.1-1.8c-4.6-2.3-9-5.1-13.2-8
	c-8.5-5.9-16.7-12.5-25.7-17.8c-8.9-5.4-18-10.5-27-15.8c-8.9-5.3-17.7-11-25.8-17.5c8,6.7,16.7,12.5,25.5,18.1
	c8.8,5.5,17.9,10.8,26.6,16.3c8.9,5.4,16.8,12.2,25.3,18.3c3.2,2.3,6.6,4.6,10,6.6c-2.6-0.4-5.3-0.7-8-0.9
	c-5.3-0.3-10.6,0.4-15.7,1.9c-2.5,0.7-5,1.6-7.3,2.6c-1.2,0.5-2.4,1-3.5,1.6c-1.1,0.5-2.2,1.1-3.4,1.6c-9.1,4-18.9,6.3-28.8,8.2
	s-19.9,3.5-29.6,6.4c9.8-2.4,19.8-3.5,29.9-4.8c10-1.3,20.1-3.2,29.7-6.8c1.2-0.4,2.4-0.9,3.6-1.4c1.1-0.5,2.3-0.9,3.5-1.3
	c2.3-0.8,4.7-1.6,7-2.1c4.7-1.1,9.6-1.4,14.3-1c4.8,0.4,9.6,1.7,14.4,3c4.8,1.3,9.8,2.7,14.8,3.8c1.3,0.3,2.5,0.5,3.8,0.8l1.9,0.4
	l2,0.3c2.6,0.4,5.2,0.7,7.8,0.9c5.2,0.4,10.5,0.3,15.7-0.1c10.4-0.8,20.6-2.8,30.5-5.3c9.9-2.4,19.6-5.2,29.3-7.4
	c8.5-1.9,17-3.4,25.4-3.9c3.5,2.9,7.1,5.5,10.8,8c5,3.3,10.1,6.4,15.1,9.2c4.9,2.8,9.7,5.7,14.4,8.7c9.4,6,18.1,12.5,25.6,20.1
	c1.7,1.7,3.4,3.5,5,5.4c-0.9-0.4-1.7-0.8-2.6-1.2c-8.7-3.9-17.7-6.5-27-8.1c-9.2-1.5-18.7-2-28-0.9c-18.2,2.2-35.7,7.1-53.5,8.5
	c-2.2,0.2-4.5,0.3-6.7,0.3c-2.2,0-4.4-0.2-6.6-0.4c-4.4-0.5-8.9-1.2-13.4-1.8c-4.5-0.6-9.1-1-13.6-0.7c-2.3,0.2-4.5,0.5-6.7,1.2
	s-4.2,1.7-6,3.1c1.9-1.3,3.9-2.2,6.1-2.7c2.2-0.5,4.4-0.7,6.6-0.8c4.5,0,8.9,0.6,13.3,1.5c4.4,0.8,8.8,1.8,13.3,2.6
	c2.3,0.4,4.5,0.7,6.9,0.8c2.3,0.1,4.6,0.1,6.9,0.1c9.1-0.2,18.2-1.2,27.2-2.4c9-1.2,17.9-2.4,26.8-2.9c8.6-0.6,17.4,0.4,25.9,2.3
	c1.5,0.3,2.9,0.7,4.4,1.1c-2.3,0.1-4.7,0.4-6.9,1.1c-2.9,0.9-5.6,2.1-8.1,3.9c-2.4,1.7-4.6,3.7-6.4,6.1c-1.8,2.4-3.2,5.1-4.1,7.9
	c-0.7,2.2-1.1,4.5-1.2,6.7h2.5c0.3-2,0.7-3.9,1.4-5.8c0.9-2.5,2.3-4.7,4-6.7s3.7-3.6,6-5c2.2-1.3,4.6-2.3,7.1-2.9
	c2.5-0.6,5-0.7,7.6-0.5c5.1,0.5,10.2,2.4,15,4.7c4.9,2.3,9.6,5.1,14.5,7.9c2.4,1.4,4.9,2.7,7.5,4l1.4,1.4c0.9,0.9,1.7,1.9,2.5,2.9
	h22.5c-2.4-5-5-10-8-14.9C361.4,372,359.8,369.4,358,366.9z"/>
<path class="st0" d="M131.5,386.5l-1.8-0.6l-0.9-0.3l-1-0.3c-1.4-0.4-2.8-0.8-4.2-1.2c-1.3-1.3-2.6-2.5-3.9-3.6
	c-2.6-2.2-5.4-4.3-7.8-6.7c-1.2-1.2-2.3-2.5-3.2-3.9c-0.9-1.4-1.7-2.9-2.2-4.5c-1.1-3.2-1.2-6.7-1-10.1c-0.5,3.4-0.5,6.9,0.4,10.3
	c0.4,1.7,1.1,3.3,2,4.9c0.9,1.5,2,2.9,3.1,4.2c2.3,2.6,5,4.9,7.4,7.3l0.9,0.9c-4.2-1.2-8.4-2.5-12.7-3.5c-4.8-1.2-9.7-2.1-14.7-2.6
	c-5-0.4-10.1-0.4-15,0.5c-1.2,0.2-2.5,0.5-3.7,0.8s-2.5,0.7-3.6,1.1c-2.4,0.8-4.7,1.9-6.8,3.2c-3.7,2.1-7,4.6-10.3,7.1h2.3
	c2.9-2,5.8-3.9,8.9-5.5c2.1-1.1,4.3-2.1,6.6-2.8c1.1-0.4,2.3-0.7,3.5-0.9c1.2-0.2,2.4-0.4,3.5-0.6c4.8-0.6,9.6-0.5,14.3,0.2
	c4.8,0.6,9.5,1.7,14.1,3.1c4.7,1.3,9.3,2.9,13.9,4.5c1.7,0.6,3.5,1.2,5.2,1.7l0.2,0.3h0.4l0.1-0.1l0.2,0.1h15.1
	c-1.9-0.6-3.8-1.2-5.7-1.8L131.5,386.5z"/>
<polygon class="st0" points="125.5,389.5 125.7,389.6 125.5,389.5 "/>
<path class="st1" d="M376.7,97.9c-3.2-7.9-6.2-15.9-8.3-24.2c-2.2-8.2-3.4-16.8-2.7-25.3c-0.3,8.6,1.2,17,3.6,25.1
	c2.4,8.1,5.6,16,9.1,23.7c2.3,5,4.6,9.9,6.9,14.8c-0.5-3.2-0.8-6.5-0.8-9.7c0-4.2,0.4-8.4,1.4-12.6c0.7-2.7,1.8-5.5,3.1-8V0H0v389.5
	h125l-0.2-0.3c-1.7-0.5-3.5-1.1-5.2-1.7c-4.6-1.6-9.2-3.2-13.9-4.5c-4.6-1.4-9.3-2.5-14.1-3.1c-4.7-0.7-9.5-0.8-14.3-0.2
	c-1.1,0.2-2.3,0.4-3.5,0.6c-1.2,0.2-2.4,0.5-3.5,0.9c-2.3,0.7-4.5,1.7-6.6,2.8c-3.1,1.6-6,3.5-8.9,5.5h-2.3c3.3-2.5,6.6-5,10.3-7.1
	c2.1-1.3,4.4-2.4,6.8-3.2c1.1-0.4,2.4-0.8,3.6-1.1s2.5-0.6,3.7-0.8c4.9-0.9,10-0.9,15-0.5c5,0.5,9.9,1.4,14.7,2.6
	c4.3,1,8.5,2.3,12.7,3.5l-0.9-0.9c-2.4-2.4-5.1-4.7-7.4-7.3c-1.1-1.3-2.2-2.7-3.1-4.2c-0.9-1.6-1.6-3.2-2-4.9
	c-0.9-3.4-0.9-6.9-0.4-10.3c-0.2,3.4-0.1,6.9,1,10.1c0.5,1.6,1.3,3.1,2.2,4.5c0.9,1.4,2,2.7,3.2,3.9c2.4,2.4,5.2,4.5,7.8,6.7
	c1.3,1.1,2.6,2.3,3.9,3.6c1.4,0.4,2.8,0.8,4.2,1.2l1,0.3l0.9,0.3l1.8,0.6l3.6,1.2c1.9,0.6,3.8,1.2,5.7,1.8H389V127.7
	c-0.8-2.1-1.6-4.2-2.5-6.3C383.3,113.6,379.9,105.8,376.7,97.9z M348.6,389.3c-0.8-1-1.6-2-2.5-2.9l-1.4-1.4c-2.6-1.3-5.1-2.6-7.5-4
	c-4.9-2.8-9.6-5.6-14.5-7.9c-4.8-2.3-9.9-4.2-15-4.7c-2.6-0.2-5.1-0.1-7.6,0.5c-2.5,0.6-4.9,1.6-7.1,2.9c-2.3,1.4-4.3,3-6,5
	s-3.1,4.2-4,6.7c-0.7,1.9-1.1,3.8-1.4,5.8h-2.5c0.1-2.2,0.5-4.5,1.2-6.7c0.9-2.8,2.3-5.5,4.1-7.9c1.8-2.4,4-4.4,6.4-6.1
	c2.5-1.8,5.2-3,8.1-3.9c2.2-0.7,4.6-1,6.9-1.1c-1.5-0.4-2.9-0.8-4.4-1.1c-8.5-1.9-17.3-2.9-25.9-2.3c-8.9,0.5-17.8,1.7-26.8,2.9
	c-9,1.2-18.1,2.2-27.2,2.4c-2.3,0-4.6,0-6.9-0.1c-2.4-0.1-4.6-0.4-6.9-0.8c-4.5-0.8-8.9-1.8-13.3-2.6c-4.4-0.9-8.8-1.5-13.3-1.5
	c-2.2,0.1-4.4,0.3-6.6,0.8c-2.2,0.5-4.2,1.4-6.1,2.7c1.8-1.4,3.8-2.4,6-3.1s4.4-1,6.7-1.2c4.5-0.3,9.1,0.1,13.6,0.7
	c4.5,0.6,9,1.3,13.4,1.8c2.2,0.2,4.4,0.4,6.6,0.4c2.2,0,4.5-0.1,6.7-0.3c17.8-1.4,35.3-6.3,53.5-8.5c9.3-1.1,18.8-0.6,28,0.9
	c9.3,1.6,18.3,4.2,27,8.1c0.9,0.4,1.7,0.8,2.6,1.2c-1.6-1.9-3.3-3.7-5-5.4c-7.5-7.6-16.2-14.1-25.6-20.1c-4.7-3-9.5-5.9-14.4-8.7
	c-5-2.8-10.1-5.9-15.1-9.2c-3.7-2.5-7.3-5.1-10.8-8c-8.4,0.5-16.9,2-25.4,3.9c-9.7,2.2-19.4,5-29.3,7.4c-9.9,2.5-20.1,4.5-30.5,5.3
	c-5.2,0.4-10.5,0.5-15.7,0.1c-2.6-0.2-5.2-0.5-7.8-0.9l-2-0.3l-1.9-0.4c-1.3-0.3-2.5-0.5-3.8-0.8c-5-1.1-10-2.5-14.8-3.8
	c-4.8-1.3-9.6-2.6-14.4-3c-4.7-0.4-9.6-0.1-14.3,1c-2.3,0.5-4.7,1.3-7,2.1c-1.2,0.4-2.4,0.8-3.5,1.3c-1.2,0.5-2.4,1-3.6,1.4
	c-9.6,3.6-19.7,5.5-29.7,6.8c-10.1,1.3-20.1,2.4-29.9,4.8c9.7-2.9,19.7-4.5,29.6-6.4s19.7-4.2,28.8-8.2c1.2-0.5,2.3-1.1,3.4-1.6
	c1.1-0.6,2.3-1.1,3.5-1.6c2.3-1,4.8-1.9,7.3-2.6c5.1-1.5,10.4-2.2,15.7-1.9c2.7,0.2,5.4,0.5,8,0.9c-3.4-2-6.8-4.3-10-6.6
	c-8.5-6.1-16.4-12.9-25.3-18.3c-8.7-5.5-17.8-10.8-26.6-16.3c-8.8-5.6-17.5-11.4-25.5-18.1c8.1,6.5,16.9,12.2,25.8,17.5
	c9,5.3,18.1,10.4,27,15.8c9,5.3,17.2,11.9,25.7,17.8c4.2,2.9,8.6,5.7,13.2,8c1.4,0.6,2.7,1.2,4.1,1.8c4.7,1,9.2,2,13.8,2.8
	c1.3,0.2,2.5,0.4,3.7,0.6l1.8,0.3l1.8,0.2c2.4,0.2,4.9,0.4,7.3,0.4c4.9,0.1,9.8-0.2,14.6-0.8c9.7-1.2,19.3-3.7,28.8-6.6
	c0.9-0.3,1.7-0.5,2.6-0.8c-5.2-3.3-10.6-6.5-16-9.8c-7.6-4.7-15.2-10-21.7-16.5l-9.4-9.3c-3.1-3-6.3-6-9.7-8.6
	c-3.3-2.6-7-4.8-10.9-6.4c-1.9-0.8-3.9-1.4-5.9-1.9l-1.1,2.7c1.3,2,0.5,4.9-5.1,9.3c-5.8,4.5-13.5,5-13.5,5s2.2-7.4,8-11.9
	c4.9-3.9,7.9-4.4,9.6-3.2l0.8-2.1c-1.7-0.4-3.5-0.7-5.3-0.9c-1-0.1-2.1-0.2-3.2-0.3c-1.2-0.1-2.2-0.1-3.3-0.2
	c-2.2-0.1-4.4-0.2-6.6-0.2c-4.4,0-8.9,0-13.4-0.5s-9.1-1.6-13.2-3.7c-1-0.5-2-1.1-3-1.7l-1.4-0.9l-1.4-0.9c-1.8-1.3-3.6-2.6-5.4-4
	c-7.1-5.5-13.5-11.7-19.5-18.3c-6-6.6-11.4-13.7-15.7-21.5c4.6,7.7,10.3,14.5,16.4,20.9c6.1,6.3,12.8,12.2,19.9,17.4
	c1.8,1.3,3.6,2.5,5.5,3.7l1.4,0.9l1.4,0.9c0.9,0.5,1.8,1.1,2.8,1.5c3.8,1.8,8.1,2.6,12.4,2.9s8.7,0.1,13.2,0h0.8l-0.1-2.6
	c-2,0.1-4.4-1.6-7.3-6.6c-3.7-6.3-3.1-14-3.1-14s7,3.3,10.7,9.6c3.7,6.3,3.2,9.4,1.1,10.6l-0.3,0.2l0.1,2.8h4.8
	c1.2,0,2.3,0.1,3.4,0.1s2.3,0.1,3.4,0.2c4.5,0.3,9.1,1.2,13.5,2.8c4.4,1.5,8.6,3.8,12.3,6.5c3.8,2.7,7.2,5.7,10.5,8.7l9.8,9
	c6.2,5.9,13.5,10.6,21.1,14.9c7.2,4,14.7,7.9,21.9,12.6c5.6-1.7,11.2-3.6,17-5.2c4.9-1.4,10-2.7,15.1-3.7l1.7-0.3
	c-1.6-1.8-3.1-3.8-4.6-5.8c-3.7-5-6.8-10.4-9.3-15.9c-2.6-5.6-4.6-11.2-6.3-16.9l-0.6-2.1l-0.3-1.1l-0.3-1.1l-1.1-4.2
	c-0.7-2.8-1.4-5.7-2-8.5c-0.4-1.8-0.8-3.6-1.2-5.5c-7-1.2-13.7-3.5-20-6.3c-6.6-2.9-12.8-6.3-19-9.6s-12.4-6.4-18.8-8.8
	c-6.4-2.4-13.1-3.9-19.9-4.1h-2.6c-0.9,0-1.8-0.1-2.7-0.1c-1.8-0.1-3.6-0.2-5.4-0.5c-3.6-0.5-7.1-1.4-10.5-2.4
	c-6.8-2.1-13.4-5.1-19.4-8.9s-11.5-8.4-16.1-13.8c-4.6-5.4-8.2-11.7-10-18.5c2.1,6.7,6,12.8,10.7,17.9c4.8,5.1,10.4,9.4,16.4,12.8
	c6,3.5,12.5,6.1,19.2,7.8c3.3,0.9,6.7,1.5,10.1,1.8c1.7,0.2,3.4,0.3,5.1,0.3c0.8,0,1.7-0.1,2.5-0.1c0.9,0,1.8-0.1,2.7-0.1
	c7.2-0.1,14.5,1.2,21.4,3.4c6.9,2.2,13.4,5.2,19.8,8.2c6.3,3,12.6,6.1,19,8.6c5.2,2.1,10.5,3.7,15.9,4.6c-0.2-1.2-0.4-2.5-0.6-3.7
	c-0.8-5.2-1.4-10.5-1.8-15.8c-5.8-2.3-11.5-5.2-16.7-8.6c-5.8-3.8-11.1-8.2-16-13c-9.7-9.7-17.4-21-24.1-32.7
	c-0.5-0.8-0.9-1.5-1.3-2.3c-2.5,2.3-5.5,3.9-8.6,5c-3.7,1.4-7.7,2.1-11.7,2.3c-4,0.1-8.1-0.2-11.9-1.4c-1.9-0.5-3.8-1.3-5.5-2.4
	c-1.7-1-3.3-2.2-4.8-3.4c-1.6-1.2-3.1-2.3-4.8-3.2c-0.8-0.5-1.7-0.8-2.6-1.2l-2.7-1c-3.6-1.3-7.3-2.6-11-3.8
	c-7.4-2.5-14.8-4.9-21.9-8.2c7.2,3.1,14.6,5.4,22.1,7.6c3.8,1.1,7.5,2.2,11.2,3.5l2.8,1c0.9,0.4,1.8,0.7,2.7,1.2
	c1.8,0.9,3.4,2.1,5,3.2c1.6,1.1,3.2,2.2,4.8,3.2c1.6,0.9,3.4,1.6,5.2,2.1c3.7,1,7.5,1.3,11.3,1c3.7-0.3,7.5-1.1,11-2.5
	c3.1-1.2,5.9-2.9,8.2-5.1c-12.1-22.1-20.9-45.5-33.2-67.3c5.2,8.2,9.9,16.7,14.4,25.3c2.5-2.1,4.5-4.8,5.8-8
	c1.5-3.4,2.2-7.1,2.9-10.9c0.7-3.7,1.3-7.6,2.8-11.2c0.7-1.8,1.7-3.5,2.9-5c1.2-1.5,2.7-2.8,4.3-3.8c-1.6,1.1-3,2.5-4.1,4
	c-1.1,1.6-1.9,3.3-2.5,5.1c-1.3,3.6-1.7,7.4-2.2,11.2c-0.5,3.8-1,7.6-2.3,11.4c-0.7,1.9-1.6,3.7-2.7,5.4c-1.1,1.6-2.4,3.1-3.8,4.3
	c1.3,2.5,2.6,5,3.9,7.5c6.2,11.8,12.4,23.6,19.5,34.8c7.1,11.1,15.1,21.7,24.8,30.4c4.8,4.4,10,8.3,15.6,11.5
	c4.1,2.4,8.4,4.4,12.8,6.1c-0.1-3.7,0-7.4,0.2-11.1c0.5-9,1.9-18,4.1-26.7c-3.3,0.2-6.8-0.1-10-1.1c-3.4-1-6.6-2.6-9.5-4.6
	c-5.9-4-10.6-9.3-14.3-15.2c-3.7-5.9-6.3-12.4-7.6-19.3c-0.6-3.4-0.8-6.9-0.6-10.4c0.3-3.5,1-7,2.4-10.2c0.7-1.6,1.5-3.2,2.6-4.6
	c1-1.4,2.3-2.7,3.6-3.8c2.7-2.3,5.8-3.9,8.8-5.5c3.1-1.5,6.1-3.1,8.9-5c1.4-1,2.8-2,4-3.2c1.3-1.1,2.5-2.3,3.6-3.6
	c2.2-2.5,4-5.5,5.3-8.6c1.3-3.1,2-6.5,2.3-9.9c0.5-6.8-0.4-13.7-1.6-20.4c1.3,6.7,2.4,13.5,1.9,20.4c-0.3,3.5-1,6.9-2.2,10.1
	c-1.3,3.3-3.1,6.3-5.3,8.9c-1.1,1.3-2.4,2.5-3.6,3.7c-1.2,1.2-2.6,2.3-4,3.3c-2.8,2-5.9,3.6-8.9,5.2c-3,1.7-6,3.3-8.5,5.5
	c-2.6,2.1-4.6,4.9-5.8,8c-2.5,6.2-2.6,13.2-1.3,19.8c1.4,6.6,4.1,12.9,7.7,18.6c3.7,5.6,8.3,10.7,13.9,14.3c2.8,1.8,5.8,3.2,9,4.1
	s6.4,1.2,9.7,0.8l0.1,0.9c0.6-2.1,1.1-4.2,1.8-6.3c2.2-6.8,4.7-13.5,7.3-20.1c-0.3-1.4-0.8-2.9-1.6-4.2c-1.7-2.9-4.1-5.3-6.7-7.6
	c-2.5-2.3-5.3-4.4-7.6-7.2c-1.1-1.4-2.1-3-2.3-4.8c-0.2-1.7,0.3-3.5,1.2-5c-0.7,1.5-1.2,3.3-0.8,5c0.4,1.7,1.4,3.1,2.5,4.4
	c2.4,2.6,5.3,4.5,8,6.7s5.5,4.5,7.5,7.6c0.5,0.7,0.9,1.4,1.2,2.1c5.6-13.7,11.6-27.2,16.9-40.9l0.7-1.7l-3.9-1.5l-0.2,0.1
	c-1.9,1.5-4.9,0.9-9.5-4.8c-4.6-5.7-5.2-13.4-5.2-13.4s7.4,2.1,12,7.8c3.7,4.5,4.4,7.4,3.6,9.2l3.6,1.4c1.6-4.5,3-8.9,3.9-13.5
	c1.1-5.5,1.6-11.1,1.2-16.8c-0.4-5.7-1.5-11.3-2.7-16.9c-1.2-5.6-2.6-11.2-3.7-16.8c1.4,5.6,3,11.1,4.5,16.6s2.9,11.1,3.5,16.9
	c0.5,5.1,0.5,10.4-0.2,15.5l2.2-0.2c-0.3-1.9,1.1-4.5,5.8-7.9c5.9-4.3,13.6-4.5,13.6-4.5s-2.6,7.3-8.5,11.6c-5.9,4.3-9,4.2-10.4,2.2
	l-0.2-0.3l-2.8,0.3l-0.1,0.7c-0.9,5.8-2.4,11.4-4.3,16.9c-3.6,10.9-7.7,21.6-11.6,32.4c-0.6,1.6-1.1,3.1-1.7,4.7
	c0.6-0.6,1.3-1.2,1.9-1.8c2.2-2,4.5-3.8,6.9-5.5c1.2-0.9,2.4-1.7,3.6-2.5l1.8-1.2l0.2-0.2l0.1-0.1h0.2l0.5-0.3l1-0.5
	c1.4-0.6,2.8-1,4.3-1.2c1.5-0.3,2.9-0.5,4.1-1.1c1.3-0.6,2.3-1.5,3.3-2.6l1.4-1.6c0.4-0.6,0.8-1.2,1.1-1.8c1.2-2.6,1.9-5.5,2.5-8.3
	c0.7-2.9,1.1-5.8,1.7-8.6c-0.5,2.8-0.8,5.7-1.3,8.6c-0.5,2.9-1.1,5.8-2.3,8.5c-0.3,0.6-0.7,1.3-1.1,1.9l-1.4,1.7
	c-1,1.1-2,2.2-3.4,2.9c-1.4,0.8-2.9,1-4.3,1.3c-1.4,0.3-2.7,0.7-4,1.3l-0.9,0.5l-0.5,0.3h-0.1l-0.1,0.1l-0.2,0.2l-1.8,1.3
	c-1.2,0.8-2.4,1.7-3.5,2.6c-2.2,1.8-4.4,3.7-6.5,5.7c-1.8,1.8-3.6,3.8-5.1,5.8c-0.7,2-1.4,4.1-2.1,6.1c-0.9,2.7-1.8,5.4-2.6,8.1
	l-0.6,2.1l-0.6,2c-0.4,1.4-0.7,2.7-1.1,4.1c-2.9,10.8-4.4,22-4.5,33.1c-0.1,11.2,1.2,22.3,3.4,33.3c1.1,5.5,2.4,11,3.9,16.4
	c0.7,2.7,1.5,5.4,2.3,8.1l1.2,4.1l0.3,0.9l0.3,1l0.7,2c3.6,10.5,8.4,20.3,15,28.5c6.5,8.3,15,14.8,24.4,20.5c4.7,2.8,9.6,5.4,14.7,8
	l0.5,0.3c0.4-1.9,0.7-3.9,1-5.8c0.6-4.1,1-8.1,1-12.1s-0.6-8-1.6-11.9c-1-3.9-2.5-7.8-4.3-11.5c-0.5-0.9-0.9-1.9-1.4-2.8
	c-0.4-0.8-1-1.7-1.5-2.6c-0.6-1-1.3-2-2-3l-0.1,0.7c-0.9-0.2-2-0.1-3.1,0c-1.1,0.1-2.2,0.4-3.2,0.8s-1.9,0.9-2.7,1.7
	c-0.8,0.7-1.3,1.8-1.1,3c-0.4-1.1-0.2-2.4,0.5-3.4s1.7-1.8,2.7-2.5s2.1-1.2,3.3-1.6c0.7-0.2,1.5-0.4,2.3-0.5l-0.2-0.3
	c-2.6-3.3-5.3-6.6-7.9-9.9c-2.6-3.3-5.1-6.8-7.1-10.6s-3.4-8-3.5-12.2c0.4,4.2,2.1,8.2,4.3,11.7s4.9,6.7,7.7,9.8
	c2.8,3.1,5.8,6.1,8.6,9.3c1.4,1.6,2.8,3.2,4.1,5c0.7,0.8,1.3,1.7,1.9,2.7c0.5,0.9,1.1,1.9,1.6,2.8c2.1,3.7,4,7.6,5.5,11.8l0.1,0.2
	l0.5-0.4c0.6-0.4,1.2-0.8,1.9-1.1c1.3-0.7,2.7-1.1,4-1.5c2.7-0.7,5.5-1.2,8.2-1.5c-2.6,0.7-5.2,1.6-7.7,2.7
	c-1.2,0.5-2.4,1.2-3.5,1.9c-1.1,0.7-2,1.6-2.4,2.5l-0.2-0.1c1,3.3,1.6,6.7,1.9,10.2c0.4,4.4,0.2,8.8-0.1,13.1
	c-0.2,2.9-0.5,5.8-0.8,8.7c2.7,1.5,5.4,3,8.1,4.5c8.6,5,17.2,10.6,25.2,17.3c0.9-4.9,1.7-9.7,2.4-14.5c0.6-4.8,1.2-9.6,1.5-14.4
	c0.2-2.4,0.3-4.7,0.3-7.1v-4.1l-0.1-0.8l-0.2-1.6c-0.5-4.2-1.7-8.4-3.5-12.4c-1.9-4-4.3-7.9-7.1-11.7s-6-7.5-9.3-11.1l-5.1-5.5
	l-2.6-2.8L311,256l-0.2-0.2l-0.2-0.2l-0.3-0.4l-1.3-1.4c-5.7-6.6-11.2-13.5-16.1-20.8c-1.4-1-2.7-2.1-4.1-2.9
	c-1.4-0.9-2.9-1.5-4.6-1.8c-1.6-0.3-3.4-0.2-5,0.1c-3.5,0.7-7.1,1.2-10.7,0.8c-3.6-0.4-7-1.8-10.1-3.5c3.2,1.4,6.6,2.6,10.1,2.8
	c3.5,0.3,7-0.5,10.4-1.4c1.8-0.4,3.6-0.6,5.5-0.4c1.9,0.2,3.8,0.8,5.4,1.7l0.3,0.1c-5.3-8.4-9.8-17.3-13-26.8
	c-3.3-9.8-5-20-4.7-30.2c0.3-10.2,2.7-20.2,6.6-29.4c-3.2,9.5-4.7,19.5-4.2,29.4c0.5,9.9,3,19.5,6.8,28.5c1.7,3.8,3.5,7.5,5.6,11.1
	c1.2-0.8,2.3-1.6,3.4-2.3c1.9-1.3,3.5-2.6,4.8-4.4c2.6-3.6,5-7.5,6.7-11.6c0.8-3,1.7-6,2.2-9c0.1-4.3-1.8-8.5-1.3-12.8
	c-0.2,4.4,1.9,8.4,2,12.8c-0.3,3.2-1.1,6.2-1.7,9.3v0.1c-1.6,4.4-3.7,8.4-6.3,12.3c-1.3,2-3.2,3.7-5,5.1c-1.2,0.9-2.3,1.8-3.4,2.7
	c2.5,4.1,5.2,8.1,8.1,11.9c5.9,7.8,12.6,15,19.6,21.9l1.3,1.3l0.3,0.3l0.2,0.2l0.1,0.1l0.7,0.6l2.8,2.5l5.6,5.1
	c3.7,3.5,7.4,7.1,10.9,11.1c2.6,3,5.2,6.2,7.4,9.7c2.8-1.9,5.7-3.5,8.7-4.9c1.9-0.9,3.9-1.3,5.9-1.4c2-0.1,4-0.1,5.9-0.5
	c-1.9,0.6-3.9,0.8-5.8,1.1c-2,0.3-3.8,0.9-5.4,1.9c-2.8,1.6-5.5,3.6-8,5.7l0.9,1.5c2.8,4.9,4.8,10.3,6,16c0.2,0.7,0.3,1.4,0.4,2.1
	l0.2,1.1l0.1,0.5v0.8c0.1,1.3,0.2,2.7,0.3,4c0.2,2.7,0.3,5.3,0.3,7.9c0,5.2-0.1,10.4-0.4,15.6c-0.5,9.9-1.6,19.7-2.8,29.3l0.6,0.8
	c1,1.2,2,2.4,2.9,3.7l1.3,1.8l1.3,1.9l0,0c1.8,2.5,3.4,5.1,5.1,7.5c3,4.9,5.6,9.9,8,14.9H348.6z M388.7,243.2v26.2
	c-2.6-3.5-5.5-6.9-8.5-10.3c-4.8-5.4-10.1-10.9-15.2-16.7c-5.1-5.8-10.2-12-14.5-18.8l-0.8-1.3l-0.1-0.1v0.1l-0.1-0.1l-0.2-0.3
	l-0.4-0.6c-0.5-0.8-1.1-1.7-1.6-2.5c-1-1.7-2-3.4-3-5.1c-1.9-3.4-3.6-6.9-5.2-10.5c-4,2-8,3.9-12.3,5.3c-2.5,0.8-5.1,1.4-7.7,1.5
	c-1.3,0-2.6-0.1-3.9-0.4c-1.3-0.3-2.5-0.9-3.5-1.7c2.2,1.5,4.9,1.8,7.4,1.5c2.5-0.3,4.9-1.1,7.3-2.1c4.2-1.7,8-3.9,11.8-6.3
	c-2.7-6.6-4.9-13.5-6.4-20.5c-1.6-7.8-2.3-15.8-2-23.7c0.2-3.9,0.6-7.9,1.3-11.8c0.3-1.9,0.7-3.9,1.2-5.8l1.4-5.5l-0.6,0.2
	c-2.6,0.7-5.4,1.2-8.2,1.1c-5.5-0.2-10.8-1.5-15.8-3.7c-5-2.1-9.6-5.2-13.3-9.1c-3.7-3.9-6.4-8.8-7.2-14.1c1,5.3,3.9,10,7.7,13.7
	s8.4,6.5,13.3,8.4c4.9,1.9,10.2,2.9,15.4,2.9c2.6,0,5.1-0.5,7.6-1.3c0.6-0.2,1.3-0.4,1.9-0.6c1.9-6.6,4.1-12.9,6.2-19.2
	c1.4-4.1,2.7-8.2,3.8-12.3c-1.2-8.2-3.6-16.2-7.4-23.6c-4.2-8.2-10.1-15.6-17.4-21.2c-3.7-2.9-7.3-5.9-10.6-9.3
	c-3.2-3.4-6.1-7.3-7.8-11.7c-1.8-4.4-2.4-9.1-2.5-13.8c-0.1-4.7,0.3-9.4,0.9-14c-0.5,4.7-0.8,9.3-0.6,14s1,9.3,2.8,13.6
	c1.8,4.3,4.6,8,7.9,11.3c3.2,3.3,6.9,6.2,10.6,9c7.6,5.6,13.9,13,18.4,21.3c3.2,5.8,5.5,12,7,18.5c0.2-1,0.3-2,0.5-3
	c1.1-7.1,0.9-14.5-0.9-21.6c-0.9-3.6-2.1-7.1-3.6-10.5c-1.4-3.5-2.9-6.9-4.5-10.3c-3.2-6.8-6.7-13.5-11.1-19.6
	c4.8,5.8,8.8,12.2,12.5,18.8c1.8,3.3,3.6,6.6,5.3,10c1,2,2,4.1,2.9,6.3c2.8-2.3,4.8-5.6,6.2-9.1c1.7-4.1,2.7-8.6,3.8-13.1
	c1.1-4.5,2.2-9,4.3-13.2c1.1-2.1,2.5-4,4.3-5.5s4-2.5,6.2-3c-2.2,0.6-4.2,1.7-5.9,3.3c-1.7,1.5-2.9,3.4-3.9,5.5
	c-1.9,4.2-2.7,8.7-3.6,13.2s-1.6,9-3.2,13.5c-0.8,2.2-1.8,4.4-3.1,6.4c-1.1,1.7-2.5,3.2-4,4.5c0.2,0.6,0.4,1.2,0.6,1.8
	c1.2,3.7,2.1,7.5,2.5,11.4c0.5,3.9,0.5,7.8,0.2,11.7c-0.6,7.7-2.4,15.3-4.3,22.6c-1.8,7.3-3.8,14.5-5.2,21.7l-1,5.5
	c-0.3,1.8-0.5,3.5-0.7,5.3c-0.4,3.6-0.5,7.2-0.4,10.7c0.4,14.2,4.6,28.1,11.3,40.7c1.6,3.1,3.5,6.2,5.4,9.2c1,1.5,2,2.9,3,4.4
	c0.6,0.7,1.1,1.4,1.6,2.1l1.7,2.3c4,5.4,8.6,10.3,13.5,15.2c0.2-0.8,0.5-1.6,0.8-2.4l0,0c1.6-4.3,3.7-8.2,5.5-12
	c2.1-3.7,4.3-7.3,6.2-10.9v13.6l-0.3,0.5c-3,5.7-5.6,11.5-6.3,17.2C384.3,239.2,386.5,241.2,388.7,243.2z"/>
</svg>
