<?xml version="1.0" encoding="UTF-8"?>
<!DOCTYPE svg PUBLIC "-//W3C//DTD SVG 1.1//EN" "http://www.w3.org/Graphics/SVG/1.1/DTD/svg11.dtd">
<svg xmlns="http://www.w3.org/2000/svg" version="1.1" width="2550px" height="2232px" style="shape-rendering:geometricPrecision; text-rendering:geometricPrecision; image-rendering:optimizeQuality; fill-rule:evenodd; clip-rule:evenodd" xmlns:xlink="http://www.w3.org/1999/xlink">
<g><path style="opacity:0.997" fill="#fefefe" d="M 673.5,-0.5 C 681.167,-0.5 688.833,-0.5 696.5,-0.5C 734.319,5.97483 760.652,26.9748 775.5,62.5C 1108.17,63.8333 1440.83,63.8333 1773.5,62.5C 1788.35,26.9748 1814.68,5.97483 1852.5,-0.5C 1860.17,-0.5 1867.83,-0.5 1875.5,-0.5C 1913.46,5.49608 1939.79,26.3294 1954.5,62C 1965.7,96.277 1960.53,127.777 1939,156.5C 1936.17,159.333 1933.33,162.167 1930.5,165C 2096.79,449.085 2262.96,733.251 2429,1017.5C 2429.87,1019.61 2431.37,1020.95 2433.5,1021.5C 2485.54,1013.93 2522.37,1033.93 2544,1081.5C 2546.17,1088.21 2548.01,1094.87 2549.5,1101.5C 2549.5,1110.83 2549.5,1120.17 2549.5,1129.5C 2538.2,1180.63 2506.36,1207.96 2454,1211.5C 2447.25,1211.58 2440.58,1210.92 2434,1209.5C 2432.74,1209.76 2431.74,1210.43 2431,1211.5C 2266.33,1497.5 2101.67,1783.5 1937,2069.5C 1936.33,2070.5 1936.33,2071.5 1937,2072.5C 1958.32,2098.74 1964.98,2128.41 1957,2161.5C 1943.77,2201.24 1916.6,2224.58 1875.5,2231.5C 1867.83,2231.5 1860.17,2231.5 1852.5,2231.5C 1814.68,2225.03 1788.35,2204.03 1773.5,2168.5C 1440.83,2167.17 1108.17,2167.17 775.5,2168.5C 760.652,2204.03 734.319,2225.03 696.5,2231.5C 688.833,2231.5 681.167,2231.5 673.5,2231.5C 632.4,2224.58 605.234,2201.24 592,2161.5C 583.789,2127.53 590.956,2097.36 613.5,2071C 449.62,1784.08 286.12,1496.91 123,1209.5C 122.107,1208.92 121.107,1208.59 120,1208.5C 74.0073,1217.82 38.0073,1203.16 12,1164.5C 5.90999,1153.39 1.74333,1141.72 -0.5,1129.5C -0.5,1120.17 -0.5,1110.83 -0.5,1101.5C 10.8033,1050.37 42.6366,1023.04 95,1019.5C 102.881,1019.2 110.548,1020.2 118,1022.5C 282.919,735.663 447.586,448.663 612,161.5C 612.667,160.5 612.667,159.5 612,158.5C 590.462,132.309 583.795,102.642 592,69.5C 605.234,29.7551 632.4,6.42172 673.5,-0.5 Z"/></g>
<g><path style="opacity:1" fill="#3dbff5" d="M 1226.5,1032.5 C 1062.15,747.806 897.822,463.139 733.5,178.5C 748.187,168.978 760.021,156.645 769,141.5C 771.529,137.074 773.362,132.408 774.5,127.5C 1107.83,127.5 1441.17,127.5 1774.5,127.5C 1778.68,140.858 1785.68,152.524 1795.5,162.5C 1629,448.167 1462.5,733.833 1296,1019.5C 1294.7,1020.98 1293.03,1021.65 1291,1021.5C 1268.12,1017.13 1246.62,1020.8 1226.5,1032.5 Z"/></g>
<g><path style="opacity:1" fill="#208fcc" d="M 733.5,178.5 C 897.822,463.139 1062.15,747.806 1226.5,1032.5C 1206.88,1044.37 1192.88,1061.03 1184.5,1082.5C 851.265,1083.83 518.098,1083.83 185,1082.5C 182.128,1075.09 178.461,1068.09 174,1061.5C 173.792,1057.89 174.792,1054.55 177,1051.5C 339.92,764.662 502.586,477.662 665,190.5C 689.003,193.693 711.836,189.693 733.5,178.5 Z"/></g>
<g><path style="opacity:1" fill="#0071bc" d="M 1840.5,188.5 C 1845.47,189.377 1850.47,190.211 1855.5,191C 1863.08,191.082 1870.58,191.248 1878,191.5C 2043.63,481.268 2209.13,771.101 2374.5,1061C 2356.83,1089.56 2353.66,1119.73 2365,1151.5C 2367.75,1157.32 2370.75,1162.99 2374,1168.5C 2374.67,1169.83 2374.67,1171.17 2374,1172.5C 2324.6,1258.91 2275.6,1345.58 2227,1432.5C 2132.67,1273.83 2038.33,1115.17 1944,956.5C 1886.37,1060.81 1828.7,1165.15 1771,1269.5C 1769.69,1271.75 1769.02,1274.08 1769,1276.5C 1860.09,1437.67 1950.92,1599 2041.5,1760.5C 1988.75,1853.67 1936.25,1947 1884,2040.5C 1883.44,2041.02 1882.77,2041.36 1882,2041.5C 1868.41,2038.58 1854.91,2038.91 1841.5,2042.5C 1674.62,1756.59 1508.62,1470.09 1343.5,1183C 1373.96,1147.22 1378.46,1108.39 1357,1066.5C 1354.38,1062.22 1351.38,1058.22 1348,1054.5C 1346.7,1052.64 1346.37,1050.64 1347,1048.5C 1511.76,761.969 1676.26,475.302 1840.5,188.5 Z"/></g>
<g><path style="opacity:1" fill="#3dbff6" d="M 185.5,1147.5 C 518.501,1147.17 851.501,1147.5 1184.5,1148.5C 1201.26,1188.23 1231.26,1209.23 1274.5,1211.5C 1277.89,1211.46 1281.22,1211.13 1284.5,1210.5C 1451.92,1499 1619.09,1787.67 1786,2076.5C 1786.67,2077.83 1786.67,2079.17 1786,2080.5C 1780.57,2087.36 1776.74,2095.03 1774.5,2103.5C 1441.17,2103.5 1107.83,2103.5 774.5,2103.5C 762.3,2070.47 738.966,2049.97 704.5,2042C 692.031,2038.89 679.531,2038.73 667,2041.5C 665.739,2041.24 664.739,2040.57 664,2039.5C 500.253,1752.34 336.253,1465.34 172,1178.5C 170.813,1176.96 170.48,1175.29 171,1173.5C 177.127,1165.58 181.961,1156.91 185.5,1147.5 Z"/></g>
<g><path style="opacity:1" fill="#0572bc" d="M 1985.5,1370.5 C 2001.02,1369.51 2011.85,1376.18 2018,1390.5C 2026.08,1411.29 2025.08,1431.63 2015,1451.5C 2001.76,1469.82 1987.1,1471.16 1971,1455.5C 1956.12,1431.36 1955.79,1407.03 1970,1382.5C 1974.21,1377.11 1979.38,1373.11 1985.5,1370.5 Z"/></g>
</svg>
