<?xml version="1.0" encoding="utf-8"?>
<!-- Generator: Adobe Illustrator 27.1.1, SVG Export Plug-In . SVG Version: 6.00 Build 0)  -->
<svg version="1.1"
	 id="svg2" xmlns:inkscape="http://www.inkscape.org/namespaces/inkscape" xmlns:sodipodi="http://inkscape.sourceforge.net/DTD/sodipodi-0.dtd" xmlns:cc="http://web.resource.org/cc/" xmlns:dc="http://purl.org/dc/elements/1.1/" xmlns:svg="http://www.w3.org/2000/svg" xmlns:rdf="http://www.w3.org/1999/02/22-rdf-syntax-ns#"
	 xmlns="http://www.w3.org/2000/svg" xmlns:xlink="http://www.w3.org/1999/xlink" x="0px" y="0px" viewBox="0 0 152.2 152.3"
	 style="enable-background:new 0 0 152.2 152.3;" xml:space="preserve">
<style type="text/css">
	.st0{fill:#303030;}
	.st1{fill:url(#path3886_00000047754807692053210410000004724302794816792742_);}
	.st2{fill:#83A34E;}
	.st3{fill:url(#path2345_00000060748243753969097560000013902234027924241293_);}
	.st4{fill:url(#path1391_00000044165219555934630890000014038991040470274706_);}
	.st5{fill:url(#path3094_00000028316414032887698850000015152299652381756595_);}
	.st6{fill:url(#path2993_00000000220910265743379850000016695966657902079911_);}
	.st7{fill-rule:evenodd;clip-rule:evenodd;fill:#BDBDBD;}
	.st8{fill:none;stroke:#000000;stroke-width:3.1;stroke-linecap:round;}
	.st9{fill-rule:evenodd;clip-rule:evenodd;fill:url(#path3028_00000049930070419559988950000016165136137680725156_);}
	.st10{fill-rule:evenodd;clip-rule:evenodd;fill:url(#path3038_00000121270838018305631080000006673469240025028506_);}
	.st11{fill-rule:evenodd;clip-rule:evenodd;fill:url(#path3044_00000180326339228605612550000008113219717087808913_);}
	.st12{fill-rule:evenodd;clip-rule:evenodd;fill:url(#path3048_00000158708414826807223230000018076159045616196259_);}
	.st13{fill-rule:evenodd;clip-rule:evenodd;fill:url(#path3052_00000053510558016363834590000014716468178912672702_);}
	.st14{fill-rule:evenodd;clip-rule:evenodd;fill:url(#path3056_00000176038987203176824760000014748920286436639141_);}
	.st15{fill-rule:evenodd;clip-rule:evenodd;fill:url(#path3068_00000151506206478012786480000010941652062635943082_);}
	.st16{fill-rule:evenodd;clip-rule:evenodd;fill:url(#path3072_00000006684601383183162010000007110616022740521615_);}
	.st17{fill-rule:evenodd;clip-rule:evenodd;fill:#FEFEFE;}
</style>
<sodipodi:namedview  bordercolor="#666666" borderopacity="1.0" id="base" inkscape:current-layer="layer9" inkscape:cx="675.23874" inkscape:cy="843.54255" inkscape:document-units="px" inkscape:guide-bbox="true" inkscape:pageopacity="0.0" inkscape:pageshadow="2" inkscape:window-height="540" inkscape:window-width="756" inkscape:window-x="331" inkscape:window-y="234" inkscape:zoom="1.7199203" pagecolor="#ffffff" showguides="true">
	</sodipodi:namedview>
<g id="layer9" inkscape:groupmode="layer" inkscape:label="BACKGR">
	
		<path id="path1584" sodipodi:cx="736.3714" sodipodi:cy="211.60098" sodipodi:rx="28.213463" sodipodi:ry="53.605579" sodipodi:type="arc" class="st0" d="
		M156.1,80.1c0,29.6-12.6,53.6-28.2,53.7c-15.6,0-28.2-23.9-28.2-53.5v-0.1c0-29.6,12.6-53.6,28.2-53.7S156.1,50.4,156.1,80.1
		C156.1,80,156.1,80,156.1,80.1z"/>
</g>
<g id="layer2" inkscape:groupmode="layer" inkscape:label="bulb" sodipodi:insensitive="true">
	
		<radialGradient id="path3886_00000127736676574550584900000003707584257294586005_" cx="118.2827" cy="1675.3197" r="45.5406" gradientTransform="matrix(0.9239 0 0 0.9239 -34.5314 -1478.7279)" gradientUnits="userSpaceOnUse">
		<stop  offset="0" style="stop-color:#FFFFFF"/>
		<stop  offset="0.7711" style="stop-color:#F8F8F8"/>
		<stop  offset="1" style="stop-color:#8B7474"/>
	</radialGradient>
	
		<path id="path3886" sodipodi:cx="623.0929" sodipodi:cy="210.69221" sodipodi:rx="45.495674" sodipodi:ry="45.495674" sodipodi:type="arc" style="fill:url(#path3886_00000127736676574550584900000003707584257294586005_);" d="
		M116.8,69.1c0,23.2-18.8,42-42,42.1c-23.2,0-42-18.8-42.1-42c0,0,0,0,0-0.1c0-23.2,18.8-42,42-42.1C98,27,116.8,45.8,116.8,69.1
		L116.8,69.1z"/>
</g>
<g id="layer1" inkscape:groupmode="layer" inkscape:label="iris" sodipodi:insensitive="true">
	
		<path id="path2343" inkscape:flatsided="false" inkscape:randomized="0.006" inkscape:rounded="0" sodipodi:arg1="1.3045443" sodipodi:arg2="1.3811685" sodipodi:cx="566.14587" sodipodi:cy="233.99451" sodipodi:r1="4.196404" sodipodi:r2="24.684729" sodipodi:sides="41" sodipodi:type="star" class="st2" d="
		M75.8,73.3l3.8,20.3l-4.2-20.3l0.3,20.4l-1-20.4l-2.9,20.3l2.3-20.3l-5.8,19.6l4.9-19.7l-8.6,18.6L72.8,73L61.4,90l10.7-17.5
		l-13.7,15L71.7,72L55.5,84.8l15.8-13.3L53.6,81.7l17.5-10.5l-19,7.1l18.7-7.9l-19.9,4.3l19.7-4.9l-20.4,1.3l20.4-2l-20.3-1.7
		l20.3,1.3l-19.7-5.1L70.8,68l-18.9-7.8l19.2,7.2L53.5,56.6l17.8,10.3L55.8,53.4L72,66.2L58.4,50.8l14,15l-11-17.4l11.5,17.2
		l-8.1-18.8l8.8,18.5l-5.3-19.9L74.1,65L72,44.7l2.7,20.5l1-20.7l-0.5,20.4l4.3-20L76,65.2l7-19.3l-6.6,19.5l10.2-17.8l-9.5,18.1
		l12.9-16L77.6,66.1l15.2-13.9L78,66.7l17.1-11.5l-16.8,12l18.7-9l-18.1,9.6l19.6-6.1l-19.4,6.6l20.3-2.9l-20.3,3.4l20.4,0.3
		l-20.4,0.3L99.4,73L79,70.2l19.4,6.5l-19.6-6L97,80.1l-18.4-8.8l16.5,12.1l-17-11.7l14.5,14.6L77.7,72.2l11.9,16.5l-12.5-16
		l9.5,18.1L76.5,73.1L83,92.4L75.8,73.3z"/>
	
		<radialGradient id="path2345_00000062168565977052032240000004199159829795737231_" cx="1926.6249" cy="4060.677" r="22.9938" gradientTransform="matrix(0.3653 0 0 0.3653 -628.9696 -1414.4128)" gradientUnits="userSpaceOnUse">
		<stop  offset="0" style="stop-color:#000000"/>
		<stop  offset="0.7952" style="stop-color:#232323"/>
		<stop  offset="1" style="stop-color:#0E1E10;stop-opacity:0"/>
	</radialGradient>
	
		<path id="path2345" sodipodi:cx="532.85913" sodipodi:cy="133.05165" sodipodi:rx="23.003059" sodipodi:ry="23.003059" sodipodi:type="arc" style="fill:url(#path2345_00000062168565977052032240000004199159829795737231_);" d="
		M83.2,69.1c0,4.6-3.8,8.4-8.4,8.4s-8.4-3.8-8.4-8.4l0,0c0-4.6,3.8-8.4,8.4-8.4C79.4,60.7,83.2,64.5,83.2,69.1L83.2,69.1z"/>
	
		<radialGradient id="path1391_00000114756123499666717510000016239292017674773682_" cx="-66.3692" cy="1475.1295" r="23" gradientTransform="matrix(1 0 0 1 141.1692 -1406.0295)" gradientUnits="userSpaceOnUse">
		<stop  offset="0" style="stop-color:#51CB34;stop-opacity:0"/>
		<stop  offset="0.7229" style="stop-color:#1A8B0E;stop-opacity:0.498"/>
		<stop  offset="1" style="stop-color:#0E1E10"/>
	</radialGradient>
	
		<path id="path1391" sodipodi:cx="532.85913" sodipodi:cy="133.05165" sodipodi:rx="23.003059" sodipodi:ry="23.003059" sodipodi:type="arc" style="fill:url(#path1391_00000114756123499666717510000016239292017674773682_);" d="
		M97.8,69.1c0,12.7-10.3,23-23,23s-23-10.3-23-23l0,0c0-12.7,10.3-23,23-23S97.8,56.4,97.8,69.1L97.8,69.1z"/>
</g>
<g id="layer6" inkscape:groupmode="layer" inkscape:label="Riflessi Iris" sodipodi:insensitive="true">
	
		<radialGradient id="path3094_00000089561016745212061190000015370813072168044460_" cx="-972.921" cy="246.9909" r="5.4063" gradientTransform="matrix(10.9266 0 0 8.0393 10728.0654 -1882.9791)" gradientUnits="userSpaceOnUse">
		<stop  offset="0" style="stop-color:#000000;stop-opacity:0"/>
		<stop  offset="0.82" style="stop-color:#000000;stop-opacity:0"/>
		<stop  offset="0.93" style="stop-color:#000000;stop-opacity:0.5412"/>
		<stop  offset="1" style="stop-color:#000000;stop-opacity:0.7423"/>
	</radialGradient>
	
		<path id="path3094" sodipodi:nodetypes="csssc" style="fill:url(#path3094_00000089561016745212061190000015370813072168044460_);" d="
		M127.4,103c0,24-9.9,16.8-42.5,16.8s-46.6,6.8-46.6-17.2s26.5-43.5,59.1-43.5S127.4,79,127.4,103z"/>
	
		<radialGradient id="path2993_00000121277113471416440690000016519998145291553432_" cx="69.1058" cy="1515.3032" r="5.4071" gradientTransform="matrix(1 0 0 1.0238 -2.0175 -1483.8984)" gradientUnits="userSpaceOnUse">
		<stop  offset="0" style="stop-color:#FFFFFF"/>
		<stop  offset="0.2593" style="stop-color:#FFFFFF;stop-opacity:0.7216"/>
		<stop  offset="1" style="stop-color:#FFFFFF;stop-opacity:0"/>
	</radialGradient>
	
		<path id="path2993" sodipodi:cx="668.32538" sodipodi:cy="207.81616" sodipodi:rx="5.4063301" sodipodi:ry="5.5350523" sodipodi:type="arc" style="fill:url(#path2993_00000121277113471416440690000016519998145291553432_);" d="
		M72.5,67.5c0,3.1-2.4,5.5-5.4,5.5s-5.4-2.5-5.4-5.5l0,0c0-3.1,2.4-5.5,5.4-5.5S72.5,64.4,72.5,67.5C72.5,67.4,72.5,67.5,72.5,67.5z
		"/>
</g>
<g id="layer4" inkscape:groupmode="layer" inkscape:label="Drawing">
	<path id="path1393" sodipodi:nodetypes="csccssccccccsscccsc" class="st7" d="M150.1-0.1C139.6,0,81.9-12.3,49.9,0.3
		C22.6,11-2.2,33,3.2,45.5c-11.7,15.9-5.3,70,20.1,97.5c0,0,34.5,13.8,59.9,12.7c25.3-1.1,45.1-16.1,48-38.1
		c2-15.8,2.4-35.6-4.1-47.5c42-35,24.7-69.6,24.4-70.2C151.5-0.1,151-0.1,150.1-0.1z M96.9,60.1c6.8-0.1,13.8,0.5,19.3,2.3l-0.1,2.6
		c-0.5,11.2-5.5,22.9-10.9,27.9c-5.1,4.8-10.9,5.6-27.2,3.8c-11.1-1.2-30.1-10.2-34.2-11.4c0-0.4,0-0.9,0-1.4c0.1,0,0.1,0.1,0.1,0.1
		c7.9-11.7,21.6-19.3,36.8-22.2C85.4,60.9,91.1,60.2,96.9,60.1z"/>
	<path id="path1397" sodipodi:nodetypes="czzc" class="st8" d="M42.1,83.5c3.3-5.5,8.6-12,19.6-18.2c12.9-7.2,37.1-9.2,45.3-8.4
		c8.2,0.9,26.6,8.1,23.1,10.2"/>
	
		<radialGradient id="path3028_00000016779699303327149320000001088130809621935280_" cx="-491.5418" cy="3679.1963" r="74.1418" gradientTransform="matrix(0.8922 -0.3431 0.1792 0.4659 -127.1862 -1806.0106)" gradientUnits="userSpaceOnUse">
		<stop  offset="0" style="stop-color:#090909"/>
		<stop  offset="0.7037" style="stop-color:#090909;stop-opacity:0.498"/>
		<stop  offset="1" style="stop-color:#090909;stop-opacity:0"/>
	</radialGradient>
	
		<path id="path3028" sodipodi:nodetypes="csccssccccccsscccsc" style="fill-rule:evenodd;clip-rule:evenodd;fill:url(#path3028_00000016779699303327149320000001088130809621935280_);" d="
		M149.6,0.4C139.1,0.6,80-10.8,48,1.7C20.7,12.4-3.2,35.4,2.3,47.9C-9.4,63.8-2.5,116,22.9,143.5c0,0,32.1,12.4,57.5,11.3
		c25.3-1.1,47.5-14.7,50.4-36.7c2-15.8,3.2-35.4-3.2-47.2c42-35,23.9-69.9,23.5-70.5C151,0.4,150.5,0.4,149.6,0.4z M96.5,60.6
		c6.8-0.1,13.8,0.5,19.3,2.3l-0.1,2.6c-0.5,11.2-5.5,22.9-10.9,27.9c-5.1,4.8-10.9,5.6-27.2,3.8C66.5,96,47.5,87,43.4,85.8
		c0-0.4,0-0.9,0-1.4c0.1,0,0.1,0.1,0.1,0.1c7.9-11.7,21.6-19.3,36.8-22.2C84.9,61.5,90.7,60.8,96.5,60.6z"/>
	
		<radialGradient id="path3038_00000028308110207465158760000010917147137125550504_" cx="-826.4805" cy="6509.833" r="74.1418" gradientTransform="matrix(0.2886 -0.2033 0.1677 0.2381 -795.5759 -1635.9528)" gradientUnits="userSpaceOnUse">
		<stop  offset="0" style="stop-color:#090909"/>
		<stop  offset="0.7037" style="stop-color:#090909;stop-opacity:0.498"/>
		<stop  offset="1" style="stop-color:#090909;stop-opacity:0"/>
	</radialGradient>
	
		<path id="path3038" sodipodi:nodetypes="csccssccccccsscccsc" style="fill-rule:evenodd;clip-rule:evenodd;fill:url(#path3038_00000028308110207465158760000010917147137125550504_);" d="
		M149.6,0.4C139.1,0.6,80.5-12.3,48.4,0.3C21.2,11-2.7,33,2.8,45.5c-11.7,15.9-5.3,70.5,20.1,98c0,0,34,13.8,59.4,12.7
		c25.3-1.1,45.6-16.1,48.5-38.1c2-15.8,3.2-35.4-3.2-47.2c42-35,23.9-69.9,23.5-70.5C151,0.4,150.5,0.4,149.6,0.4z M96.5,60.6
		c6.8-0.1,13.8,0.5,19.3,2.3l-0.1,2.6c-0.5,11.2-5.5,22.9-10.9,27.9c-5.1,4.8-10.9,5.6-27.2,3.8C66.5,96,47.5,87,43.4,85.8
		c0-0.4,0-0.9,0-1.4c0.1,0,0.1,0.1,0.1,0.1c7.9-11.7,21.6-19.3,36.8-22.2C84.9,61.5,90.7,60.8,96.5,60.6z"/>
	
		<radialGradient id="path3044_00000067204223959826008520000008147566397332038575_" cx="817.9307" cy="5528.4272" r="74.1418" gradientTransform="matrix(0.5661 -5.091223e-02 2.608570e-02 0.2901 -516.8968 -1493.7911)" gradientUnits="userSpaceOnUse">
		<stop  offset="0" style="stop-color:#090909"/>
		<stop  offset="0.7037" style="stop-color:#090909;stop-opacity:0.498"/>
		<stop  offset="1" style="stop-color:#090909;stop-opacity:0"/>
	</radialGradient>
	
		<path id="path3044" sodipodi:nodetypes="csccssccccccsscccsc" style="fill-rule:evenodd;clip-rule:evenodd;fill:url(#path3044_00000067204223959826008520000008147566397332038575_);" d="
		M149.6,0.4C139.1,0.6,81-12.3,48.9,0.3C21.7,11-2.7,34.9,2.8,47.4C-8.9,63.3-2.5,116,22.9,143.5c0,0,33.6,13.8,58.9,12.7
		s46.1-16.1,48.9-38.1c2-15.8,3.2-35.4-3.2-47.2c42-35,23.9-69.9,23.5-70.5C151,0.4,150.5,0.4,149.6,0.4z M96.5,60.6
		c6.8-0.1,13.8,0.5,19.3,2.3l-0.1,2.6c-0.5,11.2-5.5,22.9-10.9,27.9c-5.1,4.8-10.9,5.6-27.2,3.8C66.5,96,47.5,87,43.4,85.8
		c0-0.4,0-0.9,0-1.4c0.1,0,0.1,0.1,0.1,0.1c7.9-11.7,21.6-19.3,36.8-22.2C84.9,61.5,90.7,60.8,96.5,60.6z"/>
	
		<radialGradient id="path3048_00000020364237546441956960000007309137272590568588_" cx="456.2148" cy="7266.6362" r="74.1418" gradientTransform="matrix(0.5002 -0.1319 6.205133e-02 0.2354 -586.7294 -1562.6631)" gradientUnits="userSpaceOnUse">
		<stop  offset="0" style="stop-color:#090909"/>
		<stop  offset="0.7037" style="stop-color:#090909;stop-opacity:0.498"/>
		<stop  offset="1" style="stop-color:#090909;stop-opacity:0"/>
	</radialGradient>
	
		<path id="path3048" sodipodi:nodetypes="csccssccccccsscccsc" style="fill-rule:evenodd;clip-rule:evenodd;fill:url(#path3048_00000020364237546441956960000007309137272590568588_);" d="
		M149.6,0.4c-10.5,0.2-66.7-12.7-98.8-0.1C23.6,11-2.2,34.4,3.2,46.9C-8.5,62.8-2.5,116,22.8,143.5c0,0,34,17.6,59.4,16.5
		c25.3-1.1,45.6-19.9,48.5-41.9c2-15.8,3.2-35.4-3.2-47.2c42-35,23.9-69.9,23.5-70.5C151,0.4,150.5,0.4,149.6,0.4z M96.5,60.6
		c6.8-0.1,13.8,0.5,19.3,2.3l-0.1,2.6c-0.5,11.2-5.5,22.9-10.9,27.9c-5.1,4.8-10.9,5.6-27.2,3.8C66.5,96,47.5,87,43.4,85.8
		c0-0.4,0-0.9,0-1.4c0.1,0,0.1,0.1,0.1,0.1c7.9-11.7,21.6-19.3,36.8-22.2C84.9,61.5,90.7,60.8,96.5,60.6z"/>
	
		<radialGradient id="path3052_00000149353873303191730090000013094876762013500033_" cx="2138.9072" cy="4625.2983" r="74.1418" gradientTransform="matrix(0.49 0.1656 -7.400293e-02 0.219 -579.9556 -1298.0404)" gradientUnits="userSpaceOnUse">
		<stop  offset="0" style="stop-color:#090909"/>
		<stop  offset="0.7037" style="stop-color:#090909;stop-opacity:0.498"/>
		<stop  offset="1" style="stop-color:#090909;stop-opacity:0"/>
	</radialGradient>
	
		<path id="path3052" sodipodi:nodetypes="csccssccccccsscccsc" style="fill-rule:evenodd;clip-rule:evenodd;fill:url(#path3052_00000149353873303191730090000013094876762013500033_);" d="
		M149.6,0.4c-10.5,0.2-62-15-94-2.5C28.3,8.6-4.1,34.4,1.4,46.9c-11.7,15.9-3.8,69.1,21.5,96.6c0,0,34,18.1,59.4,17
		c25.3-1.1,45.6-20.4,48.5-42.4c2-15.8,3.2-35.4-3.2-47.2c42-35,23.9-69.9,23.5-70.5C151,0.4,150.5,0.4,149.6,0.4z M96.5,60.6
		c6.8-0.1,13.8,0.5,19.3,2.3l-0.1,2.6c-0.5,11.2-5.5,22.9-10.9,27.9c-5.1,4.8-10.9,5.6-27.2,3.8C66.5,96,47.5,87,43.4,85.8
		c0-0.4,0-0.9,0-1.4c0.1,0,0.1,0.1,0.1,0.1c7.9-11.7,21.6-19.3,36.8-22.2C84.9,61.5,90.7,60.8,96.5,60.6z"/>
	
		<radialGradient id="path3056_00000096029489645217126830000015894022551824151956_" cx="-921.3354" cy="4906.2427" r="74.1418" gradientTransform="matrix(0.7126 -0.4767 0.2154 0.3221 -369.6591 -1990.6976)" gradientUnits="userSpaceOnUse">
		<stop  offset="0" style="stop-color:#EDEDED"/>
		<stop  offset="1" style="stop-color:#FFFFFF;stop-opacity:0"/>
	</radialGradient>
	
		<path id="path3056" sodipodi:nodetypes="csccssccccccsscccsc" style="fill-rule:evenodd;clip-rule:evenodd;fill:url(#path3056_00000096029489645217126830000015894022551824151956_);" d="
		M149.6,0.4c-10.5,0.2-61.5-14.6-93.6-2C28.8,9.1-3.2,36.3,2.3,48.8C-9.4,64.7-2.5,116,22.9,143.5c0,0,33.1,11.9,58.4,10.8
		c25.3-1.1,46.6-14.2,49.4-36.2c2-15.8,3.2-35.4-3.2-47.2c42-35,23.9-69.9,23.5-70.5C151,0.4,150.5,0.4,149.6,0.4z M96.5,60.6
		c6.8-0.1,13.8,0.5,19.3,2.3l-0.1,2.6c-0.5,11.2-5.5,22.9-10.9,27.9c-5.1,4.8-10.9,5.6-27.2,3.8C66.5,96,47.5,87,43.4,85.8
		c0-0.4,0-0.9,0-1.4c0.1,0,0.1,0.1,0.1,0.1c7.9-11.7,21.6-19.3,36.8-22.2C84.9,61.5,90.7,60.8,96.5,60.6z"/>
	
		<radialGradient id="path3068_00000050636513021706186040000002019639134346990753_" cx="-422.8834" cy="4790.6748" r="74.1418" gradientTransform="matrix(0.767 -0.3297 0.153 0.356 -311.029 -1851.6335)" gradientUnits="userSpaceOnUse">
		<stop  offset="0" style="stop-color:#EDEDED"/>
		<stop  offset="1" style="stop-color:#FFFFFF;stop-opacity:0"/>
	</radialGradient>
	
		<path id="path3068" sodipodi:nodetypes="csccssccccccsscccsc" style="fill-rule:evenodd;clip-rule:evenodd;fill:url(#path3068_00000050636513021706186040000002019639134346990753_);" d="
		M149.6,0.4c-10.5,0.2-63.4-15-95.5-2.5C26.9,8.6-2.7,36.8,2.8,49.3C-8.9,65.2-2.5,116,22.9,143.5c0,0,34,11.9,59.4,10.8
		c25.3-1.1,45.6-14.2,48.5-36.2c2-15.8,3.2-35.4-3.2-47.2c42-35,23.9-69.9,23.5-70.5C151,0.4,150.5,0.4,149.6,0.4z M96.5,60.6
		c6.8-0.1,13.8,0.5,19.3,2.3l-0.1,2.6c-0.5,11.2-5.5,22.9-10.9,27.9c-5.1,4.8-10.9,5.6-27.2,3.8C66.5,96,47.5,87,43.4,85.8
		c0-0.4,0-0.9,0-1.4c0.1,0,0.1,0.1,0.1,0.1c7.9-11.7,21.6-19.3,36.8-22.2C84.9,61.5,90.7,60.8,96.5,60.6z"/>
	
		<radialGradient id="path3072_00000143579752527330081490000003589044463442093184_" cx="-2143.7495" cy="7013.1519" r="74.1418" gradientTransform="matrix(0.3532 -0.7572 0.2217 0.1034 -785.9219 -2271.6384)" gradientUnits="userSpaceOnUse">
		<stop  offset="0" style="stop-color:#EDEDED"/>
		<stop  offset="1" style="stop-color:#FFFFFF;stop-opacity:0"/>
	</radialGradient>
	
		<path id="path3072" sodipodi:nodetypes="csscssccccccsscccsc" style="fill-rule:evenodd;clip-rule:evenodd;fill:url(#path3072_00000143579752527330081490000003589044463442093184_);" d="
		M149.6,0.4c-10.5,0.2-64.4-14.1-96.4-1.5C26,9.6,4.8,37.7,2.3,49.3c-3.7,16.8-4.8,66.7,20.6,94.2c0,0,34,10.5,59.4,9.4
		c25.3-1.1,45.6-12.8,48.5-34.8c2-15.8,3.2-35.4-3.2-47.2c42-35,23.9-69.9,23.5-70.5C151,0.4,150.5,0.4,149.6,0.4z M96.5,60.6
		c6.8-0.1,13.8,0.5,19.3,2.3l-0.1,2.6c-0.5,11.2-5.5,22.9-10.9,27.9c-5.1,4.8-10.9,5.6-27.2,3.8C66.5,96,47.5,87,43.4,85.8
		c0-0.4,0-0.9,0-1.4c0.1,0,0.1,0.1,0.1,0.1c7.9-11.7,21.6-19.3,36.8-22.2C84.9,61.5,90.7,60.8,96.5,60.6z"/>
	<path id="path3115" sodipodi:nodetypes="czc" class="st8" d="M116,64.2c0.7,11.8-1.5,31.8-24.7,35.5c-23.9,3.7-51.2-12.9-47.6-15.1
		"/>
	<path id="path3119" d="M46.1,80.3c1.5-2.8,3.4,6.3,0.9,10.1l-0.3,0.1c0.5-4-0.4-11.5-0.3-10.4L46.1,80.3z"/>
	<path id="path3121" d="M44.2,82.8c2.5-1.8,4.8,2,3.4,3.6c-1.3,1.2-0.6,0.6-2.2,1.7l-0.1,0.1c0.2-0.3,0.1-1.2,0.7-1.1
		c1.1-1.9-1.5-4.1-1-4.6L44.2,82.8z"/>
	<path id="path3123" d="M44.7,84.7c0.9-2.4,2.4-4.8,3.7-7.1l0.2-0.1c-0.6,2.8-2.8,4.5-3.7,7.1L44.7,84.7z"/>
	<path id="path3129" d="M44.2,85.2c-1.9,0.6-6.9,1.3-1.8-1.9c-7.2,4.2,6.9-3.4-1.4,1c0.3,0.8,1.6-0.7,2.3-1.2l-1.8,1.2
		c0.8-0.5,2-2,2.5-1.2c-8.6,4.7,5.6-3.6-4.1,2.1c2.8-1.8,5.7-1.9,2.8,0.7L44.2,85.2z"/>
	<path id="path3131" d="M79.4,57.7c-0.4-0.7,3-7,4.7-9.2l0.1-0.1c-0.2,3.2-2.7,8-5.1,9.5L79.4,57.7z"/>
	<path id="path3133" d="M109.7,56.9c3.7-1.9,5.8-5,9.3-7.5l1.1-0.4c-3.5,2.6-6.9,6.1-10,7.7L109.7,56.9z"/>
</g>
<g id="layer7" inkscape:groupmode="layer" inkscape:label="basic shade">
</g>
<g id="layer3" inkscape:groupmode="layer" inkscape:label="foreground">
</g>
<g id="layer5" inkscape:groupmode="layer" inkscape:label="sopracciglia" sodipodi:insensitive="true">
	<path id="path1657" d="M99.2,58.9c5.1-1,11.8-5.6,13.5-7.1c1.7-1.7,0.8-0.8,2.7-2.6l1.5-0.8c-2.4,3.2,2.4-2.2-1.6,2.1
		c-4.1,3.7-12.9,10.1-16.9,8.9L99.2,58.9z"/>
	<path id="path1659" d="M104.8,61c5.2-2.1,12.7-2.6,18.6-5.8c0.9-0.5,2.3-1.5,5.7-4.1l2.2-0.9c-3.1,2.8-6.6,5-10.3,6.9
		c-3.1,1.6-17.5,6.3-14.9,3.1L104.8,61z"/>
	<path id="path1661" d="M105.4,58.9c-1-0.3,7-2.6,9.5-3.5c4.2-1.3,7.7-3.4,10.1-5.1l2.2-0.9c-4.4,3.5-9.5,6-14.7,7.9
		c-6.2,2.3-6.2,1.8-7.4,1.9L105.4,58.9z"/>
	<path id="path1679" d="M90.1,60.8c3.6-1.9,9-7,14.7-13l1.9-0.8c-3.9,6.4-13,12.4-14.9,13L90.1,60.8z"/>
	<path id="path1681" d="M83,60.2c4-1.5,8.4-5.1,13-10.7c0.6-0.7,1.3-1.4,1.9-2.1l1.5-0.7c-0.3,0.6-0.7,1.2-1,1.8
		c-3.2,4.1-15.8,14.6-14.9,11.4L83,60.2z"/>
	<path id="path1702" d="M116.2,62.8c7.7-2.8,24.3-8.2,27.4-11.3c0.2-0.1,0.3-0.2,0.5-0.3l-0.3,0.1c0.4-0.2,0.7-0.5,1.1-0.7
		c-4.1,4.4-24.1,12.6-28.1,11.9L116.2,62.8z"/>
	<path id="path1704" d="M123.8,64.6c7.8-1.6,25-7.3,25.8-7.7l2.5-1.1c-8.5,5.9-19.9,7.8-30.3,10.3L123.8,64.6z"/>
	<path id="path1706" d="M62.8,47.8c0.1,0-0.1,0.2-0.2,0.3l-0.7,0.3c2.6-1.8-1.4,0.8,1.4-0.9L62.8,47.8z"/>
	<path id="path1710" d="M65.3,48.8c2.5-0.8,9.8-6.9,12.4-11.4c1.2-2.1-1.1,1.1,1.2-1.2l0.4-0.2c0.3,0.1,1.6-1,0.9,0.3
		c-2.7,4.9-10.7,12.2-16,13.3L65.3,48.8z"/>
	<path id="path1712" d="M71.6,48.3c3.6-5.6,10.6-6.9,14.2-12.5l1.4-0.8c-2.5,5.2-10.6,7.7-14.8,12.8L71.6,48.3z"/>
	<path id="path1714" d="M79.2,46.4c3.6-4.4,10.1-6.9,11.6-12.6l1-0.6c0,5-7.7,8.8-11.6,12.8L79.2,46.4z"/>
	<path id="path1716" d="M90.1,43c3.6-4.1,8.9-7.9,9.8-13.6l1.6-0.9c0.5,5.4-7.1,10.3-10.5,14.1L90.1,43z"/>
	<path id="path1718" d="M99.2,35.3c3.3-3.7,5.4-9.8,10.9-10.4L110,25c-3,1.5-5.4,4.1-9.5,9.7L99.2,35.3z"/>
	<path id="path1720" d="M107.2,32.6c3.8-3.8,6.5-9.1,11.5-11.3l-0.9,0.7c-3.4,3.4-6.4,7-9.8,10.3L107.2,32.6z"/>
	<path id="path1722" d="M113.5,31.5c3.5-3.3,6.6-6.6,9-10.7l0.6-0.3c-1.4,4.6-5.5,7.6-9.2,10.8L113.5,31.5z"/>
	<path id="path1724" d="M124.8,28.3c3.5-3.8,7.4-6.7,9.3-11.4l0.3-0.2c1.3,4.6-6.8,7.8-9.1,11.4L124.8,28.3z"/>
	<path id="path1726" d="M130.9,27c3.5-3.9,6.9-7.8,10.7-11.3l0.6-0.3c-3.2,3.8-6.8,7.3-10.1,11.1L130.9,27z"/>
	<path id="path1728" d="M135.9,26.7c3.5-3.7,7.3-7.1,11.4-10.1l0.1-0.1c-3.3,3.7-7.7,6.4-11.1,10L135.9,26.7z"/>
	<path id="path1730" d="M144.6,23.8c2-2.6,3.8-5.3,5.6-8.1l0.1-0.1c-1.6,2.7-3.5,5.3-5.3,7.9L144.6,23.8z"/>
	<path id="path1732" d="M145.6,24.4c2.5-1.7,4.6-5.8,6.6-9.7l1.2-0.5c-1.1,3.1-6.5,11.7-7.2,9.8L145.6,24.4z"/>
	<path id="path1734" d="M95.2,42.6c2.5-3.2,5.8-5.8,8.9-8.3l1.2-0.5c-3,2.7-6,5.4-8.9,8.2L95.2,42.6z"/>
	<path id="path1736" d="M100.6,40.8c2.7-2.9,5.3-5.9,8-8.8l0.8-0.3c-2.4,2.8-4.8,5.6-7.2,8.4L100.6,40.8z"/>
	<path id="path1738" d="M106.2,39c4-3.7,7.6-7.6,11-11.7l0.7-0.3c-3,4.3-6.8,8-10.5,11.5L106.2,39z"/>
	<path id="path1740" d="M116.8,35.7c2.4-3.7,4.9-7.4,7.4-11l0.8-0.4c-2,4.1-4.9,7.6-7.7,11.1L116.8,35.7z"/>
	<path id="path1742" d="M127.3,17.8c-2.8,2.2-6.8,6.7-9.9,9.8l-0.9,0.4c3.5-3.6,7.7-9,11.8-10.7L127.3,17.8z"/>
	<path id="path1744" d="M127.1,20.2c-2.5,3.9-6.1,7.1-9.6,10.2l-0.3,0.1c3.5-3.1,6.8-6.4,9.5-10.1L127.1,20.2z"/>
	<path id="path1746" d="M114.9,25.8c-2.2,5.1-5.8,8.6-10.6,11.1l0.7-0.5c3.9-2.7,7-6,9.2-10.3L114.9,25.8z"/>
	<path id="path1748" d="M110,26c-4.4,3.6-8,8.2-11.8,12.4l-0.1,0.1c2.9-4.7,6.8-8.8,11.2-12.2L110,26z"/>
	<path id="path1750" d="M95.9,34.2c-1.7,3.4-4.8,6-7.8,8.2L88,42.5c2.5-2.6,5-5.2,7.4-8L95.9,34.2z"/>
	<path id="path1752" d="M84.6,44.1c1.8-2,3.7-3.9,5.5-5.9l0.1-0.1c-1.5,1.9-2.9,3.8-4.6,5.5L84.6,44.1z"/>
	<path id="path1754" d="M78.1,43.9c1.3-1.7,2.6-3.4,3.9-5l0.1-0.1c-1.3,1.7-2.6,3.4-3.8,5L78.1,43.9z"/>
	<path id="path1756" d="M77.1,45.1c1.6-2,3.1-3.9,4.8-5.9l0.1-0.1c-1.6,1.8-3.1,3.7-4.4,5.7L77.1,45.1z"/>
	<path id="path1758" d="M67,45c1.9-2.4,0.9-1.2,2.9-3.5l0.1-0.1C68,43.6,68.9,42.5,67,45L67,45z"/>
	<path id="path1760" d="M63,49.7c2-3.5,4.8-6.6,7.9-9.2l0.5-0.2c-3,2.7-5.6,5.8-7.9,9.1L63,49.7z"/>
	<path id="path1762" d="M67.6,46c1.4-2.5,3.3-4.6,5.4-6.5l0.7-0.3c-2,2-3.8,4-5.3,6.4L67.6,46z"/>
	<path id="path1764" d="M74.3,41.8c2.8-2.4,1.3-1.2,4.6-3.7L79,38c-3.2,2.5-1.7,1.3-4.4,3.6L74.3,41.8z"/>
	<path id="path1766" d="M78.8,40.5c3.6-3,1.8-1.5,5.6-4.5l0.1-0.1C80.7,38.9,82.5,37.4,78.8,40.5L78.8,40.5z"/>
	<path id="path1768" d="M73.5,45.1c2.7-4,6.4-6.9,10.6-9.2l0.1-0.1c-3.7,2.3-6.9,5.3-9.5,8.7L73.5,45.1z"/>
	<path id="path1770" d="M75.8,42.4c3.3-2.5,6.7-4.9,10.1-7.2l0.1-0.1c-3.1,2.2-6.3,4.5-9.3,6.9L75.8,42.4z"/>
	<path id="path1772" d="M78,41.9c4-3.7,7.7-7.5,12.3-10.5l0.1-0.1c-4,3-7.5,6.5-11.1,10L78,41.9z"/>
	<path id="path1774" d="M83.4,40.4c4.2-3.6,1.9-1.7,6.7-5.5l0.1-0.1C85.5,38.5,87.7,36.7,83.4,40.4L83.4,40.4z"/>
	<path id="path1776" d="M85,42.2c1.3-3.2,5-5.8,7.8-8.1l0.3-0.1c-3.1,2.7-5.9,5.5-8.6,8.5L85,42.2z"/>
	<path id="path1778" d="M86.4,41.8c2-4.5,5.4-8.4,9-11.7l1.2-0.5c-3.5,3.4-6.5,7.3-8.9,11.6L86.4,41.8z"/>
	<path id="path1780" d="M84.1,40c2.7-3.7,6-6.9,9.4-9.9l0.8-0.3c-3.1,3-6,6.2-8.7,9.6L84.1,40z"/>
	<path id="path1782" d="M90.3,37.7c2.6-4.6,7.1-7.9,11.2-11l0.1-0.1c-3.8,3.3-8,6.4-10.8,10.8L90.3,37.7z"/>
	<path id="path1784" d="M92.6,37.8c3-4.4,6.9-8.1,11-11.6l0.6-0.2c-3.9,3.5-7.5,7.3-10.6,11.4L92.6,37.8z"/>
	<path id="path1786" d="M95.9,38.2c0.9-4.8,6-8.4,9.9-11.1l0.1-0.1c-3.8,2.8-7.7,5.9-9.3,10.6L95.9,38.2z"/>
	<path id="path1788" d="M103.5,31.4c3.5-4.1,1.6-2,5.7-6.2l0.1-0.1c-4,4.2-2.2,2.1-5.7,6.2L103.5,31.4z"/>
	<path id="path1790" d="M103.3,33.4c2-3.5,5.3-6.1,8.3-8.6l0.1-0.1c-2.7,2.5-5.4,5-7.4,8.1L103.3,33.4z"/>
	<path id="path1792" d="M109.7,27.1c4-4.2,2-2.2,6.2-6.1l0.1-0.1c-4.2,3.9-2.1,1.9-6.2,6.1L109.7,27.1z"/>
	<path id="path1794" d="M110,30.7c2.3-4.2,5.9-7.2,9.7-9.9l0.3-0.1c-3.8,2.7-7.3,5.7-9.6,9.8L110,30.7z"/>
	<path id="path1796" d="M103.4,31.6c1.9-3.4,5.6-5.4,8.8-7.6l0.8-0.3c-3,2.2-6.4,4.2-8.5,7.4L103.4,31.6z"/>
	<path id="path1798" d="M108.1,30.2c3.1-4.2,7.2-7.6,11.2-11l0.8-0.3c-3.9,3.3-7.8,6.6-10.8,10.7L108.1,30.2z"/>
	<path id="path1800" d="M114.4,30.4c4.2-4.6,9.4-8.3,14.6-11.7l0.5-0.2c-4.8,3.5-9.8,7-13.9,11.4L114.4,30.4z"/>
	<path id="path1802" d="M111.9,29.3c2.3-5.2,7.8-8.7,12.6-11.3l-0.6,0.5c-4.5,2.5-8.7,6.2-11.5,10.5L111.9,29.3z"/>
	<path id="path1804" d="M117.4,27.1c3.8-4.1,8.3-7.6,12.9-10.8l0.1-0.1c-4.3,3.1-8.5,6.4-12,10.4L117.4,27.1z"/>
	<path id="path1806" d="M124.7,25.9c-0.1-2.2,6-7.3,9-9.8l0.1-0.1c-3.7,3.1-6.7,6.8-10.1,10.2L124.7,25.9z"/>
	<path id="path1808" d="M125.2,27.6c3.5-4.9,8.4-8.6,13.5-11.8l0.1-0.1c-4.8,3.2-9.2,6.9-12.7,11.5L125.2,27.6z"/>
	<path id="path1810" d="M131.4,26.5c3.9-3.9,7.9-7.6,11.9-11.3l0.1-0.1c-3.8,3.7-7.6,7.2-11.3,11L131.4,26.5z"/>
	<path id="path1812" d="M134.1,24.9c2.8-3.2,6-6.1,9.2-9l0.1-0.1c-3.1,2.8-6.1,5.6-8.8,8.8L134.1,24.9z"/>
	<path id="path1814" d="M136.1,24.5c3.1-3.6,6.5-6.9,10.1-9.9l0.1-0.1c-3.1,3-6.3,6-9,9.4L136.1,24.5z"/>
	<path id="path1816" d="M137.5,25.8c3.3-4.2,7.7-7.5,11.9-10.8l0.9-0.4c-4.2,3.4-8.5,6.9-12.2,10.9L137.5,25.8z"/>
	<path id="path1818" d="M143.2,22.8c3.1-3,5.8-6.4,9.4-8.9l0.4-0.2c-3.4,2.5-6.3,5.8-9.3,8.8L143.2,22.8z"/>
	<path id="path1820" d="M120.5,35.5c3.8-3,8-5.5,12.1-8.2l0.4-0.2c-4.3,2.9-8.6,5.8-13,8.7L120.5,35.5z"/>
	<path id="path1822" d="M125.3,33c4.4-2.8,8-6.5,11.7-10.1l0.1-0.1c-2.8,3.9-6.8,6.9-10.7,9.7L125.3,33z"/>
	<path id="path1824" d="M130.8,31.1c4.2-2.7,7.7-6.2,11.3-9.7l0.1-0.1c-3.5,4-7.5,7.9-12.3,10.3L130.8,31.1z"/>
	<path id="path1826" d="M134.2,32.1c3.9-3.3,7.7-6.8,11.9-9.7l1-0.4c-4.1,2.9-7.8,6.3-11.6,9.6L134.2,32.1z"/>
	<path id="path1828" d="M142.1,29.3c3.7-2.5,6.4-6.3,10.4-8.3l-0.4,0.3c-3.1,2.4-6,5.3-9.3,7.7L142.1,29.3z"/>
	<path id="path1830" d="M146.6,26.5c3.2-2.1,5.4-5.2,6.9-8.8l1.1-0.5c-0.9,3.7-3.5,6.6-6.5,8.7L146.6,26.5z"/>
	<path id="path1832" d="M148.7,27.5c2.1-2.9,3.8-6,5.2-9.3l1.2-0.5c-1.1,3.3-2.8,6.3-4.9,9.1L148.7,27.5z"/>
	<path id="path1834" d="M151.3,25.2c1-3.1,2.9-5.9,4.7-8.6l0.4-0.2c-1.1,2.6-2.5,5.2-3.4,7.9L151.3,25.2z"/>
	<path id="path1836" d="M154.8,17.5c-1.3,3.2-3.7,5.4-6.2,7.6l-0.1,0.1c2.2-2.2,4.2-4.5,5.6-7.4L154.8,17.5z"/>
	<path id="path1838" d="M147.9,18.4c-2.8,2.4-1.2,1.1-4.9,4.1l-0.2,0.1c3.2-2.8,1.8-1.5,4.3-3.8L147.9,18.4z"/>
	<path id="path1840" d="M146.8,19.3c-1.8,4.3-4.9,7.3-8.7,9.9l-1.1,0.4c3.7-2.6,6.6-5.8,8.8-9.8L146.8,19.3z"/>
	<path id="path1842" d="M142.9,19.6c-3.3,2.1-6.1,5-9.1,7.6l-0.5,0.2c3.3-3,6.4-6.4,10.4-8.4L142.9,19.6z"/>
	<path id="path1844" d="M138.5,20c-2.1,3.4-5.4,5.9-8.5,8.3l-0.8,0.3c2.9-2.5,5.8-5.1,8.1-8.1L138.5,20z"/>
	<path id="path1846" d="M131.3,21.8c-2.5,3.1-5.3,6-8.1,8.8l-0.9,0.4c2.7-2.8,5.2-5.8,7.8-8.6L131.3,21.8z"/>
	<path id="path1848" d="M117.2,31.4c2.1-2.2,4.3-4.2,6.5-6.2l0.1-0.1c-2.1,2-4.2,4.1-6.3,6.1L117.2,31.4z"/>
	<path id="path1850" d="M115.3,33.8c2.5-2.6,5.3-5,8.1-7.3l0.2-0.1c-2.4,2.4-4.9,4.8-7.4,7.1L115.3,33.8z"/>
	<path id="path1852" d="M111.4,34.2c4.6-4.2,2.2-2.1,7.2-6.5l0.1-0.1c-4.9,4.3-2.6,2.2-7.1,6.4L111.4,34.2z"/>
	<path id="path1854" d="M110.8,36.7c0.9-0.8,1.9-1.5,2.8-2.3l0.2-0.1c-0.8,0.7-1.6,1.4-2.4,2.1L110.8,36.7z"/>
	<path id="path1856" d="M112.4,37.3c-3,0,4-5.5,4.5-6l0.7-0.3c-2.2,2.6-3.9,5.6-7,7.3L112.4,37.3z"/>
	<path id="path1858" d="M110.5,34c3.5-4,1.6-2,5.6-6.2l0.1-0.1c-3.9,4.1-2.1,2.1-5.3,6L110.5,34z"/>
	<path id="path1860" d="M110.1,30.5c0.9-0.9,1.7-1.7,2.6-2.6l0.6-0.2c-0.8,0.8-1.5,1.7-2.3,2.5L110.1,30.5z"/>
	<path id="path1862" d="M62.2,49.7c-0.1,0.1-0.3,0.3-0.4,0.4l-0.4,0.2c0.1-0.1,0.1-0.2,0.2-0.3L62.2,49.7z"/>
	<path id="path1864" d="M61.3,49.8c1.1-2.2,3.1-3.8,4.9-5.5l0.5-0.2c-1.7,1.8-3.5,3.5-4.9,5.5L61.3,49.8z"/>
	<path id="path1866" d="M69.1,45.5c2.6-2.5,1-1.2,4.8-4l0.5-0.2c-3.4,2.6-2,1.3-4.4,3.8L69.1,45.5z"/>
	<path id="path1868" d="M74.8,45.2c4-3.7,8.8-6.5,13.5-9.3l0.1-0.1c-4.5,2.7-9,5.6-13,9.1L74.8,45.2z"/>
	<path id="path1870" d="M82.1,41.8c5.1-2.9,10.1-5.9,15.2-8.8l0.1-0.1c-5.4,3.2-10.7,6.4-16.1,9.5L82.1,41.8z"/>
	<path id="path1872" d="M78.1,42.9c6.3-3.6,12.6-7.4,19.5-10.1l-0.1,0.1c-6.4,2.8-12.4,6.3-18.5,9.7L78.1,42.9z"/>
	<path id="path1874" d="M85.8,40.9c3.5-2.4,6.8-5,10.1-7.6l0.4-0.2c-3,2.5-6,5.1-9.3,7.3L85.8,40.9z"/>
	<path id="path1876" d="M90.1,41.9c3.6-3.2,7.3-6.5,10.8-9.8L101,32c-3.7,4-7.4,8.3-12.3,10.6L90.1,41.9z"/>
	<path id="path1878" d="M94.6,39.2c3.3-3.4,6.9-6.5,10.5-9.7l0.1-0.1c-3.2,3.1-6.5,6.1-9.6,9.3L94.6,39.2z"/>
	<path id="path1880" d="M98.4,37.7c3.4-3.2,7-6.1,10.7-8.9l0.1-0.1c-3.3,2.7-6.5,5.5-9.6,8.4L98.4,37.7z"/>
	<path id="path1882" d="M102.4,35.4c4.9-3,9.5-6.5,14.4-9.6l0.1-0.1c-5,3.4-9.8,7.3-15.1,10.1L102.4,35.4z"/>
	<path id="path1884" d="M101,38c4.6-3.2,9.3-6.4,13.9-9.7l0.1-0.1c-4.2,3.1-8.5,6.2-12.8,9.3L101,38z"/>
	<path id="path1886" d="M101.6,34.8c2.4-2.5,5.2-4.3,8.1-6.2l0.1-0.1c-2.4,1.8-4.8,3.7-7,5.8L101.6,34.8z"/>
	<path id="path1888" d="M105.7,33.5c3.6-1.9,6.9-4.2,10.3-6.3l0.1-0.1c-3.7,2.5-7.4,5-11.3,7.1L105.7,33.5z"/>
	<path id="path1890" d="M110,33.7c3.5-2.2,6.8-4.5,10.3-6.7l0.1-0.1c-3.8,2.5-7.4,5.3-11.3,7.4L110,33.7z"/>
	<path id="path1892" d="M112.5,34.2c3.8-3.3,1.8-1.5,6-5.4l0.1-0.1c-4.2,3.9-2.3,2.1-5.8,5.3L112.5,34.2z"/>
	<path id="path1894" d="M111.1,31.6c3.6-3.1,7.2-6.4,10.7-9.6l0.1-0.1c-3.5,3.2-7,6.4-10.5,9.6L111.1,31.6z"/>
	<path id="path1896" d="M112.2,32.2c3.9-4,8.1-7.7,12.1-11.6l1.1-0.5c-4,3.8-8,7.5-11.9,11.4L112.2,32.2z"/>
	<path id="path1898" d="M111.3,30.4c3.9-4.6,8.9-8.6,13.8-12.3l0.1-0.1c-4.1,4.1-8.7,7.8-12.9,11.9L111.3,30.4z"/>
	<path id="path1900" d="M115.6,31.4c3.4-3.5,6.8-7.1,10.1-10.7l0.1-0.1c-3.1,3.5-6.2,6.9-9.3,10.4L115.6,31.4z"/>
	<path id="path1902" d="M122.6,28.9c3.6-3.6,6.9-7.5,10.3-11.3l0.6-0.3c-3.1,3.8-6.3,7.4-9.6,11L122.6,28.9z"/>
	<path id="path1904" d="M127.4,27.2c3.7-3.3,1.7-1.5,6-5.4l0.2-0.1c-3.9,3.7-2.1,2-5.5,5.2L127.4,27.2z"/>
	<path id="path1906" d="M127.1,30c3.7-3.7,7.3-7.5,11-11.2l0.8-0.3c-3.5,3.7-7.1,7.3-10.5,11L127.1,30z"/>
	<path id="path1908" d="M126,30.8c3.8-4.7,9.1-8.4,13.4-12.7l0.6-0.2c-4.2,4.5-9,8.2-13.4,12.5L126,30.8z"/>
	<path id="path1910" d="M125.4,29.5c3.7-4.4,7.9-8.4,12-12.5l0.1-0.1c-3.7,4.1-7.8,8-11.4,12.2L125.4,29.5z"/>
	<path id="path1912" d="M132.4,28.9c5.1-4.1,9.4-8.9,13.8-13.7l0.2-0.1c-4.2,4.6-8.3,9.4-13.1,13.4L132.4,28.9z"/>
	<path id="path1914" d="M136.5,29.4c3.6-4.5,7.7-8.6,12-12.3l0.1-0.1c-4.2,3.7-8.2,7.7-11.6,12.1L136.5,29.4z"/>
	<path id="path1916" d="M140.2,26.8c3.7-3.2,7.3-6.7,10.7-10.3l0.4-0.2c-3.3,3.6-6.9,7-10.6,10.2L140.2,26.8z"/>
	<path id="path1918" d="M142.3,25.3c2.9-2.1,5.5-4.6,8.1-7.1l0.4-0.2c-2.4,2.4-4.8,4.9-7.6,6.9L142.3,25.3z"/>
	<path id="path1920" d="M143,26.2c2.7-2.5,5.4-5.2,8.1-7.8l0.1-0.1c-2.6,3.3-5.4,6.5-9.2,8.5L143,26.2z"/>
	<path id="path1922" d="M104.2,36.8c1.9-1.1,3.8-2.2,5.7-3.3l-0.1,0.1c-1.9,1.1-3.8,2.2-5.7,3.3L104.2,36.8z"/>
	<path id="path1924" d="M83.6,41c4.2-2.5,8.3-5.4,12.8-7.5l-0.1,0.1c-3.8,2.2-7.5,4.5-11.3,6.8L83.6,41z"/>
	<path id="path1926" d="M88.9,38.3c3.5-2.3,7-4.5,10.5-6.7l1-0.4c-4.1,2.7-8.3,5.5-12.6,7.9L88.9,38.3z"/>
	<path id="path1928" d="M91.4,37.9c3.7-2.2,7.2-4.7,10.8-7.1l1.3-0.5c-4.3,3.1-8.6,6.1-13.2,8.5L91.4,37.9z"/>
	<path id="path1930" d="M93.9,37.8c4.6-2.3,8.8-5.3,13.1-8l0.8-0.3c-4.8,3.1-9.4,6.5-14.7,8.9L93.9,37.8z"/>
	<path id="path1932" d="M100.5,36.4c5.6-3.5,10.9-7.3,16.4-11l0.2-0.1c-5,3.7-10.1,7.3-15.4,10.6L100.5,36.4z"/>
	<path id="path1934" d="M105.9,35.6c5.8-2.6,10.9-6.5,16.6-9.2l-0.1,0.1c-5.8,3.4-11.5,7-17.6,10L105.9,35.6z"/>
	<path id="path1936" d="M107.3,33.4c6.2-3.7,12.6-8.2,20-8.6l-0.1,0.1c-6.9,1.7-13.3,4.3-19.2,8.3L107.3,33.4z"/>
	<path id="path1938" d="M110.2,31.4c5.7-2,10.9-5.7,16.8-6.9l-0.1,0.1c-6.1,2.2-11.8,5.3-17.9,7.7L110.2,31.4z"/>
	<path id="path1940" d="M109.6,30.6c5.4-3.1,10.8-6.2,16.4-9l-0.1,0.1c-5,2.8-10,5.6-15,8.5L109.6,30.6z"/>
	<path id="path1942" d="M111.1,31.7c4.7-3,9.4-5.5,14.9-6.3l-1.1,0.8c-4.6,0.7-8.7,2.5-12.6,5.1L111.1,31.7z"/>
	<path id="path1944" d="M116.1,31.2c1.2-1.1,10.7-7.5,14.6-10.2l0.1-0.1c-4.1,3.3-10.5,7.9-14.1,9.7L116.1,31.2z"/>
	<path id="path1946" d="M110.9,32.4c4.1-4.6,9.8-7.6,15.5-9.7l-0.2,0.1c-5.3,2.4-10.6,4.8-14.5,9.2L110.9,32.4z"/>
	<path id="path1948" d="M116.2,29.4c2.2-3,5.5-4.8,8.8-6.5l-0.4,0.4c-2.9,1.6-5.6,3.5-7.9,6L116.2,29.4z"/>
	<path id="path1950" d="M122.3,26.9c3.6-2.3,7.5-4.6,11.6-4.5l-0.1,0.1c-3.7,0.8-7.2,1.9-10.3,4L122.3,26.9z"/>
	<path id="path1952" d="M125.3,27.8c4.2-3.3,7.9-7.4,12.3-10.3l0.4-0.2c-3.2,3.4-7.3,6.5-10.9,9.7L125.3,27.8z"/>
	<path id="path1954" d="M126.6,27c3.6-1.6,7-3.8,10.3-5.9l0.5-0.2c-3.8,2.7-7.8,5.2-12.1,7.1L126.6,27z"/>
	<path id="path1956" d="M129.3,26c4.5-1.2,8.2-4,11.8-7l0.2-0.1c-3.1,4-8.3,6.4-13,7.8L129.3,26z"/>
	<path id="path1958" d="M132.1,25.5c2.9-1.6,5.2-4.2,7.6-6.5l0.5-0.2c-2.6,2.7-5.3,5.6-8.8,7.2L132.1,25.5z"/>
	<path id="path1960" d="M126.5,27.3c1.9-2.4,4.4-3.6,7.1-5l-1.2,1c-1.2,0.8-2.8,2-4,3.3L126.5,27.3z"/>
	<path id="path1962" d="M132.7,24.3c1.8-1.1,3.5-2.2,5.2-3.4l0.1-0.1c-1.9,1.4-3.8,2.8-5.9,3.9L132.7,24.3z"/>
	<path id="path1964" d="M135.5,23.9c1.6-0.9,3.1-2.1,4.6-3.1l0.6-0.3c-1.9,1.4-3.8,2.8-5.9,3.9L135.5,23.9z"/>
	<path id="path1966" d="M139.1,23.1c1.7-1.2,0.8-0.5,2.9-1.9l0.9-0.3c-1.8,1.2-1,0.6-2.5,1.7L139.1,23.1z"/>
	<path id="path1968" d="M143.3,22c1-1,2.4-1.6,3.6-2.3l0.3-0.1c-0.9,0.6-1.7,1.1-2.5,1.8L143.3,22z"/>
	<path id="path1970" d="M100.3,35.1c3.8-2.1,1.7-1,6.4-3.4l-0.2,0.1c-5,2.7-2.7,1.4-6.9,3.8L100.3,35.1z"/>
	<path id="path1972" d="M106.4,32.1c1.5-2.3,3-4.5,4.6-6.8l0.2-0.1c-1.5,2.1-2.9,4.3-4.2,6.6L106.4,32.1z"/>
	<path id="path1974" d="M105.2,34.6c2.4-2.1,5.1-3.8,7.8-5.5l0.4-0.2c-2.6,1.8-5.3,3.5-7.8,5.5L105.2,34.6z"/>
	<path id="path1976" d="M101.8,35.7c1.2-2.4,3.8-4,5.9-5.6l0.2-0.1c-2,1.6-4.2,3.2-5.6,5.4L101.8,35.7z"/>
	<path id="path1978" d="M78.7,43.2c2-1.8,4.2-3.3,6.3-4.9h0.1c-2,1.5-3.9,3-5.8,4.7L78.7,43.2z"/>
	<path id="path1980" d="M78.1,45.1c2.8-2.7,1.2-1.3,4.7-4.2h0.1c-3.4,2.8-1.9,1.4-4.4,4.1L78.1,45.1z"/>
	<path id="path1982" d="M77.4,46.4c1.9-2.9,4.9-4.8,7.6-6.7h0.1c-2.7,1.9-5.3,3.9-7.4,6.5L77.4,46.4z"/>
	<path id="path1984" d="M81.2,45.8c2.4-3.2,5.6-5.6,8.9-7.8h0.1c-3.1,2.2-6.1,4.5-8.4,7.5L81.2,45.8z"/>
	<path id="path1986" d="M83.9,45c2.2-1.9,4.7-3.4,7-5l0.5-0.2c-2.3,1.6-4.6,3.1-6.8,4.9L83.9,45z"/>
	<path id="path1988" d="M116.9,34.3c4-1.6,7.3-4.9,10.7-7.7l0.4-0.2c-3.5,3.1-7.2,6.8-11.6,8.2L116.9,34.3z"/>
	<path id="path1990" d="M120.2,35c2.2-1.8,4.4-3.8,6.6-5.7h0.1c-2.3,2.2-4.5,4.7-7.4,6.2L120.2,35z"/>
	<path id="path2000" d="M79.8,59.1c3.1-3.8,6.8-7.9,8.6-12.5l1-0.5c-0.2,4.7-6.6,9.2-9,12.8L79.8,59.1z"/>
	<path id="path2002" d="M73.6,60.2c0.9-2.8,4.3-5.6,5.6-8.8l0.9-0.4c-0.4,3.6-4,5.6-5.5,8.7L73.6,60.2z"/>
	<path id="path2004" d="M69.4,59.9c1.2-3.2,2.3-9,5-9.8l-0.3,0.2c-0.5,0.6-3.3,6-3.8,9.1L69.4,59.9z"/>
	<path id="path2006" d="M66.4,60.7c-1.9-1.6,2.2-7,3.8-9.1l0.7-0.3c-1.7,2.6-4.5,6.2-4.2,9.2L66.4,60.7z"/>
	<path id="path2008" d="M61.4,64.2c-1.7-0.7,4.8-10.6,7.5-11.9l-0.1,0.1c-3.8,3.4-5.2,8.6-8.1,12.4L61.4,64.2z"/>
	<path id="path2010" d="M57.2,67.8c-1-4.8,3-9.4,5.7-13l0.3-0.1c-2.8,3.8-6.4,8.1-5.7,13L57.2,67.8z"/>
	<path id="path2012" d="M59.4,63.8c1.1-3.4,3-6.4,5-9.3h0.1c-1.7,2.9-3.3,5.9-4.4,9.1L59.4,63.8z"/>
	<path id="path2020" d="M84.1,57.2c2.4-3,4.9-5.5,6.4-9.1l1.3-0.6c-1.4,4.3-4.6,6.3-7.5,9.6L84.1,57.2z"/>
	<path id="path2024" d="M99.9,55.7c3.8-0.8,5.5-5.1,8.5-7.4l1.5-0.6c-3.5,2.8-6,8.1-10.8,8.6L99.9,55.7z"/>
	<path id="path2028" d="M118.7,59.8c5.2-2,9.3-4.5,13.6-8l1.1-0.5c-4.3,4.4-9.8,6.9-15.5,9.1L118.7,59.8z"/>
	<path id="path2031" d="M123.4,62.4c0.3-0.1-1,0.4-0.8,0.3c3.2-1.6,8.4-1,12.2-2c5.2-2.4,0,0.2,4.5-2.1l-1.2,1
		c2.5-1.7-3.9,2.5-5,2.5c-2.1,0.6-12.6,2.7-9.2,0.1L123.4,62.4z"/>
	<path id="path2033" d="M61.2,94.8c3.7,2.1,5.4,5.4,6.9,9.2c0.4,1.1,0.7,2,0.8,3.2l-1,0.6c-0.5-0.9-0.8-1.9-1.2-2.9
		c-1.4-3.8-3.4-6.8-6.1-9.6L61.2,94.8z"/>
	<path id="path2035" d="M68.2,98.9c5.2,2.2,7.3,7.6,7.3,13l-0.2,0.1c-1.9-4.8-3.3-9.4-7.4-12.9L68.2,98.9z"/>
	<path id="path2037" d="M75.6,101.8c3-1.8,6.7,7.1,7.5,10.5l-0.7,0.4c-1-3.7-5.3-10.8-6.4-11.1L75.6,101.8z"/>
	<path id="path2039" d="M84.4,103c2.5-0.2,4.7,7.8,4.4,11.4h-0.1c-0.4-3.5-3.8-10.6-4.2-11.5L84.4,103z"/>
	<path id="path2041" d="M90.4,102.3c3.3,2.8,5.3,6.6,5.3,10.9h-0.1c-1.3-3.9-2.8-7.6-5.6-10.7L90.4,102.3z"/>
	<path id="path2043" d="M96.7,100.7c2.6,2.3,6.9,6.8,5.7,10.5l-0.5,0.2c-1-4-3-7.4-6.1-10.2L96.7,100.7z"/>
	<path id="path2045" d="M102.2,100.4c4-2,9.1,1,11.8,4l-0.6,0.4c-3.1-2.4-6.7-4.6-10.7-4.6L102.2,100.4z"/>
	<path id="path2047" d="M109.7,97.5c2-3.3,8-0.3,10.6,3.2l-0.6,0.4c-2.4-2.6-7.5-5.8-9.6-3.8L109.7,97.5z"/>
	<path id="path2049" d="M115.1,92.1c2.9-1.6,6.7-1.8,9.3,0.6l-0.6,0.4c-3.3-0.6-6.2-2.5-9.6-0.3L115.1,92.1z"/>
	<path id="path2051" d="M117.2,86.8c1.2-1.3,5.9-3.3,8.7-3.7l-0.9,0.7c-2.9,0.6-5.5,1.8-8,3.2L117.2,86.8z"/>
	<path id="path2053" d="M121,79.7c0.5-0.5,8.4-7,8.5-1.5l-0.3,0.1c-3.6-2.5-5.6-0.1-8.9,1.9L121,79.7z"/>
	<path id="path2055" d="M121.6,75.5c1.3-0.6,2.2-1.3,3.4-2.1l0.7-0.3c-1.5,1.2-3.1,2.5-5,3.1L121.6,75.5z"/>
	<path id="path2059" d="M118.1,90c0.8-3.1,7.6-4.9,10.2-2.2l-1,0.6c-2.8-1.8-7-1.4-8.9,1.4L118.1,90z"/>
	<path id="path2061" d="M121.5,81.5c2.2-0.9,5-1.3,7.3-0.6l-0.9,0.6c-1.6-0.1-5.3,0.4-5.8-0.3L121.5,81.5z"/>
	<path id="path2063" d="M123.3,73c-0.8-2.2,3.1-3,4.8-3.3l-0.7,0.5c-1.7,0.4-3.4,0.4-3.7,2.5L123.3,73z"/>
	<path id="path2065" d="M121.6,69.9c1-2,3.4-2.8,5.3-3.7l-0.2,0.2c-1.6,0.9-3.1,1.8-4.4,3.1L121.6,69.9z"/>
	<path id="path2067" d="M118.7,89.5c1.2-1.6,3.6,1.2,5.2,3.1l-0.8,0.5c-1.7-1.2-3.7-4.4-4.6-3.4L118.7,89.5z"/>
	<path id="path2069" d="M117.1,92.7c2.1-0.3,3.6,1.2,4.9,2.6l-1,0.6c-1.3-1.2-2.7-2.1-4.4-2.9L117.1,92.7z"/>
	<path id="path2071" d="M108.6,98.3c0.9-2.1,3.2,1.3,5.1,3.1l-1,0.6c-1.3-1-5.2-4.6-3.8-4L108.6,98.3z"/>
	<path id="path2075" d="M101.8,100.5c4.6,2,7.1,5.7,6.5,10.7l-0.2,0.1c-0.7-4.7-2.6-8-6.7-10.5L101.8,100.5z"/>
	<path id="path2077" d="M95.5,103.4c-2,0-0.9-1.7-0.3-1.1c1.7,1.4,2.6,4.2,3.5,6.1c0.7,3.7,0.6,1.8,0.3,5.6h-0.1
		c-0.8-3.3-0.4-1.6-1.3-5c-0.9-2-5.4-8.5-1.9-5.7L95.5,103.4z"/>
	<path id="path2079" d="M57.7,94c2.8-0.2,2.9,3.4,3.2,5.6l-0.3,0.2c-1-1.8-1.7-4.3-3.7-5.1L57.7,94z"/>
	<path id="path3084" d="M120.9,70.3c4.1-1.6,17.4-1.7,25.6-3.8c0.9-0.2-1.6,0.7-2.4,1.1c4.4-2.4,9-4.6,13.7-6.3l-1.6,1.1
		c-10.6,5.8,0.4-0.4-6.5,3.4c-7.4,3.6-12.7,6.5-21.3,6c-2.8-0.2-10.4,0.5-8.3-1.1c6-4.6,2.9-1.6,2.3-1.2L120.9,70.3z"/>
	<path id="path3092" d="M124.8,67.1c4.1-2.2,8.9-1.4,13.4-2c2.4-0.4,4.8-1.3,7.2-1.7l-2.2,1.7c-2.6,0.9-5.2,1.7-7.9,2.1
		c-2.8,0.3-8.5,0.4-10-0.3L124.8,67.1z"/>
</g>
<g id="layer8" inkscape:groupmode="layer" inkscape:label="clipp" sodipodi:insensitive="true">
	<path id="path1585" class="st17" d="M184.5,76.1c0,59.9-48.6,108.4-108.4,108.4C16.2,184.6-32.4,136-32.4,76.1S16.2-32.3,76-32.3
		C135.9-32.3,184.5,16.3,184.5,76.1z M152.2,76.1c0,42-34.1,76.1-76.1,76.1S0,118.1,0,76.1S34.1,0,76.1,0S152.2,34.1,152.2,76.1z"/>
</g>
</svg>
