<?xml version="1.0" encoding="utf-8"?>
<!-- Generator: Adobe Illustrator 27.0.0, SVG Export Plug-In . SVG Version: 6.00 Build 0)  -->
<svg version="1.1" id="Layer_1" xmlns="http://www.w3.org/2000/svg" xmlns:xlink="http://www.w3.org/1999/xlink" x="0px" y="0px"
	 viewBox="0 0 100 100" style="enable-background:new 0 0 100 100;" xml:space="preserve">
<style type="text/css">
	.st0{display:none;}
	.st1{fill:#2857AF;}
	.st2{fill:none;}
	.st3{display:inline;fill:#1C1C1C;}
	.st4{display:inline;}
	.st5{fill:#1C1C1C;}
</style>
<g id="Products" class="st0">
</g>
<g id="Products_1_" class="st0">
</g>
<g>
	<path class="st1" d="M0,0v100h100V0H0z M31.8,28.6c0.1-4.5,3-8.5,7.2-10c3.5-1.2,7.2-1.9,11-1.9c7.9,0,15.1,2.7,20.8,7.3
		c0.3,0.2,0.2,0.7-0.2,0.8c-2.4,0.6-8.8,2.7-12.9,8c-3.9,5.1-5.8,10.5-7.7,15.8c-1.3,3.7-2.7,7.6-4.8,11.6c-0.7,1.2-1.6,2-2.3,2.1
		c-0.7,0-1.5-0.5-2.1-1.5C33,49.7,31.6,37.3,31.8,28.6z M42.4,82.5c-11.6-2.6-21.7-12-24.8-24.4c-2.4-9.8-0.2-19.4,4.5-26.3
		c0.5-0.7,1.6-0.4,1.6,0.4C24,41.7,26.3,54,34.3,65.3c2.2,3.1,5.3,6.3,8.5,6.3c0.2,0,0.4,0,0.6,0c3.6-0.2,6.8-4,8.8-7.8
		c2.4-4.5,3.9-8.6,5.3-12.7c1.8-5.1,3.4-9.5,6.5-13.7c1.6-2,4.2-4.6,7.7-5c1-0.1,2.1-0.1,3.2,0.2c2.8,0.6,5.1,2.7,6.2,5.4
		c1.4,3.7,2.2,7.7,2.2,11.9C83.3,70.9,64.1,87.3,42.4,82.5z"/>
	<path class="st2" d="M75,32.7c-1.1-0.3-2.1-0.3-3.2-0.2c-3.6,0.5-6.2,3-7.7,5c-3.1,4.2-4.7,8.6-6.5,13.7c-1.4,4-2.9,8.2-5.3,12.7
		c-2,3.7-5.2,7.5-8.8,7.8c-0.2,0-0.4,0-0.6,0c-3.3,0-6.4-3.3-8.5-6.3C26.3,54,24,41.7,23.8,32.1c0-0.9-1.1-1.2-1.6-0.4
		c-4.7,6.9-7,16.6-4.5,26.3c3.1,12.5,13.2,21.8,24.8,24.4C64.1,87.3,83.3,70.9,83.3,50c0-4.2-0.8-8.2-2.2-11.9
		C80.1,35.4,77.8,33.3,75,32.7z"/>
	<path class="st2" d="M42.9,62.2c0.8,0,1.7-0.8,2.3-2.1c2.1-3.9,3.5-7.8,4.8-11.6c1.9-5.3,3.8-10.7,7.7-15.8
		c4.1-5.3,10.6-7.4,12.9-8c0.4-0.1,0.5-0.6,0.2-0.8c-5.7-4.6-13-7.3-20.8-7.3c-3.9,0-7.6,0.7-11,1.9c-4.3,1.5-7.1,5.5-7.2,10
		c-0.2,8.7,1.2,21.2,9,32.2C41.5,61.7,42.3,62.2,42.9,62.2z"/>
	<g class="st0">
		<path class="st3" d="M122,67.2c0.3-0.6,0.6-1.2,1.1-1.6c0.5-0.5,1-0.8,1.6-1.1c0.6-0.3,1.3-0.4,2-0.4h1.5v3.1h-0.1
			c-0.4,0-0.8,0.1-1.2,0.2c-0.4,0.2-0.7,0.4-1,0.7c-0.1,0.1-0.2,0.3-0.3,0.5c-0.1,0.2-0.1,0.4-0.1,0.6h2.7v3.4h-2.7v10.8h-3.9V72.5
			H120v-3.4h1.6C121.6,68.5,121.7,67.8,122,67.2z"/>
		<path class="st3" d="M144.6,76.3c0,1-0.2,2-0.6,2.9c-0.4,0.9-1,1.7-1.7,2.4s-1.5,1.2-2.5,1.6c-0.9,0.4-2,0.6-3,0.6
			c-1.1,0-2.1-0.2-3-0.6c-0.9-0.4-1.8-0.9-2.5-1.6c-0.7-0.7-1.3-1.5-1.7-2.4c-0.4-0.9-0.6-1.9-0.6-2.9c0-1,0.2-2,0.6-2.9
			c0.4-0.9,1-1.7,1.7-2.4c0.7-0.7,1.5-1.2,2.5-1.6c0.9-0.4,2-0.6,3-0.6c1.1,0,2.1,0.2,3,0.6c0.9,0.4,1.8,0.9,2.5,1.6
			s1.3,1.5,1.7,2.4C144.4,74.3,144.6,75.2,144.6,76.3z M140.7,76.3c0-0.5-0.1-1.1-0.3-1.5c-0.2-0.5-0.5-0.9-0.8-1.2
			c-0.3-0.3-0.8-0.6-1.2-0.8c-0.5-0.2-1-0.3-1.5-0.3c-0.5,0-1,0.1-1.5,0.3c-0.5,0.2-0.9,0.5-1.2,0.8c-0.3,0.3-0.6,0.8-0.8,1.2
			c-0.2,0.5-0.3,1-0.3,1.5c0,0.5,0.1,1.1,0.3,1.5c0.2,0.5,0.5,0.9,0.8,1.2c0.3,0.3,0.8,0.6,1.2,0.8c0.5,0.2,1,0.3,1.5,0.3
			c0.5,0,1-0.1,1.5-0.3c0.5-0.2,0.9-0.5,1.2-0.8c0.3-0.3,0.6-0.8,0.8-1.2C140.6,77.3,140.7,76.8,140.7,76.3z"/>
		<path class="st3" d="M146.6,73.3c0.4-0.9,0.9-1.7,1.5-2.4c0.6-0.7,1.4-1.2,2.3-1.6c0.9-0.4,1.9-0.6,3-0.6h0.5v3.6
			c-0.5,0-1.1,0.1-1.5,0.3c-0.5,0.2-0.9,0.5-1.2,0.8c-0.3,0.3-0.6,0.8-0.8,1.2c-0.2,0.5-0.3,1-0.3,1.5v7.1h-3.9v-7.1
			C146.1,75.2,146.2,74.3,146.6,73.3z"/>
		<path class="st3" d="M166.4,83.3h-4.2V64.5h4.2h5.2c0.9,0,1.7,0.2,2.5,0.5c0.8,0.3,1.4,0.8,2,1.4c0.6,0.6,1,1.2,1.4,2
			c0.3,0.8,0.5,1.6,0.5,2.5c0,0.7-0.1,1.3-0.3,1.9c-0.2,0.6-0.5,1.2-0.9,1.7c-0.4,0.5-0.8,1-1.3,1.4c-0.5,0.4-1.1,0.7-1.7,0.9
			l5.1,6.7H174l-4.7-6.3h-2.9V83.3z M166.4,73.3h5c0.3,0,0.6-0.1,0.9-0.2c0.3-0.1,0.5-0.3,0.8-0.5c0.2-0.2,0.4-0.5,0.5-0.8
			c0.1-0.3,0.2-0.6,0.2-1s-0.1-0.7-0.2-1c-0.1-0.3-0.3-0.6-0.5-0.8c-0.2-0.2-0.5-0.4-0.8-0.5c-0.3-0.1-0.6-0.2-0.9-0.2h-5V73.3z"/>
		<path class="st3" d="M187.3,68.8c1.1,0,2.1,0.2,3,0.6c0.9,0.4,1.7,0.9,2.3,1.6c0.6,0.7,1.1,1.5,1.5,2.4c0.4,0.9,0.5,1.9,0.5,2.9
			v7.1h-3.9v-7.1c0-0.5-0.1-1.1-0.2-1.5c-0.1-0.5-0.4-0.9-0.7-1.2c-0.3-0.3-0.6-0.6-1.1-0.8c-0.4-0.2-0.9-0.3-1.5-0.3
			s-1,0.1-1.5,0.3c-0.4,0.2-0.8,0.5-1.1,0.8c-0.3,0.3-0.5,0.8-0.7,1.2c-0.1,0.5-0.2,1-0.2,1.5v7.1H180V64.5h3.9V70
			c0.5-0.4,1-0.7,1.5-0.9C186,68.9,186.6,68.8,187.3,68.8z"/>
		<path class="st3" d="M199.1,63c0.3,0,0.6,0.1,0.9,0.2c0.3,0.1,0.5,0.3,0.7,0.5c0.2,0.2,0.4,0.4,0.5,0.7c0.1,0.3,0.2,0.6,0.2,0.9
			c0,0.3-0.1,0.6-0.2,0.9c-0.1,0.3-0.3,0.5-0.5,0.7c-0.2,0.2-0.4,0.4-0.7,0.5c-0.3,0.1-0.6,0.2-0.9,0.2c-0.6,0-1.2-0.2-1.6-0.7
			c-0.4-0.4-0.7-1-0.7-1.6c0-0.3,0.1-0.6,0.2-0.9c0.1-0.3,0.3-0.5,0.5-0.7c0.2-0.2,0.5-0.4,0.7-0.5C198.5,63.1,198.8,63,199.1,63z
			 M197.1,69.2h3.9v14.2h-3.9V69.2z"/>
		<path class="st3" d="M210.9,68.8c1.1,0,2.1,0.2,3,0.6c0.9,0.4,1.7,0.9,2.3,1.6c0.6,0.7,1.1,1.5,1.5,2.4c0.4,0.9,0.5,1.9,0.5,2.9
			v7.1h-3.9v-7.1c0-0.5-0.1-1.1-0.2-1.5c-0.1-0.5-0.4-0.9-0.7-1.2c-0.3-0.3-0.6-0.6-1.1-0.8c-0.4-0.2-0.9-0.3-1.5-0.3
			s-1,0.1-1.5,0.3c-0.4,0.2-0.8,0.5-1.1,0.8c-0.3,0.3-0.5,0.8-0.7,1.2c-0.1,0.5-0.2,1-0.2,1.5v7.1h-3.9v-7.1c0-1,0.2-2,0.5-2.9
			c0.4-0.9,0.9-1.7,1.5-2.4s1.4-1.2,2.3-1.6C208.8,68.9,209.8,68.8,210.9,68.8z"/>
		<path class="st3" d="M235.3,76.3c0,1-0.2,2-0.6,2.9c-0.4,0.9-1,1.7-1.7,2.4c-0.7,0.7-1.5,1.2-2.5,1.6c-0.9,0.4-2,0.6-3,0.6
			c-1.1,0-2.1-0.2-3-0.6c-0.9-0.4-1.8-0.9-2.5-1.6c-0.7-0.7-1.3-1.5-1.7-2.4c-0.4-0.9-0.6-1.9-0.6-2.9c0-1,0.2-2,0.6-2.9
			c0.4-0.9,1-1.7,1.7-2.4c0.7-0.7,1.5-1.2,2.5-1.6c0.9-0.4,2-0.6,3-0.6c1.1,0,2.1,0.2,3,0.6c0.9,0.4,1.8,0.9,2.5,1.6
			c0.7,0.7,1.3,1.5,1.7,2.4C235.1,74.3,235.3,75.2,235.3,76.3z M231.3,76.3c0-0.5-0.1-1.1-0.3-1.5c-0.2-0.5-0.5-0.9-0.8-1.2
			c-0.3-0.3-0.8-0.6-1.2-0.8c-0.5-0.2-1-0.3-1.5-0.3s-1,0.1-1.5,0.3s-0.9,0.5-1.2,0.8c-0.3,0.3-0.6,0.8-0.8,1.2
			c-0.2,0.5-0.3,1-0.3,1.5c0,0.5,0.1,1.1,0.3,1.5c0.2,0.5,0.5,0.9,0.8,1.2c0.3,0.3,0.8,0.6,1.2,0.8c0.5,0.2,1,0.3,1.5,0.3
			s1-0.1,1.5-0.3c0.5-0.2,0.9-0.5,1.2-0.8c0.3-0.3,0.6-0.8,0.8-1.2C231.2,77.3,231.3,76.8,231.3,76.3z"/>
	</g>
	<g class="st0">
		<g class="st4">
			<polygon class="st5" points="148.5,16.7 157.4,16.7 142.2,53.3 135.2,53.3 120,16.7 128.9,16.7 138.7,41 			"/>
			<path class="st5" d="M178.2,33.8h9.7c0.5,0,1.1-0.1,1.7-0.4c0.6-0.3,1.1-0.6,1.5-1c0.4-0.4,0.8-1,1-1.6c0.3-0.6,0.4-1.2,0.4-1.9
				c0-0.7-0.1-1.3-0.4-1.9c-0.3-0.6-0.6-1.1-1-1.6c-0.4-0.4-0.9-0.8-1.5-1c-0.6-0.3-1.1-0.4-1.7-0.4h-9.7V33.8z M178.2,53.3H170
				V16.7h8.2h10.1c1.7,0,3.3,0.3,4.8,1c1.5,0.6,2.8,1.5,3.9,2.6c1.1,1.1,2,2.4,2.7,3.9c0.6,1.5,1,3.1,1,4.8c0,1.3-0.2,2.6-0.6,3.8
				c-0.4,1.2-1,2.3-1.7,3.3c-0.7,1-1.6,1.9-2.5,2.6c-1,0.7-2.1,1.3-3.2,1.8l10,13H193l-9.2-12.2h-5.6V53.3z"/>
			<path class="st5" d="M217.4,47.2c1.1,0,2-0.2,3-0.6c0.9-0.4,1.7-1,2.4-1.6c0.7-0.7,1.2-1.5,1.6-2.4c0.4-0.9,0.6-1.9,0.6-3
				c0-1.1-0.2-2-0.6-3c-0.4-0.9-1-1.7-1.6-2.4c-0.7-0.7-1.5-1.2-2.4-1.6c-0.9-0.4-1.9-0.6-3-0.6c-1.1,0-2,0.2-3,0.6
				c-0.9,0.4-1.7,1-2.4,1.6c-0.7,0.7-1.2,1.5-1.6,2.4c-0.4,0.9-0.6,1.9-0.6,3c0,1.1,0.2,2,0.6,3c0.4,0.9,1,1.7,1.6,2.4
				c0.7,0.7,1.5,1.2,2.4,1.6C215.4,47,216.3,47.2,217.4,47.2 M217.2,25c2.1,0,4,0.4,5.9,1.1c1.9,0.8,3.5,1.8,4.8,3.1
				c1.4,1.3,2.4,2.9,3.2,4.6c0.8,1.8,1.2,3.7,1.2,5.7v13.8h-7.1v-3.4c-0.9,1.3-2,2.3-3.4,3.1c-1.4,0.8-2.9,1.1-4.6,1.1
				c-2.1,0-4.1-0.4-5.9-1.1c-1.8-0.8-3.4-1.8-4.8-3.1c-1.4-1.3-2.4-2.9-3.2-4.6c-0.8-1.8-1.2-3.7-1.2-5.7c0-2,0.4-3.9,1.2-5.7
				c0.8-1.8,1.9-3.3,3.2-4.6c1.4-1.3,3-2.4,4.8-3.1C213.2,25.4,215.1,25,217.2,25"/>
			<polygon class="st5" points="238,62.5 246.6,62.5 263.2,25.8 254.9,25.8 247.7,41.7 240.6,25.8 232.3,25.8 243.6,50.1 			"/>
			<rect x="154.3" y="33.9" class="st5" width="11.6" height="7.2"/>
		</g>
	</g>
</g>
<g id="Products_2_" class="st0">
</g>
<g id="Products_3_" class="st0">
</g>
<g id="Products_4_" class="st0">
</g>
<g id="Products_5_" class="st0">
</g>
<g id="Products_6_" class="st0">
</g>
<g id="Products_7_" class="st0">
</g>
</svg>
