<?xml version="1.0" encoding="utf-8"?>
<!-- Generator: Adobe Illustrator 25.0.1, SVG Export Plug-In . SVG Version: 6.00 Build 0)  -->
<svg version="1.1" id="Layer_1" xmlns="http://www.w3.org/2000/svg" xmlns:xlink="http://www.w3.org/1999/xlink" x="0px" y="0px"
	 width="263.2368469px" height="100px" viewBox="0 0 263.2368469 100" style="enable-background:new 0 0 263.2368469 100;"
	 xml:space="preserve">
<g id="Products">
</g>
<g id="Products_1_">
</g>
<g>
	<rect x="0.0000119" style="fill:#2857AF;" width="100" height="100"/>
	<g>
		<path style="fill:#FFFFFF;" d="M40.8077126,60.72295c0.679451,0.9594803,1.4588203,1.4991913,2.1382713,1.4592094
			c0.7793694-0.0399818,1.6786423-0.83955,2.3381081-2.0588875c2.1182899-3.9378815,3.4971733-7.8157959,4.8360939-11.5537796
			c1.8784828-5.2571716,3.7969322-10.6742554,7.6737976-15.7915001c4.0966873-5.3371239,10.5514679-7.4160061,12.9095688-7.9956932
			c0.3597031-0.099947,0.4596252-0.5597,0.1798553-0.7795811c-5.7353668-4.5975246-12.9695206-7.3360519-20.8431587-7.3360519
			c-3.8568802,0-7.5738792,0.659647-11.0310822,1.8789902c-4.2565613,1.4991913-7.1142521,5.4970398-7.2341518,10.0146065
			C31.5751762,37.2755699,32.9740448,49.7488556,40.8077126,60.72295"/>
		<path style="fill:#FFFFFF;" d="M71.8026657,32.4981422c-3.5571289,0.4597549-6.1550293,2.9983864-7.713768,5.0372887
			c-3.1374702,4.1577606-4.7161903,8.5553932-6.5347214,13.6726379c-1.438839,4.0178375-2.9176445,8.1755981-5.3157043,12.6531868
			c-1.9983864,3.7179985-5.1958008,7.5159569-8.7928963,7.7558174c-0.1998367,0-0.3796921,0.0199966-0.5795288,0.0199966
			c-3.2573662,0-6.354866-3.2582474-8.5331039-6.3166046c-8.0335045-11.2739258-10.2916794-23.6072884-10.5314865-33.1821327
			c-0.0199833-0.8595371-1.1190948-1.1593761-1.6186905-0.4397621c-4.7361736,6.936264-6.9543781,16.5910683-4.5163498,26.3458138
			c3.1174793,12.4532967,13.209322,21.8282509,24.7799721,24.4268532
			c21.6824722,4.8773727,40.8869553-11.6137466,40.8869553-32.4825134c0-4.1977386-0.7793655-8.2155762-2.1982193-11.9135857
			c-1.0391617-2.6985474-3.3373108-4.7774277-6.1550217-5.3970947
			C73.9009628,32.4181862,72.8418274,32.3582191,71.8026657,32.4981422"/>
	</g>
	<g>
		<path style="fill:#1C1C1C;" d="M122.0062485,67.1794052c0.2709808-0.6290359,0.6379852-1.1750641,1.1010132-1.6389084
			c0.4630356-0.463028,1.0049973-0.8300323,1.6258926-1.1010208c0.620903-0.2709808,1.2890015-0.4068756,2.0059204-0.4068756
			h1.4688416v3.1468048h-0.0520782c-0.4199066,0-0.8178329,0.0789413-1.1937943,0.2359924
			c-0.3759537,0.1578674-0.7039032,0.3759613-0.9830246,0.6558914c-0.1399612,0.1399689-0.2490082,0.3059769-0.3279419,0.498024
			c-0.0789337,0.1928558-0.1179962,0.3938599-0.1179962,0.6029968h2.6748352v3.3567581h-2.6748352v10.8042908h-3.9337158V72.529068
			h-1.5990372v-3.3567581h1.5990372C121.5993652,68.4732895,121.7344513,67.8092575,122.0062485,67.1794052z"/>
		<path style="fill:#1C1C1C;" d="M144.6238861,76.2528305c0,1.0318451-0.2058716,2.0018463-0.6168213,2.91082
			c-0.4109497,0.9089661-0.9700012,1.7048264-1.6779785,2.3867569s-1.5339355,1.2190094-2.4779053,1.6128693
			c-0.9447632,0.3930511-1.9587097,0.5899811-3.0426483,0.5899811c-1.0839233,0-2.0978699-0.1969299-3.0418243-0.5899811
			c-0.9439697-0.3938599-1.769928-0.9309387-2.4779053-1.6128693c-0.707962-0.6819305-1.2678375-1.4777908-1.6779633-2.3867569
			c-0.4109497-0.9089737-0.6168365-1.8789749-0.6168365-2.91082c0-1.0310364,0.2058868-2.0018463,0.6168365-2.91082
			c0.4101257-0.9089661,0.9700012-1.70401,1.6779633-2.3859406c0.7079773-0.6819305,1.5339355-1.2198257,2.4779053-1.6128769
			c0.9439545-0.3938599,1.957901-0.5899734,3.0418243-0.5899734c1.0839386,0,2.0978851,0.1961136,3.0426483,0.5899734
			c0.9439697,0.3930511,1.769928,0.9309464,2.4779053,1.6128769s1.2670288,1.4769745,1.6779785,2.3859406
			C144.4180145,74.2509842,144.6238861,75.2217941,144.6238861,76.2528305z M140.6901703,76.2528305
			c0-0.541153-0.1009064-1.0530014-0.3018951-1.5339355c-0.201004-0.4809341-0.476059-0.8959503-0.8259735-1.2458649
			c-0.3499146-0.3491058-0.7600555-0.6290359-1.2328491-0.8389893c-0.4719849-0.2099533-0.9789429-0.3149261-1.5209198-0.3149261
			c-0.5419617,0-1.0489349,0.1049728-1.5209045,0.3149261c-0.4719849,0.2099533-0.8829346,0.4898834-1.2320404,0.8389893
			c-0.3499146,0.3499146-0.6257782,0.7649307-0.8259583,1.2458649c-0.2018127,0.4809341-0.3019104,0.9927826-0.3019104,1.5339355
			c0,0.5419617,0.1000977,1.0538177,0.3019104,1.5339355c0.2001801,0.4809341,0.4760437,0.8967667,0.8259583,1.2458649
			c0.3491058,0.3499222,0.7600555,0.6290436,1.2320404,0.8389893c0.4719696,0.2099533,0.9789429,0.3149261,1.5209045,0.3149261
			c0.5419769,0,1.0489349-0.1049728,1.5209198-0.3149261c0.4727936-0.2099457,0.8829346-0.4890671,1.2328491-0.8389893
			c0.3499146-0.3490982,0.6249695-0.7649307,0.8259735-1.2458649
			C140.5892639,77.3066483,140.6901703,76.7947922,140.6901703,76.2528305z"/>
		<path style="fill:#1C1C1C;" d="M146.6037598,73.3420105c0.3580627-0.9089661,0.8601532-1.70401,1.5070953-2.3859406
			c0.6469269-0.6819305,1.4208221-1.2198257,2.3208313-1.6128769c0.9008331-0.3938599,1.892807-0.5899734,2.9767456-0.5899734
			h0.5240479v3.5658951c-0.5419617,0-1.0529938,0.1049728-1.5339355,0.3149261
			c-0.4809265,0.2099533-0.8959503,0.4898834-1.2450409,0.8389893c-0.3499298,0.3499146-0.6298523,0.7649307-0.8398132,1.2458649
			c-0.209137,0.4809341-0.3141022,0.9927826-0.3141022,1.5339355v7.0805283h-3.9337158v-7.0805283
			C146.0658722,75.2217941,146.2449036,74.2509842,146.6037598,73.3420105z"/>
		<path style="fill:#1C1C1C;" d="M166.3887024,83.3333588h-4.1957397V64.4524994h4.1957397h5.1917877
			c0.8739777,0,1.6958771,0.166008,2.4648895,0.498024c0.7689972,0.3320084,1.4427948,0.7828369,2.0197449,1.3508377
			c0.5769653,0.5680084,1.0310364,1.2320328,1.3630524,1.992897c0.332016,0.7600555,0.4988403,1.5778809,0.4988403,2.4518585
			c0,0.6819305-0.1049805,1.3288727-0.3149261,1.9408188c-0.2099609,0.6119461-0.4980316,1.1758804-0.865036,1.6909943
			c-0.3678131,0.5159225-0.8048096,0.9659348-1.3117828,1.3508377c-0.5069733,0.3840942-1.0578766,0.6908875-1.6519318,0.917923
			l5.1397095,6.6866684h-4.9297485l-4.7206268-6.2936249h-2.8839722V83.3333588z M166.3887024,73.2630768h4.981842
			c0.2799377,0,0.5639343-0.0651016,0.852829-0.1961136c0.2880707-0.1310196,0.5411377-0.3100433,0.7600403-0.5378952
			c0.2189026-0.2270432,0.397934-0.4939575,0.5379028-0.7999268c0.1399689-0.3051605,0.2099457-0.63311,0.2099457-0.9830246
			s-0.0699768-0.6770477-0.2099457-0.9838333c-0.1399689-0.3051605-0.3190002-0.5720749-0.5379028-0.7991104
			c-0.2189026-0.2270432-0.4719696-0.4068832-0.7600403-0.5378952c-0.2888947-0.1310196-0.5728912-0.1969299-0.852829-0.1969299
			h-4.981842V73.2630768z"/>
		<path style="fill:#1C1C1C;" d="M187.3145447,68.7532196c1.0839233,0,2.0758972,0.1961136,2.9767303,0.5899734
			c0.9000244,0.3930511,1.6739044,0.9309464,2.3208466,1.6128769c0.6461182,0.6819305,1.1490326,1.4769745,1.5078888,2.3859406
			c0.3580627,0.9089737,0.5370941,1.8797836,0.5370941,2.91082v7.0805283h-3.9337158v-7.0805283
			c0-0.541153-0.0740509-1.0530014-0.2229767-1.5339355c-0.1481018-0.4809341-0.3670044-0.8959503-0.6550751-1.2458649
			c-0.2888794-0.3491058-0.6469421-0.6290359-1.0749817-0.8389893c-0.4288483-0.2099533-0.9138489-0.3149261-1.4558105-0.3149261
			s-1.0269623,0.1049728-1.4550018,0.3149261c-0.4288483,0.2099533-0.786911,0.4898834-1.0757904,0.8389893
			c-0.2880707,0.3499146-0.5069733,0.7608643-0.6550751,1.2328415c-0.1489258,0.4719849-0.2229767,0.9789581-0.2229767,1.5209198
			v7.1065674h-3.9337158V64.4524994h3.9337158v5.5596085c0.4540863-0.4020004,0.9700012-0.7128525,1.5469666-0.9309464
			C186.0296173,68.8622665,186.649704,68.7532196,187.3145447,68.7532196z"/>
		<path style="fill:#1C1C1C;" d="M199.0888367,63.0095062c0.3149261,0,0.6078796,0.0618439,0.8788605,0.1839104
			c0.2709808,0.1228752,0.5069733,0.2840004,0.707962,0.4850006c0.201004,0.2009964,0.3629456,0.436985,0.4850006,0.7079659
			c0.1220703,0.2717972,0.1839142,0.563942,0.1839142,0.8788681c0,0.3149185-0.0618439,0.607872-0.1839142,0.8780441
			c-0.1220551,0.2717972-0.2839966,0.5118561-0.4850006,0.7218018c-0.2009888,0.209137-0.4369812,0.3710785-0.707962,0.4850006
			c-0.2709808,0.1139297-0.5639343,0.1700821-0.8788605,0.1700821c-0.6290436,0-1.1628723-0.2180939-1.5990448-0.6550827
			c-0.4378052-0.4369888-0.6558838-0.9708099-0.6558838-1.5998459c0-0.3149261,0.0569611-0.6070709,0.1708832-0.8788681
			c0.1131134-0.2709808,0.2750549-0.5069695,0.4850006-0.7079659c0.209137-0.2010002,0.4500122-0.3621254,0.720993-0.4850006
			C198.4817657,63.0713501,198.7747192,63.0095062,199.0888367,63.0095062z M197.1227875,69.1723099h3.9329071v14.1610489
			h-3.9329071V69.1723099z"/>
		<path style="fill:#1C1C1C;" d="M210.8631287,68.7532196c1.0839233,0,2.0758972,0.1961136,2.9767303,0.5899734
			c0.9000244,0.3930511,1.6730957,0.9309464,2.3200226,1.6128769c0.6469421,0.6819305,1.1498566,1.4769745,1.5079041,2.3859406
			c0.3588715,0.9089737,0.5378876,1.8797836,0.5378876,2.91082v7.0805283h-3.9337006v-7.0805283
			c0-0.541153-0.0740662-1.0530014-0.2229767-1.5339355c-0.1481018-0.4809341-0.3670044-0.8959503-0.6550751-1.2458649
			c-0.2888794-0.3491058-0.6469421-0.6290359-1.0757904-0.8389893c-0.4280396-0.2099533-0.9130402-0.3149261-1.4550018-0.3149261
			s-1.0269623,0.1049728-1.4558258,0.3149261c-0.4280243,0.2099533-0.786087,0.4898834-1.0749664,0.8389893
			c-0.2880707,0.3499146-0.5069733,0.7649307-0.6550751,1.2458649c-0.1489258,0.4809341-0.2229767,0.9927826-0.2229767,1.5339355
			v7.0805283h-3.9337158v-7.0805283c0-1.0310364,0.1790314-2.0018463,0.5379028-2.91082
			c0.3580475-0.9089661,0.8601379-1.70401,1.5070801-2.3859406s1.4208221-1.2198257,2.3208466-1.6128769
			C208.7872314,68.9493332,209.7791901,68.7532196,210.8631287,68.7532196z"/>
		<path style="fill:#1C1C1C;" d="M235.2775421,76.2528305c0,1.0318451-0.2058716,2.0018463-0.6168213,2.91082
			c-0.4109497,0.9089661-0.9700012,1.7048264-1.6779785,2.3867569c-0.707962,0.6819305-1.5339355,1.2190094-2.47789,1.6128693
			c-0.9447784,0.3930511-1.958725,0.5899811-3.0426483,0.5899811c-1.0839386,0-2.0978851-0.1969299-3.0418396-0.5899811
			c-0.9439545-0.3938599-1.769928-0.9309387-2.4779053-1.6128693c-0.707962-0.6819305-1.2678375-1.4777908-1.6779633-2.3867569
			c-0.4109497-0.9089737-0.6168365-1.8789749-0.6168365-2.91082c0-1.0310364,0.2058868-2.0018463,0.6168365-2.91082
			c0.4101257-0.9089661,0.9700012-1.70401,1.6779633-2.3859406c0.7079773-0.6819305,1.5339508-1.2198257,2.4779053-1.6128769
			c0.9439545-0.3938599,1.957901-0.5899734,3.0418396-0.5899734c1.0839233,0,2.0978699,0.1961136,3.0426483,0.5899734
			c0.9439545,0.3930511,1.769928,0.9309464,2.47789,1.6128769c0.7079773,0.6819305,1.2670288,1.4769745,1.6779785,2.3859406
			C235.0716705,74.2509842,235.2775421,75.2217941,235.2775421,76.2528305z M231.3438263,76.2528305
			c0-0.541153-0.1009064-1.0530014-0.3018951-1.5339355c-0.201004-0.4809341-0.476059-0.8959503-0.8259735-1.2458649
			c-0.3499146-0.3491058-0.7600403-0.6290359-1.2328491-0.8389893c-0.4719696-0.2099533-0.9789429-0.3149261-1.5209045-0.3149261
			s-1.0489349,0.1049728-1.5209198,0.3149261s-0.8829346,0.4898834-1.2320404,0.8389893
			c-0.3499146,0.3499146-0.6257782,0.7649307-0.8259583,1.2458649c-0.2018127,0.4809341-0.3019104,0.9927826-0.3019104,1.5339355
			c0,0.5419617,0.1000977,1.0538177,0.3019104,1.5339355c0.2001801,0.4809341,0.4760437,0.8967667,0.8259583,1.2458649
			c0.3491058,0.3499222,0.7600555,0.6290436,1.2320404,0.8389893c0.4719849,0.2099533,0.9789581,0.3149261,1.5209198,0.3149261
			s1.0489349-0.1049728,1.5209045-0.3149261c0.4728088-0.2099457,0.8829346-0.4890671,1.2328491-0.8389893
			c0.3499146-0.3490982,0.6249695-0.7649307,0.8259735-1.2458649
			C231.2429199,77.3066483,231.3438263,76.7947922,231.3438263,76.2528305z"/>
	</g>
	<g>
		<g>
			<polygon style="fill:#1C1C1C;" points="148.5333099,16.666666 157.4000397,16.666666 142.2163391,53.3333092 
				135.1850281,53.3333092 120.0000153,16.666666 128.8654175,16.666666 138.7000122,41.0094719 			"/>
			<path style="fill:#1C1C1C;" d="M178.1934357,33.777771h9.681427c0.5427094,0,1.0959625-0.1266937,1.6545105-0.3814087
				c0.5611877-0.2547112,1.0537109-0.6031265,1.4788818-1.0439224c0.4238586-0.4407978,0.7711334-0.9594612,1.0431519-1.5533504
				c0.2720032-0.5925655,0.4093323-1.2313251,0.4093323-1.9096775c0-0.6796722-0.1373291-1.3157902-0.4093323-1.9096775
				c-0.2720184-0.5938892-0.6192932-1.1125546-1.0431519-1.5533504c-0.4251709-0.4394779-0.9176941-0.7892113-1.4788818-1.0439224
				c-0.558548-0.2547092-1.1118011-0.3814068-1.6545105-0.3814068h-9.681427V33.777771z M178.1934357,53.3338394h-8.1523743
				V16.6671944h8.1523743h10.0881348c1.6980743,0,3.2944794,0.3233433,4.7892151,0.9687004
				c1.4947205,0.6440372,2.8032837,1.5190334,3.9230042,2.6210251c1.1223907,1.1033154,2.0044403,2.3953514,2.6514282,3.8708324
				c0.6443939,1.4754829,0.9665833,3.0644608,0.9665833,4.7616596c0,1.3237133-0.2033539,2.5814342-0.6100464,3.7678871
				c-0.4080048,1.1890984-0.9691925,2.2844925-1.682251,3.2848625c-0.7143555,1.0030098-1.5633698,1.8766899-2.5471191,2.6236649
				c-0.9863586,0.7456589-2.0559082,1.342186-3.2099762,1.7829857l9.9864655,12.9850273h-9.5797729l-9.1717529-12.2222099
				h-5.6039124V53.3338394z"/>
			<path style="fill:#1C1C1C;" d="M217.3994446,47.2139015c1.0523834,0,2.0440216-0.2034988,2.9815369-0.6131439
				c0.9322205-0.4070015,1.7390137-0.9501076,2.4190369-1.6306419c0.6786957-0.6792183,1.2214203-1.4866142,1.6307526-2.4221878
				c0.4066925-0.9342537,0.6113586-1.9279747,0.6113586-2.9824753c0-1.0545044-0.2046661-2.0468979-0.6113586-2.9824715
				c-0.4093323-0.9342537-0.9520569-1.7429733-1.6307526-2.4235077c-0.6800232-0.6792183-1.4868164-1.2236519-2.4190369-1.6306496
				c-0.9375153-0.4083252-1.9291534-0.6118259-2.9815369-0.6118259c-1.0537109,0-2.0466766,0.2035007-2.9802246,0.6118259
				c-0.9361877,0.4069977-1.7416534,0.9514313-2.4203644,1.6306496c-0.6813354,0.6805344-1.2240295,1.489254-1.6320496,2.4235077
				c-0.4066925,0.9355736-0.6100616,1.9279671-0.6100616,2.9824715c0,1.0545006,0.2033691,2.0482216,0.6100616,2.9824753
				c0.40802,0.9355736,0.9507141,1.7429695,1.6320496,2.4221878c0.6787109,0.6805344,1.4841766,1.2236404,2.4203644,1.6306419
				C215.3527679,47.0104027,216.3457336,47.2139015,217.3994446,47.2139015 M217.2462769,24.9821167
				c2.0717468,0,4.0325928,0.3818951,5.8838501,1.1470032c1.8525848,0.7651138,3.4569092,1.8103676,4.8156433,3.1357613
				c1.3587189,1.3254013,2.4375153,2.874115,3.2363739,4.6395531c0.7975464,1.7707214,1.1963196,3.6550827,1.1963196,5.6610184
				v13.7666855h-7.1329803v-3.4145813c-0.8833771,1.2910385-2.0216064,2.3191109-3.4133453,3.082901
				c-1.3930511,0.76511-2.9208069,1.1483269-4.5858612,1.1483269c-2.1060944,0-4.0761871-0.3832169-5.9102783-1.1483269
				c-1.8340759-0.7637901-3.4318237-1.8103638-4.7905426-3.1331177c-1.3574066-1.3280411-2.436203-2.8741188-3.2350616-4.640873
				c-0.7988739-1.7693939-1.1963196-3.6550827-1.1963196-5.6610146c0-2.0059357,0.3974457-3.8902969,1.1963196-5.6610184
				c0.7988586-1.7654381,1.877655-3.3141518,3.2350616-4.6395531c1.3587189-1.3253937,2.9564667-2.3706474,4.7905426-3.1357613
				C213.1700897,25.3640118,215.1401825,24.9821167,217.2462769,24.9821167"/>
			<polygon style="fill:#1C1C1C;" points="238.0462494,62.5000114 246.5568542,62.5000114 263.2368469,25.8333454 
				254.9326477,25.8333454 247.7481537,41.7014656 240.6151733,25.8333454 232.3096161,25.8333454 243.6218262,50.1201935 			"/>
			<rect x="154.3204803" y="33.8638115" style="fill:#1C1C1C;" width="11.5511637" height="7.1636105"/>
		</g>
	</g>
</g>
<g id="Products_2_">
</g>
<g id="Products_3_">
</g>
<g id="Products_4_">
</g>
<g id="Products_5_">
</g>
<g id="Products_6_">
</g>
<g id="Products_7_">
</g>
</svg>
